<?xml version="1.0" encoding="utf-8"?>
<!-- Generator: Adobe Illustrator 22.0.0, SVG Export Plug-In . SVG Version: 6.00 Build 0)  -->
<svg version="1.1" id="Layer_1" xmlns="http://www.w3.org/2000/svg" xmlns:xlink="http://www.w3.org/1999/xlink" x="0px" y="0px"
	 viewBox="0 0 1366 768" style="enable-background:new 0 0 1366 768;" xml:space="preserve">
<style type="text/css">
	.st0{fill:none;stroke:#0B00C3;stroke-width:7;stroke-miterlimit:10;}
	.st1{fill:#0A01BD;stroke:#000000;stroke-width:0.5;stroke-miterlimit:10;}
	.st2{fill:#0B00C3;stroke:#000000;stroke-width:0.5;stroke-miterlimit:10;}
	.st3{fill:#0A00B1;stroke:#000000;stroke-width:0.5;stroke-miterlimit:10;}
	.st4{fill:#0B00BF;}
</style>
<polygon class="st0" points="65.6,219.8 367.5,219.8 367.5,262.2 409.8,262.2 409.8,505.8 367.5,505.8 367.5,548.2 65.6,548.2 
	65.6,505.8 18.1,505.8 18.1,262.2 65.6,262.2 "/>
<rect x="36.3" y="264.5" class="st1" width="10.7" height="238.5"/>
<rect x="381" y="264.5" class="st1" width="10.7" height="238.5"/>
<rect x="68" y="233.3" class="st1" width="296.7" height="10.7"/>
<rect x="68" y="519.3" class="st1" width="296.7" height="10.7"/>
<g>
	<path class="st2" d="M133.6,333.9V360h-2.8c-3.3-15.8-11.2-23.8-23.8-23.8c-7,0-12.1,2.8-14.9,7.9c-3.3,5.6-4.7,16.8-4.7,34
		c0,14.4,0.5,24.2,1.9,29.3c1.4,5.1,3.7,8.8,7,11.2c3.3,2.3,7,3.3,11.2,3.3c5.1,0,10.2-1.9,14.9-6.1c4.7-4.2,8.4-10.2,10.7-19.1h3.3
		l-1.4,27h-2.8c-0.9-2.8-2.8-5.1-4.7-7c-7,5.6-14,8.8-21.4,8.8c-9.3,0-17.7-4.2-25.6-13S68.9,393.1,68.9,380s3.7-24.2,11.2-33.1
		c7.5-8.8,16.3-13.5,26.1-13.5c7.5,0,14.4,2.8,20,8.4c1.9-2.8,2.8-5.1,3.7-7h3.7C133.6,334.9,133.6,333.9,133.6,333.9z"/>
	<path class="st2" d="M162.5,420.1v-82h-14v-3.3h43.8v3.3h-14v37.7h38.2v-37.7h-14v-3.3h43.3v3.3h-14v81.5h14v3.3h-43.3v-3.3h14
		v-40.5h-38.2v40.5h14v3.3h-43.8v-3.3L162.5,420.1L162.5,420.1z"/>
	<path class="st2" d="M258,334.9h31.7l19.1,62.4h0.5l19.1-62.4h30.7v3.3h-13v81.5h13v3.3h-41.5v-3.3h13v-82.9l0,0l-26.1,86.6h-3.3
		l-26.5-86.6l0,0v83.4h13.5v3.3H258v-3.3h13v-82h-13V334.9z"/>
</g>
<g>
	<path class="st3" d="M70.3,275.7h4.2c2.8,0,4.2,0,5.1,0.5s1.4,0.5,2.3,1.4c0.5,0.5,0.9,1.4,0.9,1.9s0,1.9,0,4.2v7.5
		c0,1.9,0,3.3-0.5,3.7c0,0.5-0.5,0.9-0.9,1.4c-0.5,0.5-0.9,0.5-1.4,0.9c-0.5,0-1.4,0-2.8,0h-7V275.7z M75.9,279.4v14
		c0.9,0,1.4,0,1.4-0.5s0.5-1.4,0.5-2.8v-7.9c0-0.9,0-1.4,0-1.9s0-0.5-0.5-0.5C76.8,279.4,76.4,279.4,75.9,279.4z"/>
	<path class="st3" d="M90.3,275.7v21h-5.6v-21H90.3z"/>
	<path class="st3" d="M92.7,275.7h3.7c2.8,0,4.2,0,5.1,0.5c0.9,0,1.9,0.9,2.3,1.4c0.5,0.9,0.9,2.3,0.9,3.7c0,1.4,0,2.8-0.5,3.3
		c-0.5,0.5-1.4,0.9-2.3,0.9c0.9,0.5,1.9,0.5,2.3,0.9c0.5,0.5,0.5,0.9,0.5,1.4c0,0.5,0,1.4,0,3.3v5.6h-5.1v-7c0-0.9,0-1.9-0.5-1.9
		c0-0.5-0.5-0.5-1.4-0.5v9.3h-5.6v-21C92.2,275.7,92.7,275.7,92.7,275.7z M98.2,279.4v4.7c0.5,0,0.9,0,1.4-0.5
		c0.5,0,0.5-0.9,0.5-1.9v-0.9c0-0.5,0-0.9-0.5-1.4C99.2,279.4,98.7,279.4,98.2,279.4z"/>
	<path class="st3" d="M106.6,275.7h8.8v4.2h-3.7v4.2h3.3v4.2h-3.3v4.7h4.7v4.2h-9.3v-21.4C107.1,275.7,106.6,275.7,106.6,275.7z"/>
	<path class="st3" d="M130.4,285h-5.6v-3.7c0-0.9,0-1.9,0-1.9c0-0.5-0.5-0.5-0.9-0.5c-0.5,0-0.9,0-0.9,0.5c0,0.5,0,0.9,0,1.9v9.8
		c0,0.9,0,1.9,0,1.9c0,0.5,0.5,0.5,0.9,0.5c0.5,0,0.5,0,0.9-0.5c0-0.5,0-0.9,0-2.3v-2.8h5.6v0.9c0,2.3,0,3.7-0.5,4.7
		s-0.9,1.9-1.9,2.3c-0.9,0.5-2.3,0.9-3.7,0.9s-2.8-0.5-3.7-0.9s-1.9-1.4-1.9-2.3c-0.5-0.9-0.5-2.3-0.5-4.7v-6.1c0-1.4,0-2.8,0-3.3
		c0-0.9,0.5-1.4,0.9-2.3c0.5-0.5,1.4-1.4,2.3-1.9c0.9-0.5,1.9-0.5,3.3-0.5c1.4,0,2.8,0.5,4.2,0.9c0.9,0.5,1.9,1.4,1.9,2.3
		c-0.5,1.4-0.5,2.8-0.5,4.7V285z"/>
	<path class="st3" d="M145.3,285h-5.6v-3.7c0-0.9,0-1.9,0-1.9c0-0.5-0.5-0.5-0.9-0.5s-0.9,0-0.9,0.5c0,0.5,0,0.9,0,1.9v9.8
		c0,0.9,0,1.9,0,1.9c0,0.5,0.5,0.5,0.9,0.5s0.5,0,0.9-0.5c0-0.5,0-0.9,0-2.3v-2.8h5.6v0.9c0,2.3,0,3.7-0.5,4.7s-0.9,1.9-1.9,2.3
		c-0.9,0.5-2.3,0.9-3.7,0.9c-1.4,0-2.8-0.5-3.7-0.9s-1.9-1.4-1.9-2.3c-0.5-0.9-0.5-2.3-0.5-4.7v-6.1c0-1.4,0-2.8,0-3.3
		c0-0.9,0.5-1.4,0.9-2.3c0.5-0.5,1.4-1.4,2.3-1.9c0.9-0.5,1.9-0.5,3.3-0.5c1.4,0,2.8,0.5,4.2,0.9c0.9,0.5,1.9,1.4,1.9,2.3
		c0.5,0.9,0.5,2.3,0.5,4.2v2.8C146.2,285,145.3,285,145.3,285z"/>
	<path class="st3" d="M152.7,275.7v21h-5.6v-21H152.7z"/>
	<path class="st3" d="M167.2,287.8c0,2.3,0,3.7,0,4.7c0,0.9-0.5,1.9-0.9,2.3c-0.5,0.9-1.4,1.4-2.3,1.9c-0.9,0.5-1.9,0.5-3.3,0.5
		c-0.9,0-2.3,0-2.8-0.5c-0.9-0.5-1.4-0.9-2.3-1.9c-0.5-0.9-0.9-1.4-0.9-2.3c0-0.9,0-2.3,0-4.7v-3.7c0-2.3,0-3.7,0-4.7
		c0-0.9,0.5-1.9,0.9-2.3c0.5-0.9,1.4-1.4,2.3-1.9c0.9-0.5,1.9-0.5,3.3-0.5c0.9,0,2.3,0,2.8,0.5c0.9,0.5,1.4,0.9,2.3,1.9
		c0.5,0.9,0.9,1.4,0.9,2.3c0,0.9,0,2.3,0,4.7V287.8z M161.6,281.3c0-0.9,0-1.4,0-1.9c0-0.5-0.5-0.5-0.5-0.5c-0.5,0-0.5,0-0.5,0.5
		c0,0,0,0.9,0,1.9v9.8c0,1.4,0,1.9,0,2.3s0.5,0.5,0.5,0.5c0.5,0,0.5,0,0.9-0.5c0-0.5,0-0.9,0-2.3v-9.8H161.6z"/>
	<path class="st3" d="M181.6,275.7v21H177l-2.8-9.3v9.3h-4.7v-21h4.7l3.3,9.3v-9.3H181.6z"/>
	<path class="st3" d="M188.1,275.7h4.2c2.8,0,4.2,0,5.1,0.5c0.9,0.5,1.4,0.5,2.3,1.4c0.5,0.5,0.9,1.4,0.9,1.9s0,1.9,0,4.2v7.5
		c0,1.9,0,3.3-0.5,3.7c0,0.5-0.5,0.9-0.9,1.4c-0.5,0.5-0.9,0.5-1.4,0.9c-0.5,0-1.4,0-2.8,0h-7C188.1,297.1,188.1,275.7,188.1,275.7z
		 M193.7,279.4v14c0.9,0,1.4,0,1.4-0.5s0.5-1.4,0.5-2.8v-7.9c0-0.9,0-1.4,0-1.9s0-0.5-0.5-0.5C194.7,279.4,194.2,279.4,193.7,279.4z
		"/>
	<path class="st3" d="M203,275.7h8.8v4.2h-3.7v4.2h3.3v4.2h-3.3v4.7h4.2v4.2H203C203,297.1,203,275.7,203,275.7z"/>
	<path class="st3" d="M218.4,275.7h3.7c2.8,0,4.2,0,5.1,0.5c0.9,0,1.9,0.9,2.3,1.4c0.5,0.9,0.9,2.3,0.9,3.7c0,1.4,0,2.8-0.5,3.3
		s-1.4,0.9-2.3,0.9c0.9,0.5,1.9,0.5,2.3,0.9s0.5,0.9,0.5,1.4c0,0.5,0,1.4,0,3.3v5.6h-5.1v-7c0-0.9,0-1.9-0.5-1.9
		c0-0.5-0.5-0.5-1.4-0.5v9.3h-5.6L218.4,275.7L218.4,275.7z M224,279.4v4.7c0.5,0,0.9,0,1.4-0.5c0.5,0,0.5-0.9,0.5-1.9v-0.9
		c0-0.5,0-0.9-0.5-1.4C224.9,279.4,224.5,279.4,224,279.4z"/>
	<path class="st3" d="M232.8,275.7h8.8v4.2H238v4.2h3.3v4.2H238v4.7h4.2v4.2h-9.3V275.7z"/>
	<path class="st3" d="M244,275.7h4.2c2.8,0,4.2,0,5.1,0.5s1.4,0.5,2.3,1.4c0.5,0.5,0.9,1.4,0.9,1.9s0,1.9,0,4.2v7.5
		c0,1.9,0,3.3-0.5,3.7c0,0.5-0.5,0.9-0.9,1.4c-0.5,0.5-0.9,0.5-1.4,0.9c-0.5,0-1.4,0-2.8,0h-7C244,297.1,244,275.7,244,275.7z
		 M249.2,279.4v14c0.9,0,1.4,0,1.4-0.5s0.5-1.4,0.5-2.8v-7.9c0-0.9,0-1.4,0-1.9s0-0.5-0.5-0.5C250.1,279.4,250.1,279.4,249.2,279.4z
		"/>
	<path class="st3" d="M263.1,275.7h4.2c2.8,0,4.2,0,5.1,0.5c0.9,0.5,1.4,0.5,2.3,1.4c0.5,0.5,0.9,1.4,0.9,1.9s0,1.9,0,4.2v7.5
		c0,1.9,0,3.3-0.5,3.7c0,0.5-0.5,0.9-0.9,1.4c-0.5,0.5-0.9,0.5-1.4,0.9c-0.5,0-1.4,0-2.8,0h-7C263.1,297.1,263.1,275.7,263.1,275.7z
		 M268.7,279.4v14c0.9,0,1.4,0,1.4-0.5s0.5-1.4,0.5-2.8v-7.9c0-0.9,0-1.4,0-1.9s0-0.5-0.5-0.5C269.6,279.4,269.2,279.4,268.7,279.4z
		"/>
	<path class="st3" d="M277.6,275.7h8.8v4.2h-3.7v4.2h3.3v4.2h-3.3v4.7h4.2v4.2h-9.3C277.6,297.1,277.6,275.7,277.6,275.7z"/>
	<path class="st3" d="M305,282.2h-5.1v-1.4c0-0.9,0-1.4,0-1.4l-0.5-0.5c-0.5,0-0.5,0-0.9,0.5c0,0.5-0.5,0.5-0.5,1.4
		c0,0.9,0,1.4,0.5,1.4c0,0.5,0.5,0.9,1.4,1.4c2.3,1.4,3.7,2.8,4.7,3.7c0.5,0.9,0.9,2.3,0.9,4.7c0,1.4,0,2.8-0.5,3.3
		c-0.5,0.9-0.9,1.4-1.9,1.9c-0.9,0.5-2.3,0.9-3.3,0.9c-1.4,0-2.8-0.5-3.7-0.9c-0.9-0.5-1.9-1.4-1.9-2.3c-0.5-0.9-0.5-1.9-0.5-3.7
		v-1.4h4.2v2.3c0,0.9,0,1.4,0,1.4s0.5,0.5,0.9,0.5c0.5,0,0.5,0,0.9-0.5c0-0.5,0.5-0.9,0.5-1.4c0-1.4,0-1.9-0.5-2.3
		c-0.5-0.5-1.4-0.9-2.3-1.9c-1.4-0.9-2.3-1.4-2.8-1.9c-0.5-0.5-0.9-0.9-0.9-1.9c-0.5-0.9-0.5-1.4-0.5-2.8c0-1.4,0-2.8,0.5-3.7
		c0.5-0.9,0.9-1.4,1.9-1.9c0.9-0.5,1.9-0.5,3.3-0.5c1.4,0,2.8,0,3.7,0.5c0.9,0.5,1.9,0.9,1.9,1.9c0.5,0.5,0.5,1.9,0.5,3.7V282.2z"/>
	<path class="st3" d="M316.7,275.7l3.3,21h-5.6l-0.5-3.7H312l-0.5,3.7H306l2.8-21H316.7z M313.4,289.2c-0.5-2.3-0.5-5.1-0.9-8.8
		c-0.5,4.2-0.9,7-0.9,8.8H313.4z"/>
	<path class="st3" d="M326,275.7v16.8h3.3v4.2h-8.8v-21H326z"/>
	<path class="st3" d="M342.8,275.7v14c0,1.4,0,2.8,0,3.3s-0.5,1.4-0.9,1.9c-0.5,0.5-1.4,1.4-1.9,1.4c-0.9,0.5-1.9,0.5-2.8,0.5
		c-1.4,0-2.3,0-3.3-0.5s-1.9-0.9-2.3-1.4c-0.5-0.5-0.9-1.4-0.9-2.3c0-0.9,0-2.3,0-4.7v-12.6h5.6v15.8c0,0.9,0,1.4,0,1.9
		s0.5,0.5,0.5,0.5c0.5,0,0.5,0,0.5-0.5s0-0.9,0-1.9v-15.4H342.8z"/>
	<path class="st3" d="M345.1,275.7h4.2c2.8,0,4.2,0,5.1,0.5c0.9,0.5,1.4,0.5,2.3,1.4c0.5,0.5,0.9,1.4,0.9,1.9s0,1.9,0,4.2v7.5
		c0,1.9,0,3.3-0.5,3.7c0,0.5-0.5,0.9-0.9,1.4c-0.5,0.5-0.9,0.5-1.4,0.9c-0.5,0-1.4,0-2.8,0h-7V275.7z M350.7,279.4v14
		c0.9,0,1.4,0,1.4-0.5s0.5-1.4,0.5-2.8v-7.9c0-0.9,0-1.4,0-1.9s0-0.5-0.5-0.5C351.6,279.4,351.2,279.4,350.7,279.4z"/>
</g>
<g>
	<path class="st2" d="M92.7,461.1v14c0,1.4,0,2.8,0,3.3c0,0.5-0.5,1.4-0.9,1.9c-0.5,0.5-1.4,1.4-1.9,1.4c-0.9,0.5-1.9,0.5-2.8,0.5
		c-1.4,0-2.3,0-3.3-0.5c-0.9-0.5-1.9-0.9-2.3-1.4c-0.5-0.5-0.9-1.4-0.9-2.3c0-0.9,0-2.3,0-4.7v-12.6h5.6v15.8c0,0.9,0,1.4,0,1.9
		c0,0.5,0.5,0.5,0.5,0.5c0.5,0,0.5,0,0.5-0.5c0-0.5,0-0.9,0-1.9v-15.4H92.7z"/>
	<path class="st2" d="M98.2,477.8v4.2h-3.7v-4.2H98.2z"/>
	<path class="st2" d="M99.6,461.1h8.8v4.2h-3.7v4.2h3.3v4.2h-3.3v4.7h4.2v4.2h-9.3V461.1z"/>
	<path class="st2" d="M114.1,477.8v4.2h-3.7v-4.2H114.1z"/>
	<path class="st2" d="M130.9,461.1v13.5h1.4v3.7h-1.4v3.7h-5.1v-3.7h-6.1v-3.7l4.7-13.5H130.9z M125.7,474.6v-8.8l-2.3,8.8H125.7z"
		/>
	<path class="st2" d="M145.8,468.1v7c0,1.4,0,2.8-0.5,3.3c-0.5,0.5-0.5,1.4-0.9,1.9c-0.5,0.5-1.4,0.9-1.9,1.4
		c-0.9,0.5-1.4,0.5-2.8,0.5s-2.3,0-3.3-0.5c-0.9-0.5-1.4-0.9-1.9-1.4c-0.5-0.5-0.9-1.4-0.9-1.9c0-0.5-0.5-1.9-0.5-3.3v-7.5
		c0-1.9,0-3.3,0.5-4.2c0.5-0.9,0.9-1.9,1.9-2.3c0.9-0.5,2.3-0.9,3.7-0.9c0.9,0,2.3,0,3.3,0.5c0.9,0.5,1.4,0.9,1.9,1.4
		c0.5,0.5,0.9,1.4,0.9,1.9C145.8,465.3,145.8,466.7,145.8,468.1z M140.6,466.2c0-0.9,0-1.9,0-1.9c0-0.5-0.5-0.5-0.9-0.5
		c-0.5,0-0.5,0-0.9,0.5c0,0.5,0,0.9,0,1.9v10.2c0,1.4,0,1.9,0,2.3c0,0.5,0.5,0.5,0.9,0.5c0.5,0,0.5,0,0.9-0.5c0.5-0.5,0-0.9,0-1.9
		V466.2z"/>
	<path class="st2" d="M160.2,466.7h-5.1c0-0.9,0-1.4,0-1.9c0-0.5,0-0.5-0.5-0.5c0,0-0.5-0.5-0.9-0.5c-0.5,0-0.5,0-0.5,0.5l-0.5,0.5
		c0,0,0,0.9,0,1.4v3.3c0.5-0.5,0.5-0.9,1.4-1.4c0.5-0.5,0.9-0.5,1.9-0.5s1.9,0.5,2.3,0.9c0.5,0.5,1.4,0.9,1.4,1.9
		c0,0.9,0.5,1.9,0.5,2.8v1.9c0,1.4,0,2.3,0,3.3s-0.5,1.4-0.9,1.9c-0.5,0.5-0.9,0.9-1.9,1.4c-0.9,0.5-1.9,0.5-2.8,0.5
		c-1.4,0-2.3,0-3.3-0.5c-0.9-0.5-1.4-0.9-1.9-1.9c-0.5-0.9-0.9-1.4-0.9-2.3s0-2.3,0-4.7v-2.8c0-2.3,0-4.2,0-5.1s0.5-1.9,0.9-2.3
		c0.5-0.9,1.4-1.4,2.3-1.9c0.9-0.5,1.9-0.5,3.3-0.5c1.4,0,2.8,0.5,3.7,0.9c0.9,0.5,1.4,0.9,1.9,1.9
		C160.2,464.3,160.2,465.3,160.2,466.7z M155.1,473.2c0-0.9,0-1.4-0.5-1.4c0-0.5-0.5-0.5-0.9-0.5c-0.5,0-0.5,0-0.9,0.5
		c0,0.5-0.5,0.9-0.5,1.4v3.7c0,0.9,0,1.4,0.5,1.9c0,0.5,0.5,0.5,0.9,0.5c0,0,0.5,0,0.5-0.5c0.5,0,0.5-0.9,0.5-1.9v-3.7H155.1z"/>
	<path class="st2" d="M178.4,467.6h-5.1v-1.4c0-0.9,0-1.4,0-1.4l-0.5-0.5c-0.5,0-0.5,0-0.9,0.5c0,0.5-0.5,0.5-0.5,1.4
		c0,0.5,0,1.4,0.5,1.4c0,0.5,0.5,0.9,1.4,1.4c2.3,1.4,3.7,2.8,4.7,3.7c0.5,0.9,0.9,2.3,0.9,4.7c0,1.4,0,2.8-0.5,3.3
		c-0.5,0.9-0.9,1.4-1.9,1.9c-0.9,0.5-2.3,0.9-3.3,0.9c-1.4,0-2.8-0.5-3.7-0.9c-0.9-0.5-1.9-1.4-1.9-2.3c-0.5-0.9-0.5-1.9-0.5-3.7
		v-1.4h5.1v2.3c0,0.9,0,1.4,0,1.4s0.5,0.5,0.9,0.5s0.5,0,0.9-0.5c0-0.5,0.5-0.9,0.5-1.4c0-1.4,0-1.9-0.5-2.3
		c-0.5-0.5-1.4-0.9-2.3-1.9c-1.4-0.9-2.3-1.4-2.8-1.9c-0.5-0.5-0.9-0.9-0.9-1.9c-0.5-0.9-0.5-1.4-0.5-2.8c0-1.4,0-2.8,0.5-3.7
		c0.5-0.9,0.9-1.4,1.9-1.9c0.9-0.5,1.9-0.5,3.3-0.5c1.4,0,2.8,0,3.7,0.5c0.9,0.5,1.9,0.9,1.9,1.9c0.5,0.5,0.5,1.9,0.5,3.7v0.9H178.4
		z"/>
	<path class="st2" d="M180.7,461.1h5.6c1.9,0,2.8,0,3.7,0.5c0.9,0.5,1.4,0.9,2.3,1.4c0.5,0.9,0.9,2.3,0.9,3.7c0,1.4,0,1.9-0.5,2.3
		c-0.5,0.5-0.9,0.9-2.3,0.9c1.4,0.5,2.3,0.9,2.3,1.4c0.5,0.5,0.5,1.9,0.5,3.3v1.9c0,1.4,0,2.3-0.5,3.3c-0.5,0.5-0.9,0.9-1.4,1.4
		c-0.9,0.5-2.3,0.5-4.2,0.5h-6.5V461.1z M185.8,464.8v4.7h0.5c0.5,0,0.9,0,0.9-0.5c0-0.5,0-0.9,0-2.3c0-0.5,0-0.9,0-1.4
		s-0.5-0.5-0.5-0.5C186.7,464.8,186.3,464.8,185.8,464.8z M185.8,472.7v6.1c0.9,0,1.4,0,1.4-0.5c0,0,0.5-0.9,0.5-1.4v-1.9
		c0-0.9,0-1.4-0.5-1.4C187.2,472.7,186.7,472.7,185.8,472.7z"/>
	<path class="st2" d="M206.8,467.6h-5.1v-1.4c0-0.9,0-1.4,0-1.4l-0.5-0.5c-0.5,0-0.5,0-0.9,0.5c0,0.5-0.5,0.5-0.5,1.4
		c0,0.5,0,1.4,0.5,1.4c0,0.5,0.5,0.9,1.4,1.4c2.3,1.4,3.7,2.8,4.7,3.7c0.5,0.9,0.9,2.3,0.9,4.7c0,1.4,0,2.8-0.5,3.3
		c-0.5,0.9-0.9,1.4-1.9,1.9c-0.9,0.5-2.3,0.9-3.3,0.9c-1.4,0-2.8-0.5-3.7-0.9c-0.9-0.5-1.9-1.4-1.9-2.3c-0.5-0.9-0.5-1.9-0.5-3.7
		v-1.4h5.1v2.3c0,0.9,0,1.4,0,1.4s0.5,0.5,0.9,0.5s0.5,0,0.9-0.5c0-0.5,0.5-0.9,0.5-1.4c0-1.4,0-1.9-0.5-2.3
		c-0.5-0.5-1.4-0.9-2.3-1.9c-1.4-0.9-2.3-1.4-2.8-1.9c-0.5-0.5-0.9-0.9-0.9-1.9c-0.5-0.9-0.5-1.4-0.5-2.8s0-2.8,0.5-3.7
		c0.5-0.9,0.9-1.4,1.9-1.9c0.9-0.5,1.9-0.5,3.3-0.5c1.4,0,2.8,0,3.7,0.5c0.9,0.5,1.9,0.9,1.9,1.9c0.5,0.5,0.5,1.9,0.5,3.7v0.9
		C207.7,467.6,206.8,467.6,206.8,467.6z"/>
	<path class="st2" d="M226.3,470.4h-5.6v-3.7c0-0.9,0-1.9,0-1.9c0-0.5-0.5-0.5-0.9-0.5c-0.5,0-0.9,0-0.9,0.5c0,0.5,0,0.9,0,1.9v9.8
		c0,0.9,0,1.9,0,1.9c0,0.5,0.5,0.5,0.9,0.5c0.5,0,0.5,0,0.9-0.5c0-0.5,0-0.9,0-2.3v-2.8h5.6v0.9c0,2.3,0,3.7-0.5,4.7
		s-0.9,1.9-1.9,2.3c-0.9,0.5-2.3,0.9-3.7,0.9c-1.4,0-2.8-0.5-3.7-0.9c-0.9-0.5-1.9-1.4-1.9-2.3c-0.5-0.9-0.5-2.3-0.5-4.7v-6.1
		c0-1.4,0-2.8,0-3.3c0-0.5,0.5-1.4,0.9-2.3c0.5-0.5,1.4-1.4,2.3-1.9c0.9-0.5,1.9-0.5,3.3-0.5c1.4,0,2.8,0.5,4.2,0.9
		c0.9,0.5,1.9,1.4,1.9,2.3c0.5,0.9,0.5,2.3,0.5,4.2v2.8H226.3z"/>
	<path class="st2" d="M240.8,461.1v21h-5.6v-8.8h-1.4v8.8h-5.6v-21h5.6v7.5h1.4v-7.5H240.8z"/>
	<path class="st2" d="M248.2,461.1v21h-5.6v-21H248.2z"/>
	<path class="st2" d="M255.7,461.1v16.8h3.3v4.2h-8.8v-21H255.7z"/>
	<path class="st2" d="M272.9,470.4h-5.6v-3.7c0-0.9,0-1.9,0-1.9c0-0.5-0.5-0.5-0.9-0.5c-0.5,0-0.9,0-0.9,0.5c0,0.5,0,0.9,0,1.9v9.8
		c0,0.9,0,1.9,0,1.9c0,0.5,0.5,0.5,0.9,0.5s0.5,0,0.9-0.5c0-0.5,0-0.9,0-2.3v-2.8h5.6v0.9c0,2.3,0,3.7-0.5,4.7
		c-0.5,0.9-0.9,1.9-1.9,2.3c-0.9,0.5-2.3,0.9-3.7,0.9c-1.4,0-2.8-0.5-3.7-0.9c-0.9-0.5-1.9-1.4-1.9-2.3c-0.5-0.9-0.5-2.3-0.5-4.7
		v-6.1c0-1.4,0-2.8,0-3.3c0-0.5,0.5-1.4,0.9-2.3c0.5-0.5,1.4-1.4,2.3-1.9c0.9-0.5,1.9-0.5,3.3-0.5c1.4,0,2.8,0.5,4.2,0.9
		c0.9,0.5,1.9,1.4,1.9,2.3c0.5,0.9,0.5,2.3,0.5,4.2v2.8H272.9z"/>
	<path class="st2" d="M284.1,461.1l3.3,21h-5.6l-0.5-3.7h-1.9L279,482h-5.6l2.8-21H284.1z M281.3,474.6c-0.5-2.3-0.5-5.1-0.9-8.8
		c-0.5,4.2-0.9,7-0.9,8.8H281.3z"/>
	<path class="st2" d="M309.7,461.1v21H305v-14l-1.9,14h-3.3l-1.9-14v14h-4.7v-21h7c0,1.4,0.5,2.8,0.5,4.7l0.9,5.1l1.4-9.8H309.7z"/>
	<path class="st2" d="M321.3,461.1l3.3,21H319l-0.5-3.7h-1.9l-0.5,3.7h-5.6l2.8-21H321.3z M318.5,474.6c-0.5-2.3-0.5-5.1-0.9-8.8
		c-0.5,4.2-0.9,7-0.9,8.8H318.5z"/>
	<path class="st2" d="M330.7,461.1v16.8h3.3v4.2h-8.8v-21H330.7z"/>
	<path class="st2" d="M345.6,461.1l3.3,21h-5.6l-0.5-3.7h-1.9l-0.5,3.7h-5.6l2.8-21H345.6z M342.3,474.6c-0.5-2.3-0.5-5.1-0.9-8.8
		c-0.5,4.2-0.9,7-0.9,8.8H342.3z"/>
</g>
<g>
	<g>
		<path class="st4" d="M425.7,304.5h12.4c8,0,13.8,0.4,16.4,0.9c3.1,0.4,5.3,2.2,7.1,4.9c1.8,2.7,2.7,6.7,2.7,12.4
			c0,5.3-0.4,8.9-1.8,10.7s-4,2.7-7.6,3.1c3.6,0.9,5.8,1.8,7.1,3.6c1.3,1.3,1.8,2.7,2.2,4c0.4,1.3,0.4,4.4,0.4,9.8v17.8h-16v-22.2
			c0-3.6-0.4-5.8-0.9-6.7c-0.4-0.9-2.2-1.3-4.4-1.3v30.2h-17.8V304.5z M443,315.6v14.7c1.8,0,3.1-0.4,4-0.9c0.9-0.4,1.3-2.2,1.3-5.3
			v-3.6c0-2.2-0.4-3.6-1.3-4C446.5,316,445.2,315.6,443,315.6z"/>
		<path class="st4" d="M471.4,304.5h28.9v13.3h-11.5v12.4h10.7v12.9h-10.7v14.7h12.9v13.3h-30.2V304.5z"/>
		<path class="st4" d="M506.5,304.5h12.9c8.4,0,14.2,0.4,16.9,1.3c3.1,0.9,5.3,2.2,6.7,4c1.3,1.8,2.7,3.6,2.7,5.8
			c0.4,2.2,0.4,6.2,0.4,12.9V352c0,5.8-0.4,9.8-0.9,12c-0.4,2.2-1.3,3.6-3.1,4.9c-1.3,1.3-3.1,1.8-5.3,2.2c-2.2,0.4-5.3,0.9-9.3,0.9
			h-21.8v-67.5H506.5z M523.8,315.6v44c2.7,0,4-0.4,4.4-1.3c0.4-0.9,0.9-3.6,0.9-8v-25.8c0-3.1,0-4.9-0.4-5.8c0-0.9-0.4-1.3-1.3-1.8
			C526.9,316,525.6,315.6,523.8,315.6z"/>
		<path class="st4" d="M567.8,304.5h12.9c8.4,0,14.2,0.4,16.9,1.3c3.1,0.9,5.3,2.2,6.7,4c1.3,1.8,2.7,3.6,2.7,5.8
			c0.4,2.2,0.4,6.2,0.4,12.9V352c0,5.8-0.4,9.8-0.9,12c-0.4,2.2-1.3,3.6-3.1,4.9c-1.3,1.3-3.1,1.8-5.3,2.2c-2.2,0.4-5.3,0.9-9.3,0.9
			h-20.9V304.5z M585.1,315.6v44c2.7,0,4-0.4,4.4-1.3s0.9-3.6,0.9-8v-25.8c0-3.1,0-4.9-0.4-5.8c0-0.9-0.4-1.3-1.3-1.8
			C588.2,316,586.9,315.6,585.1,315.6z"/>
		<path class="st4" d="M614.4,304.5h28.9v13.3h-11.5v12.4h10.7v12.9h-10.7v14.7h12.9v13.3h-30.2L614.4,304.5L614.4,304.5z"/>
		<path class="st4" d="M701,324.5h-16v-4.9c0-2.2,0-4-0.4-4.4c-0.4-0.4-0.9-0.9-2.2-0.9c-0.9,0-1.8,0.4-2.2,1.3
			c-0.4,0.9-0.9,2.2-0.9,4c0,2.2,0.4,4,0.9,4.9c0.4,1.3,2.2,2.7,4.9,4c7.5,4.4,12.4,8.4,14.7,11.1c2.2,3.1,3.1,7.6,3.1,14.2
			c0,4.9-0.4,8.4-1.8,10.7c-1.3,2.2-3.1,4-6.7,5.8c-3.1,1.3-7.1,2.2-11.1,2.2c-4.4,0-8.4-0.9-12-2.7c-3.6-1.8-5.3-4-6.7-6.7
			c-0.9-2.7-1.3-6.7-1.3-11.5v-4.4h16v8c0,2.7,0.4,4,0.9,4.9c0.4,0.9,1.3,0.9,2.2,0.9c0.9,0,2.2-0.4,2.7-1.3s0.9-2.2,0.9-4
			c0-4-0.4-6.7-1.8-7.6c-0.9-1.3-4-3.1-8-6.2c-4.4-2.7-7.1-4.9-8.4-6.2c-1.3-1.3-2.7-3.1-3.6-5.3c-0.9-2.2-1.3-5.3-1.3-8.9
			c0-5.3,0.4-8.9,1.8-11.1c1.3-2.2,3.6-4,6.2-5.3c3.1-1.3,6.2-1.8,10.7-1.8c4.4,0,8.4,0.9,11.5,2.2c3.1,1.3,5.3,3.1,6.2,5.3
			c0.9,2.2,1.3,5.8,1.3,11.1v2.7H701z"/>
		<path class="st4" d="M737.9,304.5l9.8,66.6h-17.8l-0.9-12h-5.8l-0.9,12h-17.8l8.9-66.6H737.9z M729,347.1
			c-0.9-7.6-1.8-16.9-2.7-28c-1.8,12.9-2.7,22.2-3.6,28H729z"/>
		<path class="st4" d="M768.1,304.5v53.3h10.7v13.3h-28v-66.6H768.1z"/>
		<path class="st4" d="M822.3,304.5v44.4c0,4.9,0,8.4-0.4,10.7c-0.4,2.2-1.3,4-3.1,6.2c-1.8,2.2-3.6,4-6.2,4.9
			c-2.7,1.3-5.8,1.8-9.3,1.8c-4,0-7.6-0.4-10.7-1.8s-5.3-3.1-6.7-5.3c-1.3-2.2-2.2-4.4-2.7-6.7c-0.4-2.2-0.4-7.1-0.4-14.7v-39.5
			h17.3v50.2c0,3.1,0,4.9,0.4,5.8c0.4,0.9,0.9,1.3,1.8,1.3s1.8-0.4,2.2-1.3s0.4-3.1,0.4-6.2v-49.7H822.3z"/>
		<path class="st4" d="M828.9,304.5h12.9c8.4,0,14.2,0.4,16.9,1.3c3.1,0.9,5.3,2.2,6.7,4s2.7,3.6,3.1,5.8c0.4,2.2,0.4,6.2,0.4,12.9
			V352c0,5.8-0.4,9.8-0.9,12c-0.4,2.2-1.3,3.6-3.1,4.9c-1.3,1.3-3.1,1.8-5.3,2.2c-2.2,0.4-5.3,0.9-9.3,0.9h-21.8L828.9,304.5
			L828.9,304.5z M846.7,315.6v44c2.7,0,4-0.4,4.4-1.3s0.9-3.6,0.9-8v-25.8c0-3.1,0-4.9-0.4-5.8c0-0.9-0.4-1.3-1.3-1.8
			C849.8,316,848.5,315.6,846.7,315.6z"/>
		<path class="st4" d="M931.1,333.4h-17.3v-11.5c0-3.6,0-5.3-0.4-6.2c-0.4-0.9-1.3-1.3-2.7-1.3s-2.2,0.4-2.7,1.3
			c-0.4,0.9-0.4,3.1-0.4,6.7v31.1c0,3.1,0,5.3,0.4,6.2s1.3,1.3,2.7,1.3s2.2-0.4,2.7-1.3s0.4-3.1,0.4-7.1V344h17.3v2.7
			c0,7.1-0.4,12-1.3,14.7c-0.9,2.7-3.1,5.3-6.7,7.6c-3.6,2.2-7.6,3.1-12.4,3.1s-9.3-0.9-12.4-2.7c-3.1-1.8-5.3-4.4-6.7-7.6
			c-0.9-3.1-1.8-8-1.8-14.7v-19.5c0-4.9,0-8.4,0.4-10.7c0.4-2.2,1.3-4.9,3.1-7.1c1.8-2.2,4-4,6.7-5.3c3.1-1.3,6.2-1.8,9.8-1.8
			c5.3,0,9.3,0.9,12.4,3.1c3.1,2.2,5.3,4.4,6.7,7.6c0.9,3.1,1.8,7.6,1.8,13.8v6.2H931.1z"/>
		<path class="st4" d="M977.3,304.5v66.6h-17.3v-28h-5.3v28h-17.3v-66.6h17.3v24h5.3v-24H977.3z"/>
		<path class="st4" d="M1001.7,304.5v66.6h-17.3v-66.6H1001.7z"/>
		<path class="st4" d="M1025.7,304.5v53.3h10.7v13.3h-28v-66.6H1025.7z"/>
		<path class="st4" d="M1079.9,333.4h-17.3v-11.5c0-3.6,0-5.3-0.4-6.2c-0.4-0.9-1.3-1.3-2.7-1.3c-1.3,0-2.2,0.4-2.7,1.3
			c-0.4,0.9-0.4,3.1-0.4,6.7v31.1c0,3.1,0,5.3,0.4,6.2c0.4,0.9,1.3,1.3,2.7,1.3c1.3,0,2.2-0.4,2.7-1.3c0.4-0.9,0.4-3.1,0.4-7.1V344
			h17.3v2.7c0,7.1-0.4,12-1.3,14.7c-0.9,2.7-3.1,5.3-6.7,7.6c-3.6,2.2-7.6,3.1-12.4,3.1c-4.9,0-9.3-0.9-12.4-2.7
			c-3.1-1.8-5.3-4.4-6.7-7.6c-0.9-3.1-1.8-8-1.8-14.7v-19.5c0-4.9,0-8.4,0.4-10.7c0.4-2.2,1.3-4.9,3.1-7.1c1.8-2.2,4-4,6.7-5.3
			c3.1-1.3,6.2-1.8,9.8-1.8c5.3,0,9.3,0.9,12.4,3.1c3.1,2.2,5.3,4.4,6.7,7.6c0.9,3.1,1.8,7.6,1.8,13.8v6.2H1079.9z"/>
		<path class="st4" d="M1115.8,304.5l9.8,66.6h-17.8l-0.9-12h-6.2l-0.9,12h-17.8l8.9-66.6H1115.8z M1107,347.1
			c-0.9-7.6-1.8-16.9-2.7-28c-1.8,12.9-2.7,22.2-3.6,28H1107z"/>
		<path class="st4" d="M1197.1,304.5v66.6H1182v-44.9l-5.8,44.9h-10.7l-6.2-44v44h-15.1v-66.6h22.7c0.9,4,1.3,8.9,2.2,14.2l2.7,16.9
			l4-31.1C1175.8,304.5,1197.1,304.5,1197.1,304.5z"/>
		<path class="st4" d="M1234.4,304.5l9.8,66.6h-17.8l-0.9-12h-6.2l-0.9,12h-17.8l8.9-66.6H1234.4z M1225.1,347.1
			c-0.9-7.6-1.8-16.9-2.7-28c-1.8,12.9-2.7,22.2-3.6,28H1225.1z"/>
		<path class="st4" d="M1264.6,304.5v53.3h10.7v13.3h-28v-66.6H1264.6z"/>
		<path class="st4" d="M1311.2,304.5l9.8,66.6h-17.8l-0.9-12h-6.2l-0.9,12h-17.8l8.9-66.6H1311.2z M1301.9,347.1
			c-0.9-7.6-1.8-16.9-2.7-28c-1.8,12.9-2.7,22.2-3.6,28H1301.9z"/>
	</g>
	<g>
		<path class="st4" d="M471.9,435.1H463v-2.7c0-1.3,0-2.2-0.4-2.2c-0.4-0.4-0.4-0.4-1.3-0.4c-0.4,0-0.9,0.4-1.3,0.9
			s-0.4,1.3-0.4,2.2c0,1.3,0,2.2,0.4,2.7c0.4,0.4,1.3,1.3,2.7,2.2c4.4,2.7,7.1,4.4,8,6.2c0.9,1.8,1.8,4.4,1.8,8
			c0,2.7-0.4,4.4-0.9,5.8s-1.8,2.2-3.6,3.1c-1.8,0.9-4,1.3-6.2,1.3c-2.7,0-4.9-0.4-6.7-1.3s-3.1-2.2-3.6-3.6
			c-0.4-1.3-0.9-3.6-0.9-6.2v-2.2h8.9v4.4c0,1.3,0,2.2,0.4,2.7c0.4,0.4,0.9,0.4,1.3,0.4s1.3-0.4,1.3-0.9c0.4-0.4,0.4-1.3,0.4-2.2
			c0-2.2-0.4-3.6-0.9-4.4c-0.4-0.9-2.2-1.8-4.4-3.6c-2.2-1.8-4-2.7-4.9-3.6c-0.9-0.9-1.3-1.8-1.8-3.1c-0.4-1.3-0.9-2.7-0.9-4.9
			c0-2.7,0.4-4.9,0.9-6.2c0.9-1.3,1.8-2.2,3.6-3.1c1.8-0.9,3.6-0.9,5.8-0.9c2.7,0,4.4,0.4,6.2,1.3c1.8,0.9,3.1,1.8,3.6,3.1
			c0.4,1.3,0.9,3.1,0.9,6.2v0.9H471.9z"/>
		<path class="st4" d="M496.3,446.2h-12v6.7c0,1.3,0,2.2,0.4,2.7c0,0.4,0.4,0.4,1.3,0.4s1.3-0.4,1.3-0.9c0.4-0.4,0.4-1.3,0.4-3.1v-4
			h8.9v2.2c0,1.8,0,3.1-0.4,4.4c-0.4,0.9-0.9,2.2-1.8,3.1c-0.9,1.3-1.8,1.8-3.1,2.7c-1.3,0.4-3.1,0.9-4.9,0.9s-3.6-0.4-5.3-0.9
			c-1.3-0.4-2.7-1.3-3.6-2.2c-0.9-0.9-1.3-2.2-1.8-3.1c-0.4-1.3-0.4-3.1-0.4-5.3v-8.9c0-2.7,0.4-4.9,0.9-6.2
			c0.9-1.3,1.8-2.7,3.6-3.6c1.8-0.9,3.6-1.3,5.8-1.3c2.7,0,4.9,0.4,6.2,1.3c1.8,0.9,2.7,2.2,3.6,4s0.9,4,0.9,6.7L496.3,446.2
			L496.3,446.2z M487,441.3v-2.2c0-1.8,0-2.7-0.4-3.1c0-0.4-0.4-0.9-0.9-0.9c-0.4,0-0.9,0-1.3,0.4c0,0.4-0.4,1.3-0.4,3.1v2.7H487z"
			/>
		<path class="st4" d="M508.7,430.6v2.7c0.9-1.3,1.3-1.8,2.7-2.7c0.9-0.4,2.2-0.9,3.6-0.9c1.8,0,2.7,0.4,4,1.3
			c1.3,0.9,1.8,1.8,1.8,2.7c0.4,1.3,0.4,3.1,0.4,5.8v21.3h-9.3V440c0-2.2,0-3.6,0-4s-0.4-0.9-1.3-0.9c-0.4,0-0.9,0.4-1.3,0.9
			c0,0.4-0.4,1.8-0.4,4v20.4h-9.3v-30.2h9.3V430.6z"/>
		<path class="st4" d="M542.5,440.4h-8v-1.8c0-1.3,0-2.2-0.4-2.7c0-0.4-0.4-0.4-1.3-0.4c-0.4,0-0.9,0-1.3,0.4
			c-0.4,0.4-0.4,0.9-0.4,1.3c0,0.9,0,1.8,0,2.2c0,0.4,0.4,0.9,1.3,1.3c0.4,0.4,1.8,1.3,4,2.2c2.7,1.3,4.4,2.7,5.3,3.6
			c0.9,0.9,1.3,2.7,1.3,4.9c0,2.7-0.4,4.4-0.9,5.8c-0.4,1.3-1.8,2.2-3.1,3.1c-1.3,0.9-3.1,0.9-5.3,0.9c-2.2,0-4.4-0.4-6.2-0.9
			c-1.8-0.9-2.7-1.8-3.6-3.1s-0.9-3.1-0.9-5.8v-1.3h8v1.8c0,1.8,0,2.7,0.4,3.1c0,0.4,0.4,0.9,1.3,0.9c0.4,0,0.9,0,1.3-0.4
			c0.4-0.4,0.4-0.9,0.4-2.2c0-1.3,0-2.2-0.4-2.7c-0.4-0.4-2.2-1.3-5.3-3.1c-2.7-1.3-4.4-3.1-4.9-4c-0.4-1.3-0.9-2.7-0.9-4.4
			c0-2.2,0.4-4,0.9-5.3c0.4-1.3,1.8-2.2,3.1-2.7c1.3-0.4,3.1-0.9,5.3-0.9c2.2,0,3.6,0.4,5.3,0.9c1.3,0.4,2.7,1.3,3.1,2.2
			c0.9,0.9,1.3,1.8,1.3,2.2c0,0.9,0.4,1.8,0.4,3.6C542.5,439.1,542.5,440.4,542.5,440.4z"/>
		<path class="st4" d="M555.4,424v4.9h-9.8V424H555.4z M555.4,430.6v30.2h-9.8v-30.2C545.6,430.6,555.4,430.6,555.4,430.6z"/>
		<path class="st4" d="M567.8,424v8.9c0.9-0.9,1.8-1.3,2.7-1.8c0.9-0.4,1.8-0.4,3.1-0.4c1.3,0,2.2,0,3.1,0.4
			c0.9,0.4,1.8,0.9,2.2,1.8s0.9,1.3,0.9,2.2s0,2.2,0,4.4v13.8c0,2.2,0,4-0.4,4.9c-0.4,0.9-0.9,2.2-2.2,2.7c-1.3,0.4-2.2,1.3-4,1.3
			c-0.9,0-2.2-0.4-3.1-0.9c-0.9-0.4-1.8-1.3-2.7-2.2l-0.4,2.2h-8.4v-36.9h9.3V424z M570.5,439.1c0-1.8,0-2.7-0.4-3.1
			c-0.4-0.4-0.4-0.9-1.3-0.9c-0.4,0-0.9,0-0.9,0.4c0,0.4-0.4,1.3-0.4,3.1v12.9c0,1.8,0,2.7,0.4,3.1c0,0.4,0.4,0.9,1.3,0.9
			c0.4,0,0.9-0.4,1.3-0.9c0-0.4,0.4-1.8,0.4-3.6v-12L570.5,439.1L570.5,439.1z"/>
		<path class="st4" d="M592.2,424v4.9h-9.3V424H592.2z M592.2,430.6v30.2h-9.3v-30.2C582.9,430.6,592.2,430.6,592.2,430.6z"/>
		<path class="st4" d="M605.1,424v36.9h-9.3V424C595.8,424,605.1,424,605.1,424z"/>
		<path class="st4" d="M617.5,424v4.9h-9.3V424H617.5z M617.5,430.6v30.2h-9.3v-30.2C608.2,430.6,617.5,430.6,617.5,430.6z"/>
		<path class="st4" d="M642,424v36.9h-9.3v-2.2c-0.9,0.9-1.8,1.8-2.7,2.2c-0.9,0.4-1.8,0.9-3.1,0.9s-2.7-0.4-3.6-1.3
			c-0.9-0.9-1.8-1.8-2.2-2.7c-0.4-0.9-0.4-2.7-0.4-4.9v-14.2c0-2.2,0-4,0.4-4.9s0.9-1.8,2.2-2.7c0.9-0.9,2.2-1.3,4-1.3
			c1.3,0,2.2,0,3.1,0.4c0.9,0.4,1.8,0.9,2.7,1.8v-8.4L642,424L642,424z M632.6,438.2c0-0.9,0-1.8-0.4-2.2c-0.4-0.4-0.4-0.4-1.3-0.4
			c-0.4,0-0.9,0-0.9,0.4c0,0.4-0.4,1.3-0.4,2.2v14.7c0,1.3,0,2.2,0.4,2.2c0,0.4,0.4,0.4,0.9,0.4c0.4,0,0.9,0,1.3-0.4
			c0-0.4,0.4-1.3,0.4-3.1V438.2z"/>
		<path class="st4" d="M653.5,442.2h-8.4V440c0-2.2,0.4-4,0.9-5.3c0.4-1.3,1.8-2.2,3.1-3.6c1.8-0.9,3.6-1.3,6.2-1.3
			c3.1,0,5.3,0.4,7.1,1.8c1.8,0.9,2.7,2.7,2.7,4c0.4,1.8,0.4,4.9,0.4,9.8v15.1h-8.9v-2.7c-0.4,0.9-1.3,1.8-2.2,2.2
			c-0.9,0.4-1.8,0.9-3.1,0.9c-1.8,0-3.1-0.4-4.4-1.3c-1.3-0.9-2.2-2.7-2.2-5.8v-2.7c0-2.2,0.4-4,0.9-4.4c0.9-0.9,2.7-1.8,5.3-2.7
			c3.1-1.3,4.4-1.8,4.9-2.2c0-0.4,0.4-1.3,0.4-2.7c0-1.8,0-2.7-0.4-3.1c-0.4-0.4-0.4-0.9-1.3-0.9c-0.4,0-0.9,0-1.3,0.4
			c0,0.4-0.4,1.3-0.4,3.1v3.6C652.6,442.2,653.5,442.2,653.5,442.2z M656.2,446.6c-1.3,0.9-2.2,1.8-2.7,2.7
			c-0.4,0.9-0.4,1.8-0.4,3.1c0,1.8,0,2.7,0.4,3.1c0,0.4,0.4,0.9,1.3,0.9c0.4,0,0.9,0,1.3-0.4c0.4-0.4,0.4-1.3,0.4-2.7v-6.7
			C656.6,446.6,656.2,446.6,656.2,446.6z"/>
		<path class="st4" d="M689.5,424v36.9h-9.3v-2.2c-0.9,0.9-1.8,1.8-2.7,2.2c-0.9,0.4-1.8,0.9-3.1,0.9c-1.3,0-2.7-0.4-3.6-1.3
			c-0.9-0.9-1.8-1.8-2.2-2.7c-0.4-0.9-0.4-2.7-0.4-4.9v-14.2c0-2.2,0-4,0.4-4.9s0.9-1.8,2.2-2.7c0.9-0.9,2.2-1.3,4-1.3
			c1.3,0,2.2,0,3.1,0.4s1.8,0.9,2.7,1.8v-8.4L689.5,424L689.5,424z M680.6,438.2c0-0.9,0-1.8-0.4-2.2c-0.4-0.4-0.4-0.4-1.3-0.4
			c-0.4,0-0.9,0-0.9,0.4c0,0.4-0.4,1.3-0.4,2.2v14.7c0,1.3,0,2.2,0.4,2.2c0,0.4,0.4,0.4,0.9,0.4c0.4,0,0.9,0,1.3-0.4
			c0-0.4,0.4-1.3,0.4-3.1V438.2z"/>
		<path class="st4" d="M698.4,453.7v3.1c0,1.8,0,3.1-0.4,4.4c-0.4,1.3-1.3,2.2-2.2,2.7c-0.9,0.9-2.2,1.3-3.6,1.3v-2.7
			c0.9-0.4,1.3-1.3,1.3-2.2h-1.3v-7.1L698.4,453.7L698.4,453.7z"/>
		<path class="st4" d="M709.5,424h6.7c4.4,0,7.6,0,9.3,0.4c1.8,0.4,3.1,1.3,4,2.7s1.3,3.6,1.3,6.7c0,2.7-0.4,4.9-0.9,5.8
			c-0.9,0.9-2.2,1.8-4,1.8c1.8,0.4,3.1,0.9,4,1.8c0.4,0.9,0.9,1.3,1.3,2.2c0.4,0.9,0.4,2.7,0.4,5.3v9.8h-8.9V448
			c0-1.8,0-3.1-0.4-3.6c-0.4-0.4-1.3-0.9-2.7-0.9v16.4h-9.8v-36C709.9,424,709.5,424,709.5,424z M718.8,430.2v8c0.9,0,1.8,0,2.2-0.4
			c0.4-0.4,0.4-1.3,0.4-2.7v-2.2c0-1.3,0-1.8-0.4-2.2C720.6,430.2,720.1,430.2,718.8,430.2z"/>
		<path class="st4" d="M754.8,446.2h-12v6.7c0,1.3,0,2.2,0.4,2.7c0,0.4,0.4,0.4,1.3,0.4s1.3-0.4,1.3-0.9c0.4-0.4,0.4-1.3,0.4-3.1v-4
			h8.9v2.2c0,1.8,0,3.1-0.4,4.4c-0.4,0.9-0.9,2.2-1.8,3.1c-0.9,1.3-1.8,1.8-3.1,2.7c-1.3,0.4-3.1,0.9-4.9,0.9
			c-1.8,0-3.6-0.4-5.3-0.9c-1.3-0.4-2.7-1.3-3.6-2.2c-0.9-0.9-1.3-2.2-1.8-3.1c-0.4-1.3-0.4-3.1-0.4-5.3v-8.9c0-2.7,0.4-4.9,0.9-6.2
			c0.9-1.3,1.8-2.7,3.6-3.6s3.6-1.3,5.8-1.3c2.7,0,4.9,0.4,6.2,1.3c1.8,0.9,2.7,2.2,3.6,4s0.9,4,0.9,6.7L754.8,446.2L754.8,446.2z
			 M745.9,441.3v-2.2c0-1.8,0-2.7-0.4-3.1c0-0.4-0.4-0.9-0.9-0.9c-0.4,0-0.9,0-1.3,0.4c0,0.4-0.4,1.3-0.4,3.1v2.7H745.9z"/>
		<path class="st4" d="M776.5,440.4h-8v-1.8c0-1.3,0-2.2-0.4-2.7c0-0.4-0.4-0.4-1.3-0.4c-0.4,0-0.9,0-1.3,0.4
			c-0.4,0.4-0.4,0.9-0.4,1.3c0,0.9,0,1.8,0,2.2c0,0.4,0.4,0.9,1.3,1.3c0.4,0.4,1.8,1.3,4,2.2c2.7,1.3,4.4,2.7,5.3,3.6
			c0.9,1.3,1.3,2.7,1.3,4.9c0,2.7-0.4,4.4-0.9,5.8s-1.8,2.2-3.1,3.1c-1.3,0.9-3.1,0.9-5.3,0.9c-2.2,0-4.4-0.4-6.2-0.9
			c-1.8-0.9-2.7-1.8-3.6-3.1c-0.4-1.3-0.9-3.1-0.9-5.8v-1.3h8v1.8c0,1.8,0,2.7,0.4,3.1c0,0.4,0.4,0.9,1.3,0.9c0.4,0,0.9,0,1.3-0.4
			c0.4-0.4,0.4-0.9,0.4-2.2c0-1.3,0-2.2-0.4-2.7c-0.4-0.4-2.2-1.3-5.3-3.1c-2.7-1.3-4.4-3.1-4.9-4c-0.4-1.3-0.9-2.7-0.9-4.4
			c0-2.2,0.4-4,0.9-5.3c0.4-1.3,1.8-2.2,3.1-2.7c1.3-0.4,3.1-0.9,5.3-0.9s3.6,0.4,5.3,0.9c1.3,0.4,2.7,1.3,3.1,2.2
			c0.9,0.9,1.3,1.8,1.3,2.2c0,0.9,0.4,1.8,0.4,3.6V440.4z"/>
		<path class="st4" d="M789.4,430.6v2.7c0.9-0.9,1.8-1.8,2.7-2.2c0.9-0.4,2.2-0.9,3.1-0.9c1.3,0,2.7,0.4,3.6,1.3s1.8,1.8,1.8,2.7
			c0.4,0.9,0.4,2.7,0.4,4.9V452c0,2.7,0,4.9-0.4,5.8c-0.4,1.3-0.9,2.2-2.2,2.7c-0.9,0.9-2.2,0.9-3.6,0.9c-1.3,0-2.2-0.4-3.1-0.9
			c-0.9-0.4-1.8-1.3-2.7-2.2v7.1h-9.3v-34.6C779.6,430.6,789.4,430.6,789.4,430.6z M792.1,439.5c0-1.8,0-3.1,0-3.6
			c0-0.4-0.4-0.4-1.3-0.4c-0.4,0-0.9,0.4-1.3,0.9c0,0.4-0.4,1.8-0.4,3.1V452c0,1.8,0,3.1,0.4,3.6c0,0.4,0.4,0.9,1.3,0.9
			c0.4,0,0.9,0,0.9-0.4s0-1.3,0-3.1v-13.3C791.6,439.5,792.1,439.5,792.1,439.5z"/>
		<path class="st4" d="M824.9,446.2h-12v6.7c0,1.3,0,2.2,0.4,2.7c0,0.4,0.4,0.4,1.3,0.4s1.3-0.4,1.3-0.9c0.4-0.4,0.4-1.3,0.4-3.1v-4
			h8.9v2.2c0,1.8,0,3.1-0.4,4.4c-0.4,0.9-0.9,2.2-1.8,3.1c-0.9,1.3-1.8,1.8-3.1,2.7c-1.3,0.4-3.1,0.9-4.9,0.9s-3.6-0.4-5.3-0.9
			c-1.3-0.4-2.7-1.3-3.6-2.2c-0.9-0.9-1.3-2.2-1.8-3.1c-0.4-1.3-0.4-3.1-0.4-5.3v-8.9c0-2.7,0.4-4.9,0.9-6.2
			c0.9-1.3,1.8-2.7,3.6-3.6c1.8-0.9,3.6-1.3,5.8-1.3c2.7,0,4.9,0.4,6.2,1.3c1.8,0.9,2.7,2.2,3.6,4c0.9,1.8,0.9,4,0.9,6.7
			L824.9,446.2L824.9,446.2z M815.6,441.3v-2.2c0-1.8,0-2.7-0.4-3.1c0-0.4-0.4-0.9-0.9-0.9c-0.4,0-0.9,0-1.3,0.4
			c0,0.4-0.4,1.3-0.4,3.1v2.7H815.6z"/>
		<path class="st4" d="M837.8,426.6v4.9h2.7v4.9h-2.7v16c0,1.8,0,3.1,0.4,3.6c0,0.4,0.9,0.4,2.7,0.4v4.9h-3.6c-2.2,0-3.6,0-4.4-0.4
			c-0.9,0-1.8-0.4-2.2-1.3c-0.4-0.9-1.3-1.3-1.3-2.2s-0.4-2.7-0.4-5.8V436h-1.8v-4.9h1.8v-4.9h8.9V426.6z"/>
		<path class="st4" d="M863.1,441.3v7.6c0,2.7,0,4.9-0.4,5.8c-0.4,0.9-0.9,2.7-1.8,3.6c-0.9,0.9-2.2,1.8-3.6,2.2
			c-1.3,0.4-3.1,0.9-4.9,0.9c-2.2,0-3.6-0.4-5.3-0.9c-1.3-0.4-2.7-1.3-3.1-2.2c-0.9-0.9-1.3-2.2-1.8-3.1c-0.4-1.3-0.4-3.1-0.4-5.8
			v-7.6c0-2.7,0.4-4.9,0.9-6.7c0.4-1.8,1.8-2.7,3.1-4c1.8-0.9,3.6-1.3,6.2-1.3c2.2,0,4,0.4,5.3,0.9c1.3,0.4,2.7,1.3,3.6,2.2
			c0.9,0.9,1.3,2.2,1.8,3.1C862.7,437.7,863.1,439.1,863.1,441.3z M853.8,439.1c0-1.3,0-2.7-0.4-3.1c0-0.4-0.4-0.4-0.9-0.4
			s-0.9,0-0.9,0.4c0,0.4-0.4,1.3-0.4,3.1v13.8c0,1.3,0,2.2,0.4,2.7c0.4,0.4,0.4,0.4,0.9,0.4c0.4,0,0.9,0,0.9-0.4
			c0-0.4,0.4-1.3,0.4-2.7V439.1z"/>
		<path class="st4" d="M893.3,430.6l-2.7,21.8c-0.4,3.6-0.9,5.8-0.9,7.1c-0.4,1.3-0.9,2.2-1.3,3.1c-0.4,0.9-1.8,1.3-2.7,1.8
			c-1.3,0.4-3.1,0.4-5.8,0.4h-5.8v-4.9c1.3,0,2.2,0,2.7,0s0.4-0.4,0.4-0.9s0-1.3-0.4-3.1l-4.9-25.3h8.4l3.1,20.4l1.3-20.4
			C884.9,430.6,893.3,430.6,893.3,430.6z"/>
		<path class="st4" d="M926.2,440h-9.8v-6.2c0-1.8,0-3.1-0.4-3.6c0-0.4-0.4-0.9-1.3-0.9c-0.9,0-1.3,0.4-1.3,0.9s-0.4,1.8-0.4,3.6
			v17.3c0,1.8,0,3.1,0.4,3.6s0.9,0.9,1.3,0.9c0.9,0,1.3-0.4,1.3-0.9s0.4-1.8,0.4-4v-4.4h9.8v1.3c0,4-0.4,6.7-0.9,8
			c-0.4,1.8-1.8,3.1-3.6,4c-1.8,1.3-4,1.8-6.7,1.8c-2.7,0-5.3-0.4-7.1-1.3c-1.8-0.9-3.1-2.2-3.6-4.4c-0.4-1.8-0.9-4.4-0.9-8v-10.7
			c0-2.7,0-4.4,0.4-5.8c0-1.3,0.9-2.7,1.8-4c0.9-1.3,2.2-2.2,3.6-3.1c1.8-0.9,3.6-0.9,5.3-0.9c2.7,0,5.3,0.4,7.1,1.8
			c1.8,0.9,3.1,2.7,3.6,4c0.4,1.3,0.9,4,0.9,7.6V440z"/>
		<path class="st4" d="M937.3,442.2h-8.4V440c0-2.2,0.4-4,0.9-5.3c0.4-1.3,1.8-2.2,3.1-3.6c1.8-0.9,3.6-1.3,6.2-1.3
			c3.1,0,5.3,0.4,7.1,1.8c1.8,0.9,2.7,2.7,2.7,4c0.4,1.8,0.4,4.9,0.4,9.8v15.1h-8.9v-2.7c-0.4,0.9-1.3,1.8-2.2,2.2
			c-0.9,0.4-1.8,0.9-3.1,0.9c-1.8,0-3.1-0.4-4.4-1.3c-1.3-0.9-2.2-2.7-2.2-5.8v-2.7c0-2.2,0.4-4,0.9-4.4c0.9-0.9,2.7-1.8,5.3-2.7
			c3.1-1.3,4.4-1.8,4.9-2.2c0-0.4,0.4-1.3,0.4-2.7c0-1.8,0-2.7-0.4-3.1c-0.4-0.4-0.4-0.9-1.3-0.9c-0.4,0-0.9,0-1.3,0.4
			c0,0.4-0.4,1.3-0.4,3.1v3.6C936.4,442.2,937.3,442.2,937.3,442.2z M940.4,446.6c-1.3,0.9-2.2,1.8-2.7,2.7
			c-0.4,0.9-0.4,1.8-0.4,3.1c0,1.8,0,2.7,0.4,3.1c0,0.4,0.4,0.9,1.3,0.9c0.4,0,0.9,0,1.3-0.4c0.4-0.4,0.4-1.3,0.4-2.7v-6.7
			C940.9,446.6,940.4,446.6,940.4,446.6z"/>
		<path class="st4" d="M962.2,424v36.9h-9.3V424C952.8,424,962.2,424,962.2,424z"/>
		<path class="st4" d="M975,424v4.9h-9.3V424H975z M975,430.6v30.2h-9.3v-30.2C965.7,430.6,975,430.6,975,430.6z"/>
		<path class="st4" d="M999,424v36.9h-9.3v-2.2c-0.9,0.9-1.8,1.8-2.7,2.2c-0.9,0.4-1.8,0.9-3.1,0.9c-1.3,0-2.7-0.4-3.6-1.3
			c-0.9-0.9-1.8-1.8-2.2-2.7c-0.4-0.9-0.4-2.7-0.4-4.9v-14.2c0-2.2,0-4,0.4-4.9s0.9-1.8,2.2-2.7c0.9-0.9,2.2-1.3,4-1.3
			c1.3,0,2.2,0,3.1,0.4c0.9,0.4,1.8,0.9,2.7,1.8v-8.4L999,424L999,424z M990.1,438.2c0-0.9,0-1.8-0.4-2.2c-0.4-0.4-0.4-0.4-1.3-0.4
			c-0.4,0-0.9,0-0.9,0.4c0,0.4-0.4,1.3-0.4,2.2v14.7c0,1.3,0,2.2,0.4,2.2c0,0.4,0.4,0.4,0.9,0.4c0.4,0,0.9,0,1.3-0.4
			c0-0.4,0.4-1.3,0.4-3.1V438.2z"/>
		<path class="st4" d="M1023.5,446.2h-12v6.7c0,1.3,0,2.2,0.4,2.7c0,0.4,0.4,0.4,1.3,0.4s1.3-0.4,1.3-0.9c0.4-0.4,0.4-1.3,0.4-3.1
			v-4h8.9v2.2c0,1.8,0,3.1-0.4,4.4c-0.4,0.9-0.9,2.2-1.8,3.1c-0.9,1.3-1.8,1.8-3.1,2.7c-1.3,0.4-3.1,0.9-4.9,0.9
			c-1.8,0-3.6-0.4-5.3-0.9c-1.3-0.4-2.7-1.3-3.6-2.2c-0.9-0.9-1.3-2.2-1.8-3.1c-0.4-1.3-0.4-3.1-0.4-5.3v-8.9c0-2.7,0.4-4.9,0.9-6.2
			c0.9-1.3,1.8-2.7,3.6-3.6s3.6-1.3,5.8-1.3c2.7,0,4.9,0.4,6.2,1.3c1.8,0.9,2.7,2.2,3.6,4s0.9,4,0.9,6.7L1023.5,446.2L1023.5,446.2z
			 M1014.1,441.3v-2.2c0-1.8,0-2.7-0.4-3.1c0-0.4-0.4-0.9-0.9-0.9c-0.4,0-0.9,0-1.3,0.4c0,0.4-0.4,1.3-0.4,3.1v2.7H1014.1z"/>
		<path class="st4" d="M1040.8,430.6v6.7l-6.7,17.3h6.7v6.2h-15.5v-6.2l7.1-17.8h-6.2v-6.2H1040.8z"/>
		<path class="st4" d="M1059,442.2h-8.4V440c0-2.2,0.4-4,0.9-5.3s1.8-2.2,3.1-3.6c1.8-0.9,3.6-1.3,6.2-1.3c3.1,0,5.3,0.4,7.1,1.8
			c1.8,0.9,2.7,2.7,2.7,4c0.4,1.8,0.4,4.9,0.4,9.8v15.1h-8.9v-2.7c-0.4,0.9-1.3,1.8-2.2,2.2c-0.9,0.4-1.8,0.9-3.1,0.9
			c-1.8,0-3.1-0.4-4.4-1.3c-1.3-0.9-2.2-2.7-2.2-5.8v-2.7c0-2.2,0.4-4,0.9-4.4c0.9-0.9,2.7-1.8,5.3-2.7c3.1-1.3,4.4-1.8,4.9-2.2
			c0-0.4,0.4-1.3,0.4-2.7c0-1.8,0-2.7-0.4-3.1c-0.4-0.4-0.4-0.9-1.3-0.9c-0.4,0-0.9,0-1.3,0.4c0,0.4-0.4,1.3-0.4,3.1v3.6
			C1058.1,442.2,1059,442.2,1059,442.2z M1062.1,446.6c-1.3,0.9-2.2,1.8-2.7,2.7c-0.4,0.9-0.4,1.8-0.4,3.1c0,1.8,0,2.7,0.4,3.1
			c0,0.4,0.4,0.9,1.3,0.9c0.4,0,0.9,0,1.3-0.4c0.4-0.4,0.4-1.3,0.4-2.7v-6.7C1062.5,446.6,1062.1,446.6,1062.1,446.6z"/>
		<path class="st4" d="M1101.2,440.4h-8v-1.8c0-1.3,0-2.2-0.4-2.7c0-0.4-0.4-0.4-1.3-0.4c-0.4,0-0.9,0-1.3,0.4
			c-0.4,0.4-0.4,0.9-0.4,1.3c0,0.9,0,1.8,0,2.2c0,0.4,0.4,0.9,1.3,1.3c0.4,0.4,1.8,1.3,4,2.2c2.7,1.3,4.4,2.7,5.3,3.6
			c0.9,1.3,1.3,2.7,1.3,4.9c0,2.7-0.4,4.4-0.9,5.8s-1.8,2.2-3.1,3.1c-1.3,0.9-3.1,0.9-5.3,0.9s-4.4-0.4-6.2-0.9
			c-1.8-0.9-2.7-1.8-3.6-3.1c-0.4-1.3-0.9-3.1-0.9-5.8v-1.3h8v1.8c0,1.8,0,2.7,0.4,3.1c0,0.4,0.4,0.9,1.3,0.9c0.4,0,0.9,0,1.3-0.4
			c0.4-0.4,0.4-0.9,0.4-2.2c0-1.3,0-2.2-0.4-2.7c-0.4-0.4-2.2-1.3-5.3-3.1c-2.7-1.3-4.4-3.1-4.9-4c-0.4-1.3-0.9-2.7-0.9-4.4
			c0-2.2,0.4-4,0.9-5.3c0.4-1.3,1.8-2.2,3.1-2.7s3.1-0.9,5.3-0.9s3.6,0.4,5.3,0.9c1.3,0.4,2.7,1.3,3.1,2.2c0.9,0.9,1.3,1.8,1.3,2.2
			c0,0.9,0.4,1.8,0.4,3.6V440.4z"/>
		<path class="st4" d="M1125.6,430.6v30.2h-9.3v-2.7c-0.4,0.9-1.3,1.8-2.2,2.2c-0.9,0.4-2.2,0.9-3.1,0.9c-1.3,0-2.7-0.4-3.6-0.9
			s-1.8-1.3-2.2-1.8c-0.4-0.9-0.9-1.8-0.9-2.7s0-2.7,0-5.3v-20.4h9.3v20.4c0,2.2,0,3.6,0,4s0.4,0.4,1.3,0.4c0.9,0,0.9-0.4,1.3-0.9
			c0-0.4,0-1.8,0-4.4v-20.4h9.3L1125.6,430.6L1125.6,430.6z"/>
		<path class="st4" d="M1157.6,435.1h-8.9v-2.7c0-1.3,0-2.2-0.4-2.2c-0.4-0.4-0.4-0.4-1.3-0.4c-0.4,0-0.9,0.4-1.3,0.9
			c-0.4,0.4-0.4,1.3-0.4,2.2c0,1.3,0,2.2,0.4,2.7c0.4,0.4,1.3,1.3,2.7,2.2c4.4,2.7,7.1,4.4,8,6.2c1.3,1.8,1.8,4.4,1.8,8
			c0,2.7-0.4,4.4-0.9,5.8c-0.4,1.3-1.8,2.2-3.6,3.1c-1.8,0.9-4,1.3-6.2,1.3c-2.7,0-4.9-0.4-6.7-1.3s-3.1-2.2-3.6-3.6
			s-0.9-3.6-0.9-6.2v-2.2h8.9v4.4c0,1.3,0,2.2,0.4,2.7c0.4,0.4,0.9,0.4,1.3,0.4s1.3-0.4,1.3-0.9c0-0.4,0.4-1.3,0.4-2.2
			c0-2.2-0.4-3.6-0.9-4.4c-0.4-0.9-2.2-1.8-4.4-3.6c-2.2-1.8-4-2.7-4.9-3.6s-1.3-1.8-1.8-3.1c-0.4-1.3-0.9-2.7-0.9-4.9
			c0-2.7,0.4-4.9,0.9-6.2c0.9-1.3,1.8-2.2,3.6-3.1s3.6-0.9,5.8-0.9c2.7,0,4.4,0.4,6.2,1.3c1.8,0.9,3.1,1.8,3.6,3.1
			c0.4,1.3,0.9,3.1,0.9,6.2v0.9H1157.6z"/>
		<path class="st4" d="M1182,446.2h-12v6.7c0,1.3,0,2.2,0.4,2.7c0,0.4,0.4,0.4,1.3,0.4c0.9,0,1.3-0.4,1.3-0.9
			c0.4-0.4,0.4-1.3,0.4-3.1v-4h8.9v2.2c0,1.8,0,3.1-0.4,4.4c-0.4,0.9-0.9,2.2-1.8,3.1c-0.9,1.3-1.8,1.8-3.1,2.7
			c-1.3,0.4-3.1,0.9-4.9,0.9s-3.6-0.4-5.3-0.9c-1.3-0.4-2.7-1.3-3.6-2.2c-0.9-0.9-1.3-2.2-1.8-3.1c-0.4-1.3-0.4-3.1-0.4-5.3v-8.9
			c0-2.7,0.4-4.9,0.9-6.2c0.9-1.3,1.8-2.7,3.6-3.6c1.8-0.9,3.6-1.3,5.8-1.3c2.7,0,4.9,0.4,6.2,1.3c1.8,0.9,2.7,2.2,3.6,4
			c0.9,1.8,0.9,4,0.9,6.7L1182,446.2L1182,446.2z M1172.7,441.3v-2.2c0-1.8,0-2.7-0.4-3.1c0-0.4-0.4-0.9-0.9-0.9
			c-0.4,0-0.9,0-1.3,0.4c0,0.4-0.4,1.3-0.4,3.1v2.7H1172.7z"/>
		<path class="st4" d="M1194.4,430.6l-0.4,4c1.3-2.7,3.1-4.4,5.8-4.4v10.7c-1.8,0-3.1,0.4-3.6,0.9c-0.4,0.4-1.3,0.9-1.3,1.8
			s-0.4,2.7-0.4,5.8v12h-9.3v-30.2h9.3V430.6z"/>
		<path class="st4" d="M1221.5,430.6l-4.4,30.2h-12l-4.4-30.2h8l2.7,22.2c0-1.8,0.4-5.8,0.9-12c0.4-3.6,0.4-7.1,0.9-10.2
			C1213.1,430.6,1221.5,430.6,1221.5,430.6z"/>
		<path class="st4" d="M1232.6,424v4.9h-9.3V424H1232.6z M1232.6,430.6v30.2h-9.3v-30.2C1223.3,430.6,1232.6,430.6,1232.6,430.6z"/>
		<path class="st4" d="M1256.2,442.2h-8.9v-3.6c0-1.3,0-2.2-0.4-2.7c0-0.4-0.4-0.4-0.9-0.4c-0.4,0-0.9,0-0.9,0.4
			c0,0.4-0.4,1.3-0.4,2.7v14.2c0,0.9,0,1.8,0.4,2.2c0.4,0.4,0.9,0.9,1.3,0.9c0.4,0,0.9-0.4,1.3-0.9c0-0.4,0.4-1.8,0.4-3.1v-3.6h8
			c0,2.2,0,4.4-0.4,5.3c0,1.3-0.9,2.2-1.3,3.6c-0.9,1.3-1.8,2.2-3.6,2.7c-1.3,0.4-3.1,0.9-5.3,0.9c-2.7,0-4.4-0.4-6.2-1.3
			c-1.3-0.9-2.7-2.2-3.1-3.6c-0.4-1.8-0.9-4-0.9-6.7v-8.4c0-2.7,0.4-4.4,0.9-5.8c0.4-1.3,1.8-2.7,3.1-3.6c1.8-0.9,3.6-1.3,6.2-1.3
			c2.2,0,4.4,0.4,6.2,1.3c1.8,0.9,2.7,2.2,3.6,4C1255.7,436.9,1256.2,439.1,1256.2,442.2z"/>
		<path class="st4" d="M1268.2,424v4.9h-9.3V424H1268.2z M1268.2,430.6v30.2h-9.3v-30.2C1258.8,430.6,1268.2,430.6,1268.2,430.6z"/>
		<path class="st4" d="M1292.6,441.3v7.6c0,2.7,0,4.9-0.4,5.8c-0.4,0.9-0.9,2.7-1.8,3.6c-0.9,0.9-2.2,1.8-3.6,2.2
			c-1.3,0.4-3.1,0.9-4.9,0.9c-2.2,0-3.6-0.4-5.3-0.9c-1.3-0.4-2.7-1.3-3.1-2.2c-0.9-0.9-1.3-2.2-1.8-3.1c-0.4-1.3-0.4-3.1-0.4-5.8
			v-7.6c0-2.7,0.4-4.9,0.9-6.7c0.4-1.8,1.8-2.7,3.1-4c1.8-0.9,3.6-1.3,6.2-1.3c2.2,0,4,0.4,5.3,0.9s2.7,1.3,3.6,2.2
			c0.9,0.9,1.3,2.2,1.8,3.1C1292.1,437.7,1292.6,439.1,1292.6,441.3z M1283.3,439.1c0-1.3,0-2.7-0.4-3.1c0-0.4-0.4-0.4-0.9-0.4
			c-0.4,0-0.9,0-0.9,0.4c0,0.4-0.4,1.3-0.4,3.1v13.8c0,1.3,0,2.2,0.4,2.7c0.4,0.4,0.4,0.4,0.9,0.4c0.4,0,0.9,0,0.9-0.4
			c0-0.4,0.4-1.3,0.4-2.7V439.1z"/>
	</g>
</g>
</svg>
