<?xml version="1.0" encoding="utf-8"?>
<!-- Generator: Adobe Illustrator 22.0.0, SVG Export Plug-In . SVG Version: 6.00 Build 0)  -->
<svg version="1.1" id="Layer_1" xmlns="http://www.w3.org/2000/svg" xmlns:xlink="http://www.w3.org/1999/xlink" x="0px" y="0px"
	 viewBox="0 0 1366 768" style="enable-background:new 0 0 1366 768;" xml:space="preserve">
<style type="text/css">
	.st0{fill:#EA1111;}
	.st1{fill:#050505;}
	.st2{fill:#0A0A0A;}
</style>
<g>
	<polygon class="st0" points="167.4,209.9 206.4,209.9 206.4,239.1 235.5,239.1 235.5,278.1 206.4,278.1 206.4,307.2 167.4,307.2 
		167.4,278.1 138.2,278.1 138.2,239.1 167.4,239.1 	"/>
	<g>
		<g>
			<path class="st1" d="M137.8,363.1h-27.3c-11.7,0-21.1,9.4-21.1,21.6c0,0.9,0,62.5,0,62.5c0,5.2,4.2,8.9,8.9,8.9
				c4.7,0,8.9-4.2,8.9-8.9v-55c0-0.5,0.5-0.9,0.9-0.9h1.9c0.5,0,0.9,0.5,0.9,0.9v154.1c0,6.6,5.2,11.7,11.7,11.7
				c6.6,0,11.7-5.2,11.7-11.7v-90.7c0-0.5,0.5-0.9,0.9-0.9h1.9c0.5,0,0.9,0.5,0.9,0.9v90.7c0,6.6,5.2,11.7,11.7,11.7
				c6.6,0,11.7-5.2,11.7-11.7V392.2c0-0.5,0.5-0.9,0.9-0.9h1.9c0.5,0,0.9,0.5,0.9,0.9l9.4,51.2c0,5.2,2.8,7.5,7.5,7.5
				c5.2,0,7.5-2.8,7.5-7.5c0,0-7-57.8-7-58.7c0-12.2-9.4-21.6-21.1-21.6C161.3,363.1,145.3,363.1,137.8,363.1z"/>
			<ellipse class="st1" cx="135.9" cy="340.5" rx="17.4" ry="17.4"/>
		</g>
		<g>
			<path class="st1" d="M49,408.2c0,0-20.7,0-21.1,0c-8.9,0-16.4,7-16.4,16.9c0,0.5,0,47.9,0,47.9c0,3.8,3.3,7,7,7s7-3.3,7-7v-42.3
				c0-0.5,0.5-0.9,0.9-0.9h1.4c0.5,0,0.9,0.5,0.9,0.9v118.4c0,4.7,3.8,8.9,8.9,8.9c4.7,0,8.9-3.8,8.9-8.9v-69.5
				c0-0.5,0.5-0.9,0.9-0.9H49c0.5,0,0.9,0,0.9,0.9v69.5c0,4.7,3.8,8.9,8.9,8.9c4.7,0,8.9-3.8,8.9-8.9V430.7c0-0.5,0.5-0.9,0.9-0.9
				h1.4c0.5,0,0.9,0.5,0.9,0.9l7.5,39.5c0,3.8,2.3,6.1,6.1,6.1c3.8,0,6.1-2.3,6.1-6.1c0,0-5.2-44.6-5.2-45.1c0-9.4-7-16.9-16.4-16.9
				C67.3,408.2,55.1,408.2,49,408.2z"/>
			<ellipse class="st1" cx="47.6" cy="390.8" rx="13.2" ry="13.2"/>
		</g>
		<g>
			<path class="st1" d="M188,446.7c4.7,1.4,9.4-0.9,10.8-5.6l12.7-41.3c0,0,0.5-0.9,1.4-0.9h1.9l0,0c0.5,0,0.9,0.5,0.5,0.9
				l-25.4,83.2c0,0.5,0,1.4,0.9,1.4h17.9c0.5,0,0.9,0.5,0.9,0.9v60.6c0,6.1,4.7,10.8,10.8,10.8s10.8-4.7,10.8-10.8v-60.6
				c0-0.5,0.5-0.9,0.9-0.9l0,0h1.9l0,0c0.5,0,0.9,0.5,0.9,0.9v60.6c0,6.1,4.7,10.8,10.8,10.8c6.1,0,10.8-4.7,10.8-10.8v-60.6
				c0-0.5,0.5-0.9,0.9-0.9h17.9c0.9,0,0.9-0.9,0.9-1.4L251,399.7c0-0.5,0-0.9,0.5-0.9l0,0h1.9c0.9,0,1.4,0.9,1.4,0.9l12.7,41.3
				c1.4,4.7,6.1,7,10.8,5.6c4.7-1.4,7-6.1,5.6-10.8l-12.7-41.3c-1.9-6.6-5.6-22.1-19.7-22.1h-35.7c-13.2,0-17.9,15.5-19.7,22.1
				l-12.7,41.3C181,440.6,183.3,445.3,188,446.7z"/>
			<path class="st1" d="M233.1,334.9c8.9,0,16.4,7,16.4,16.4c0,8.9-7,16.4-16.4,16.4c-8.9,0-16.4-7-16.4-16.4
				C216.7,342.4,223.7,334.9,233.1,334.9z"/>
		</g>
		<g>
			<path class="st1" d="M286.7,472.1c3.3,0.9,6.6-0.9,7.5-3.8l8.9-28.7c0,0,0.5-0.5,0.9-0.5h1.4l0,0c0.5,0,0.5,0.5,0.5,0.5
				l-17.9,57.8c0,0.5,0,0.9,0.5,0.9h12.2c0.5,0,0.5,0.5,0.5,0.5s0,41.8,0,42.3c0,4.2,3.3,7.5,7.5,7.5s7.5-3.3,7.5-7.5v-42.3
				c0-0.5,0.5-0.5,0.5-0.5l0,0h1.4l0,0c0.5,0,0.5,0.5,0.5,0.5v42.3c0,4.2,3.3,7.5,7.5,7.5c4.2,0,7.5-3.3,7.5-7.5v-42.3
				c0-0.5,0.5-0.5,0.5-0.5h12.2c0.5,0,0.9-0.5,0.5-0.9L329,439.7c0-0.5,0-0.5,0.5-0.5l0,0h1.4c0.5,0,0.9,0.5,0.9,0.5l8.9,28.7
				c0.9,3.3,4.2,4.7,7.5,3.8c3.3-0.9,4.7-4.2,3.8-7.5l-8.9-28.7c-1.4-4.7-3.8-15.5-13.6-15.5h-24.9c-9.4,0-12.7,10.8-14.1,15.5
				l-8.9,28.7C282,467.9,283.9,471.2,286.7,472.1z"/>
			<path class="st1" d="M318.2,394.6c6.1,0,11.3,5.2,11.3,11.3c0,6.1-5.2,11.3-11.3,11.3s-11.3-5.2-11.3-11.3
				S312.1,394.6,318.2,394.6z"/>
		</g>
	</g>
</g>
<g>
	<g>
		<path class="st2" d="M439.9,265.8v78.5h-20.2v-32.9h-6.1v32.9h-20.7v-78.5h20.2V294h6.1v-28.2H439.9z"/>
		<path class="st2" d="M494.4,311.9c0,8,0,13.6-0.5,16.9s-1.4,6.1-3.3,8.9c-1.9,2.8-4.7,4.7-8,6.1c-3.3,1.4-7,2.3-11.7,2.3
			c-4.2,0-8-0.5-11.3-1.9c-3.3-1.4-6.1-3.3-8-6.1c-1.9-2.8-3.3-5.6-3.8-8.9c-0.5-3.3-0.5-8.9-0.5-16.9v-13.6c0-8,0-13.6,0.5-16.9
			s1.4-6.1,3.3-8.9c1.9-2.8,4.7-4.7,8-6.1c3.3-1.4,7-2.3,11.7-2.3c4.2,0,8,0.5,11.3,1.9c3.3,1.4,6.1,3.3,8,6.1
			c1.9,2.8,3.3,5.6,3.8,8.9c0.5,3.3,0.5,8.9,0.5,16.9V311.9z M474.2,286c0-3.8,0-6.1-0.5-7s-1.4-1.4-2.3-1.4c-0.9,0-1.9,0.5-2.3,1.4
			c-0.5,0.9-0.9,3.3-0.9,7.5v36.6c0,4.7,0,7.5,0.5,8.5s1.4,1.4,2.8,1.4s2.3-0.5,2.8-1.9c0.5-1.4,0.5-4.2,0.5-8.9L474.2,286
			L474.2,286z"/>
		<path class="st2" d="M545.1,289.3h-18.8v-5.6c0-2.8-0.5-4.2-0.9-5.2s-1.4-0.9-2.3-0.9c-1.4,0-2.3,0.5-2.8,1.4
			c-0.5,0.9-0.9,2.3-0.9,4.7c0,2.8,0.5,4.7,0.9,6.1c0.5,1.4,2.8,2.8,5.6,4.7c8.9,5.2,14.6,9.9,16.9,13.2c2.3,3.3,3.8,8.9,3.8,16.9
			c0,5.6-0.5,9.9-1.9,12.2c-1.4,2.8-3.8,4.7-7.5,6.6c-3.8,1.9-8,2.8-13.2,2.8c-5.6,0-10.3-0.9-14.1-3.3c-3.8-1.9-6.6-4.7-7.5-8
			c-1.4-3.3-1.9-7.5-1.9-13.6v-5.2h18.8v9.4c0,2.8,0.5,4.7,0.9,5.6c0.5,0.9,1.4,1.4,2.8,1.4s2.3-0.5,2.8-1.4s0.9-2.8,0.9-4.7
			c0-4.7-0.5-7.5-1.9-8.9c-1.4-1.4-4.7-3.8-9.4-7c-5.2-3.3-8.5-5.6-9.9-7.5c-1.9-1.4-2.8-3.8-4.2-6.1c-0.9-2.8-1.4-6.1-1.4-10.3
			c0-6.1,0.9-10.3,2.3-13.2c1.4-2.8,4.2-5.2,7.5-6.6s7.5-2.3,12.2-2.3c5.2,0,9.9,0.9,13.6,2.3c3.8,1.9,6.1,3.8,7.5,6.6
			s1.9,7,1.9,13.2L545.1,289.3L545.1,289.3z"/>
		<path class="st2" d="M553.1,265.8h20.7c5.6,0,9.9,0.5,12.7,1.4c2.8,0.9,5.2,2.3,6.6,3.8c1.4,1.9,2.3,3.8,2.8,6.1s0.9,6.1,0.9,10.8
			v7c0,5.2-0.5,8.5-1.4,10.8s-2.8,4.2-5.6,5.2c-2.8,1.4-6.6,1.9-10.8,1.9h-5.6v31.5h-20.2C553.1,344.3,553.1,265.8,553.1,265.8z
			 M573.8,279v19.7c0.5,0,0.9,0,1.4,0c1.9,0,3.3-0.5,3.8-1.4c0.9-0.9,0.9-2.8,0.9-5.6v-6.1c0-2.8-0.5-4.2-1.4-5.2
			C578,279.5,576.1,279,573.8,279z"/>
		<path class="st2" d="M623.6,265.8v78.5h-20.2v-78.5H623.6z"/>
		<path class="st2" d="M672.4,265.8v15.5h-11.7v62.5h-20.2v-62.5h-12.2v-15.5C628.3,265.8,672.4,265.8,672.4,265.8z"/>
		<path class="st2" d="M708.6,265.8l11.7,78.5h-20.7l-0.9-14.1h-7.5l-1.4,14.1h-21.1l10.3-78.5H708.6z M697.8,316.1
			c-0.9-8.9-1.9-19.7-3.3-32.9c-1.9,15-3.3,25.8-3.8,32.9H697.8z"/>
		<path class="st2" d="M743.8,265.8v62.5h12.2v15.5h-32.9v-78H743.8z"/>
		<path class="st2" d="M779.1,265.8h14.6c9.4,0,16,0.5,19.7,0.9c3.3,0.9,6.1,2.8,8.5,5.6c2.3,2.8,3.3,8,3.3,14.6
			c0,6.1-0.9,10.3-2.3,12.2c-1.4,1.9-4.7,3.3-8.9,3.8c4.2,0.9,6.6,2.3,8,4.2c1.4,1.9,2.3,3.3,2.8,4.7c0.5,1.4,0.5,5.2,0.5,11.7v20.7
			h-18.8v-25.8c0-4.2-0.5-6.6-0.9-8c-0.5-0.9-2.3-1.4-5.2-1.4v35.2H780v-78.5H779.1z M799.3,279v17.4c2.3,0,3.8-0.5,4.7-0.9
			c0.9-0.5,1.4-2.8,1.4-6.1v-4.2c0-2.3-0.5-4.2-1.4-4.7C803,279.5,801.6,279,799.3,279z"/>
		<path class="st2" d="M832.2,265.8H866v15.5h-13.6v15h12.7v15h-12.7v17.4h15v15.5h-35.2V265.8z"/>
		<path class="st2" d="M907.3,265.8v15.5l-15,47h15v15.5h-37.6v-11.3l15.5-51.2h-13.6v-15.5C871.6,265.8,907.3,265.8,907.3,265.8z"
			/>
		<path class="st2" d="M959.5,311.9c0,8,0,13.6-0.5,16.9c-0.5,3.3-1.4,6.1-3.3,8.9c-1.9,2.8-4.7,4.7-8,6.1c-3.3,1.4-7,2.3-11.7,2.3
			c-4.2,0-8-0.5-11.3-1.9c-3.3-1.4-6.1-3.3-8-6.1c-1.9-2.8-3.3-5.6-3.8-8.9s-0.5-8.9-0.5-16.9v-13.6c0-8,0-13.6,0.5-16.9
			s1.4-6.1,3.3-8.9c1.9-2.8,4.7-4.7,8-6.1c3.3-1.4,7-2.3,11.7-2.3c4.2,0,8,0.5,11.3,1.9c3.3,1.4,6.1,3.3,8,6.1
			c1.9,2.8,3.3,5.6,3.8,8.9c0.5,3.3,0.5,8.9,0.5,16.9V311.9z M938.8,286c0-3.8,0-6.1-0.5-7s-1.4-1.4-2.3-1.4c-0.9,0-1.9,0.5-2.3,1.4
			s-0.9,3.3-0.9,7.5v36.6c0,4.7,0,7.5,0.5,8.5s1.4,1.4,2.8,1.4c1.4,0,2.3-0.5,2.8-1.9c0.5-1.4,0.5-4.2,0.5-8.9V286
			C939.3,286,938.8,286,938.8,286z"/>
		<path class="st2" d="M987.2,265.8v62.5h12.2v15.5h-32.9v-78H987.2z"/>
		<path class="st2" d="M1042.2,265.8l11.7,78.5h-20.7l-0.9-14.1h-7.5l-1.4,14.1h-21.1l10.3-78.5H1042.2z M1031.4,316.1
			c-0.9-8.9-1.9-19.7-3.3-32.9c-1.9,15-3.3,25.8-3.8,32.9H1031.4z"/>
		<path class="st2" d="M1122.5,299.7h-20.2V286c0-3.8,0-6.6-0.5-7.5s-1.4-1.4-2.8-1.4c-1.9,0-2.8,0.5-3.3,1.9
			c-0.5,1.4-0.5,3.8-0.5,7.5v36.6c0,3.8,0,6.1,0.5,7.5c0.5,0.9,1.4,1.9,2.8,1.9c1.4,0,2.3-0.5,2.8-1.9c0.5-0.9,0.9-3.8,0.9-8v-9.9
			h20.2v3.3c0,8-0.5,14.1-1.9,17.4c-0.9,3.3-3.8,6.6-7.5,8.9c-3.8,2.3-8.9,3.8-14.6,3.8c-6.1,0-10.8-0.9-14.6-3.3s-6.6-5.2-7.5-8.9
			c-1.4-3.8-1.9-9.4-1.9-17.4v-23c0-5.6,0-9.9,0.5-12.7c0.5-2.8,1.4-5.6,3.3-8c1.9-2.8,4.7-4.7,8-6.1c3.3-1.4,7.5-2.3,11.7-2.3
			c6.1,0,10.8,0.9,15,3.3c3.8,2.3,6.6,5.2,7.5,8.5c1.4,3.3,1.9,8.9,1.9,16V299.7L1122.5,299.7z"/>
		<path class="st2" d="M1165.3,265.8l11.7,78.5h-20.7l-0.9-14.1h-7.5l-1.4,14.1h-21.1l10.3-78.5H1165.3z M1154.5,316.1
			c-0.9-8.9-1.9-19.7-3.3-32.9c-1.9,15-3.3,25.8-3.8,32.9H1154.5z"/>
		<path class="st2" d="M1225.9,265.8v78.5H1208l-10.8-35.7v35.7h-16.9v-78.5h16.9l11.3,35.2v-35.2H1225.9z M1223.5,254.1
			c-1.4,3.3-3.3,5.6-5.6,7s-4.2,1.9-5.6,1.9c-2.3,0-4.7-0.5-7.5-1.4l-3.8-1.4c-2.3-0.9-4.2-1.4-5.2-1.4c-2.3,0-4.2,1.4-6.1,4.7
			l-7.5-5.2c3.8-6.1,7.5-9.4,12.2-9.4c2.3,0,4.7,0.5,7.5,1.4l2.8,0.9c2.3,0.9,4.2,1.4,5.2,1.4c2.8,0,4.2-1.4,5.2-4.2L1223.5,254.1z"
			/>
		<path class="st2" d="M1233.9,265.8h33.8v15.5h-13.6v15h12.7v15h-12.7v17.4h15v15.5h-35.2V265.8z"/>
		<path class="st2" d="M1314.7,265.8v15.5h-12.2v62.5h-20.2v-62.5h-12.2v-15.5C1270.1,265.8,1314.7,265.8,1314.7,265.8z"/>
		<path class="st2" d="M1319.4,265.8h33.8v15.5h-13.6v15h12.7v15h-12.7v17.4h15v15.5h-35.2L1319.4,265.8L1319.4,265.8z"/>
	</g>
	<rect x="391" y="383.3" class="st2" width="963.2" height="28.2"/>
	<g>
		<path class="st2" d="M445.5,475.9h-17.4v-6.1c0-3.8,0-6.1-0.5-7c-0.5-0.9-0.9-1.4-2.3-1.4c-0.9,0-1.9,0.5-2.3,1.4
			c-0.5,0.9-0.5,2.8-0.5,6.6v31.9c0,2.8,0,5.2,0.5,6.1c0.5,0.9,0.9,1.4,2.3,1.4s2.3-0.5,2.3-1.4c0.5-0.9,0.5-3.3,0.5-6.1v-8.9h-3.3
			V482H445v35.7h-10.8l-1.4-4.7c-1.4,1.9-2.8,3.8-4.7,4.7s-3.8,1.4-6.6,1.4c-2.8,0-5.6-0.9-8-2.3c-2.3-1.4-4.7-3.3-5.6-5.2
			c-1.4-1.9-2.3-4.2-2.3-6.6c-0.5-2.3-0.5-5.6-0.5-10.3v-19.7c0-6.6,0.5-10.8,0.9-14.1c0.5-2.8,2.8-5.6,6.1-8
			c3.3-2.3,7.5-3.8,12.7-3.8s9.4,0.9,12.7,3.3c3.3,1.9,5.6,4.7,6.6,7.5c0.9,2.8,1.4,7,1.4,12.7C445.5,472.6,445.5,475.9,445.5,475.9
			z"/>
		<path class="st2" d="M492,490.4c0,6.6,0,11.3-0.5,14.1s-1.4,5.2-2.8,7.5c-1.9,2.3-3.8,4.2-6.6,5.2c-2.8,1.4-6.1,1.9-9.9,1.9
			c-3.8,0-6.6-0.5-9.4-1.9c-2.8-0.9-5.2-2.8-7-5.2c-1.9-2.3-2.8-4.7-3.3-7.5s-0.5-7.5-0.5-14.6v-11.3c0-6.6,0-11.3,0.5-14.1
			c0.5-2.8,1.4-5.2,2.8-7.5c1.9-2.3,3.8-4.2,6.6-5.2c2.8-1.4,6.1-1.9,9.9-1.9c3.8,0,6.6,0.5,9.4,1.9c2.8,0.9,5.2,2.8,7,5.2
			s2.8,4.7,3.3,7.5c0.5,2.8,0.5,7.5,0.5,14.6V490.4z M474.6,468.3c0-3.3,0-5.2-0.5-6.1c-0.5-0.9-0.9-1.4-2.3-1.4
			c-0.9,0-1.4,0.5-1.9,0.9s-0.9,2.8-0.9,6.1v31c0,3.8,0,6.1,0.5,7c0.5,0.9,0.9,1.4,2.3,1.4s1.9-0.5,2.3-1.4s0.5-3.8,0.5-7.5V468.3z"
			/>
		<path class="st2" d="M498.1,451.4h17.4c5.6,0,9.4,0.5,12.2,1.4c2.8,0.9,5.2,2.3,7,5.2c1.9,2.8,2.8,6.6,2.8,12.7
			c0,3.8-0.5,6.6-1.9,8c-1.4,1.4-3.8,2.8-7,3.8c4.2,0.9,6.6,2.3,8,4.7c1.4,1.9,2.3,5.2,2.3,9.9v6.1c0,4.7-0.5,8-1.4,9.9
			c-0.9,2.3-2.8,3.8-4.7,4.2c-2.3,0.9-7,1.4-13.6,1.4h-20.2v-67.2H498.1z M515.5,462.7v15c0.9,0,1.4,0,1.9,0c1.9,0,2.8-0.5,3.3-1.4
			c0.5-0.9,0.5-3.3,0.5-7c0-1.9,0-3.8-0.5-4.2c-0.5-0.9-0.9-1.4-1.4-1.4C518.8,462.7,517.4,462.7,515.5,462.7z M515.5,488.1v18.8
			c2.3,0,4.2-0.5,4.7-0.9c0.5-0.5,0.9-2.3,0.9-5.2v-6.1c0-2.8-0.5-4.7-0.9-5.2C519.7,488.5,518.3,488.1,515.5,488.1z"/>
		<path class="st2" d="M562.5,451.4v66.7h-17.4v-66.7H562.5z"/>
		<path class="st2" d="M569.1,451.4h29.1v13.2h-11.7v12.7h10.8v12.7h-10.8v14.6h12.7v13.2h-30.1V451.4z"/>
		<path class="st2" d="M604.3,451.4h12.2c8,0,13.6,0.5,16.4,0.9c2.8,0.5,5.2,2.3,7,4.7c1.9,2.8,2.8,6.6,2.8,12.2
			c0,5.2-0.5,8.5-1.9,10.3c-1.4,1.9-3.8,2.8-7.5,3.3c3.3,0.9,5.6,1.9,7,3.3c1.4,1.4,1.9,2.8,2.3,3.8c0.5,1.4,0.5,4.7,0.5,9.9v17.4
			h-16v-22.1c0-3.8-0.5-5.6-0.9-6.6c-0.5-0.9-1.9-1.4-4.2-1.4v30.1h-17.9V451.4z M621.7,462.7v15c1.9,0,3.3-0.5,4.2-0.9
			s0.9-2.3,0.9-5.2v-3.8c0-2.3-0.5-3.3-0.9-4.2C625,463.2,623.6,462.7,621.7,462.7z"/>
		<path class="st2" d="M688.4,451.4v66.7h-15l-8.9-30.5v30.5h-14.6v-66.7h14.6l9.9,30.1v-30.1H688.4z"/>
		<path class="st2" d="M735.4,490.4c0,6.6,0,11.3-0.5,14.1c-0.5,2.8-1.4,5.2-2.8,7.5c-1.9,2.3-3.8,4.2-6.6,5.2
			c-2.8,1.4-6.1,1.9-9.9,1.9s-6.6-0.5-9.4-1.9c-2.8-0.9-5.2-2.8-7-5.2c-1.9-2.3-2.8-4.7-3.3-7.5c-0.5-2.8-0.5-7.5-0.5-14.6v-11.3
			c0-6.6,0-11.3,0.5-14.1c0.5-2.8,1.4-5.2,2.8-7.5c1.9-2.3,3.8-4.2,6.6-5.2c2.8-1.4,6.1-1.9,9.9-1.9s6.6,0.5,9.4,1.9
			c2.8,0.9,5.2,2.8,7,5.2c1.9,2.3,2.8,4.7,3.3,7.5c0.5,2.8,0.5,7.5,0.5,14.6V490.4z M718,468.3c0-3.3,0-5.2-0.5-6.1
			c-0.5-0.9-0.9-1.4-2.3-1.4c-0.9,0-1.4,0.5-1.9,0.9c-0.5,0.5-0.9,2.8-0.9,6.1v31c0,3.8,0,6.1,0.5,7c0.5,0.9,0.9,1.4,2.3,1.4
			c1.4,0,1.9-0.5,2.3-1.4s0.5-3.8,0.5-7.5L718,468.3L718,468.3z"/>
		<path class="st2" d="M756.5,451.4h12.2c8,0,13.6,0.5,16.4,0.9c2.8,0.5,5.2,2.3,7,4.7c1.9,2.8,2.8,6.6,2.8,12.2
			c0,5.2-0.5,8.5-1.9,10.3c-1.4,1.9-3.8,2.8-7.5,3.3c3.3,0.9,5.6,1.9,7,3.3c1.4,1.4,1.9,2.8,2.3,3.8c0.5,1.4,0.5,4.7,0.5,9.9v17.4
			h-16v-22.1c0-3.8-0.5-5.6-0.9-6.6c-0.5-0.9-1.9-1.4-4.2-1.4v30.1H757v-65.8L756.5,451.4L756.5,451.4z M773.9,462.7v15
			c1.9,0,3.3-0.5,4.2-0.9c0.9-0.5,0.9-2.3,0.9-5.2v-3.8c0-2.3-0.5-3.3-0.9-4.2C777.2,463.2,775.8,462.7,773.9,462.7z"/>
		<path class="st2" d="M802.1,451.4h29.1v13.2h-11.7v12.7h10.8v12.7h-10.8v14.6h12.7v13.2h-30.1V451.4z"/>
		<path class="st2" d="M876.8,475.9h-17.4v-6.1c0-3.8,0-6.1-0.5-7c-0.5-0.9-0.9-1.4-2.3-1.4c-0.9,0-1.9,0.5-2.3,1.4
			c-0.5,0.9-0.5,2.8-0.5,6.6v31.9c0,2.8,0,5.2,0.5,6.1c0.5,0.9,0.9,1.4,2.3,1.4c1.4,0,2.3-0.5,2.3-1.4c0-0.9,0.5-3.3,0.5-6.1v-8.9
			h-3.3V482h20.2v35.7h-10.8l-1.4-4.7c-1.4,1.9-2.8,3.8-4.7,4.7c-1.9,0.9-3.8,1.4-6.6,1.4c-2.8,0-5.6-0.9-8-2.3
			c-2.3-1.4-4.7-3.3-5.6-5.2c-1.4-1.9-2.3-4.2-2.3-6.6c-0.5-2.3-0.5-5.6-0.5-10.3v-19.7c0-6.6,0.5-10.8,0.9-14.1
			c0.5-2.8,2.8-5.6,6.1-8s7.5-3.8,12.7-3.8c5.2,0,9.4,0.9,12.7,3.3c3.3,1.9,5.6,4.7,6.6,7.5c0.9,2.8,1.4,7,1.4,12.7V475.9z"/>
		<path class="st2" d="M900.8,451.4v66.7h-17.4v-66.7H900.8z"/>
		<path class="st2" d="M947.8,490.4c0,6.6,0,11.3-0.5,14.1c-0.5,2.8-1.4,5.2-2.8,7.5c-1.9,2.3-3.8,4.2-6.6,5.2
			c-2.8,1.4-6.1,1.9-9.9,1.9s-6.6-0.5-9.4-1.9c-2.8-0.9-5.2-2.8-7-5.2c-1.9-2.3-2.8-4.7-3.3-7.5c-0.5-2.8-0.5-7.5-0.5-14.6v-11.3
			c0-6.6,0-11.3,0.5-14.1c0.5-2.8,1.4-5.2,2.8-7.5c1.9-2.3,3.8-4.2,6.6-5.2c2.8-1.4,6.1-1.9,9.9-1.9s6.6,0.5,9.4,1.9
			c2.8,0.9,5.2,2.8,7,5.2c1.9,2.3,2.8,4.7,3.3,7.5c0.5,2.8,0.5,7.5,0.5,14.6V490.4z M930.4,468.3c0-3.3,0-5.2-0.5-6.1
			s-0.9-1.4-2.3-1.4c-0.9,0-1.4,0.5-1.9,0.9c-0.5,0.5-0.9,2.8-0.9,6.1v31c0,3.8,0,6.1,0.5,7c0.5,0.9,0.9,1.4,2.3,1.4
			c1.4,0,1.9-0.5,2.3-1.4s0.5-3.8,0.5-7.5L930.4,468.3L930.4,468.3z"/>
		<path class="st2" d="M992.9,451.4v66.7h-15l-8.9-30.5v30.5h-14.6v-66.7h14.6l9.9,30.1v-30.1H992.9z"/>
		<path class="st2" d="M1030,451.4l9.9,66.7H1022l-0.9-12.2h-6.1l-0.9,12.2h-17.9l8.9-66.7H1030z M1020.6,494.2
			c-0.9-7.5-1.9-16.9-2.8-28.2c-1.9,12.7-2.8,22.1-3.3,28.2H1020.6z"/>
		<path class="st2" d="M1060,451.4V505h10.3v13.2h-27.7v-66.7H1060z"/>
		<path class="st2" d="M1089.6,451.4h13.2c8.5,0,14.1,0.5,16.9,0.9c2.8,0.9,5.2,1.9,6.6,3.8s2.3,3.8,2.8,6.1s0.5,6.6,0.5,12.7v23.5
			c0,6.1-0.5,9.9-0.9,12.2c-0.5,1.9-1.4,3.8-2.8,4.7c-1.4,0.9-3.3,1.9-5.2,2.3c-1.9,0.5-5.2,0.5-9.4,0.5h-22.1L1089.6,451.4
			L1089.6,451.4z M1107,462.7v43.7c2.3,0,4.2-0.5,4.7-1.4c0.5-0.9,0.9-3.8,0.9-8v-25.8c0-2.8,0-5.2-0.5-5.6
			c-0.5-0.5-0.5-1.4-1.4-1.9C1110.3,462.7,1108.9,462.7,1107,462.7z"/>
		<path class="st2" d="M1136.2,451.4h29.1v13.2h-11.7v12.7h10.8v12.7h-10.8v14.6h12.7v13.2h-30.1V451.4z"/>
		<path class="st2" d="M1203.8,451.4V505h10.3v13.2h-27.7v-66.7H1203.8z"/>
		<path class="st2" d="M1235.8,451.4v66.7h-17.4v-66.7H1235.8z"/>
		<path class="st2" d="M1296.4,451.4v66.7h-15V473l-6.1,45.1h-10.8l-6.6-44.2v44.2h-15v-66.7h22.6c0.5,4.2,1.4,8.9,1.9,14.1
			l2.3,16.9l3.8-31H1296.4z"/>
		<path class="st2" d="M1333.5,451.4l9.9,66.7h-17.9l-0.9-12.2h-6.1l-0.9,12.2h-17.9l8.9-66.7H1333.5z M1324.1,494.2
			c-0.9-7.5-1.9-16.9-2.8-28.2c-1.9,12.7-2.8,22.1-3.3,28.2H1324.1z"/>
	</g>
</g>
</svg>
