<?xml version="1.0" encoding="utf-8"?>
<!-- Generator: Adobe Illustrator 22.0.0, SVG Export Plug-In . SVG Version: 6.00 Build 0)  -->
<svg version="1.1" xmlns="http://www.w3.org/2000/svg" xmlns:xlink="http://www.w3.org/1999/xlink" x="0px" y="0px"
	 viewBox="0 0 1000 1000" style="enable-background:new 0 0 1000 1000;" xml:space="preserve">
<style type="text/css">
	.st0{display:none;}
	.st1{display:inline;fill:#E23237;}
	.st2{display:inline;fill:#FFFFFF;}
	.st3{fill:#425761;}
	.st4{fill:#528FF1;}
	.st5{fill:#F2F2F2;}
	.st6{fill:#F8BD36;}
	.st7{fill:#E74A41;}
	.st8{fill:#FFFFFF;}
</style>
<g id="Layer_1" class="st0">
	<rect class="st1" width="1000" height="1000"/>
	<polygon class="st2" points="498.3,131.5 851.1,250.5 795.7,697.7 498.3,868 202.8,703.9 149.5,252.5 	"/>
	<path class="st1" d="M496.2,216.6L278.7,690.5h82.1l41-110.8l194.9,2.1l47.2,108.7h78L496.2,216.6z M430.6,512.1l67.7-143.6
		L568,512.1H430.6z"/>
</g>
<g id="Layer_2">
	<rect class="st3" width="1000" height="1000"/>
	<g>
		<path class="st4" d="M665.4,169H368c-28.2,0-54.3,15.1-68.4,39.5L151,466c-14.1,24.4-14.1,54.5,0,79l148.7,257.5
			c14.1,24.4,40.2,39.5,68.4,39.5h297.4c28.2,0,54.3-15.1,68.4-39.5L882.5,545c14.1-24.4,14.1-54.5,0-79L733.8,208.5
			C719.7,184.1,693.6,169,665.4,169z"/>
		<polygon class="st5" points="640.2,291.7 393.2,291.7 269.8,505.5 393.2,719.3 640.2,719.3 763.6,505.5 		"/>
		<polygon class="st6" points="200.5,380.3 393.2,719.3 640.2,719.3 564.7,842 322.8,842 128,505.5 		"/>
		<polygon class="st7" points="640.2,291.7 781.8,291.7 905.4,505.5 710.7,842 564.8,842 763.7,505.5 		"/>
		<circle class="st8" cx="530.4" cy="496.8" r="83.3"/>
	</g>
</g>
</svg>
