<?xml version="1.0" encoding="utf-8"?>
<!-- Generator: Adobe Illustrator 22.0.0, SVG Export Plug-In . SVG Version: 6.00 Build 0)  -->
<svg version="1.1" id="Layer_1" xmlns="http://www.w3.org/2000/svg" xmlns:xlink="http://www.w3.org/1999/xlink" x="0px" y="0px"
	 viewBox="0 0 1366 768" style="enable-background:new 0 0 1366 768;" xml:space="preserve">
<style type="text/css">
	.st0{fill:#7B858A;}
	.st1{fill:#263238;}
	.st2{fill:#40C4FF;}
	.st3{fill:#ECEFF1;}
	.st4{fill:#D0D8DC;}
</style>
<rect x="1" class="st0" width="1366" height="768"/>
<g id="Primefaces-1">
	<polygon class="st1" points="17.5,348.5 550.5,348.5 524.5,262.5 569.5,271.5 594.5,238.5 725.5,238.5 753.5,273.5 794.5,263.5 
		768.5,348.5 1349.5,348.5 1313.5,380.5 1314.5,475.5 1295.5,493.5 720.5,493.5 690.5,529.5 629.5,529.5 599.5,492.5 73.5,495.5 
		52.5,473.5 51.5,383.5 	"/>
	<polygon class="st2" points="440,373 527,373 527,395 461,395 461,411 512,411 512,430 460,430 460,445 527,445 527,465 440,465 	
		"/>
	<polygon class="st2" points="324,373 346,373 375,408 405,373 426,373 426,465 407,465 407,401 375,442 343,402 344,465 324,465 	
		"/>
	<rect x="296" y="373" class="st2" width="19" height="92"/>
	<path class="st2" d="M283,421c0,0,0-6,0-25s-17-21-17-21h-75v92h20v-30h29l23,30h20v-8l-18-24C280,438,283,421,283,421z M263,412
		c0,0,0,3-5,4s-48,0-48,0v-22h49c0,0,4,0.8,4,4C263,401,263,412,263,412z"/>
	<path class="st2" d="M183,392c-1-15-15-17-15-17H91v92h21v-32c0,0,43,1,58,0s13-17,13-17S184,407,183,392z M163,410c0,0,0,6-4,6
		c-3.2,0-50,0-50,0v-22h48c0,0,6-1,6,6S163,410,163,410z"/>
	<polygon class="st3" points="784,375 869,375 869,394 805,394 804,405 856,405 857,431 804,431 804,465 784,465 	"/>
	<path class="st3" d="M953,374c-13.3,0-65,0-65,0s-12,7-12,18v74h20v-30h52v30h20v-74C968,392,966,374,953,374z M949,417h-54v-24h54
		V417z"/>
	<path class="st3" d="M1075,374v21h-74v50h74v21h-76c0,0-17,0-17-19v-56.9c0-1.3,0.5-2.7,1.3-3.7c3-3.7,10.3-12.4,12.7-12.4
		C1002,374,1075,374,1075,374z"/>
	<polygon class="st3" points="1087,374 1171,374 1171,394 1106,394 1105,410 1159,410 1159,430 1106,430 1106,446 1171,446 
		1171,466 1087,466 	"/>
	<path class="st3" d="M1201.8,374h54.8c10.1,0,18.4,8.2,18.4,18.4l0.5,9.1h-21v-8L1201,393v17h55.1c10.5,0,18.9,8.5,18.9,18.9v18.3
		c0,10.4-8.4,18.8-18.8,18.8h-55.7c-9.1,0-16.4-7.4-16.2-16.5l0.2-11h18v9h51l0.5-20.5h-55.7c-7.9,0-14.3-6.4-14.3-14.3v-20.9
		C1184,382,1192,374,1201.8,374z"/>
	<polygon class="st4" points="602.5,260.5 634.5,260.5 615.5,302.5 576.5,293.5 	"/>
	<polygon class="st4" points="637.5,260.5 678.5,260.5 695.5,305.5 669.5,377.5 676.5,431.5 637.5,431.5 646.5,375.5 620.5,310.5 	
		"/>
	<polygon class="st4" points="682.5,260.5 712.5,260.5 738.5,292.5 700.5,302.5 	"/>
	<polygon class="st4" points="702.5,308.5 762.5,295.5 752.5,341.5 676.5,371.5 	"/>
	<polygon class="st4" points="554.5,295.5 612.5,308.5 638.5,369.5 563.5,342.5 	"/>
	<polygon class="st4" points="676.5,377.5 686.5,371.5 701.5,391.5 701.5,475.5 686.5,462.5 630.5,462.5 617.5,475.5 617.5,391.5 
		630.5,371.5 638.5,376.5 632.5,434.5 643.5,447.5 670.5,447.5 682.5,435.5 	"/>
	<polygon class="st4" points="564.5,346.5 583.5,353.5 583.5,377.5 612,394 613,447 564.5,409.5 	"/>
	<polygon class="st4" points="731.5,354.5 748.5,346.5 748.5,410.5 706.5,446.5 706.5,390.5 731.5,375.5 	"/>
	<polygon class="st0" points="592,436.5 613,451.5 613,479.5 592,458.5 	"/>
	<polygon class="st0" points="706.5,450.5 706.5,477.5 727.5,456.5 727.5,434.5 	"/>
	<polygon class="st4" points="624.5,492.5 636.5,506.5 676.5,506.5 690.5,492.5 676.5,479.5 637.5,479.5 	"/>
	<polygon class="st0" points="631.5,469.5 685.5,469.5 698.5,483.5 693.5,487.5 682.5,475.5 631.5,475.5 620.5,487.5 617.5,483.5 	
		"/>
</g>
</svg>
