<?xml version="1.0" encoding="utf-8"?>
<!-- Generator: Adobe Illustrator 22.0.0, SVG Export Plug-In . SVG Version: 6.00 Build 0)  -->
<svg version="1.1" xmlns="http://www.w3.org/2000/svg" xmlns:xlink="http://www.w3.org/1999/xlink" x="0px" y="0px"
	 viewBox="0 0 1000 1000" style="enable-background:new 0 0 1000 1000;" xml:space="preserve">
<style type="text/css">
	.st0{display:none;}
	.st1{display:inline;fill:#15353D;}
	.st2{display:inline;fill:#E23237;}
	.st3{display:inline;}
	.st4{opacity:0.3;enable-background:new    ;}
	.st5{display:inline;fill:#425761;}
	.st6{fill:#528FF1;}
	.st7{fill:#F2F2F2;}
	.st8{fill:#F8BD36;}
	.st9{fill:#E74A41;}
	.st10{fill:#FFFFFF;}
	.st11{fill:#9440A2;}
	.st12{fill:#27363B;}
</style>
<g id="Layer_1" class="st0">
	<rect class="st1" width="1000" height="1000"/>
	<polygon class="st2" points="498.3,131.5 851.1,250.5 795.7,697.7 498.3,868 202.8,703.9 149.5,252.5 	"/>
	<path class="st1" d="M496.2,216.6L278.7,690.5h82.1l41-110.8l194.9,2.1l47.2,108.7h78L496.2,216.6z M430.6,512.1l67.7-143.6
		L568,512.1H430.6z"/>
	<g id="Layer_3_1_" class="st3">
		<polygon class="st4" points="501,131.5 851,250.2 795.7,696.4 501,866.3 		"/>
	</g>
</g>
<g id="Layer_2" class="st0">
	<rect class="st5" width="1000" height="1000"/>
	<g class="st3">
		<path class="st6" d="M665.4,169H368c-28.2,0-54.3,15.1-68.4,39.5L151,466c-14.1,24.4-14.1,54.5,0,79l148.7,257.5
			c14.1,24.4,40.2,39.5,68.4,39.5h297.4c28.2,0,54.3-15.1,68.4-39.5L882.5,545c14.1-24.4,14.1-54.5,0-79L733.8,208.5
			C719.7,184.1,693.6,169,665.4,169z"/>
		<polygon class="st7" points="640.2,291.7 393.2,291.7 269.8,505.5 393.2,719.3 640.2,719.3 763.6,505.5 		"/>
		<polygon class="st8" points="200.5,380.3 393.2,719.3 640.2,719.3 564.7,842 322.8,842 128,505.5 		"/>
		<polygon class="st9" points="640.2,291.7 781.8,291.7 905.4,505.5 710.7,842 564.8,842 763.7,505.5 		"/>
		<circle class="st10" cx="530.4" cy="496.8" r="83.3"/>
	</g>
</g>
<g id="Layer_3">
	<rect class="st11" width="1000" height="1000"/>
	<circle class="st10" cx="501.5" cy="509.5" r="433.5"/>
	<path class="st12" d="M500,96.7c-228.6,0-414,186.7-414,416.9c0,184.2,118.6,340.5,283.1,395.6c20.7,3.8,28.2-9.1,28.2-20.1
		c0-9.9-0.4-42.8-0.6-77.6c-115.1,25.2-139.5-49.2-139.5-49.2c-18.8-48.1-46-61-46-61c-37.6-25.9,2.9-25.3,2.9-25.3
		c41.6,2.9,63.4,43,63.4,43c36.9,63.7,96.9,45.3,120.5,34.6c3.8-26.9,14.5-45.3,26.3-55.7c-91.9-10.5-188.6-46.3-188.6-206.1
		c0-45.6,16.1-82.7,42.6-111.9c-4.2-10.6-18.5-53,4.1-110.4c0,0,34.7-11.2,113.9,42.8c33-9.3,68.4-13.9,103.6-14
		c35.2,0.2,70.6,4.8,103.6,14.1c79-54,113.8-42.8,113.8-42.8c22.6,57.4,8.4,99.8,4.1,110.3c26.5,29.2,42.6,66.3,42.6,111.9
		c0,160.2-96.8,195.4-189.1,205.8c14.9,12.9,28.1,38.3,28.1,77.2c0,55.7-0.6,100.7-0.6,114.4c0,11.1,7.5,24.1,28.5,20
		C795.5,854,914,697.8,914,513.6C914,283.4,728.6,96.7,500,96.7z"/>
</g>
</svg>
