<?xml version="1.0" encoding="utf-8"?>
<!-- Generator: Adobe Illustrator 22.0.0, SVG Export Plug-In . SVG Version: 6.00 Build 0)  -->
<svg version="1.1" id="Layer_1" xmlns="http://www.w3.org/2000/svg" xmlns:xlink="http://www.w3.org/1999/xlink" x="0px" y="0px"
	 viewBox="0 0 1366 768" style="enable-background:new 0 0 1366 768;" xml:space="preserve">
<style type="text/css">
	.st0{fill:#F80000;}
	.st1{display:none;}
	.st2{display:inline;fill:#E23237;}
	.st3{display:inline;fill:#FFFFFF;}
	.st4{display:inline;fill:#B52E31;}
	.st5{display:inline;fill:#020202;stroke:#000000;stroke-width:0.25;stroke-miterlimit:10;}
	.st6{display:inline;opacity:0.3;enable-background:new    ;}
	.st7{display:inline;fill:#19A9E0;}
	.st8{display:inline;opacity:0.7;fill:#204CBA;enable-background:new    ;}
	.st9{display:inline;fill:#141414;}
	.st10{display:inline;fill:#F4651A;}
	.st11{display:inline;fill:#FDFFFC;}
	.st12{display:inline;opacity:0.7;fill:#E64C18;enable-background:new    ;}
	.st13{display:inline;fill:#ED2024;}
	.st14{display:inline;fill:#158BC9;}
	.st15{display:inline;fill:#263238;}
	.st16{display:inline;fill:#40C4FF;}
	.st17{display:inline;fill:#ECEFF1;}
	.st18{display:inline;fill:#D0D8DC;}
	.st19{display:inline;fill:#7B858A;}
	.st20{fill:#FFFFFF;}
</style>
<rect y="1.1" class="st0" width="1366" height="768"/>
<g id="Layer_1_1_" class="st1">
	
		<image style="display:inline;overflow:visible;enable-background:new    ;" width="2000" height="284" xlink:href="5F15F883.png"  transform="matrix(0.683 0 0 0.683 0 287)">
	</image>
</g>
<g id="Angular-1" class="st1">
	<polygon class="st2" points="180.5,219.5 352.5,277.5 325.5,495.5 180.5,578.5 36.5,498.5 10.5,278.5 	"/>
	<path class="st3" d="M179.5,261l-106,231h40l20-54l95,1l23,53h38L179.5,261z M147.5,405l33-70l34,70H147.5z"/>
	<polygon class="st4" points="405,321 430,321 529,455 529,321 548,321 548,484 529,484 427,354 427,484 405,484 	"/>
	<path class="st4" d="M712,329v16c0,0-99.1-35.5-109,39c-10,75,32,87,88,84l1-55h20v66c0,0-72.8,25.8-113-20
		C556,410,579,289,712,329z"/>
	<path class="st4" d="M748,321h21v116c0,0,6,31,50,31c33,0,45-29,45-29V321h21v117c0,0-3,48-65,48c-72,0-72-46-72-46V321z"/>
	<polygon class="st4" points="922,321 944,321 944,466 1031,466 1031,486 922,486 	"/>
	<polygon class="st4" points="1122,302 1205,486 1182,486 1160,434 1102,434 1111,418 1153,418 1121,342 1060,486 1039,486 	"/>
	<path class="st5" d="M1182,486"/>
	<path class="st5" d="M1121,342"/>
	<path class="st4" d="M1226,321v165h24V341h57c0,0,55,33-33,56v17l51,72h30l-56-77c0,0,47-13,46-54c-0.7-29-35-34-35-34H1226z"/>
</g>
<g id="Angular-2" class="st1">
	<polygon class="st6" points="182,219.5 353,277.5 326,495.5 182,578.5 	"/>
</g>
<g id="CSS-1" class="st1">
	<polygon class="st7" points="12,165 385,165 353,561 198,606 46,562 	"/>
	<polygon class="st3" points="70,242 321,242 321,295 216,340 315,340 303,491 199.5,520.5 96.5,492.5 89.5,417.5 135.5,417.5 
		138.5,457.5 200.5,470.5 256.5,450.5 258.5,389.5 85,390 79.5,339.5 190.5,289.5 76,289 	"/>
	<path class="st8" d="M12,164l34,397l152,44l155-45l32-396H12z M327,535l-126,37V197h153L327,535z"/>
	<polygon class="st9" points="444,247 683,247 683,333 542,333 544,469 683,469 683,557 444,557 	"/>
	<polygon class="st9" points="736,247 1009,247 1009,332 877,332 1014,485 1014,557 736,557 736,472 871,472 736,317 	"/>
	<polygon class="st9" points="1066,247 1339,247 1339,332 1207,332 1344,485 1344,557 1066,557 1066,472 1201,472 1066,317 	"/>
</g>
<g id="Html-1" class="st1">
	<polygon class="st9" points="646,267 853,267 853,342 788,342 787,492 711,492 711,341 646,341 	"/>
	<polygon class="st9" points="886,267 961,267 1010,344 1057,267 1138,267 1138,492 1063,492 1064,379 1012,459 957,380 957,492 
		886,492 	"/>
	<polygon class="st9" points="1172,267 1249,267 1249,417 1352,417 1352,492 1172,492 	"/>
	<polygon class="st10" points="9,183 365,183 333,543 187,585 42,542 	"/>
	<polygon class="st11" points="77,258 298,258 293,305 125,305 128,349 290,349 278,485 187,510 95,484 91,415 136,416 136,452 
		186,465 237,450 241,392 88,393 	"/>
	<path class="st12" d="M9,183l33,359l145,43l146-42l32-360H9z M308,517l-121,36V214h146L308,517z"/>
	<polygon class="st9" points="395,267 470,267 470,340 539,340 539,267 613,267 613,492 539,492 539,415 471,415 472,492 395,492 	
		"/>
</g>
<g id="Java-1" class="st1">
	<path class="st13" d="M675.5,316.5L718,316v212c0,0,6.5,98.5-64.5,113.5l-18-24c0,0,41.5-4.5,40-76
		C673.9,466.5,675.5,316.5,675.5,316.5z"/>
	<path class="st13" d="M756,393l6,28c0,0,80-31,88,10l2,29c0,0-98-2-106,48s28,73,64,68s45-20,45-20l7,21h30V425
		C892,425,886,351,756,393z M854,531c0,0-51,39-68,1s27-51,68-47V531z"/>
	<path class="st13" d="M910,384h45l46,148l39-148h40c0,0-44,177-59,188h-48L910,384z"/>
	<path class="st13" d="M1104,397l7,25c0,0,82-35,90,6l2,29c0,0-101,1-109,51s27,74,63,69s49-24,49-24l7,21h30V422
		C1243,422,1237,349,1104,397z M1205,528c0,0-51,39-68,1s27-51,68-47V528z"/>
	<path class="st14" d="M491,415c0,0,90-2,38,68l-48,41c0,0,86-21,89-71S507,395,491,415z"/>
	<path class="st14" d="M271,412c0,0-108,34-14,36s183-2,211-15c0,0,9,28-144,31s-152-16-152-16S157,430,271,412z"/>
	<path class="st14" d="M251,481c0,0-34,32,60,27c96.1-5.1,115-13,115-13s17,17,22,17s-70,25-167,17S225,486,251,481z"/>
	<path class="st14" d="M263,548c0,0-14,25,64,20s80-10,80-10s27,17,31,16s-51,35-146,21S251,547,263,548z"/>
	<path class="st14" d="M216,595c0,0-100,17-29,32s201,9,201,9s106-7,129-18s17-9,17-15s12-2,7,9s-74,45-184,43s-202-3-218-14
		c-11-7-35-22,15-39C196,590,216,595,216,595z"/>
	<path class="st14" d="M210,669c0,0,111,8,149,7s159-4,206-46c0,0,18,13-52,40s-211,19-219,16C285,686,210,669,210,669z"/>
	<path class="st13" d="M409,82c0,0,25.5,63.5-68,129c-89,64-81.5,99.5-62,124c23,26,63.5,70.5,63.5,70.5s-58-80-40-110
		c5-17,70-80.2,75.5-84.5C387.5,203.5,446.5,146.5,409,82z"/>
	<path class="st13" d="M476.5,204.5c0,0-106,32-125,86c-13,46,22,78,22,78s24,20,5,46c-15,23-7,19,4,9s37-27,31-59c0,0-15-31-27-47
		c-13-12-2-49,37-74S476.5,204.5,476.5,204.5z"/>
</g>
<g id="Primefaces-1" class="st1">
	<polygon class="st15" points="17.5,361.5 550.5,361.5 524.5,275.5 569.5,284.5 594.5,251.5 725.5,251.5 753.5,286.5 794.5,276.5 
		768.5,361.5 1349.5,361.5 1313.5,393.5 1314.5,488.5 1295.5,506.5 720.5,506.5 690.5,542.5 629.5,542.5 599.5,505.5 73.5,508.5 
		52.5,486.5 51.5,396.5 	"/>
	<polygon class="st16" points="440,386 527,386 527,408 461,408 461,424 512,424 512,443 460,443 460,458 527,458 527,478 440,478 	
		"/>
	<polygon class="st16" points="324,386 346,386 375,421 405,386 426,386 426,478 407,478 407,414 375,455 343,415 344,478 324,478 	
		"/>
	<rect x="296" y="386" class="st16" width="19" height="92"/>
	<path class="st16" d="M283,434c0,0,0-6,0-25s-17-21-17-21h-75v92h20v-30h29l23,30h20v-8l-18-24C280,451,283,434,283,434z M263,425
		c0,0,0,3-5,4s-48,0-48,0v-22h49c0,0,4,0.8,4,4C263,414,263,425,263,425z"/>
	<path class="st16" d="M183,405c-1-15-15-17-15-17H91v92h21v-32c0,0,43,1,58,0s13-17,13-17S184,420,183,405z M163,423c0,0,0,6-4,6
		c-3.2,0-50,0-50,0v-22h48c0,0,6-1,6,6S163,423,163,423z"/>
	<polygon class="st17" points="784,388 869,388 869,407 805,407 804,418 856,418 857,444 804,444 804,478 784,478 	"/>
	<path class="st17" d="M953,387c-13.3,0-65,0-65,0s-12,7-12,18v74h20v-30h52v30h20v-74C968,405,966,387,953,387z M949,430h-54v-24
		h54V430z"/>
	<path class="st17" d="M1075,387v21h-74v50h74v21h-76c0,0-17,0-17-19v-56.9c0-1.3,0.5-2.7,1.3-3.7c3-3.7,10.3-12.4,12.7-12.4
		C1002,387,1075,387,1075,387z"/>
	<polygon class="st17" points="1087,387 1171,387 1171,407 1106,407 1105,423 1159,423 1159,443 1106,443 1106,459 1171,459 
		1171,479 1087,479 	"/>
	<path class="st17" d="M1201.8,387h54.8c10.1,0,18.4,8.2,18.4,18.4l0.5,9.1h-21v-8L1201,406v17h55.1c10.5,0,18.9,8.5,18.9,18.9v18.3
		c0,10.4-8.4,18.8-18.8,18.8h-55.7c-9.1,0-16.4-7.4-16.2-16.5l0.2-11h18v9h51l0.5-20.5h-55.7c-7.9,0-14.3-6.4-14.3-14.3v-20.9
		C1184,395,1192,387,1201.8,387z"/>
	<polygon class="st18" points="602.5,273.5 634.5,273.5 615.5,315.5 576.5,306.5 	"/>
	<polygon class="st18" points="637.5,273.5 678.5,273.5 695.5,318.5 669.5,390.5 676.5,444.5 637.5,444.5 646.5,388.5 620.5,323.5 	
		"/>
	<polygon class="st18" points="682.5,273.5 712.5,273.5 738.5,305.5 700.5,315.5 	"/>
	<polygon class="st18" points="702.5,321.5 762.5,308.5 752.5,354.5 676.5,384.5 	"/>
	<polygon class="st18" points="554.5,308.5 612.5,321.5 638.5,382.5 563.5,355.5 	"/>
	<polygon class="st18" points="676.5,390.5 686.5,384.5 701.5,404.5 701.5,488.5 686.5,475.5 630.5,475.5 617.5,488.5 617.5,404.5 
		630.5,384.5 638.5,389.5 632.5,447.5 643.5,460.5 670.5,460.5 682.5,448.5 	"/>
	<polygon class="st18" points="564.5,359.5 583.5,366.5 583.5,390.5 612,407 613,460 564.5,422.5 	"/>
	<polygon class="st18" points="731.5,367.5 748.5,359.5 748.5,423.5 706.5,459.5 706.5,403.5 731.5,388.5 	"/>
	<polygon class="st19" points="592,449.5 613,464.5 613,492.5 592,471.5 	"/>
	<polygon class="st19" points="706.5,463.5 706.5,490.5 727.5,469.5 727.5,447.5 	"/>
	<polygon class="st18" points="624.5,505.5 636.5,519.5 676.5,519.5 690.5,505.5 676.5,492.5 637.5,492.5 	"/>
	<polygon class="st19" points="631.5,482.5 685.5,482.5 698.5,496.5 693.5,500.5 682.5,488.5 631.5,488.5 620.5,500.5 617.5,496.5 	
		"/>
</g>
<g id="Oracle-1">
	<path class="st20" d="M198.8,303.2l-93.2,0.7c-46,0.4-79.9,38.1-80,84.7c-0.1,43.3,44,78,74,78.5h109.8
		c29.3-0.5,74.1-35.1,74.3-77.5C285.5,338.5,246.5,302.8,198.8,303.2z M253.5,388.7c-2,27.8-27,46.8-49.9,49.3h-91.4
		c-32.7,0.5-55.7-24.5-55.2-53.9l0,0c-0.3-28.5,23-51.7,51.8-51.8l88.6-0.4c31.5-0.2,56.1,24.9,56.1,55.9V388.7z"/>
	<path class="st20" d="M300,303h140.8c27.7,0,50.2,22.5,50.2,50.2v12c0,25.9-21,46.8-46.8,46.8H423l65,55h-47l-94-82l89.9-0.4
		c14.2-0.1,25.6-11.6,25.6-25.7v-0.1c0-14.5-11.8-26.3-26.3-26.4L332,332v135h-32V303z"/>
	<path class="st20" d="M495,467h37l81-129l45,71l-84.5-0.5l18,29h85l18,30h38l-99.4-155.4c-9.1-14.3-30-14.3-39.2,0L495,467z"/>
	<path class="st20" d="M908.9,303.1L890,331c0,0,0,0-0.1,0H800c-30.4,0-55.1,24.7-55.1,55.1l0,0c0,28.1,22.8,50.9,50.9,50.9h115.9
		c0.1,0,0.1,0.1,0.1,0.1L893,468c0,0,0,0-0.1,0l-98.7-0.5c-37.8,0-79.8-35.4-79.8-81l1-10c0-41.5,49.2-73.3,72-73l121.3-0.5
		C908.9,303,909,303.1,908.9,303.1z"/>
	<path class="st20" d="M926,303h31v135h147l-19,28H940.3c-7.9,0-14.3-6.4-14.3-14.3V303z"/>
	<path class="st20" d="M1291,303l-20,29h-103c-9.5,1.5-38,17-38,38l0,0h152l-19,30h-133l0,0c0,21,30.5,37.5,38,38h126l-20,28
		l-101.3,1.1c-32.2,0.4-77.2-33.9-77.2-76.6l0,0c0-48.2,38.6-87.5,86.8-87.5H1291z"/>
	<path class="st20" d="M1322.5,302.5c-10.5,0-19,7.5-19,18s8,18.5,18.5,18.5s17.5-8,17.5-18.5S1333,302.5,1322.5,302.5z M1322.1,335
		c-8.3,0-14.6-6.4-14.6-14.7c0-8.3,6.7-14.3,15-14.3s13.5,6,13.5,14.3C1336,328.6,1330.5,335,1322.1,335z"/>
	<path class="st20" d="M1330.3,329.8l-4.3-7.8c2-1,3-2,3-4v-3.3c0-2.6-2.1-4.7-4.7-4.7h-2.3h-7v21h4v-8h3l4,8h3.6
		C1330.2,331,1330.6,330.3,1330.3,329.8z M1322.7,319h-3.7v-6h4.3c1.5,0,2.7,1.2,2.7,2.7C1326,317.5,1324.5,319,1322.7,319z"/>
</g>
</svg>
