<?xml version="1.0" encoding="utf-8"?>
<!-- Generator: Adobe Illustrator 22.0.0, SVG Export Plug-In . SVG Version: 6.00 Build 0)  -->
<svg version="1.1" id="Layer_1" xmlns="http://www.w3.org/2000/svg" xmlns:xlink="http://www.w3.org/1999/xlink" x="0px" y="0px"
	 viewBox="0 0 2000 2000" style="enable-background:new 0 0 2000 2000;" xml:space="preserve">
<style type="text/css">
	.st0{fill:#6EC7EF;}
	.st1{fill:#5D5D6D;}
	.st2{fill:#6C6C7A;}
	.st3{fill:#41404F;}
	.st4{fill:#6ED5EF;}
	.st5{fill:#6EA7EF;}
	.st6{fill:#E6E7E8;}
	.st7{fill:#565668;}
	.st8{fill:#878796;}
	.st9{fill:#EC983B;}
	.st10{opacity:0.2;fill:#2B3990;}
	.st11{fill:#363142;}
	.st12{fill:#A55932;}
	.st13{fill:#F7CA82;}
	.st14{fill:#D1D3D4;}
	.st15{fill:#F7B378;}
	.st16{fill:#F1F2F2;}
	.st17{fill:#1C75BC;}
	.st18{fill:#B64D50;}
	.st19{fill:#9D5932;}
	.st20{fill:#C49A6C;}
	.st21{fill:#8E4D50;}
	.st22{fill:#EF4661;}
	.st23{fill:#EF5F61;}
	.st24{fill:#FBA140;}
	.st25{fill:#F9DC32;}
	.st26{fill:#FFE252;}
	.st27{fill:#414042;}
	.st28{fill:#00A79D;}
	.st29{fill:#10C1B0;}
	.st30{fill:#585866;}
	.st31{fill:#BCBEC0;}
</style>
<g>
	<polygon class="st0" points="1938.7,504.3 1938.7,783.3 1507.4,533.8 1507.4,254.8 	"/>
	<path class="st1" d="M1946.1,972.9l-95.4,61l-42.5,39.3L183.7,1422.2l-27.1-25l-120.4-25.3v93.4l0,0c-0.1,5.4,2.4,10.8,7.8,13.9
		l19.3,11.2L652,1831l0,0c8.8,5.1,19.7,5.1,28.5,0l1213.6-700.6l74.1-42.7c9.6-5.5,14.1-15.3,13.8-25l0,0v-93.4L1946.1,972.9z"/>
	<path class="st2" d="M1981.9,1062.7L1981.9,1062.7l0-93.4l-35.9,3.6l-95.4,61l-42.5,39.3l-533.8,114.7l-603.9,521.7v125
		c3.5-0.5,6.9-1.7,10-3.5l1213.6-700.6l74.1-42.7C1977.7,1082.2,1982.3,1072.4,1981.9,1062.7z"/>
	<polygon class="st3" points="110.6,1453.3 110.6,1489.3 77.4,1470.2 77.4,1434.2 	"/>
	<polygon class="st3" points="155.7,1479.3 155.7,1515.3 122.6,1496.1 122.6,1460.2 	"/>
	<polygon class="st3" points="200.8,1505.2 200.8,1541.2 167.7,1522.1 167.7,1486.1 	"/>
	<polygon class="st3" points="622.3,1750.5 622.3,1786.5 519.3,1726.9 519.3,1690.9 	"/>
	<polygon class="st3" points="819.4,1686.4 819.4,1722.4 922.4,1662.7 922.4,1626.7 	"/>
	<polygon class="st0" points="179.3,1313.7 1291.1,671.7 1879.8,1012.2 768,1654.2 	"/>
	<polygon class="st4" points="1291.1,671.7 768,1654.2 179.3,1313.7 	"/>
	<polygon class="st5" points="1834,1038.7 1879.8,1012.2 1291.1,671.7 1245.3,698.1 	"/>
	<polygon class="st5" points="768,1654.2 813.8,1627.8 225.1,1287.2 179.3,1313.7 	"/>
	<polygon class="st6" points="1866.3,1012 1848.1,1001.4 1816.6,1019.6 1834.7,1030.2 	"/>
	<polygon class="st6" points="1844,999.1 1825.8,988.6 1794.3,1006.8 1812.5,1017.3 	"/>
	<polygon class="st6" points="1821.7,986.2 1803.5,975.7 1772,993.9 1790.2,1004.4 	"/>
	<polygon class="st6" points="1799.4,973.4 1781.3,962.8 1749.7,981 1767.9,991.6 	"/>
	<polygon class="st6" points="1601.4,859.4 1549.7,829.3 1518.2,847.5 1569.9,877.6 	"/>
	<polygon class="st6" points="796.8,1625.7 745.1,1595.6 713.6,1613.8 765.3,1643.9 	"/>
	<polygon class="st6" points="522.6,1467.4 470.9,1437.3 439.3,1455.5 491,1485.6 	"/>
	<polygon class="st6" points="279.4,1326.4 227.7,1296.3 196.2,1314.5 247.9,1344.6 	"/>
	<path class="st3" d="M1968.1,946.2l-1.1-0.6L1378.3,605h0c-8.8-5.1-19.7-5.1-28.5,0L165,1289L44,1358.8c-10.4,6-10.4,21,0,27
		l19.3,11.2L652,1737.6l0,0c8.8,5.1,19.7,5.1,28.5,0l1213.6-700.6l74.1-42.7C1986.6,983.6,1986.6,956.9,1968.1,946.2z M768,1654.2
		l-588.7-340.5l1111.8-642l588.7,340.6L768,1654.2z"/>
	<g>
		<path class="st7" d="M1837.9,1137.9c-0.1-0.1-0.1-0.1-0.2-0.1c-0.2-0.1-0.3-0.3-0.5-0.4c0,0-0.1-0.1-0.1-0.1
			c-0.2-0.2-0.3-0.3-0.5-0.5c0-0.1-0.1-0.1-0.1-0.2c-0.1-0.1-0.2-0.3-0.4-0.4c0-0.1-0.1-0.1-0.1-0.2c-0.1-0.2-0.2-0.3-0.3-0.5
			c0,0-0.1-0.1-0.1-0.1c-0.1-0.2-0.3-0.5-0.4-0.7c-0.1-0.2-0.3-0.5-0.4-0.8c0,0,0-0.1-0.1-0.1c-0.1-0.2-0.2-0.4-0.3-0.6
			c0-0.1,0-0.1-0.1-0.2c0-0.1-0.1-0.3-0.1-0.4c-0.1-0.2-0.1-0.4-0.2-0.6c0-0.1-0.1-0.3-0.1-0.4c0-0.2-0.1-0.4-0.1-0.6
			c0-0.2-0.1-0.3-0.1-0.5c0-0.2-0.1-0.3-0.1-0.5c0-0.2-0.1-0.4-0.1-0.5c0-0.1,0-0.3-0.1-0.4c0-0.2-0.1-0.4-0.1-0.6
			c0-0.1,0-0.3,0-0.4c0-0.2,0-0.5,0-0.7c0-0.1,0-0.2,0-0.3c0-0.4,0-0.7,0-1.1c0-0.4,0-0.7,0-1.1c0-0.1,0-0.3,0-0.4
			c0-0.3,0-0.5,0.1-0.8c0-0.1,0-0.3,0-0.4c0-0.3,0-0.5,0.1-0.8c0-0.1,0-0.2,0-0.3c0-0.4,0.1-0.8,0.2-1.1c0-0.1,0-0.1,0-0.1
			c0.1-0.3,0.1-0.7,0.2-1c0-0.1,0.1-0.3,0.1-0.4c0-0.2,0.1-0.5,0.2-0.8c0-0.1,0.1-0.3,0.1-0.4c0.1-0.2,0.1-0.5,0.2-0.8
			c0-0.1,0.1-0.3,0.1-0.4c0.1-0.3,0.2-0.5,0.2-0.8c0-0.1,0.1-0.2,0.1-0.4c0.1-0.4,0.2-0.8,0.4-1.2c0,0,0-0.1,0-0.1
			c0.1-0.4,0.2-0.7,0.4-1.1c0-0.1,0.1-0.2,0.1-0.3c0.1-0.3,0.2-0.5,0.3-0.8c0.1-0.1,0.1-0.2,0.2-0.4c0.1-0.3,0.2-0.5,0.3-0.8
			c0-0.1,0.1-0.2,0.1-0.3c0.2-0.4,0.3-0.7,0.5-1.1c0-0.1,0.1-0.2,0.1-0.3c0.1-0.3,0.3-0.6,0.4-0.9c0.1-0.2,0.2-0.4,0.3-0.6
			c0.1-0.2,0.2-0.4,0.3-0.6c0.3-0.5,0.6-1,0.9-1.5c0.1-0.2,0.2-0.3,0.3-0.5c0.1-0.2,0.2-0.4,0.4-0.6c0.1-0.2,0.2-0.4,0.3-0.6
			c0.1-0.2,0.3-0.4,0.4-0.6c0.1-0.1,0.2-0.3,0.3-0.4c0.4-0.6,0.7-1.1,1.1-1.6c0,0,0,0,0,0c0.3-0.4,0.6-0.7,0.8-1.1
			c0.2-0.3,0.4-0.6,0.7-0.8c0-0.1,0.1-0.1,0.1-0.2c0.3-0.3,0.5-0.7,0.8-1c0.1-0.1,0.2-0.2,0.2-0.3c0.2-0.2,0.4-0.4,0.6-0.7
			c0.1-0.1,0.2-0.2,0.4-0.4c0.2-0.2,0.3-0.4,0.5-0.5c0.1-0.1,0.3-0.2,0.4-0.4c0.2-0.2,0.3-0.3,0.5-0.5c0.1-0.1,0.3-0.3,0.4-0.4
			c0.2-0.2,0.3-0.3,0.5-0.5c0.1-0.1,0.3-0.2,0.4-0.4c0.2-0.1,0.3-0.3,0.5-0.5c0.1-0.1,0.3-0.2,0.4-0.3c0.2-0.1,0.4-0.3,0.6-0.4
			c0.1-0.1,0.2-0.2,0.4-0.3c0.2-0.2,0.4-0.3,0.6-0.5c0.1-0.1,0.2-0.1,0.3-0.2c0.3-0.2,0.6-0.4,0.9-0.6c0,0,0,0,0.1,0
			c0.3-0.2,0.6-0.4,1-0.6c0.3-0.2,0.6-0.3,0.9-0.5c0.1,0,0.2-0.1,0.3-0.2c0.2-0.1,0.4-0.2,0.7-0.3c0.1,0,0.2-0.1,0.3-0.1
			c0.3-0.1,0.6-0.3,0.9-0.4c0.3-0.1,0.6-0.2,0.9-0.3c0.1,0,0.2-0.1,0.3-0.1c0.2-0.1,0.4-0.1,0.6-0.2c0.1,0,0.2-0.1,0.4-0.1
			c0.2-0.1,0.4-0.1,0.6-0.1c0.1,0,0.2-0.1,0.3-0.1c0.2,0,0.4-0.1,0.5-0.1c0.1,0,0.3,0,0.4-0.1c0.2,0,0.3-0.1,0.5-0.1
			c0.1,0,0.3,0,0.4,0c0.1,0,0.3,0,0.4,0c0.2,0,0.3,0,0.5,0c0.2,0,0.5,0,0.7,0c0,0,0,0,0.1,0c0.2,0,0.5,0,0.7,0.1c0.1,0,0.1,0,0.2,0
			c0.3,0,0.5,0.1,0.7,0.1c0.1,0,0.1,0,0.2,0c0.2,0,0.4,0.1,0.6,0.1c0.1,0,0.2,0.1,0.3,0.1c0.1,0.1,0.3,0.1,0.4,0.2
			c0.2,0.1,0.4,0.1,0.5,0.2c0.1,0,0.2,0.1,0.3,0.1c0.3,0.1,0.5,0.3,0.7,0.4c0,0-9.6-5.6-9.6-5.6c-0.2-0.1-0.5-0.3-0.7-0.4
			c-0.1,0-0.2-0.1-0.3-0.1c-2.8-1.2-6.1-0.9-8.9,0c-2.9,0.9-5.6,2.5-8,4.4c-0.1,0-0.1,0.1-0.2,0.2c-0.1,0.1-0.3,0.2-0.4,0.3
			c-8.6,7.1-14.8,18.3-15.6,29.5c-0.3,3.8,0.1,8.3,2.3,11.6c0,0,0,0,0,0c0,0.1,0.1,0.1,0.1,0.1c0.1,0.2,0.2,0.3,0.4,0.5
			c0,0.1,0.1,0.1,0.1,0.2c0.1,0.1,0.2,0.3,0.3,0.4c0,0.1,0.1,0.1,0.1,0.2c0.2,0.2,0.3,0.4,0.5,0.5c0,0,0.1,0,0.1,0.1
			c0.1,0.1,0.3,0.3,0.5,0.4c0.1,0,0.1,0.1,0.2,0.1c0.1,0.1,0.3,0.2,0.4,0.3c0.1,0,0.1,0.1,0.2,0.1c0.2,0.1,0.4,0.3,0.6,0.4l9.6,5.6
			c-0.2-0.1-0.4-0.3-0.6-0.4c-0.1,0-0.1-0.1-0.2-0.1C1838.2,1138.1,1838,1138,1837.9,1137.9z"/>
		<g>
			<path class="st8" d="M1853.2,1091.2c-11.1,6.4-20,21.9-20,34.6c0,12.7,9,17.9,20.1,11.5c11.1-6.4,20-21.9,20-34.6
				C1873.3,1090,1864.3,1084.8,1853.2,1091.2z"/>
		</g>
	</g>
	<g>
		<path class="st7" d="M1734.3,1197.7c-0.1,0-0.1-0.1-0.2-0.1c-0.2-0.1-0.3-0.3-0.5-0.4c0,0,0,0-0.1-0.1c-0.2-0.2-0.3-0.3-0.5-0.5
			c0,0-0.1-0.1-0.1-0.2c-0.1-0.1-0.2-0.3-0.3-0.4c0-0.1-0.1-0.1-0.1-0.2c-0.1-0.2-0.2-0.3-0.4-0.5c0-0.1-0.1-0.1-0.1-0.1
			c-0.1-0.2-0.3-0.5-0.4-0.7c-0.1-0.3-0.3-0.5-0.4-0.8c0,0,0-0.1-0.1-0.1c-0.1-0.2-0.2-0.4-0.3-0.6c0-0.1,0-0.1-0.1-0.2
			c0-0.1-0.1-0.3-0.1-0.4c-0.1-0.2-0.1-0.4-0.2-0.6c0-0.2-0.1-0.3-0.1-0.4c0-0.2-0.1-0.3-0.1-0.5c0-0.2-0.1-0.3-0.1-0.5
			c0-0.2-0.1-0.3-0.1-0.5c0-0.2-0.1-0.4-0.1-0.5c0-0.1-0.1-0.3-0.1-0.4c0-0.2-0.1-0.4-0.1-0.6c0-0.1,0-0.3,0-0.4
			c0-0.2,0-0.5-0.1-0.7c0-0.1,0-0.2,0-0.3c0-0.4,0-0.7,0-1.1c0-0.4,0-0.7,0-1.1c0-0.1,0-0.2,0-0.4c0-0.3,0-0.5,0.1-0.8
			c0-0.1,0-0.3,0-0.4c0-0.3,0.1-0.5,0.1-0.8c0-0.1,0-0.2,0-0.3c0.1-0.4,0.1-0.8,0.2-1.1c0,0,0-0.1,0-0.1c0.1-0.3,0.1-0.7,0.2-1
			c0-0.1,0.1-0.3,0.1-0.4c0-0.3,0.1-0.5,0.2-0.8c0-0.1,0.1-0.3,0.1-0.4c0.1-0.3,0.1-0.5,0.2-0.7c0-0.1,0.1-0.3,0.1-0.4
			c0.1-0.3,0.1-0.5,0.2-0.8c0-0.1,0.1-0.3,0.1-0.4c0.1-0.4,0.2-0.8,0.4-1.2c0,0,0-0.1,0-0.1c0.1-0.4,0.2-0.7,0.4-1.1
			c0-0.1,0.1-0.2,0.1-0.3c0.1-0.3,0.2-0.5,0.3-0.8c0.1-0.1,0.1-0.3,0.2-0.4c0.1-0.3,0.2-0.6,0.4-0.8c0-0.1,0.1-0.2,0.1-0.3
			c0.2-0.4,0.3-0.7,0.5-1.1c0-0.1,0.1-0.2,0.1-0.3c0.1-0.3,0.3-0.6,0.4-0.9c0.1-0.2,0.2-0.4,0.3-0.6c0.1-0.2,0.2-0.4,0.3-0.6
			c0.3-0.5,0.6-1,0.9-1.5c0.1-0.2,0.2-0.3,0.3-0.5c0.1-0.2,0.3-0.4,0.4-0.6c0.1-0.2,0.2-0.4,0.3-0.5c0.1-0.2,0.3-0.4,0.4-0.6
			c0.1-0.1,0.2-0.3,0.3-0.4c0.4-0.5,0.7-1.1,1.1-1.6c0,0,0,0,0,0c0.3-0.4,0.6-0.7,0.8-1.1c0.2-0.3,0.4-0.6,0.7-0.8
			c0-0.1,0.1-0.1,0.1-0.2c0.3-0.3,0.5-0.6,0.8-1c0.1-0.1,0.2-0.2,0.2-0.3c0.2-0.2,0.4-0.4,0.6-0.6c0.1-0.1,0.2-0.2,0.3-0.4
			c0.2-0.2,0.3-0.4,0.5-0.5c0.1-0.1,0.3-0.3,0.4-0.4c0.2-0.2,0.4-0.3,0.5-0.5c0.1-0.1,0.3-0.3,0.4-0.4c0.2-0.2,0.3-0.3,0.5-0.5
			c0.1-0.1,0.3-0.2,0.4-0.4c0.2-0.1,0.4-0.3,0.5-0.4c0.1-0.1,0.3-0.2,0.4-0.3c0.2-0.1,0.4-0.3,0.6-0.4c0.1-0.1,0.3-0.2,0.4-0.3
			c0.2-0.2,0.4-0.3,0.6-0.5c0.1-0.1,0.2-0.2,0.3-0.2c0.3-0.2,0.6-0.4,0.9-0.6c0,0,0,0,0.1,0c0.3-0.2,0.6-0.4,1-0.6
			c0.3-0.2,0.6-0.3,0.9-0.5c0.1-0.1,0.2-0.1,0.3-0.2c0.2-0.1,0.4-0.2,0.7-0.3c0.1,0,0.2-0.1,0.3-0.1c0.3-0.1,0.6-0.3,0.9-0.4
			c0.3-0.1,0.6-0.2,0.9-0.3c0.1,0,0.2-0.1,0.3-0.1c0.2-0.1,0.4-0.1,0.6-0.2c0.1,0,0.2-0.1,0.4-0.1c0.2-0.1,0.4-0.1,0.5-0.1
			c0.1,0,0.2-0.1,0.4-0.1c0.2,0,0.3-0.1,0.5-0.1c0.1,0,0.3-0.1,0.4-0.1c0.2,0,0.3,0,0.5-0.1c0.1,0,0.3,0,0.4,0c0.1,0,0.3,0,0.4,0
			c0.2,0,0.3,0,0.5,0c0.2,0,0.5,0,0.7,0c0,0,0,0,0.1,0c0.2,0,0.5,0,0.7,0.1c0.1,0,0.1,0,0.2,0c0.2,0,0.5,0.1,0.7,0.1
			c0.1,0,0.1,0,0.2,0c0.2,0,0.4,0.1,0.6,0.1c0.1,0,0.2,0.1,0.3,0.1c0.1,0,0.3,0.1,0.4,0.2c0.2,0.1,0.4,0.1,0.5,0.2
			c0.1,0,0.2,0.1,0.3,0.1c0.3,0.1,0.5,0.3,0.8,0.4l-9.6-5.6c-0.2-0.1-0.5-0.3-0.7-0.4c-0.1,0-0.2-0.1-0.3-0.1c-2.8-1.2-6.1-1-9,0
			c-2.8,0.9-5.6,2.5-7.9,4.4c-0.1,0.1-0.1,0.1-0.2,0.2c-0.1,0.1-0.3,0.2-0.4,0.3c-8.6,7.1-14.8,18.3-15.6,29.5
			c-0.3,3.8,0.1,8.3,2.3,11.6c0,0,0,0,0,0c0,0,0.1,0.1,0.1,0.1c0.1,0.2,0.2,0.3,0.3,0.5c0,0.1,0.1,0.1,0.1,0.2
			c0.1,0.1,0.2,0.3,0.4,0.4c0,0.1,0.1,0.1,0.1,0.2c0.2,0.2,0.3,0.4,0.5,0.5c0,0,0.1,0,0.1,0.1c0.1,0.1,0.3,0.3,0.5,0.4
			c0.1,0.1,0.1,0.1,0.2,0.1c0.1,0.1,0.3,0.2,0.4,0.3c0,0,0.1,0.1,0.2,0.1c0.2,0.1,0.4,0.3,0.6,0.4l9.6,5.6c-0.2-0.1-0.4-0.3-0.6-0.4
			c-0.1,0-0.1-0.1-0.2-0.1C1734.6,1197.9,1734.5,1197.8,1734.3,1197.7z"/>
		<g>
			<path class="st8" d="M1749.7,1151c-11.1,6.4-20,21.9-20,34.6c0,12.7,9,17.9,20.1,11.5c11.1-6.4,20-21.9,20-34.6
				C1769.7,1149.8,1760.7,1144.6,1749.7,1151z"/>
		</g>
	</g>
	<path class="st2" d="M1951.7,456.4l-425.1-245.9c-2.8-1.6-6-1.5-8.6-0.1v0l-0.1,0.1c0,0,0,0,0,0l-16.3,9.5l12,42.8v281.4
		c0,10.3,5.5,19.7,14.4,24.9l409.5,237l4.8,12.9l16.4-9.5v0c4.6-2.6,7.9-7.5,7.9-13.6V482.3C1966.6,471.6,1960.9,461.8,1951.7,456.4
		z"/>
	<path class="st3" d="M1950.2,491.8v313.5c0,12-13,19.5-23.4,13.5l-415.2-240.2c-8.9-5.1-14.4-14.6-14.4-24.9V227.5
		c0-6.7,7.2-10.8,13-7.5l425,245.9C1944.5,471.3,1950.2,481.1,1950.2,491.8z"/>
	<polygon class="st9" points="1938.7,504.3 1938.7,783.3 1507.4,533.8 1507.4,254.8 	"/>
	<polygon class="st6" points="1617.7,355.5 1617.7,345.3 1526.4,292.5 1526.4,302.6 	"/>
	<polygon class="st6" points="1617.7,375 1617.7,364.9 1526.4,312 1526.4,322.2 	"/>
	<polygon class="st6" points="1617.7,394.6 1617.7,384.4 1526.4,331.5 1526.4,341.7 	"/>
	<g>
		<polygon class="st6" points="1669,375.5 1669,385.6 1760.4,438.5 1760.4,428.3 		"/>
		<polygon class="st6" points="1669,405.2 1760.4,458 1760.4,447.9 1669,395 		"/>
		<polygon class="st6" points="1669,424.7 1760.4,477.6 1760.4,467.4 1669,414.5 		"/>
		<polygon class="st6" points="1669,473.7 1760.4,526.6 1760.4,516.4 1669,463.5 		"/>
		<polygon class="st6" points="1669,493.2 1760.4,546.1 1760.4,535.9 1669,483.1 		"/>
		<polygon class="st6" points="1669,512.8 1760.4,565.6 1760.4,555.5 1669,502.6 		"/>
		<polygon class="st6" points="1669,561.8 1760.4,614.6 1760.4,604.4 1669,551.6 		"/>
		<polygon class="st6" points="1669,581.3 1760.4,634.2 1760.4,624 1669,571.1 		"/>
		<polygon class="st6" points="1669,600.8 1760.4,653.7 1760.4,643.5 1669,590.7 		"/>
	</g>
	<polygon class="st6" points="1617.7,414.1 1617.7,404 1526.4,351.1 1526.4,361.3 	"/>
	<polygon class="st6" points="1828.4,586.1 1796.1,567.4 1796.1,673.2 1828.4,691.8 	"/>
	<polygon class="st6" points="1871.2,553.5 1838.8,534.8 1838.8,697.9 1871.2,716.6 	"/>
	<polygon class="st6" points="1913.9,521.1 1881.6,502.4 1881.6,722.7 1913.9,741.4 	"/>
	<path class="st6" d="M1580.3,485.6v-59.2c-1-0.7-2-1.3-3-1.9c-28-16.2-50.9-3.2-50.9,29c-0.1,32.2,22.6,71.5,50.6,87.7
		c28,16.2,50.8,3.2,50.9-29c0-0.5,0-1-0.1-1.4L1580.3,485.6z"/>
	<g>
		<path class="st6" d="M1672,1051.6l-81.6-47.5c-8.8-5.1-19.8-5.1-28.6,0l-85.2,49.2c-5.8,3.4-9.3,9.4-9.3,16.1
			c0,6.7,3.5,12.8,9.3,16.1l76.8,44.7c5.3,3,11.1,4.6,17,4.6c5.9,0,11.7-1.5,16.9-4.5l84.5-48.8c5.4-3.1,8.6-8.7,8.6-14.9
			C1680.6,1060.3,1677.4,1054.7,1672,1051.6z M1666.8,1072.4l-84.5,48.8c-7.3,4.2-16.3,4.2-23.5,0l-76.8-44.7
			c-2.6-1.5-4.1-4.2-4.1-7.2c0-3,1.5-5.7,4.1-7.1l85.2-49.2c2.8-1.6,5.9-2.4,9.1-2.4c3.1,0,6.3,0.8,9.1,2.4l81.6,47.5
			c2.2,1.3,3.4,3.4,3.4,6C1670.2,1069,1669,1071.2,1666.8,1072.4z"/>
		<path class="st6" d="M1486.8,954.2c0-6.2-3.2-11.8-8.6-14.9l-81.6-47.5c-8.8-5.1-19.8-5.1-28.6,0l-85.2,49.2
			c-5.8,3.4-9.3,9.4-9.3,16.1c0,6.7,3.5,12.8,9.3,16.1l76.8,44.7c5.2,3.1,11.1,4.6,17,4.6c5.9,0,11.7-1.5,16.9-4.5l84.5-48.8
			C1483.5,966,1486.8,960.5,1486.8,954.2z M1473,960.2l-84.5,48.8c-7.3,4.2-16.3,4.2-23.5,0l-76.8-44.7c-2.6-1.5-4.1-4.2-4.1-7.1
			c0-3,1.6-5.7,4.1-7.1l85.2-49.2c2.8-1.6,5.9-2.4,9.1-2.4c3.1,0,6.3,0.8,9.1,2.5l81.6,47.5c2.2,1.3,3.4,3.4,3.4,6
			C1476.4,956.7,1475.1,958.9,1473,960.2z"/>
		<path class="st6" d="M1293,842c0-6.2-3.2-11.8-8.6-15l-81.6-47.5c-8.8-5.1-19.8-5.1-28.6,0l-85.2,49.2c-5.8,3.4-9.3,9.4-9.3,16.1
			c0,6.7,3.4,12.8,9.3,16.1l76.8,44.7c5.3,3,11.1,4.6,17,4.6c5.8,0,11.7-1.5,16.9-4.5l84.6-48.8C1289.7,853.8,1292.9,848.2,1293,842
			z M1279.1,847.9l-84.6,48.8c-7.3,4.2-16.3,4.2-23.5,0l-76.8-44.7c-2.6-1.5-4.1-4.2-4.1-7.2c0-3,1.6-5.7,4.1-7.1l85.2-49.2
			c2.8-1.6,5.9-2.4,9.1-2.4c3.1,0,6.3,0.8,9.1,2.4l81.6,47.5c2.2,1.3,3.4,3.4,3.4,6C1282.6,844.4,1281.3,846.6,1279.1,847.9z"/>
	</g>
	<polygon class="st0" points="567,383.9 567,662.9 998.3,413.3 998.3,134.4 	"/>
	<polygon class="st0" points="8.1,848.5 8.1,1127.5 439.3,878 439.3,599 	"/>
	<g>
		<path class="st6" d="M1754.6,956.6c0-1.4-0.5-3-0.8-4c-0.3-0.8-0.6-1.7-1-2.4c-0.9-1.7-2-3.2-3.3-4.5c-2-2.1-4.4-3.9-6.9-5.3
			c-3.5-2-7.2-3.5-11.1-4.5c-4.4-1.2-8.9-1.9-13.5-2.1c-1.2-0.1-2.4-0.1-3.7-0.1c-1.2,0-2.4-0.1-3.5-0.1c-1,0.1-1.9,0.3-2.7,0.8
			c-0.5,0.3-1.3,0.9-1.3,1.6c0,0.7,0.5,1.3,1.2,1.8c1.8,1,3.9,0.6,5.9,0.6c7.8,0,16.1,1.5,22.9,5.5c5.5,3.2,9,7.5,9.3,12.3l-0.2,1.8
			c0,0.7,0.5,1.3,1.2,1.8c0.8,0.4,1.8,0.7,3.1,0.7c1,0,2.3-0.4,3.2-0.9C1754.4,958.9,1754.7,957.8,1754.6,956.6z"/>
		<path class="st6" d="M1739.2,956.2c-0.1-2-1-3.9-2.1-5.4c-1.3-1.7-3.1-3.1-4.9-4.2c-5-2.9-11-3.9-16.7-3.9c-1.8,0-3.8-0.3-5.6,0.2
			c-1.1,0.3-2.7,1-2.7,2.4c0,0.7,0.5,1.4,1.4,1.8c0.8,0.5,2,0.8,3.3,0.9l3.5-0.1c4.1,0,7.8,1,10.5,2.5c1.4,0.8,2.8,1.9,3.6,3.3
			c0.4,0.6,0.6,1.3,0.7,2c0.1,0.9-0.3,1.8-0.1,2.6c0.1,0.6,0.7,1.1,1.2,1.4c2.4,1.4,7.5,1.3,7.9-2.2
			C1739.2,957.1,1739.3,956.7,1739.2,956.2z"/>
		<path class="st6" d="M1719.6,953.7c-3.1-1.8-7.5-1.8-10.4-0.1c-2.8,1.6-3,4.4,0,6.1c2.9,1.6,7.5,1.5,10.4-0.1
			C1722.5,957.9,1722.5,955.3,1719.6,953.7z"/>
	</g>
	<path class="st10" d="M921.2,1503.2L808,1437.9c-3.3-1.9-7.4-1.9-10.7,0l-112.5,64.7c-7.2,4.1-7.2,14.5,0,18.6l113.2,65.3
		c3.3,1.9,7.4,1.9,10.7,0l112.5-64.7C928.3,1517.7,928.3,1507.4,921.2,1503.2z"/>
	<path class="st10" d="M546.9,1278.2l-113.2-65.3c-3.3-1.9-7.4-1.9-10.7,0l-112.5,64.7c-7.2,4.1-7.2,14.4,0,18.6l113.2,65.3
		c3.3,1.9,7.4,1.9,10.7,0l112.5-64.7C554.1,1292.7,554.1,1282.4,546.9,1278.2z"/>
	<path class="st10" d="M780.8,1142l-113.2-65.3c-3.3-1.9-7.4-1.9-10.7,0l-112.5,64.7c-7.2,4.1-7.2,14.4,0,18.6l113.2,65.3
		c3.3,1.9,7.4,1.9,10.7,0l112.5-64.7C787.9,1156.4,787.9,1146.1,780.8,1142z"/>
	<path class="st10" d="M989.1,1020.8l-113.2-65.3c-3.3-1.9-7.4-1.9-10.7,0l-112.5,64.7c-7.2,4.1-7.2,14.4,0,18.6l113.2,65.3
		c3.3,1.9,7.4,1.9,10.7,0l112.5-64.7C996.2,1035.2,996.2,1024.9,989.1,1020.8z"/>
	<path class="st10" d="M1156.8,1363.5l-113.2-65.3c-3.3-1.9-7.4-1.9-10.7,0l-112.5,64.7c-7.2,4.1-7.2,14.4,0,18.6l113.2,65.3
		c3.3,1.9,7.4,1.9,10.7,0l112.5-64.7C1164,1378,1164,1367.6,1156.8,1363.5z"/>
	<path class="st10" d="M1368.9,1242.3l-113.2-65.3c-3.3-1.9-7.4-1.9-10.7,0l-112.5,64.7c-7.2,4.1-7.2,14.4,0,18.6l113.2,65.3
		c3.3,1.9,7.4,1.9,10.7,0l112.5-64.7C1376,1256.7,1376,1246.4,1368.9,1242.3z"/>
	<g>
		<g>
			<path class="st11" d="M923.6,967.4c0,0,12.1,0.2,17.8-3.7c5.7-3.9,19.1,12.2,5.9,20.8c-13.2,8.5-26.8,17.1-34,15.8
				c-7.1-1.2-11-2.4-11.6-4.1c-0.6-1.6-0.8-30.1-0.8-30.1L923.6,967.4z"/>
			<path class="st12" d="M928.6,945.9v32.5c0,0-18.3,8-30.4,3.4l-4.6-21.6L928.6,945.9z"/>
			<path class="st11" d="M975.6,986c0,0,12.1,0.2,17.8-3.7c5.7-3.9,19.1,12.2,5.9,20.8c-13.2,8.5-26.8,17.1-34,15.8
				c-7.1-1.2-11-2.4-11.6-4.1c-0.6-1.6-0.8-30.1-0.8-30.1L975.6,986z"/>
			<path class="st13" d="M972.8,844.8c0,0,5-8.8,9.1-14c4-5.3,9.5-13.5,4.5-17.8c-5-4.2-14.5-9.3-19-9c-4.5,0.3-11.7,6.2-9.3,9.1
				c2.4,2.9-2.1,17.1-2.1,17.1L972.8,844.8z"/>
			<path class="st6" d="M800.6,752.1c4.7-5.3,12.1-7.1,18.8-5.1l14.2,4.2l38.6,18l26.7,14l2.3,85.5l2.7,41.7l-15.9,13.4
				c-18.9,17.7-76.8-13.4-76.8-13.4c-9.8-32.3-24.1-121.4-24.1-121.4C787.6,770.7,794.5,759,800.6,752.1z"/>
			<path class="st12" d="M897.5,888.5c0,0,40.5-8.5,65.3-10.8c9-0.8,16.9,6,17.3,15.1c1.1,22.4,2.4,65.7-0.8,99.4l-15,9.4
				c-6.8,4.3-15.7-0.4-16.1-8.4l-2.8-55.2c-0.2-4.7-5.9,1-9.4,4.1c-11.3,9.7-38.5,20.6-55,14.8c0,0-49.6-15.3-61.5-47.6L897.5,888.5
				z"/>
			<path class="st14" d="M873.3,967.4l14-7.2l-8,123.2c-0.1,2.1-1,4-2.4,5.2c-1.8,1.6-3.6,2.3-5.2,2.6c-3.5,0.6-6.6-3.2-6.3-7.6
				L873.3,967.4z"/>
			<path class="st14" d="M772.3,915.7l13.6-7.2l-9.1,113.4c-0.2,2.1-1.1,4.1-2.4,5.3c-1.4,1.2-2.8,2-4,2.3c-3.8,1.1-7.3-3.1-6.9-8
				L772.3,915.7z"/>
			<path class="st14" d="M959.3,940.4l16.2,98.8c0.4,2.2-0.2,4.7-1.6,5.9c-1,0.9-2.1,1.5-3,1.7c-2.2,0.6-4.4-1.3-4.9-4.2L946.3,945
				L959.3,940.4z"/>
			<path class="st13" d="M846.6,677.3c9.2-1.5,14.5-3.3,23.4-0.6c15,4.4,23,18.7,26.6,32.9c3.7,14.4,4.7,35.3-3.5,48.6
				c-5.1,8.3-16.6,6.8-24.8,4.6c-9.9-2.6-22.8-6.9-30.9-13c-11.3-8.5-17.3-27.2-17.9-40.7C818.9,697.4,832.5,679.6,846.6,677.3z"/>
			<path class="st15" d="M833.6,746.2c1.2,1.3,2.5,2.5,3.8,3.5c8.1,6.1,21,10.4,30.9,13c1.6,0.4,3.3,0.8,5,1.1l-1.2,5.4
				c-10.5,2.9-21.2,2.6-28.7,1.7c-5.6-0.6-9.9-5.4-9.9-11.1L833.6,746.2L833.6,746.2z"/>
			<path class="st16" d="M884.7,780.8c0,0,22.3-0.6,27.8,14.9c5.5,15.6,18,46.7,18,46.7s18.9-14.6,25.9-16.5c0,0,15.5,7.9,19.2,16.5
				c0,0-23.5,40.6-52.1,52.4c0,0-31.1-29-46.1-70.8C877.3,824,858.8,793.3,884.7,780.8z"/>
			<path class="st17" d="M777.6,793.9c58.3,12.1,87.9,43.2,97.2,54.9c2.2,2.7,3.3,6.1,3.3,9.7v112c-78.1-13-111.4-58.9-111.4-58.9
				V802.7C766.7,797,772,792.7,777.6,793.9z"/>
			<path class="st17" d="M878.1,970.4c0,0,67.3-6.7,88-30c0,0,1.5-15.6-4.9-13.5c-6.4,2.1-36.8,20.7-83.2,25.6V970.4z"/>
			<path class="st18" d="M892,684.3l10.4-4.4c-21.7-11.3-44.6-7.8-55.9-4.8c-2.7,0.5-5.2,1.2-7.4,2.3c-10,5.1-20.1,20-19.5,31.6
				c0.7,13.5,6.7,32.2,17.9,40.7c6.2,4.7,15.3,8.3,23.7,10.9c2.3-1.1,5.8-13.7,5.8-13.7c-4.7-2.7-8.4-18.4-3.4-21.2
				c5-2.7,8.4,7,8.4,7c2.9-1.1,7.3-4.4,4.9-10.2c-0.8-1.9-1.1-3.9-1.1-5.7c0-3.3,2.7-6.1,6-6.4c1.5-0.1,3-0.3,4.4-0.5
				c15.4-0.7,24.9,0.7,24.9,0.7C905,696.4,892,684.3,892,684.3z"/>
		</g>
		<g>
			<path class="st19" d="M1302.2,1189c0,0,12.1,0.2,17.8-3.6c5.7-3.9,19.1,12.2,5.9,20.7c-13.2,8.5-26.8,17.1-34,15.8
				c-7.1-1.2-11-2.4-11.6-4.1c-0.6-1.6-0.8-30.1-0.8-30.1L1302.2,1189z"/>
			<path class="st11" d="M1307.2,1167.5v32.5c0,0-18.3,8-30.4,3.4l-4.6-21.6L1307.2,1167.5z"/>
			<path class="st19" d="M1354.2,1207.6c0,0,12.1,0.2,17.8-3.7c5.7-3.9,19.1,12.2,5.9,20.8c-13.2,8.5-26.8,17.1-33.9,15.8
				c-7.1-1.2-11-2.4-11.6-4.1c-0.6-1.6-0.8-30.1-0.8-30.1L1354.2,1207.6z"/>
			<path class="st20" d="M1180.9,975.4c4.7-5.3,12.6-8.1,19.3-6.1l11.9,3.5l38.6,18l26.7,14l2.3,85.5l2.7,41.7l-15.9,13.4
				c-18.9,17.7-76.8-13.4-76.8-13.4c-9.8-32.3-20.3-120.2-20.3-120.2C1170,993.4,1174.8,982.3,1180.9,975.4z"/>
			<path class="st3" d="M1276.1,1110c0,0,46.3-9.5,71.1-11.7c9-0.8,16.9,6,17.3,15.1c1.1,22.4-3.5,66.7-6.7,100.3l-15,9.4
				c-6.8,4.3-15.7-0.4-16.1-8.4l-2.8-55.2c-0.2-4.7-5.9,1-9.4,4.1c-11.3,9.7-38.5,20.6-55,14.8c0,0-49.6-15.3-61.5-47.6L1276.1,1110
				z"/>
			<path class="st14" d="M1251.8,1189l14-7.2l-8,123.2c-0.2,2.1-1,4-2.4,5.2c-1.8,1.6-3.6,2.3-5.2,2.6c-3.5,0.6-6.6-3.2-6.3-7.6
				L1251.8,1189z"/>
			<path class="st14" d="M1150.9,1137.2l13.6-7.2l-9.1,113.4c-0.2,2.1-1.1,4.1-2.4,5.3c-1.4,1.2-2.8,2-4,2.3c-3.8,1.1-7.3-3.1-6.9-8
				L1150.9,1137.2z"/>
			<path class="st14" d="M1337.8,1162l16.2,98.8c0.4,2.2-0.2,4.6-1.6,5.9c-1,1-2.1,1.5-3,1.7c-2.2,0.6-4.4-1.3-5-4.2l-19.6-97.7
				L1337.8,1162z"/>
			<path class="st13" d="M1225.2,898.9c9.2-1.5,14.5-3.3,23.4-0.6c15,4.4,23,18.7,26.6,32.9c3.7,14.4,4.7,35.3-3.5,48.6
				c-5.1,8.3-16.6,6.8-24.8,4.6c-9.9-2.6-22.8-6.9-30.9-13c-11.3-8.5-17.3-27.2-17.9-40.7C1197.5,919,1211.1,901.2,1225.2,898.9z"/>
			<path class="st15" d="M1246.9,984.3c-9.9-2.6-22.8-6.9-30.9-13c-1.4-1-2.6-2.2-3.8-3.5h0v13.6c2.6,5.3,9,7.5,14.7,8.2
				c7.5,0.9,13.4,4.1,24,1.3l1.2-5.4C1250.2,985.1,1248.5,984.7,1246.9,984.3z"/>
			<path class="st17" d="M1156.1,1015.4c58.3,12.1,87.9,43.2,97.2,54.9c2.2,2.7,3.3,6.2,3.3,9.7v112c-78.1-13-111.4-59-111.4-59
				v-108.7C1145.3,1018.6,1150.6,1014.3,1156.1,1015.4z"/>
			<path class="st17" d="M1256.7,1192c0,0,67.3-6.7,88-30c0,0,1.5-15.7-4.9-13.5c-6.4,2.1-36.8,20.7-83.1,25.6V1192z"/>
			<path class="st6" d="M1211.3,970.4l-3,9.1c0,0,17.7,24.7,47.5,14l-4.3-5.4C1251.6,988.1,1223.8,988.8,1211.3,970.4z"/>
			<path class="st13" d="M1350.2,1087.6c0,0,5.9-1.4,9.4-1.1c3.5,0.3,5.8,4.4,8.6,6c2.8,1.6,7.5,7.1,7.6,13.1c0.1,6-2.7,12.6-6,12.6
				c-3.3,0-4,0.7-5-1.8c-1-2.5-6.8-10.9-6.8-10.9L1350.2,1087.6z"/>
			<path class="st6" d="M1353.2,1084.1c-7,1.8-46,4.7-46,4.7s-4.7-49.5-10.2-65.1c-5.5-15.5-20.4-19.2-20.4-19.2
				c-25.9,12.5-12.4,44.9-12.4,44.9c10,27.8,14.9,50.9,17,63.3c0.9,5.5,6.1,9.1,11.6,8.2c34.5-5.6,67-13.5,67-13.5
				C1359.8,1093.6,1353.2,1084.1,1353.2,1084.1z"/>
			<path class="st21" d="M1274.5,904.9c-21.3-17.7-50.5-8-50.5-8v0c-2.3,0.5-4.5,1.2-6.4,2.1c-9.9,5.1-20.1,20-19.5,31.6
				c0.7,13.5,6.7,32.1,17.9,40.7c6.2,4.7,15.3,8.3,23.7,10.9c2.3-1.1,5.8-13.7,5.8-13.7c-4.7-2.7-8.4-18.5-3.4-21.2
				c5-2.7,8.4,7,8.4,7c2.9-1.1,7.3-4.4,4.9-10.2c-2.4-5.8,0-11.9,0-11.9c21-0.5,23.7,6.9,23.7,6.9
				C1288.2,919.5,1274.5,904.9,1274.5,904.9z"/>
		</g>
		<g>
			<path class="st17" d="M712.8,1088.6c0,0,12.1,0.2,17.8-3.7c5.7-3.9,19.1,12.2,5.9,20.8c-13.2,8.5-26.8,17.1-34,15.8
				c-7.1-1.2-11-2.4-11.6-4.1c-0.6-1.6-0.8-30.1-0.8-30.1L712.8,1088.6z"/>
			<path class="st11" d="M717.8,1067.1v32.5c0,0-18.3,8-30.4,3.4l-4.6-21.6L717.8,1067.1z"/>
			<path class="st17" d="M764.8,1107.2c0,0,12.1,0.2,17.8-3.7c5.7-3.9,19.1,12.2,5.9,20.8c-13.2,8.5-26.8,17.1-33.9,15.8
				c-7.1-1.2-11-2.4-11.6-4.1c-0.6-1.6-0.8-30.1-0.8-30.1L764.8,1107.2z"/>
			<path class="st22" d="M589.8,873.3c4.7-5.3,12.1-7.1,18.8-5.1l14.2,4.2l38.6,18l26.7,14l2.3,85.5l2.7,41.7l-15.9,13.4
				c-18.9,17.7-76.8-13.4-76.8-13.4c-9.8-32.3-24.1-121.4-24.1-121.4C576.8,891.9,583.7,880.2,589.8,873.3z"/>
			<path class="st11" d="M686.7,1009.7c0,0,40.5-8.5,65.3-10.7c9-0.8,16.9,6,17.3,15c1.1,22.4,2.4,65.7-0.8,99.4l-15,9.4
				c-6.8,4.3-15.7-0.4-16.1-8.4l-2.8-55.2c-0.2-4.7-5.9,1-9.4,4.1c-11.3,9.7-38.5,20.6-55,14.8c0,0-49.6-15.3-61.5-47.6
				L686.7,1009.7z"/>
			<path class="st14" d="M662.5,1088.6l14-7.2l-8,123.2c-0.1,2.1-1,4-2.4,5.2c-1.8,1.6-3.6,2.4-5.2,2.6c-3.5,0.6-6.6-3.2-6.3-7.6
				L662.5,1088.6z"/>
			<path class="st14" d="M561.5,1036.9l13.6-7.2l-9.1,113.4c-0.2,2.1-1.1,4.1-2.4,5.3c-1.4,1.2-2.8,2-4,2.3c-3.8,1.1-7.3-3.1-6.9-8
				L561.5,1036.9z"/>
			<path class="st14" d="M748.5,1061.6l16.2,98.8c0.4,2.2-0.2,4.6-1.6,5.9c-1,1-2.1,1.5-3,1.7c-2.2,0.6-4.4-1.3-4.9-4.2l-19.6-97.7
				L748.5,1061.6z"/>
			<path class="st13" d="M635.8,798.5c9.2-1.5,14.5-3.3,23.4-0.6c15,4.4,23,18.7,26.6,32.9c3.6,14.4,4.7,35.3-3.5,48.6
				c-5.1,8.3-16.6,6.8-24.8,4.6c-9.9-2.6-22.8-6.9-30.9-13c-11.3-8.5-17.3-27.2-17.9-40.7C608.1,818.6,621.7,800.8,635.8,798.5z"/>
			<path class="st15" d="M622.8,867.4c1.2,1.3,2.5,2.5,3.8,3.5c8.1,6.1,21,10.4,30.9,13c1.6,0.4,3.3,0.8,5,1.1l-1.2,5.4
				c-10.5,2.9-16,0.5-23.5-0.3c-5.6-0.6-15.2-3.4-15.2-9.1L622.8,867.4L622.8,867.4z"/>
			<path class="st17" d="M566.8,915.1c58.3,12.1,87.9,43.2,97.2,54.9c2.2,2.7,3.3,6.1,3.3,9.7v112c-78.1-13-111.4-59-111.4-59V923.9
				C555.9,918.2,561.2,913.9,566.8,915.1z"/>
			<path class="st17" d="M667.3,1091.6c0,0,67.3-6.7,88-30c0,0,1.5-15.6-4.9-13.5c-6.4,2.1-36.8,20.7-83.1,25.6V1091.6z"/>
			<path class="st13" d="M758.8,983.3c0,0,5.9-1.4,9.4-1.1c3.5,0.2,5.8,4.5,8.6,6c2.8,1.6,7.5,7.1,7.6,13.1c0.1,6-2.7,12.6-6,12.6
				c-3.3,0-4,0.7-5-1.8c-1-2.5-6.8-11-6.8-11L758.8,983.3z"/>
			<path class="st6" d="M755.1,981.4l6.8-1.4c0,0,6.4,11.9,5.9,21.7l-6,1.4L755.1,981.4z"/>
			<path class="st23" d="M757.1,980.3c-7,1.8-46,4.7-46,4.7s-4.7-49.5-10.2-65.1c-5.5-15.6-20.4-19.2-20.4-19.2
				c-25.9,12.5-12.4,44.9-12.4,44.9c10,27.8,14.9,50.9,17,63.3c0.9,5.4,6.1,9.1,11.6,8.2c34.5-5.6,67-13.5,67-13.5
				C763.7,989.8,757.1,980.3,757.1,980.3z"/>
			<path class="st24" d="M685.1,828.4c0,0,25.8-27.3,0-34.8c-25.8-7.5-50.5-7.2-69.1,2c-18.6,9.1-16.4,36.4-13,43.1
				c3.5,6.7,12.5,22.7,21.2,30.5c0.4,0.3,0.7,0.5,1.1,0.6c0.4,0.4,0.9,0.8,1.3,1.1c6.2,4.7,15.3,8.3,23.7,10.9
				c2.3-1.1,5.8-13.7,5.8-13.7c-4.7-2.7-8.4-18.5-3.4-21.2c5-2.7,8.4,7,8.4,7c2.9-1.1,7.3-4.4,4.9-10.2c-2.4-5.8,0-11.9,0-11.9
				C674.9,832,682.3,830,685.1,828.4z"/>
			<path class="st6" d="M622.8,869.9l-4.2,9.2c0,0,15.1,25,46,12.9l-2.3-5.6C662.3,886.5,635.2,888.4,622.8,869.9z"/>
		</g>
		<g>
			<path class="st19" d="M1091.4,1310.2c0,0,12.1,0.2,17.8-3.7c5.7-3.9,19.1,12.2,5.9,20.8c-13.2,8.5-26.8,17-33.9,15.8
				c-7.1-1.2-11-2.4-11.6-4.1c-0.6-1.6-0.8-30.1-0.8-30.1L1091.4,1310.2z"/>
			<path class="st11" d="M1096.4,1288.7v32.5c0,0-18.3,8-30.4,3.4l-4.6-21.6L1096.4,1288.7z"/>
			<path class="st19" d="M1143.4,1328.8c0,0,12.1,0.2,17.8-3.7c5.7-3.9,19.1,12.2,5.9,20.8c-13.2,8.5-26.8,17-34,15.8
				c-7.1-1.2-11-2.4-11.6-4.1c-0.6-1.6-0.8-30.1-0.8-30.1L1143.4,1328.8z"/>
			<path class="st13" d="M1140.6,1187.5c0,0,5-8.8,9.1-14c4-5.3,9.5-13.5,4.4-17.8c-5-4.3-14.4-9.3-19-9c-4.5,0.3-11.7,6.2-9.3,9.1
				c2.4,2.9-2.1,17.1-2.1,17.1L1140.6,1187.5z"/>
			<path class="st25" d="M968.4,1094.9c4.7-5.3,12.1-7.1,18.8-5.1l14.1,4.2l38.6,18l26.7,14l2.3,85.5l2.7,41.7l-15.9,13.4
				c-18.9,17.7-76.8-13.4-76.8-13.4c-9.8-32.3-24.1-121.4-24.1-121.4C955.4,1113.5,962.3,1101.8,968.4,1094.9z"/>
			<path class="st11" d="M1065.3,1231.2c0,0,40.5-8.5,65.3-10.7c9-0.8,16.9,6,17.3,15.1c1.1,22.4,2.4,65.7-0.8,99.4l-15,9.4
				c-6.8,4.3-15.7-0.4-16.1-8.4l-2.8-55.2c-0.2-4.7-5.9,1-9.4,4.1c-11.3,9.7-38.5,20.6-55,14.8c0,0-49.6-15.3-61.5-47.6
				L1065.3,1231.2z"/>
			<path class="st14" d="M1041,1310.2l14-7.2l-8,123.2c-0.1,2.1-1,4-2.4,5.2c-1.8,1.6-3.6,2.4-5.2,2.6c-3.5,0.6-6.6-3.2-6.3-7.6
				L1041,1310.2z"/>
			<path class="st14" d="M940.1,1258.4l13.6-7.2l-9.1,113.4c-0.2,2.1-1.1,4.1-2.4,5.3c-1.4,1.2-2.8,2-4,2.3c-3.8,1.1-7.3-3.1-6.9-8
				L940.1,1258.4z"/>
			<path class="st14" d="M1127,1283.2l16.2,98.8c0.4,2.2-0.2,4.6-1.6,5.9c-1,1-2.1,1.5-3,1.7c-2.2,0.6-4.4-1.3-5-4.2l-19.6-97.7
				L1127,1283.2z"/>
			<path class="st13" d="M1014.4,1020c9.2-1.5,14.5-3.3,23.4-0.6c15,4.4,23,18.7,26.6,32.9c3.6,14.4,4.7,35.3-3.5,48.6
				c-5.1,8.3-16.6,6.8-24.8,4.6c-9.9-2.6-22.8-6.9-30.9-13c-11.3-8.5-17.3-27.2-17.9-40.7C986.7,1040.2,1000.3,1022.4,1014.4,1020z"
				/>
			<path class="st15" d="M1001.4,1089c1.2,1.3,2.5,2.5,3.8,3.5c8.1,6.1,21,10.4,30.9,13c1.6,0.4,3.3,0.8,5,1.1l-1.2,5.4
				c-10.5,2.9-21.3,2.6-28.7,1.7c-5.7-0.7-9.9-5.5-9.9-11.1L1001.4,1089L1001.4,1089z"/>
			<path class="st26" d="M1052.5,1123.6c0,0,22.3-0.6,27.8,14.9c5.5,15.5,18,46.7,18,46.7s18.9-14.6,25.9-16.5
				c0,0,15.5,7.9,19.2,16.5c0,0-23.5,40.6-52.1,52.5c0,0-31.1-29-46.2-70.9C1045.1,1166.8,1026.6,1136.1,1052.5,1123.6z"/>
			<path class="st17" d="M945.3,1136.6c58.3,12.1,87.9,43.2,97.2,54.9c2.2,2.7,3.3,6.1,3.3,9.6v112c-78.1-13-111.4-58.9-111.4-58.9
				v-108.7C934.5,1139.8,939.8,1135.5,945.3,1136.6z"/>
			<path class="st17" d="M1045.9,1313.1c0,0,67.3-6.7,88-30c0,0,1.5-15.6-4.9-13.5c-6.4,2.1-36.8,20.8-83.1,25.6V1313.1z"/>
			<path class="st27" d="M1063.7,1050c0,0,16.5-14.3,5-22.1c-3.6-2.4-7.3-2.7-10-6.2c-2.8-3.6-6.2-7.8-10.6-10.1
				c-4-2-7.4,1.9-11.2,2.9c-7,1.9-12.3-6.2-19.2-4.4c-2.4,0.6-4.1,2.5-6.2,3.8c-5.3,3.3-18.9,0.7-18.3,9.7c0.3,4.9-1.9,9.7-6.1,12.4
				c-4,2.6-7,7-6,12.1c0.4,2.2,2,3.7,2.8,5.7c1,2.4,1.3,5.1,1.5,7.6c0.5,5.8,1.8,10.8,5.4,15.6c4.1,5.4,9,11.4,14.4,15.4
				c6.2,4.7,15.3,8.3,23.7,10.9c2.3-1.1,5.8-13.7,5.8-13.7c-4.7-2.7-8.4-18.4-3.4-21.2c5-2.7,8.4,7,8.4,7c2.9-1.1,7.3-4.4,4.9-10.2
				c-2.4-5.8,0-11.9,0-11.9C1053.5,1053.6,1060.9,1051.6,1063.7,1050z"/>
		</g>
		<g>
			<path class="st19" d="M474.2,1228.3c0,0,12.1,0.2,17.8-3.7c5.7-3.9,19.1,12.2,5.9,20.8c-13.2,8.5-26.8,17.1-33.9,15.8
				c-7.1-1.2-11-2.4-11.6-4.1c-0.6-1.6-0.8-30.1-0.8-30.1L474.2,1228.3z"/>
			<path class="st11" d="M479.2,1206.8v32.5c0,0-18.3,8-30.4,3.4l-4.6-21.6L479.2,1206.8z"/>
			<path class="st19" d="M526.2,1246.9c0,0,12.1,0.2,17.8-3.7c5.7-3.9,19.1,12.2,5.9,20.8c-13.2,8.5-26.8,17-34,15.8
				c-7.1-1.2-11-2.4-11.6-4.1c-0.6-1.6-0.8-30.1-0.8-30.1L526.2,1246.9z"/>
			<path class="st13" d="M523.4,1105.7c0,0,5-8.8,9.1-14c4-5.3,9.5-13.5,4.4-17.8c-5-4.2-14.5-9.3-19-9c-4.5,0.3-11.7,6.2-9.3,9.1
				c2.4,2.9-2.1,17.1-2.1,17.1L523.4,1105.7z"/>
			<path class="st28" d="M351.2,1013c4.7-5.2,12.1-7.1,18.8-5.1l14.2,4.2l38.6,18l26.7,14l2.3,85.5l2.7,41.7l-15.9,13.4
				c-18.9,17.7-76.8-13.4-76.8-13.4c-9.8-32.3-24.1-121.4-24.1-121.4C338.3,1031.6,345.2,1019.9,351.2,1013z"/>
			<path class="st11" d="M448.2,1149.4c0,0,40.5-8.5,65.3-10.8c9-0.8,16.9,6,17.3,15.1c1.1,22.4,2.4,65.7-0.8,99.4l-15,9.4
				c-6.8,4.3-15.7-0.4-16.1-8.4l-2.8-55.2c-0.2-4.7-5.9,1-9.4,4.1c-11.3,9.7-38.5,20.6-55,14.8c0,0-49.6-15.3-61.5-47.6
				L448.2,1149.4z"/>
			<path class="st14" d="M423.9,1228.3l14-7.2l-8,123.2c-0.1,2.1-1,4-2.4,5.2c-1.8,1.6-3.6,2.4-5.2,2.6c-3.5,0.6-6.6-3.2-6.3-7.6
				L423.9,1228.3z"/>
			<path class="st14" d="M322.9,1176.6l13.6-7.2l-9.1,113.4c-0.2,2.1-1.1,4.1-2.5,5.3c-1.4,1.2-2.8,2-4,2.3c-3.8,1.1-7.3-3.1-6.9-8
				L322.9,1176.6z"/>
			<path class="st14" d="M509.9,1201.3l16.2,98.8c0.4,2.2-0.2,4.7-1.6,5.9c-1,1-2.1,1.5-3,1.7c-2.2,0.6-4.4-1.3-4.9-4.2l-19.6-97.7
				L509.9,1201.3z"/>
			<path class="st13" d="M397.3,938.2c9.2-1.5,14.5-3.3,23.4-0.6c15,4.4,23,18.7,26.6,32.9c3.7,14.4,4.7,35.3-3.5,48.6
				c-5.1,8.3-16.6,6.8-24.8,4.6c-9.9-2.6-22.8-6.9-30.9-13c-11.3-8.5-17.3-27.2-17.9-40.7C369.6,958.3,383.2,940.5,397.3,938.2z"/>
			<path class="st18" d="M389.7,938.3c8.3-4.3,22.1-3.4,31-0.8c14.2,4.2,22,17.4,25.9,30.6c-2.8,1.6-10.2,3.6-19.1,3.4
				c0,0-2.4,6.1,0,11.9c2.4,5.8-2,9.1-4.9,10.2c0,0-3.4-9.8-8.4-7c-5,2.7-1.4,18.4,3.4,21.2c0,0-3.5,12.6-5.8,13.7
				c-8.4-2.6-17.4-6.2-23.7-10.9c-11.3-8.5-17.3-27.2-17.9-40.7C369.6,958.3,379.7,943.4,389.7,938.3z"/>
			<path class="st15" d="M384.2,1007.1c1.2,1.3,2.5,2.5,3.8,3.5c8.1,6.1,21,10.4,30.9,13c1.6,0.4,3.3,0.8,5,1.1l-1.2,5.4
				c-10.5,2.9-21.3,2.6-28.7,1.7c-5.6-0.6-9.9-5.4-9.9-11.1L384.2,1007.1L384.2,1007.1z"/>
			<path class="st29" d="M435.4,1041.7c0,0,22.3-0.6,27.7,14.9c5.5,15.6,18,46.7,18,46.7s18.9-14.6,25.9-16.5
				c0,0,15.6,7.9,19.2,16.5c0,0-23.5,40.6-52.1,52.5c0,0-31.1-29-46.1-70.9C427.9,1084.9,409.4,1054.2,435.4,1041.7z"/>
			<path class="st17" d="M328.2,1054.8c58.3,12.1,87.9,43.2,97.2,54.9c2.2,2.7,3.3,6.2,3.3,9.7v112c-78.1-13-111.4-59-111.4-59
				v-108.7C317.3,1057.9,322.6,1053.6,328.2,1054.8z"/>
			<path class="st17" d="M428.7,1231.3c0,0,67.3-6.7,88-30c0,0,1.5-15.6-4.9-13.5c-6.4,2.1-36.8,20.7-83.1,25.6V1231.3z"/>
		</g>
		<g>
			<path class="st13" d="M897.2,1344.2c0,0,5.9-1.4,9.4-1.1c3.5,0.2,5.8,4.4,8.6,6c2.8,1.6,7.5,7.1,7.6,13.1c0.1,6-2.7,12.6-6,12.6
				c-3.3,0-4,0.7-5-1.8c-1-2.5-6.8-11-6.8-11L897.2,1344.2z"/>
			<path class="st3" d="M852.8,1449.9c0,0,12.1,0.2,17.8-3.7c5.7-3.9,19.1,12.2,5.9,20.8c-13.2,8.5-26.8,17.1-34,15.8
				c-7.1-1.2-11-2.4-11.6-4.1c-0.6-1.6-0.8-30.1-0.8-30.1L852.8,1449.9z"/>
			<path class="st11" d="M857.8,1428.4v32.5c0,0-18.3,8-30.4,3.4l-4.6-21.6L857.8,1428.4z"/>
			<path class="st3" d="M904.8,1468.5c0,0,12.1,0.2,17.8-3.7c5.7-3.9,19.1,12.2,5.9,20.8c-13.2,8.5-26.8,17-34,15.8
				c-7.1-1.2-11-2.4-11.6-4.1s-0.8-30.1-0.8-30.1L904.8,1468.5z"/>
			<path class="st3" d="M729.8,1234.6c4.7-5.3,12.1-7.1,18.8-5.1l14.2,4.2l38.6,18l17.5,9.9l11.5,89.6l2.7,41.7l-15.9,13.4
				c-18.9,17.7-76.8-13.4-76.8-13.4c-9.8-32.3-24.1-121.4-24.1-121.4C716.8,1253.2,723.7,1241.5,729.8,1234.6z"/>
			<path class="st11" d="M826.7,1370.9c0,0,44.6-8.5,69.4-10.7c9-0.8,16.9,6,17.3,15c1.1,22.4-1.8,65.7-5,99.4l-15,9.4
				c-6.8,4.3-15.7-0.4-16.1-8.4l-2.8-55.2c-0.2-4.7-5.9,1-9.4,4.1c-11.3,9.7-38.5,20.6-55,14.8c0,0-49.6-15.3-61.5-47.6
				L826.7,1370.9z"/>
			<path class="st14" d="M802.5,1449.9l14-7.2l-8,123.1c-0.1,2.1-1,4-2.4,5.2c-1.8,1.6-3.6,2.3-5.2,2.6c-3.5,0.6-6.6-3.2-6.3-7.6
				L802.5,1449.9z"/>
			<path class="st14" d="M701.5,1398.2l13.6-7.2l-9.1,113.4c-0.2,2.1-1.1,4.1-2.4,5.3c-1.4,1.2-2.8,2-4,2.3c-3.8,1.1-7.3-3.1-6.9-8
				L701.5,1398.2z"/>
			<path class="st14" d="M888.5,1422.9l16.2,98.8c0.4,2.2-0.2,4.6-1.6,5.9c-1,1-2.1,1.5-3,1.7c-2.2,0.6-4.4-1.3-4.9-4.2l-19.6-97.7
				L888.5,1422.9z"/>
			<path class="st13" d="M775.8,1159.8c9.2-1.5,14.5-3.3,23.4-0.6c15,4.4,23,18.7,26.6,32.9c3.6,14.4,4.7,35.3-3.5,48.6
				c-5.1,8.3-16.6,6.8-24.8,4.6c-9.9-2.6-22.8-6.9-30.9-13c-11.3-8.5-17.3-27.2-17.9-40.7C748.1,1179.9,761.7,1162.1,775.8,1159.8z"
				/>
			<path class="st15" d="M762.8,1228.7c1.2,1.3,2.5,2.5,3.8,3.5c8.1,6.1,21,10.4,30.9,13c1.6,0.4,3.3,0.8,5,1.1l-1.2,5.4
				c-10.5,2.9-18.3-1.5-25.8-2.4c-5.6-0.6-11.2-2-12.8-7L762.8,1228.7L762.8,1228.7z"/>
			<path class="st17" d="M706.8,1276.3c58.3,12.1,87.9,43.2,97.2,54.9c2.2,2.7,3.3,6.2,3.3,9.7v112c-78.1-13-111.4-58.9-111.4-58.9
				v-108.7C695.9,1279.5,701.2,1275.2,706.8,1276.3z"/>
			<path class="st17" d="M807.3,1452.9c0,0,67.3-6.7,88-30c0,0,1.5-15.6-4.9-13.5c-6.4,2.1-36.8,20.7-83.1,25.6V1452.9z"/>
			<path class="st27" d="M833.1,1157.8c0,0-10.8,11.6-24,0c-13.2-11.6-65-8.1-62.1,39.5l6.2,15.2l0,0c3,7.9,7.5,15.2,13.4,19.8
				c6.2,4.7,15.3,8.3,23.7,10.9c2.3-1.1,5.8-13.7,5.8-13.7c-4.7-2.7-8.4-18.4-3.4-21.2c5-2.7,8.4,7,8.4,7c2.9-1.1,7.3-4.4,4.9-10.2
				c-2.4-5.8,0-11.9,0-11.9c8.9,0.2,16.3-1.8,19.1-3.4C825.1,1189.7,840,1176.4,833.1,1157.8z"/>
			<path class="st6" d="M762,1232.7c0,0,9.7,13.5,40.2,15.5l4.7,6.4c0,0-26.3-0.8-35.3-4.3c-8.3-3.2-10.5-6-10.7-12L762,1232.7z"/>
			<path class="st6" d="M893.4,1342.4l6.8-1.4c0,0,6.4,11.9,5.9,21.7l-6,1.4L893.4,1342.4z"/>
			<path class="st30" d="M895.5,1341.2c-7,1.8-46,4.7-46,4.7s-4.7-49.5-10.2-65.1c-5.5-15.6-20.4-19.2-20.4-19.2
				c-25.9,12.5-12.4,44.9-12.4,44.9c10,27.8,14.9,50.9,17,63.3c0.9,5.5,6.1,9.1,11.6,8.2c34.5-5.6,67-13.5,67-13.5
				C902.1,1350.7,895.5,1341.2,895.5,1341.2z"/>
		</g>
	</g>
	<path class="st10" d="M1378.2,786.1c57.8,0,104.6,14.3,104.6,31.9c0,17.6-46.8,31.8-104.6,31.8c-57.8,0-104.6-14.3-104.6-31.8
		C1273.6,800.3,1320.4,786.1,1378.2,786.1z"/>
	<g>
		<path class="st13" d="M1272,570c0.4-1.3,0.9-2.7,0.8-3.8c-0.1-1.5-1.2-0.5-1.9,0.4c-2,2.4-3.4,5.3-5.6,7.6
			c-0.6,0.7-2.2,1.7-2.4,0.1c-0.4-4.6,2.6-9.4,4.6-13.3c1.5-2.7,3.1-5.4,4.9-7.9c1-1.3,2-2.6,3-3.9c0.6-0.7,2.3-2,2.4-3
			c0.2-1.3,0,0,0.1-1.3l19.3,2.4c0.6,2.7,0.7,5.4,0.7,8.2c0.1,6.7-0.9,9.6-3.7,15.4c-1.7,3.5-1.4,6.7-1.5,10.6
			c0,3.8,2.5,6.4,0.9,10.1c-1.7,3.9-12.3,4.6-18.6-1.2c-3.2-3-4.1-7.8-4.2-12c-0.1-2.2,0.1-4.5,0.5-6.7
			C1271.6,571.2,1271.8,570.6,1272,570z"/>
		<path class="st6" d="M1276.2,539.3l-1.4,7.3c0,0,13,6.3,25.3,4.7l2-8.5L1276.2,539.3z"/>
		<path class="st22" d="M1297.5,371.6c0,0-9.1,97.2-22.7,169.4c0,0,11.3,7.5,27.3,5l14.9-79.4L1297.5,371.6z"/>
		<path class="st15" d="M1422.9,521.4c0,0-3.5,0.7-5.5,5.6c-2,4.9-8.6,13.1-10.9,11.8c-2.2-1.3,0-21.8,0-21.8l3.9-8.9L1422.9,521.4z
			"/>
		<polygon class="st6" points="1428.3,520.7 1424.3,525.9 1406.6,507.5 1411.7,501.7 		"/>
		<path class="st11" d="M1440.5,777.3c0,0,1.3,15.8,8.2,21.3c16.9,13.6,24.3,26.6,9.3,31.1c-15,4.5-46.3-12.6-49.3-24.1l2.2-34.3
			L1440.5,777.3z"/>
		<path class="st11" d="M1317.9,777.3c0,0-1.3,15.8-8.2,21.3c-16.9,13.6-24.3,26.6-9.3,31.1c15,4.5,46.3-12.6,49.3-24.1l-2.2-34.3
			L1317.9,777.3z"/>
		<path class="st12" d="M1305.4,518.6v272.1c0,0,26.2,10,48-3.3c0,0-1.1-129.9,3.3-197.4c0,0,3.4-4.5,5.9,3.6
			c0,0,31.9,133,40.1,196.2c0,0,25.3,6,45.4-5.9c0,0-20.1-116-22.3-130.9c-2.2-14.9-19.3-127.7-19.3-127.7S1335.3,509,1305.4,518.6z
			"/>
		<path class="st15" d="M1396.3,320.9l-7.9,2.1l-0.9,12.8C1397.7,336.5,1396.3,320.9,1396.3,320.9z"/>
		<path class="st15" d="M1325.7,320.9l7.9,2.1l0.9,12.8C1324.2,336.5,1325.7,320.9,1325.7,320.9z"/>
		<path class="st31" d="M1337,351.1c0,0,16.3-5.4,47.3-0.5l-2.6,7.5l-34.9,7l-8.5-8.7L1337,351.1z"/>
		<path class="st23" d="M1383.6,355.5c0,0,40.6,8.6,44.7,13c4.1,4.5-6,65.1-10.4,78.1c-4.5,13-11.5,78.7-11.5,78.7
			s-45.8,19.5-101-6.7c0,0-2.6-47.2-4.9-72c-2.1-21.8-2.9-75.1-2.9-75.1s14.6-11.4,39.7-14.5C1362.3,354,1383.6,355.5,1383.6,355.5z
			"/>
		<path class="st23" d="M1428.3,368.5c0,0,42.3,64.6,54.5,97l-54.5,57.6l-18.6-20.5l36.4-36.8l-20.7-36.5l-26.8-36.6L1428.3,368.5z"
			/>
		<path class="st15" d="M1382.6,325l-1.7,32.1c0,0-15.3,14.8-40.9,0v-34.3L1382.6,325z"/>
		<path class="st13" d="M1391.3,312.6c0,23.4-13.7,42.4-30.6,42.4c-16.9,0-30.6-19-30.6-42.4c0-23.4,13.7-42.4,30.6-42.4
			C1377.6,270.3,1391.3,289.2,1391.3,312.6z"/>
		<path class="st18" d="M1359.5,300.9c0,0,23.5-11.5,24.6,24.1c0,0,7.2,2.4,14.1-2.4c0,0,11.5-62.1-38.4-56.3
			c0,0-42.8-3.9-36.4,57.3c0,0,6.9,4,15.8,0.8C1339.1,324.5,1336.1,296.5,1359.5,300.9z"/>
		<polygon class="st15" points="1340.6,357.8 1360.9,373.8 1376.9,362.1 1374.8,358.3 		"/>
		<polygon class="st16" points="1384.3,350.6 1360.9,373.8 1378.5,384.9 1387.1,356.3 		"/>
		<polygon class="st16" points="1337,351.1 1360.9,373.8 1343.3,384.9 1332.8,357.5 		"/>
		<path class="st16" d="M1303.9,487.9c0.1,1.9,0.2,3.7,0.3,5.5c46.5,14.9,90.2,7.9,104.9,4.8c0.2-1.9,0.4-3.8,0.6-5.7
			C1352.2,502.3,1318.2,493.4,1303.9,487.9z"/>
		<path class="st16" d="M1304.7,503.7c0.1,2,0.2,3.8,0.3,5.4c44.7,14,86.6,8.1,102.5,4.9c0.2-1.8,0.4-3.7,0.6-5.7
			C1352.6,517.5,1319.3,509.2,1304.7,503.7z"/>
		<path class="st13" d="M1409.7,508.3c0,0,2,3.4,1.6,6c-1.6,9.5,0.9,10.1,1.4,15.2c0.3,3.2-0.5,6-2.3,8.7c-1,1.7-3,4.7-5.3,4.4
			c-4.8-0.5-9.9-9.3-7.9-13.4c1.6-3.3,2.4-7,1.8-10.7c-0.6-3.8,0.8-5.1,3.9-7.2C1403.4,511,1409.1,507.4,1409.7,508.3z"/>
	</g>
	<polygon class="st6" points="589.4,459.8 621.7,441.1 621.7,604.2 589.4,622.9 	"/>
	<polygon class="st6" points="635.3,433.4 667.6,414.7 667.6,577.8 635.3,596.5 	"/>
	<polygon class="st6" points="681.3,407 713.6,388.4 713.6,551.4 681.3,570.1 	"/>
	<polygon class="st6" points="727.2,380.7 759.5,362 759.5,525.1 727.2,543.8 	"/>
	<g>
		<polygon class="st6" points="976.6,172.8 976.6,183 885.3,235.8 885.3,225.7 		"/>
		<polygon class="st6" points="976.6,202.5 885.3,255.4 885.3,245.2 976.6,192.3 		"/>
		<polygon class="st6" points="976.6,222.1 885.3,274.9 885.3,264.8 976.6,211.9 		"/>
		<polygon class="st6" points="976.6,241.6 885.3,294.5 885.3,284.3 976.6,231.4 		"/>
	</g>
	<g>
		<polygon class="st6" points="976.6,274.9 976.6,285.1 885.3,338 885.3,327.8 		"/>
		<polygon class="st6" points="976.6,304.6 885.3,357.5 885.3,347.3 976.6,294.5 		"/>
		<polygon class="st6" points="976.6,324.2 885.3,377 885.3,366.9 976.6,314 		"/>
		<polygon class="st6" points="976.6,343.7 885.3,396.6 885.3,386.4 976.6,333.5 		"/>
	</g>
	<g>
		<polygon class="st6" points="123.1,815 123.1,825.1 31.8,878 31.8,867.8 		"/>
		<polygon class="st6" points="123.1,844.7 31.8,897.5 31.8,887.4 123.1,834.5 		"/>
		<polygon class="st6" points="123.1,864.2 31.8,917.1 31.8,906.9 123.1,854 		"/>
		<polygon class="st6" points="123.1,883.8 31.8,936.6 31.8,926.4 123.1,873.6 		"/>
	</g>
	<g>
		<polygon class="st6" points="123.1,908.4 123.1,918.6 31.8,971.5 31.8,961.3 		"/>
		<polygon class="st6" points="123.1,938.2 31.8,991 31.8,980.8 123.1,928 		"/>
		<polygon class="st6" points="123.1,957.7 31.8,1010.6 31.8,1000.4 123.1,947.5 		"/>
		<polygon class="st6" points="123.1,977.2 31.8,1030.1 31.8,1019.9 123.1,967.1 		"/>
	</g>
	<polygon class="st6" points="23.4,1080.4 23.4,1098.7 425.8,865.9 425.8,847.5 	"/>
	<g>
		<path class="st6" d="M344.8,716.7c-30.8,17.8-55.7,60.9-55.6,96.3c0.1,35.4,25.2,49.7,56,31.9c30.8-17.8,55.7-60.9,55.6-96.3
			C400.6,713.2,375.6,698.9,344.8,716.7z"/>
	</g>
	<polygon class="st9" points="1507.4,254.8 1938.7,783.3 1938.7,504.3 	"/>
</g>
</svg>
