<svg id="Layer_1" data-name="Layer 1" xmlns="http://www.w3.org/2000/svg" xmlns:xlink="http://www.w3.org/1999/xlink" viewBox="0 0 643.51 356.64"><defs><style>.cls-1,.cls-2,.cls-3{fill:#fff;}.cls-1,.cls-2,.cls-5{stroke:#fff;stroke-miterlimit:10;}.cls-2{fill-rule:evenodd;}.cls-4{clip-path:url(#clip-path);}.cls-5{fill:none;}</style><clipPath id="clip-path" transform="translate(-244.7 -192.41)"><path class="cls-1" d="M368.8,501.63l-.65-3,4.21-1.22.2-10.58L368.15,485v-2.45l4.61-2.57.29-9-4.12-1.51-.78-3.47,5.23-1.83v-4l-5-2,5.18-3v-5.51l-5.43-2.61,5.63-2.86.41-18.32s-3,5.87-7.38,9.14l-1.39-4.82a59.2,59.2,0,0,0-4.37,7.06s-1,2.29-1.92,2.08l-.24-1.55a3.88,3.88,0,0,0-.25,1.39l-3.26-2.61a6,6,0,0,0-.9,3.47c.2,1.79,1,6.2,0,6.77l-4.95-4.2s.37,8,2.24,10.16a29.32,29.32,0,0,1-8.28-6.94,14.06,14.06,0,0,1-1.55-3s-1.84,3.62-1.14,11.25a44.72,44.72,0,0,1-7.88-13.59c-2.53-7.55,1.63-15.92,4-19.11a46.76,46.76,0,0,1,3.71-3.59s2.65-8.77,5.1-10.61a4.4,4.4,0,0,1,2.7-1.59s-9.14.2-13.47,2.61c0,0,6.61-9.07,12.49-13s15.55-3.76,21.47-2a17.46,17.46,0,0,1,12.32,15.06,16.31,16.31,0,0,1,8.49-15.76c10-5.84,20.9-.57,25.3,3.51s5.68,5.14,5.68,5.14-8.82-1-11.51.13a7.87,7.87,0,0,1,2.28,1.34s9.76-1.59,17.8,7.59a20,20,0,0,1,4.65,11.47,55.87,55.87,0,0,1,0,11.15,33.39,33.39,0,0,0-7.1-9.07,12.45,12.45,0,0,1-.49,7.84c-1.67,4.37-2.12,6-2.12,6s-.61-3.88-1.59-5.3-2.09-3.43-2.09-4.21c0,0-1.55,5.27-2.12,6,0,0-.9.74-3-4a48.67,48.67,0,0,1-2.57,12.84l-2.12,5.08s-1-7.06-3.67-10a14,14,0,0,1-3.31,6.69c-2.78,3-4,4.21-4,4.21s.73-7.88-.33-10.13c0,0-3.26,4.86-3.91,5.07s-1.23-3.43-1.47-6a25.79,25.79,0,0,0-.94-4.7s-2.57,4.25-2.9,4.13-2.53-3-3.75-9.31-2.37-6.86-4-6.78l1.07.66v23.93l3,.76-.13,2.53-2.85,1.88v5.39l3.34,2.69-3.34.94v9.43l3.26,1.55.69,3.55-3.75,1.23.08,7.59,3.59,1.59v3.39l-3.67,2.12,0,7.39,3.1,1.67.12,1.84L377.66,505Z"/></clipPath></defs><title>logovglab01</title><rect class="cls-1" x="92.11" y="103.76" width="24.84" height="27.29"/><rect class="cls-1" x="23.08" y="103.76" width="24.84" height="27.29"/><rect class="cls-1" x="57.38" y="69.05" width="24.84" height="27.29"/><rect class="cls-1" x="92.11" y="31.58" width="24.84" height="27.29"/><rect class="cls-1" x="23.13" y="31.01" width="24.84" height="27.29"/><path class="cls-2" d="M504.34,195.2H246.87c-1.91,0-1.65-.24-1.65,1.72q0,123.41,0,246.81c0,.41,0,.82,0,1.22A124.71,124.71,0,0,0,251,476c4.49,14.05,11.17,26.88,22.16,37,10.54,9.71,22.38,16.69,37.3,17.23,11.91.44,23.77.64,35.64-.94a26.51,26.51,0,0,1,21.68,6.51,31.63,31.63,0,0,1,7.82,10.49l.71-1.4c5.81-11.25,16.64-17,29.17-15.59,3.2.37,6.39.82,9.6,1a185.56,185.56,0,0,0,22.62,0c4.42-.27,8.91-.12,13.21-1.42,15.85-4.8,28.11-14.47,37.44-28,6.72-9.73,11-20.57,13.88-32,2.07-8.16,3.72-16.42,3.73-24.85q.09-123.64,0-247.3C506,195,506.22,195.2,504.34,195.2ZM386.93,501.61c1.86.13,4.63.46,8.31,1.05,2.79.15,7.32,1.64,9.75,2.36.49,0,1.61-1.66,3.12-4,.87-1.38,1.91-3.17,3.08-5.34,4-6.32,8.58-13.75,8.58-13.75s12.52-23.57,19.67-28.53c11-8.06,25.54-9.63,37.42-9.16a92.48,92.48,0,0,1,9.49,1.18c4.5.81,11,2.6,11.23,2.5.52-1.29.61-6,.61-6l.09-81.56s0-146.28,0-154.83c.05-1.07-.3-1.29-.82-1.34h-.54c-.65,0-1.15,0-1.15,0h-2.35c-3.39,0-238.34,0-238.44,0h-.22c-.4,0-.59.06-.63.41,0,.07,0,.17,0,.29L254,382.28s-.08,64.86.64,65.21.4.43,2.17,0c26.93-7.62,44-.25,48.76,1.55l2.8,1.46a20.23,20.23,0,0,1,3.07,1.89c7.42,5.29,10.64,12.22,20.65,28.82,4.61,7.75,11.35,19.57,15.14,24.4,1.24,1,5.49-2.75,20.2-3.94A107,107,0,0,1,386.93,501.61Z" transform="translate(-244.7 -192.41)"/><path class="cls-2" d="M396.88,256.53a6.31,6.31,0,0,1,4.29-4.11,1.07,1.07,0,0,0,.89-1.19c0-1.09.13-2.18.2-3.27a35.49,35.49,0,0,1,2-8.32l3.9-7.59c.36-.73.77-1.44,1.06-2.19a5.57,5.57,0,0,0-5.69-7.63,17.41,17.41,0,0,1-4.14-.16,1.7,1.7,0,0,1-1.54-1.85c-.06-1,.38-1.93,1.4-2,1.83-.14,2.75-1.22,3.64-2.64a7.2,7.2,0,0,1,6.8-2.92,2.45,2.45,0,0,1,1.54.59,2.33,2.33,0,0,0,1.68.5,7.8,7.8,0,0,1,4.45-1.7c.47,0,1-.22,1.39.16a4.81,4.81,0,0,1-3,3.93c-.31.1-.62.16-.93.29-.72.3-1,.72-.68,1.51a15.39,15.39,0,0,1,.51,1.63c1.31,4,.81,8.11.36,12.18a26.18,26.18,0,0,1-.32,2.79c-.18.81,0,1.32,1,.86a.56.56,0,0,1,.36,0c2.45-1.05,4.81-2.39,7.48-2.86a30.63,30.63,0,0,1,9.46.14c3.28.28,6.35,1,8.38,3.94a5.92,5.92,0,0,0,3.21,2.45,2.74,2.74,0,0,1,2,1.85,1.31,1.31,0,0,1-.41,1.64h0c-.3.29-.71.07-1.05.22-.64.29-1.16.64-1.06,1.44a7.16,7.16,0,0,1-2.13,6.12,1.55,1.55,0,0,0-.15,1.82,22,22,0,0,0,3.61,5.93,8.23,8.23,0,0,1,1.51,5.77c-.09,2.55-.52,5.1-.77,7.65-.22,2.18-1.66,3.56-2.88,5.11-1.06.61-2.22.29-3.33.35-.73,0-1.46,0-2.19,0-.52,0-1.1,0-1.31-.63a1.48,1.48,0,0,1,.55-1.73,14.83,14.83,0,0,0,2.49-1.91c1.06-1.51,2.48-2.77,3-4.66a3.37,3.37,0,0,0-.94-3.55A20.17,20.17,0,0,1,438,260c-.42-.46-.76-.46-1,.16a3.08,3.08,0,0,0-.1,1.21,11.22,11.22,0,0,1-1.5,6.06,12.75,12.75,0,0,0-1.95,7.88,1.46,1.46,0,0,1-.49,1.54c-2,.71-4,.34-6.05.34-.75,0-.94-.54-.77-1.21a4.18,4.18,0,0,1,1.16-2.12,7.58,7.58,0,0,0,2.08-3.39c.38-1.17,1-2.23,1.48-3.35a22.69,22.69,0,0,0,1.92-4.23,1.6,1.6,0,0,0-.44-1.88c-1.14-1.11-2.23-2.27-3.39-3.36-1.43-1.35-3.28-1.55-5.11-1.71a22,22,0,0,0-2.57,0,6.39,6.39,0,0,0-2.13.17c-2.1.47-2.62.94-2.92,3a47.44,47.44,0,0,0-.56,9.74,1.43,1.43,0,0,1-.91,1.66c-1.88.67-2.22,2.2-2.33,3.9,0,.6.13,1.24-.31,1.77,0,.37-.08.64-.6.72-2.48.33-2.68.17-2.62-2.33a21.34,21.34,0,0,1,.72-3.81c.18-2.31.13-4.62.16-6.94a20.78,20.78,0,0,0-1.17-6.34c-.41-1.33-1.5-1.3-2.58-1.3-1.27-.2-1.86.42-2.54,1.5-1.75,2.73-1.68,5.56-1.23,8.56.17,1.13.62,2.3.15,3.48a.27.27,0,0,1-.36.08c-.72,0-1.45,0-2.17.05s-1.36-.19-1.5-1.05a4.42,4.42,0,0,0-1-3,3.65,3.65,0,0,1-.7-2.63C396.73,261,396.81,258.75,396.88,256.53Z" transform="translate(-244.7 -192.41)"/><path class="cls-2" d="M472.32,353.55a29.36,29.36,0,0,1-4.4.24h-2.4a7.17,7.17,0,0,1,1.86-3.26,3.56,3.56,0,0,0,1.47-2.41c-.36-.61,0-1.1.28-1.6.94-2.08,2.13-4,2.92-6.19a2,2,0,0,0-.49-2.52c-.62-.57-1.12-1.28-1.71-1.91a7.61,7.61,0,0,0-4.84-2.84,1,1,0,0,1-.74-.37,13.73,13.73,0,0,0-5.42,0c-2.47.59-3.26,2.35-3.4,4.68a79.65,79.65,0,0,0-.39,8,2.12,2.12,0,0,1-1.37,2.32A2.87,2.87,0,0,0,452,350c-.25,1.23.19,2.54-.47,3.7h0l-.49,0c-3.24-.1-2.69.72-2.65-2.87a7.38,7.38,0,0,1,.39-1.9,25.09,25.09,0,0,0-.13-13.93c-.63-2.33-.78-2.38-3.23-2.35-1.31.22-1.93,1.1-2.63,2.19-1.62,2.51-1.53,5.13-1.1,7.85.14.88.22,1.77.33,2.66.05.47.22,1.08-.52,1.28s-1.54.09-2.29.21c-1,.16-1.35-.4-1.34-1.23a4.71,4.71,0,0,0-1.16-3.33c-.92-1-.53-2.48-.64-3.76,0-.73,0-1.46,0-2.2.32-.71,0-1.48.21-2.19a6.26,6.26,0,0,1,.3-1.92,8.19,8.19,0,0,1,4.33-3c.53-.11.55-.51.51-.94s0-1.13,0-1.69c.27-.38,0-.83.19-1.22l.3-2.72a48,48,0,0,1,1.41-5.39l3.74-7.58a11,11,0,0,0,1.91-4.29,5.63,5.63,0,0,0-6.35-6.2,10.3,10.3,0,0,1-2.66,0l-.23,0c-.93,0-2,0-2.4-1a2.53,2.53,0,0,1,.66-3l1.55-.29a2.33,2.33,0,0,0,1.87-1.21,8,8,0,0,1,3.22-3.38,4.17,4.17,0,0,1,4.28-1.12,8.76,8.76,0,0,1,2,1.17.88.88,0,0,0,1.29,0,10,10,0,0,1,2.79-1.49,3.57,3.57,0,0,1,.73-.1,12.17,12.17,0,0,0,1.91-.1.55.55,0,0,1,.6.4,5.47,5.47,0,0,1-3.73,4.28c-1.28.43-1.32.45-.88,1.69a25.19,25.19,0,0,1,1,11.66c-.18,1.53-.29,3.07-.53,4.59-.05.36-.23.81.07,1.05s.73-.17,1.09-.28c3.09-1.5,6.16-3,9.68-3.25a47.25,47.25,0,0,1,4.76.07c1.32.3,2.69.31,4,.66a10.43,10.43,0,0,1,7.32,4.33,5.35,5.35,0,0,0,2.67,2,3.22,3.22,0,0,1,2.16,1.83c.24.66.31,1.27-.37,1.73a4.74,4.74,0,0,0-1.91.22,8,8,0,0,0-.15,2.07,6.11,6.11,0,0,1-1.84,5.12,2,2,0,0,0-.37,2.44,25.68,25.68,0,0,0,3.56,5.69,8,8,0,0,1,1.49,5.77,78.57,78.57,0,0,1-.92,8.5c-.28,1.76-1.49,2.9-2.76,4-1,.46-2.12.07-3.17.25-.77,0-1.54,0-2.3,0-.39,0-1,.25-1.08-.43a1.22,1.22,0,0,1,.6-1.45,7.29,7.29,0,0,0,2.18-1.51,2.8,2.8,0,0,0,.31-.5c-.06-.66.41-1,.79-1.44a7.82,7.82,0,0,0,1.9-3.21,3.37,3.37,0,0,0-.93-3.57,20.34,20.34,0,0,1-3.48-4.52c-.42-.47-.76-.44-1,.18a3.07,3.07,0,0,0-.1,1.09,11.26,11.26,0,0,1-1.52,6.22,12.81,12.81,0,0,0-1.94,7.81C472.93,352.63,473.14,353.34,472.32,353.55Z" transform="translate(-244.7 -192.41)"/><path class="cls-2" d="M440,299.19h2.66A3.81,3.81,0,0,1,440,299.19Z" transform="translate(-244.7 -192.41)"/><path class="cls-2" d="M441.67,325.37c0,.42.12.85-.19,1.22C441.52,326.18,441.34,325.73,441.67,325.37Z" transform="translate(-244.7 -192.41)"/><path class="cls-2" d="M436.3,334.18a4.79,4.79,0,0,1-.21,2.19C436.18,335.64,435.87,334.88,436.3,334.18Z" transform="translate(-244.7 -192.41)"/><path class="cls-2" d="M421.38,255.59c-.49.42-1.2,0-1.71.45-.16-.09-.33-.17-.5-.25A4.27,4.27,0,0,1,421.38,255.59Z" transform="translate(-244.7 -192.41)"/><path class="cls-2" d="M473.81,309.68v.19l-4-.68A9.37,9.37,0,0,1,473.81,309.68Z" transform="translate(-244.7 -192.41)"/><path class="cls-2" d="M373.63,204.1h7.62V330.25s-.49,3.14,1.37,4l115.66,54.47.06,8.1a4.2,4.2,0,0,0-1.68-1.66l-119.3-56.06-122.8,56.57s-.45.13-.44.93V388.2s.07.48,1.36-.14l117.72-54.5s.44,0,.41-1Z" transform="translate(-244.7 -192.41)"/><path class="cls-2" d="M498.29,422.56s.39-1.08-2.36-2.31L377.49,364.52l-122.81,56.6s-.54-.08-.54,1v-8.71s0,.73.92.29l122.48-56.48,119.72,56.52s1,.55,1.05-.26Z" transform="translate(-244.7 -192.41)"/><path class="cls-3" d="M368.8,501.63l-.65-3,4.21-1.22.2-10.58L368.15,485v-2.45l4.61-2.57.29-9-4.12-1.51-.78-3.47,5.23-1.83v-4l-5-2,5.18-3v-5.51l-5.43-2.61,5.63-2.86.41-18.32s-3,5.87-7.38,9.14l-1.39-4.82a59.2,59.2,0,0,0-4.37,7.06s-1,2.29-1.92,2.08l-.24-1.55a3.88,3.88,0,0,0-.25,1.39l-3.26-2.61a6,6,0,0,0-.9,3.47c.2,1.79,1,6.2,0,6.77l-4.95-4.2s.37,8,2.24,10.16a29.32,29.32,0,0,1-8.28-6.94,14.06,14.06,0,0,1-1.55-3s-1.84,3.62-1.14,11.25a44.72,44.72,0,0,1-7.88-13.59c-2.53-7.55,1.63-15.92,4-19.11a46.76,46.76,0,0,1,3.71-3.59s2.65-8.77,5.1-10.61a4.4,4.4,0,0,1,2.7-1.59s-9.14.2-13.47,2.61c0,0,6.61-9.07,12.49-13s15.55-3.76,21.47-2a17.46,17.46,0,0,1,12.32,15.06,16.31,16.31,0,0,1,8.49-15.76c10-5.84,20.9-.57,25.3,3.51s5.68,5.14,5.68,5.14-8.82-1-11.51.13a7.87,7.87,0,0,1,2.28,1.34s9.76-1.59,17.8,7.59a20,20,0,0,1,4.65,11.47,55.87,55.87,0,0,1,0,11.15,33.39,33.39,0,0,0-7.1-9.07,12.45,12.45,0,0,1-.49,7.84c-1.67,4.37-2.12,6-2.12,6s-.61-3.88-1.59-5.3-2.09-3.43-2.09-4.21c0,0-1.55,5.27-2.12,6,0,0-.9.74-3-4a48.67,48.67,0,0,1-2.57,12.84l-2.12,5.08s-1-7.06-3.67-10a14,14,0,0,1-3.31,6.69c-2.78,3-4,4.21-4,4.21s.73-7.88-.33-10.13c0,0-3.26,4.86-3.91,5.07s-1.23-3.43-1.47-6a25.79,25.79,0,0,0-.94-4.7s-2.57,4.25-2.9,4.13-2.53-3-3.75-9.31-2.37-6.86-4-6.78l1.07.66v23.93l3,.76-.13,2.53-2.85,1.88v5.39l3.34,2.69-3.34.94v9.43l3.26,1.55.69,3.55-3.75,1.23.08,7.59,3.59,1.59v3.39l-3.67,2.12,0,7.39,3.1,1.67.12,1.84L377.66,505Z" transform="translate(-244.7 -192.41)"/><g class="cls-4"><path class="cls-2" d="M246,195.3v2.09q0,121.14,0,242.28a105.49,105.49,0,0,0,1,15.48c1.9,12.87,5.36,25.26,11.33,36.86,7.82,15.17,19.17,26.76,34.8,33.92,4.58,2.09,9.28,3.74,14.41,3.9,5.58.17,11.16.73,16.74.68,6.39-.06,12.79-.47,19.16-1,3.95-.32,7.87-.86,11.81-.14,9.34,1.72,15.86,7.18,20.34,15.35.22.4.44.81.72,1.35.27-.51.45-.83.61-1.16,5.92-11.43,16.72-17.16,29.49-15.7a122.05,122.05,0,0,0,12.78,1.15c8.15.07,16.3-.19,24.45-.46a31.24,31.24,0,0,0,7.72-1.06c14.57-4.24,26.16-12.83,35.33-24.77,7.26-9.44,12-20.14,15.2-31.52,2.75-9.72,4.67-19.59,4.72-29.73.06-11.06,0-22.12,0-33.18V195.3Z" transform="translate(-244.7 -192.41)"/><path class="cls-2" d="M355.61,436.89l2.11,1.83c1.41,1.26,2.24,1.25,3.25-.31.88-1.36,1.54-2.87,2.33-4.29.64-1.13,1.33-2.22,2.18-3.64.54,1.82,1,3.3,1.49,5,3.38-2.38,5.36-5.65,7.42-8.92-.15,5.47-.31,10.85-.4,16.22a2.26,2.26,0,0,1-1.4,2.29c-1.47.74-2.81,1.71-4.24,2.52a1.9,1.9,0,0,1-1.18.16q-5.28-1-10.55-2a1.32,1.32,0,0,1-1.13-1.37c-.11-1.54-.4-3.08-.44-4.62A14.29,14.29,0,0,1,355.61,436.89Z" transform="translate(-244.7 -192.41)"/><path class="cls-2" d="M383.61,421.53a3.38,3.38,0,0,1,1.9,2.39c.57,1.95.9,4,1.5,5.91.68,2.21,1.54,4.36,2.36,6.53a8.46,8.46,0,0,0,.9,1.36l2.88-3.94c1.63,3.34.46,7.28,2.61,10.69,1.34-1.72,2.51-3.21,3.67-4.71h.34c.14,1.62.33,3.24.38,4.86,0,.28-.51.76-.85.84q-5.44,1.18-10.9,2.26a1.32,1.32,0,0,1-1.65-.67,2.28,2.28,0,0,0-1.44-.77c-1.06-.25-1.39-.81-1.39-1.9,0-6.93-.05-13.87-.1-20.8C383.81,423,383.69,422.33,383.61,421.53Z" transform="translate(-244.7 -192.41)"/><path class="cls-2" d="M414.63,439.26c.44-2.68.86-5.27,1.27-7.74.72,1,1.53,2.09,2.35,3.19l.47-.09q.91-2.73,1.82-5.44l.32-.1c.77,1.62,1.57,3.23,2.28,4.87a1.06,1.06,0,0,1-.41.92c-2.51,1.5-5.05,2.95-7.59,4.41C415.06,439.33,414.91,439.28,414.63,439.26Z" transform="translate(-244.7 -192.41)"/><path class="cls-2" d="M427,431.53c.29-2,.57-3.95.89-6.14l3.22,3.37-3.92,3.05C427.1,431.71,427,431.62,427,431.53Z" transform="translate(-244.7 -192.41)"/><path class="cls-2" d="M405.5,443.05l2-4.35a6.15,6.15,0,0,1,.57,1c.29.77.92,2.08.67,2.27a13,13,0,0,1-3,1.49C405.61,443.32,405.55,443.19,405.5,443.05Z" transform="translate(-244.7 -192.41)"/></g><path class="cls-5" d="M368.8,501.63l-.65-3,4.21-1.22.2-10.58L368.15,485v-2.45l4.61-2.57.29-9-4.12-1.51-.78-3.47,5.23-1.83v-4l-5-2,5.18-3v-5.51l-5.43-2.61,5.63-2.86.41-18.32s-3,5.87-7.38,9.14l-1.39-4.82a59.2,59.2,0,0,0-4.37,7.06s-1,2.29-1.92,2.08l-.24-1.55a3.88,3.88,0,0,0-.25,1.39l-3.26-2.61a6,6,0,0,0-.9,3.47c.2,1.79,1,6.2,0,6.77l-4.95-4.2s.37,8,2.24,10.16a29.32,29.32,0,0,1-8.28-6.94,14.06,14.06,0,0,1-1.55-3s-1.84,3.62-1.14,11.25a44.72,44.72,0,0,1-7.88-13.59c-2.53-7.55,1.63-15.92,4-19.11a46.76,46.76,0,0,1,3.71-3.59s2.65-8.77,5.1-10.61a4.4,4.4,0,0,1,2.7-1.59s-9.14.2-13.47,2.61c0,0,6.61-9.07,12.49-13s15.55-3.76,21.47-2a17.46,17.46,0,0,1,12.32,15.06,16.31,16.31,0,0,1,8.49-15.76c10-5.84,20.9-.57,25.3,3.51s5.68,5.14,5.68,5.14-8.82-1-11.51.13a7.87,7.87,0,0,1,2.28,1.34s9.76-1.59,17.8,7.59a20,20,0,0,1,4.65,11.47,55.87,55.87,0,0,1,0,11.15,33.39,33.39,0,0,0-7.1-9.07,12.45,12.45,0,0,1-.49,7.84c-1.67,4.37-2.12,6-2.12,6s-.61-3.88-1.59-5.3-2.09-3.43-2.09-4.21c0,0-1.55,5.27-2.12,6,0,0-.9.74-3-4a48.67,48.67,0,0,1-2.57,12.84l-2.12,5.08s-1-7.06-3.67-10a14,14,0,0,1-3.31,6.69c-2.78,3-4,4.21-4,4.21s.73-7.88-.33-10.13c0,0-3.26,4.86-3.91,5.07s-1.23-3.43-1.47-6a25.79,25.79,0,0,0-.94-4.7s-2.57,4.25-2.9,4.13-2.53-3-3.75-9.31-2.37-6.86-4-6.78l1.07.66v23.93l3,.76-.13,2.53-2.85,1.88v5.39l3.34,2.69-3.34.94v9.43l3.26,1.55.69,3.55-3.75,1.23.08,7.59,3.59,1.59v3.39l-3.67,2.12,0,7.39,3.1,1.67.12,1.84L377.66,505Z" transform="translate(-244.7 -192.41)"/><path class="cls-3" d="M626.73,370.53l-71-174.33h21.66l49.29,128.37L675.79,196.2h21.54Z" transform="translate(-244.7 -192.41)"/><path class="cls-3" d="M819,277.35h69.23V283q0,39.66-22.47,62.58t-61.32,22.93a98.06,98.06,0,0,1-22.52-2.53,81.56,81.56,0,0,1-19.77-7.33,79.87,79.87,0,0,1-31.87-31.35q-11.22-20-11.23-45.45,0-21,6.71-37.88A82.56,82.56,0,0,1,746,214.19a75.49,75.49,0,0,1,26.36-16.27,95.94,95.94,0,0,1,33.24-5.51q24.18,0,41.95,8.77A74.69,74.69,0,0,1,877,227.6L860.25,241q-9.06-15.24-22.58-22.86t-31.4-7.63q-29.24,0-47.46,19.72t-18.22,51.57q0,30,18.51,49.29t47.17,19.26q25.22,0,42-15.31t18.63-39.82H819Z" transform="translate(-244.7 -192.41)"/><polygon class="cls-3" points="459.73 284.25 483.63 284.25 471.68 256.6 459.73 284.25"/><path class="cls-3" d="M808.39,462.35q3.89-2.78,3.89-9.34,0-7.23-3.61-10.13T795,440H788v25.14H795Q804.49,465.12,808.39,462.35Z" transform="translate(-244.7 -192.41)"/><path class="cls-3" d="M864.46,400.31H579.53A12.61,12.61,0,0,0,567,412.88V536.49a12.61,12.61,0,0,0,12.57,12.57H864.46A12.61,12.61,0,0,0,877,536.49V412.88A12.6,12.6,0,0,0,864.46,400.31ZM661,507.34H623.71v-75.1h8.93v66.58H661Zm79.85,0-9.75-23H701.76l-9.74,23h-9.7l34.06-78.08,34.16,78.08Zm82.21-12.73a20.71,20.71,0,0,1-4.57,7,17.54,17.54,0,0,1-7.85,4.41Q806,507.34,795,507.34H779.3v-75.1H795a62.81,62.81,0,0,1,12.18.85,17.74,17.74,0,0,1,6.75,2.89,18,18,0,0,1,5.56,6.85,21.13,21.13,0,0,1,2,9.16,16.71,16.71,0,0,1-2.85,9.95,14.89,14.89,0,0,1-8.29,5.59,15.93,15.93,0,0,1,10.55,6q3.87,5,3.87,12.49A23,23,0,0,1,823.06,494.61Z" transform="translate(-244.7 -192.41)"/><path class="cls-3" d="M809.05,474.15a12.72,12.72,0,0,0-4.15-1.54,41.87,41.87,0,0,0-7.34-.46H788v27.39H795a64.81,64.81,0,0,0,10.28-.57,11.92,11.92,0,0,0,5-2,11.07,11.07,0,0,0,3.65-4.56,15.36,15.36,0,0,0,1.33-6.46,15.09,15.09,0,0,0-1.59-7.13A11.36,11.36,0,0,0,809.05,474.15Z" transform="translate(-244.7 -192.41)"/></svg>