<?xml version="1.0" encoding="utf-8"?>
<!-- Generator: Adobe Illustrator 22.0.0, SVG Export Plug-In . SVG Version: 6.00 Build 0)  -->
<svg version="1.1" id="Layer_1" xmlns="http://www.w3.org/2000/svg" xmlns:xlink="http://www.w3.org/1999/xlink" x="0px" y="0px"
	 viewBox="0 0 900 900" style="enable-background:new 0 0 900 900;" xml:space="preserve">
<style type="text/css">
	.st0{fill:none;stroke:#716F82;stroke-width:7;stroke-miterlimit:10;}
	.st1{fill:#072050;}
	.st2{fill:#747282;}
	.st3{fill:#2D2D3A;}
	.st4{fill:#FFFFFF;}
	.st5{fill:#A29FB0;}
	.st6{fill:#6E89C4;}
	.st7{fill:#EA5444;}
	.st8{fill:#FFC543;}
	.st9{fill:#A2CC3B;}
	.st10{fill:#313D6E;}
	.st11{fill:#678C6E;}
	.st12{opacity:0.55;fill:#C5CBED;}
	.st13{fill:#7C4B39;}
	.st14{fill:#FCBBA4;}
	.st15{fill:#FFC7B0;}
	.st16{fill:#081344;}
	.st17{opacity:0.2;fill:#081344;}
	.st18{fill:#716F82;}
	.st19{fill:#B1AEC1;}
	.st20{fill:#585668;}
	.st21{fill:#DDDDDD;}
	.st22{fill:#767684;}
	.st23{fill:#1F3468;}
	.st24{fill:#ABA9C4;}
	.st25{fill:#4A4960;}
	.st26{fill:#E79271;}
	.st27{fill:#A5483C;}
	.st28{fill:#84352F;}
	.st29{fill:#7F3954;}
	.st30{fill:#6E3856;}
	.st31{fill:#DF7D54;}
	.st32{fill:none;stroke:#081344;stroke-width:1.4933;stroke-linecap:round;stroke-miterlimit:10;}
	.st33{fill:#1C1C2D;}
	.st34{fill:#A0523A;}
	.st35{fill:#25253A;}
	.st36{fill:#9F293B;}
	.st37{fill:#F14747;}
	.st38{opacity:0.32;fill:#25253A;}
	.st39{fill:#ECEEF0;}
	.st40{opacity:0.55;fill:#CDD6F9;}
	.st41{fill:#FC4F42;}
	.st42{opacity:0.79;fill:#CE2D29;}
	.st43{fill:#6075B0;}
	.st44{fill:#794061;}
	.st45{fill:#072859;}
	.st46{fill:#F3885E;}
	.st47{fill:#FFBE62;}
	.st48{fill:#FBAF3D;}
	.st49{fill:#FFD72E;}
	.st50{fill:#F38154;}
	.st51{fill:#709B2C;}
	.st52{fill:#4C842F;}
	.st53{fill:none;stroke:#081344;stroke-width:4.5943;stroke-miterlimit:10;}
	.st54{fill:#517F38;}
	.st55{fill:#3B6837;}
	.st56{fill:#65B15B;}
	.st57{fill:#62324A;}
</style>
<g>
	<line class="st0" x1="845.6" y1="702.3" x2="65.7" y2="708.3"/>
	<g>
		
			<rect x="664" y="300.4" transform="matrix(1 -7.734467e-03 7.734467e-03 1 -2.8523 5.4027)" class="st1" width="66.1" height="142.2"/>
		<g>
			<path class="st2" d="M803.7,391.8l-212,1.6l-1.1-136.9c0-4.8,3.8-8.7,8.6-8.7l194.7-1.5c4.8,0,8.7,3.8,8.7,8.6L803.7,391.8z"/>
			<path class="st2" d="M783.6,413.3l-175.3,1.4c-10.1,0.1-18.4-8.1-18.4-18.2l-0.1-7l212-1.6l0.1,7
				C801.8,404.9,793.7,413.2,783.6,413.3z"/>
			<path class="st3" d="M583.3,256.6l1.1,136.9l52-1.2l54.5-1.3l17.2-0.4l55-1.3l33.3-0.8l-1-133.5c0-4.8-3.9-8.6-8.7-8.6
				l-194.7,1.5C587.1,248,583.2,251.9,583.3,256.6z"/>
			<path class="st4" d="M787.4,258.9l0.9,120.8c0,0.4-0.4,0.8-0.8,0.8L592.9,382c-0.4,0-0.8-0.4-0.8-0.8l-0.9-120.8
				c0-0.4,0.4-0.8,0.8-0.8l194.6-1.5C787,258.1,787.4,258.5,787.4,258.9z"/>
			<path class="st5" d="M778.2,413.3l-175.3,1.4c-10.1,0.1-18.4-8.1-18.4-18.2l-0.1-7l212-1.6l0.1,7
				C796.4,405,788.3,413.2,778.2,413.3z"/>
		</g>
		<path class="st5" d="M732.4,442.9l-88.6,0.7c-2.7,0-4.9-2.2-5-4.9l0,0c0-2.7,2.2-4.9,4.9-5l88.6-0.7c2.7,0,4.9,2.2,5,4.9l0,0
			C737.3,440.6,735.1,442.8,732.4,442.9z"/>
		<g>
			<path class="st6" d="M600.7,280.8l174.3-1.3c1.5,0,2.6-1.2,2.6-2.6l-0.1-10.2c0-1.5-1.2-2.6-2.6-2.6l-174.3,1.3
				c-1.5,0-2.6,1.2-2.6,2.6l0.1,10.2C598,279.7,599.2,280.8,600.7,280.8z"/>
			<g>
				<g>
					<path class="st7" d="M763.9,271.6c0,1.9,1.5,3.4,3.3,3.3c1.8,0,3.3-1.5,3.3-3.4c0-1.9-1.5-3.4-3.3-3.3
						C765.4,268.2,763.9,269.8,763.9,271.6z"/>
				</g>
			</g>
			<g>
				<g>
					
						<ellipse transform="matrix(1 -7.734467e-03 7.734467e-03 1 -2.0787 5.8493)" class="st8" cx="755.2" cy="271.7" rx="3.3" ry="3.4"/>
				</g>
			</g>
			<g>
				<g>
					
						<ellipse transform="matrix(1 -7.734467e-03 7.734467e-03 1 -2.0798 5.7566)" class="st9" cx="743.2" cy="271.8" rx="3.3" ry="3.4"/>
				</g>
			</g>
			<path class="st10" d="M718.4,307l58.2-0.5c0.9,0,1.6-0.7,1.6-1.6l-0.1-17.8c0-0.9-0.7-1.6-1.6-1.6l-58.2,0.5
				c-0.9,0-1.6,0.7-1.6,1.6l0.1,17.8C716.8,306.3,717.5,307,718.4,307z"/>
			<path class="st11" d="M647.1,334l58.2-0.5c0.9,0,1.6-0.7,1.6-1.6l-0.1-17.8c0-0.9-0.7-1.6-1.6-1.6L647,313
				c-0.9,0-1.6,0.7-1.6,1.6l0.1,17.8C645.5,333.3,646.3,334,647.1,334z"/>
			<path class="st11" d="M599.8,307.9l35.2-0.3c0.9,0,1.6-0.7,1.6-1.6l-0.1-17.8c0-0.9-0.7-1.6-1.6-1.6l-35.2,0.3
				c-0.9,0-1.6,0.7-1.6,1.6l0.1,17.8C598.2,307.2,599,307.9,599.8,307.9z"/>
			<path class="st7" d="M600,334.8l35.2-0.3c0.9,0,1.6-0.7,1.6-1.6l-0.1-17.8c0-0.9-0.7-1.6-1.6-1.6l-35.2,0.3
				c-0.9,0-1.6,0.7-1.6,1.6l0.1,17.8C598.4,334.1,599.2,334.8,600,334.8z"/>
			<g>
				
					<rect x="644.9" y="303.1" transform="matrix(-1 7.734467e-03 -7.734467e-03 -1 1353.4652 602.5488)" class="st1" width="61.4" height="1.5"/>
				
					<rect x="644.8" y="297.8" transform="matrix(-1 7.734467e-03 -7.734467e-03 -1 1353.3413 591.8668)" class="st1" width="61.4" height="1.5"/>
				
					<rect x="644.8" y="292.5" transform="matrix(-1 7.734467e-03 -7.734467e-03 -1 1353.2174 581.1848)" class="st1" width="61.4" height="1.5"/>
				
					<rect x="644.7" y="287.1" transform="matrix(-1 7.734467e-03 -7.734467e-03 -1 1353.0934 570.5029)" class="st1" width="61.4" height="1.5"/>
			</g>
			<path class="st7" d="M718.8,359.4l58.2-0.5c0.9,0,1.6-0.7,1.6-1.6l-0.1-17.8c0-0.9-0.7-1.6-1.6-1.6l-58.2,0.5
				c-0.9,0-1.6,0.7-1.6,1.6l0.1,17.8C717.2,358.8,718,359.5,718.8,359.4z"/>
			<g>
				
					<rect x="645.3" y="355.6" transform="matrix(-1 7.734467e-03 -7.734467e-03 -1 1354.6827 707.4799)" class="st1" width="61.4" height="1.5"/>
				
					<rect x="645.2" y="350.3" transform="matrix(-1 7.734467e-03 -7.734467e-03 -1 1354.5587 696.7979)" class="st1" width="61.4" height="1.5"/>
				
					<rect x="645.2" y="344.9" transform="matrix(-1 7.734467e-03 -7.734467e-03 -1 1354.4348 686.116)" class="st1" width="61.4" height="1.5"/>
				
					<rect x="645.1" y="339.6" transform="matrix(-1 7.734467e-03 -7.734467e-03 -1 1354.3109 675.434)" class="st1" width="61.4" height="1.5"/>
			</g>
			<g>
				
					<rect x="717.2" y="328.2" transform="matrix(-1 7.734467e-03 -7.734467e-03 -1 1498.4153 652.1002)" class="st1" width="61.4" height="1.5"/>
				
					<rect x="717.2" y="322.9" transform="matrix(-1 7.734467e-03 -7.734467e-03 -1 1498.2914 641.4182)" class="st1" width="61.4" height="1.5"/>
				
					<rect x="717.2" y="317.5" transform="matrix(-1 7.734467e-03 -7.734467e-03 -1 1498.1674 630.7362)" class="st1" width="61.4" height="1.5"/>
				
					<rect x="717.1" y="312.2" transform="matrix(-1 7.734467e-03 -7.734467e-03 -1 1498.0435 620.0542)" class="st1" width="61.4" height="1.5"/>
			</g>
		</g>
		<polygon class="st12" points="624,247.7 690.8,388.9 763,388.3 696.7,247.1 		"/>
	</g>
	<g>
		<path class="st13" d="M575.8,177.5l-13.5,8.5c-9.8,6.2-13.2,18.8-7.9,29.1c1.1,2,1.7,3.4,1.6,3.2c-0.5-0.6,20.5-40.6,20.5-40.6"/>
		<path class="st14" d="M612.2,307l7-0.1c6.4,0,11.7-5.4,11.6-11.8l-0.3-33c0-6.4-5.4-11.7-11.8-11.6l-7,0.1
			c-6.4,0-11.7,5.4-11.6,11.8l0.3,33C600.4,301.9,605.7,307.1,612.2,307z"/>
		<path class="st13" d="M556.3,218.3c-0.3,2.7,12.2,7.1,12.4,9.9l-2,5.6c15.3-5.7,1.8,2.9,1.8,2.9c4.6,13.4,3.1,20.9,16.1,25.9
			c6.5,2.5,13.6,3.6,21,3c9.9-0.8,18.8,2.3,25.9-1.2c1.5-0.7,2.9-1.7,4.2-3c2.5-2.6,4.8-5.4,6.6-8.4c0.7-1.2,1.4-2.4,2.1-3.7
			c3.9-7.6,11.7-29.8,11-38.9c-2-25.7-26.8-42.7-55.1-40.5c-0.7,0.1-1.4,0.1-2.2,0.1c-15.3,1.2-28.3,9.4-36.2,21.3
			c-0.4,0.6-0.8,1.3-1.2,1.9c0,0,0,0,0,0c-2.3,3.8-3.4,19.8-3.4,19.8C556.8,214.7,556.5,216.5,556.3,218.3z"/>
		<path class="st15" d="M557.5,226.5l0.4,7.1l0.7,11.7l1,4.1c0.1,1.8,1.1,11.5,1.5,13.3c3.4,16.5,14.3,20,31.1,21.9
			c0.5,0.1,1,0.1,1.5,0.1c1.8,0.2,3.6,0.2,5.5,0.1c1.8-0.1,3.6-0.3,5.3-0.7c3.4-0.6,6.6-1.7,9.6-3.2c0,0,0,0,0,0
			c7.4-3.6,13.5-9.4,17.4-16.5c3-5.4,4.7-11.4,4.9-17.9c0-0.4,0-0.9,0-1.3c0-0.5,0-1-0.1-1.6l0-0.3l-0.1-1.3l-0.2-3.3l-0.7-11.5
			l0-0.1l0,0l-0.1-2.1l-0.1-1.7l-0.1-1.5l0-0.4c-0.2-2.7-0.7-5.2-1.5-7.6c-0.5-1.7-1.2-3.4-1.9-5c-0.1-0.3-0.2-0.5-0.3-0.7
			c-0.6-1.3-1.3-2.6-2.1-3.9c0,0,0,0,0,0c-2.9-4.7-6.7-8.8-11.3-11.9c-0.9-0.6-1.9-1.2-2.8-1.8c-6.6-3.8-14.4-5.8-22.5-5.3
			c-6.8,0.4-11.8,2.5-17.2,5.8c-3.3,2-6.3,4.5-8.8,7.3c-3.6,4-6,8.7-7.7,13.9c-0.1,0.3-0.2,0.6-0.3,0.9c-0.5,1.7-0.9,3.4-1,5.2
			C557.3,220.9,557.3,223.7,557.5,226.5z"/>
		<path class="st13" d="M571.5,191.4c-8.1,22.9,13.7,20.8,14.8,31.3c0.1,1.2,0.6,2.9,0.9,11.5l1.7,5.4c0.5,1.7,2.1,2.8,3.8,2.8
			c2.2,0,3.9-1.8,3.9-4l0-0.1l-0.3-8.5l4.3,11.2c3.1,8.1,7.8,15.4,13.7,21.6c4.9,5.1,10.7,9.4,17,12.7c0,0,26.5-16,26.2-52.1
			c0-2.9-0.2-5.9-0.6-9c-0.4-2.8-0.8-5.4-1.5-7.9c-11.4-44.7-66.3-29-71.6-27C578.4,181.4,571.5,191.4,571.5,191.4z"/>
		<path class="st15" d="M553,250.7c0,0.1,0,0.6,0,0.6c0.1,2.5,2.2,4.4,7.5,4.2l-0.9-19.2C555.4,242.8,553.4,246.7,553,250.7z"/>
		<path class="st13" d="M555.7,227.4l11.8-0.1c1.4,0,2.5-1.1,2.5-2.5l0,0c0-1.4-1.1-2.5-2.5-2.5l-11.8,0.1c-1.4,0-2.5,1.1-2.5,2.5v0
			C553.2,226.3,554.3,227.4,555.7,227.4z"/>
		<path class="st16" d="M562.4,236.2L562.4,236.2c1,0,1.8-0.8,1.8-1.8l0-2.6c0-1-0.8-1.8-1.8-1.8l0,0c-1,0-1.8,0.8-1.8,1.8l0,2.6
			C560.6,235.4,561.4,236.2,562.4,236.2z"/>
		<path class="st17" d="M614.4,262.5c4.9,5.1,10.7,9.4,17,12.7c0,0,26.5-16,26.2-52.1c0-2.9-0.2-5.9-0.6-9c-0.4-2.8-0.8-5.4-1.5-7.9
			c-1.1,6.9-4.1,17.3-11.9,30.2C631.7,256.1,618.7,261.3,614.4,262.5z"/>
		<path class="st13" d="M560.7,261.5l0.5,13.5c0.1,11.5,13.7,16,23.8,14.8l16.1-1.9l-1.7-13.9l-4.6-26.7l6.9-20l-14.6,6.2l0,0
			c1.2,15.8-10,28.7-25.9,28.1L560.7,261.5z"/>
		<path class="st14" d="M597.5,226.9c-1.6,0-2.9,1.4-2.9,3l0.1,10l0.1,8.8l3.4,0c0.3,0,0.5,0,0.7-0.1c5.8-0.5,10.3-5.5,10.2-11.3
			c0-3-1.3-5.5-3.4-7.5c-1.8-1.7-4.3-2.7-7-2.9l0,0c-0.3,0-0.6-0.1-0.9,0L597.5,226.9z"/>
		<g>
			
				<rect x="610.6" y="519.6" transform="matrix(1 -7.734467e-03 7.734467e-03 1 -4.0656 5.0963)" class="st16" width="92.6" height="17.1"/>
			<line class="st10" x1="735.9" y1="678.3" x2="736" y2="684.9"/>
			
				<rect x="264.3" y="523.8" transform="matrix(1 -7.734467e-03 7.734467e-03 1 -4.1081 2.3881)" class="st18" width="84.8" height="17.1"/>
			
				<rect x="259.1" y="466" transform="matrix(-1 7.734467e-03 -7.734467e-03 -1 541.9385 1170.4192)" class="st18" width="19.3" height="240.5"/>
			
				<rect x="336.5" y="464" transform="matrix(-1 7.734467e-03 -7.734467e-03 -1 696.8472 1167.1796)" class="st19" width="19.3" height="241.9"/>
			
				<rect x="335.9" y="454.2" transform="matrix(-1 7.734467e-03 -7.734467e-03 -1 695.0117 1008.9784)" class="st18" width="19.3" height="103.2"/>
			
				<rect x="726.9" y="520.2" transform="matrix(1 -7.734467e-03 7.734467e-03 1 -4.0666 5.9663)" class="st18" width="84.8" height="17.1"/>
			
				<rect x="721.7" y="462.4" transform="matrix(-1 7.734467e-03 -7.734467e-03 -1 1467.2028 1159.684)" class="st18" width="19.3" height="240.5"/>
			
				<rect x="799.2" y="460.4" transform="matrix(-1 7.734467e-03 -7.734467e-03 -1 1622.1112 1156.4443)" class="st18" width="19.3" height="241.9"/>
			<g>
				
					<rect x="396.2" y="303.3" transform="matrix(-1 7.734467e-03 -7.734467e-03 -1 858.9655 740.1711)" class="st20" width="63.7" height="137"/>
				<g>
					<g>
						<path class="st21" d="M328.7,396l209.3-1.6l-1-127.8c0-4.6-3.8-8.3-8.4-8.3L336,259.8c-4.6,0-8.3,3.8-8.3,8.4L328.7,396z"/>
						<path class="st21" d="M348.5,416.3l174-1.3c9.7-0.1,17.6-8,17.5-17.8l-0.1-6.8l-209.2,1.6l0.1,6.8
							C330.8,408.6,338.8,416.4,348.5,416.3z"/>
						<path class="st22" d="M334.9,268.1l1,127.8l209.3-1.6l-1-127.8c0-4.6-3.8-8.3-8.4-8.3l-192.6,1.5
							C338.6,259.7,334.9,263.5,334.9,268.1z"/>
						<path class="st23" d="M342.5,267.8l0.9,116.3c0,0.4,0.4,0.8,0.8,0.8l192.5-1.5c0.4,0,0.8-0.4,0.8-0.8l-0.9-116.3
							c0-0.4-0.4-0.8-0.8-0.8L343.3,267C342.9,267,342.5,267.4,342.5,267.8z"/>
						<path class="st24" d="M335.9,392l0.1,6.7c0.1,7.1,4.3,13.2,10.3,15.9c2.3,1,4.8,1.6,7.5,1.6l174-1.3c9.7-0.1,17.6-8,17.5-17.8
							l-0.1-6.7L335.9,392z"/>
					</g>
					<g>
						<g>
							
								<rect x="460.4" y="280.2" transform="matrix(-1 7.734467e-03 -7.734467e-03 -1 988.0624 558.8836)" class="st6" width="65" height="2.3"/>
							
								<rect x="401.5" y="280.8" transform="matrix(-1 7.734467e-03 -7.734467e-03 -1 835.8666 560.6494)" class="st21" width="30.8" height="2.3"/>
							
								<rect x="357" y="281.2" transform="matrix(-1 7.734467e-03 -7.734467e-03 -1 746.9689 561.6808)" class="st8" width="30.8" height="2.3"/>
							
								<rect x="391.4" y="281" transform="matrix(-1 7.734467e-03 -7.734467e-03 -1 792.3167 561.1547)" class="st6" width="7.3" height="2.3"/>
							
								<rect x="435.8" y="280.6" transform="matrix(-1 7.734467e-03 -7.734467e-03 -1 895.3644 559.9591)" class="st7" width="21.6" height="2.3"/>
						</g>
						<g>
							
								<rect x="460.9" y="337.8" transform="matrix(-1 7.734467e-03 -7.734467e-03 -1 989.3995 674.124)" class="st6" width="65" height="2.3"/>
							
								<rect x="401.9" y="338.4" transform="matrix(-1 7.734467e-03 -7.734467e-03 -1 837.2036 675.8898)" class="st21" width="30.8" height="2.3"/>
							
								<rect x="357.4" y="338.8" transform="matrix(-1 7.734467e-03 -7.734467e-03 -1 748.306 676.9212)" class="st8" width="30.8" height="2.3"/>
							
								<rect x="391.9" y="338.6" transform="matrix(-1 7.734467e-03 -7.734467e-03 -1 793.6537 676.3951)" class="st6" width="7.3" height="2.3"/>
							
								<rect x="436.3" y="338.2" transform="matrix(-1 7.734467e-03 -7.734467e-03 -1 896.7015 675.1995)" class="st5" width="21.6" height="2.3"/>
						</g>
						<g>
							
								<rect x="357.3" y="319.4" transform="matrix(1 -7.734467e-03 7.734467e-03 1 -2.4678 3.0246)" class="st6" width="65" height="2.3"/>
							
								<rect x="450.5" y="318.9" transform="matrix(1 -7.734467e-03 7.734467e-03 1 -2.4609 3.6132)" class="st21" width="30.8" height="2.3"/>
							
								<rect x="495" y="318.5" transform="matrix(1 -7.734467e-03 7.734467e-03 1 -2.4569 3.957)" class="st8" width="30.8" height="2.3"/>
							
								<rect x="484" y="318.7" transform="matrix(1 -7.734467e-03 7.734467e-03 1 -2.459 3.7816)" class="st6" width="7.3" height="2.3"/>
							
								<rect x="425.4" y="319.1" transform="matrix(1 -7.734467e-03 7.734467e-03 1 -2.4636 3.3831)" class="st5" width="21.6" height="2.3"/>
						</g>
						<g>
							
								<rect x="501.2" y="289.7" transform="matrix(-1 7.734467e-03 -7.734467e-03 -1 1028.9242 577.6187)" class="st7" width="24.4" height="2.3"/>
							
								<rect x="442.2" y="290.2" transform="matrix(-1 7.734467e-03 -7.734467e-03 -1 897.0477 579.1488)" class="st6" width="10.5" height="2.3"/>
							
								<rect x="357.1" y="290.7" transform="matrix(-1 7.734467e-03 -7.734467e-03 -1 767.5112 580.6517)" class="st21" width="51.1" height="2.3"/>
							
								<rect x="411.8" y="290.4" transform="matrix(-1 7.734467e-03 -7.734467e-03 -1 853.4978 579.6541)" class="st6" width="27.6" height="2.3"/>
							
								<rect x="456.2" y="290" transform="matrix(-1 7.734467e-03 -7.734467e-03 -1 956.5456 578.4585)" class="st6" width="41.9" height="2.3"/>
						</g>
						<g>
							
								<rect x="501.6" y="347.3" transform="matrix(-1 7.734467e-03 -7.734467e-03 -1 1030.2612 692.8593)" class="st6" width="24.4" height="2.3"/>
							
								<rect x="442.6" y="347.8" transform="matrix(-1 7.734467e-03 -7.734467e-03 -1 898.3848 694.3893)" class="st6" width="10.5" height="2.3"/>
							
								<rect x="357.5" y="348.3" transform="matrix(-1 7.734467e-03 -7.734467e-03 -1 768.8483 695.8922)" class="st6" width="51.1" height="2.3"/>
							
								<rect x="412.3" y="348" transform="matrix(-1 7.734467e-03 -7.734467e-03 -1 854.8349 694.8946)" class="st6" width="27.6" height="2.3"/>
							
								<rect x="456.6" y="347.6" transform="matrix(-1 7.734467e-03 -7.734467e-03 -1 957.8827 693.699)" class="st6" width="41.9" height="2.3"/>
						</g>
						<g>
							
								<rect x="501.4" y="328.1" transform="matrix(-1 7.734467e-03 -7.734467e-03 -1 1029.8156 654.4457)" class="st7" width="24.4" height="2.3"/>
							
								<rect x="442.5" y="328.6" transform="matrix(-1 7.734467e-03 -7.734467e-03 -1 897.9391 655.9758)" class="st6" width="10.5" height="2.3"/>
							
								<rect x="357.4" y="329.1" transform="matrix(-1 7.734467e-03 -7.734467e-03 -1 768.4026 657.4787)" class="st21" width="51.1" height="2.3"/>
							
								<rect x="412.1" y="328.8" transform="matrix(-1 7.734467e-03 -7.734467e-03 -1 854.3892 656.4811)" class="st6" width="27.6" height="2.3"/>
							
								<rect x="456.5" y="328.4" transform="matrix(-1 7.734467e-03 -7.734467e-03 -1 957.437 655.2855)" class="st6" width="41.9" height="2.3"/>
						</g>
						<g>
							
								<rect x="501.2" y="299.3" transform="matrix(-1 7.734467e-03 -7.734467e-03 -1 1029.1471 596.8255)" class="st21" width="24.4" height="2.3"/>
							
								<rect x="456.3" y="299.6" transform="matrix(-1 7.734467e-03 -7.734467e-03 -1 956.7684 597.6653)" class="st6" width="41.9" height="2.3"/>
						</g>
						<g>
							
								<rect x="456.4" y="309.2" transform="matrix(1 -7.734467e-03 7.734467e-03 1 -2.3864 3.6332)" class="st21" width="24.4" height="2.3"/>
							
								<rect x="483.8" y="308.9" transform="matrix(1 -7.734467e-03 7.734467e-03 1 -2.3832 3.9131)" class="st6" width="41.9" height="2.3"/>
						</g>
					</g>
				</g>
				<path class="st25" d="M398.2,444.1l85.3-0.7c2.6,0,4.7-2.2,4.7-4.8v0c0-2.6-2.2-4.7-4.8-4.7l-85.3,0.7c-2.6,0-4.7,2.2-4.7,4.8v0
					C393.5,442,395.6,444.1,398.2,444.1z"/>
			</g>
			<path class="st26" d="M241.6,466l269.1-2.1l-0.1-13.9c0-4.2-3.5-7.6-7.7-7.6l-253.9,2c-4.2,0-7.6,3.5-7.6,7.7L241.6,466z"/>
			<g>
				<path class="st27" d="M320,451.5l0.1,13.9l518.1-4l-0.1-13.9c0-4.2-3.5-7.6-7.7-7.6l-502.9,3.9
					C323.3,443.9,319.9,447.3,320,451.5z"/>
				<path class="st28" d="M469.8,442.7c4.2,6.7,9.1,14.6,13.4,21.4l126.8-1l-1.9-21.5L469.8,442.7z"/>
			</g>
			<g>
				
					<rect x="82.8" y="540.6" transform="matrix(1 -7.735218e-03 7.735218e-03 1 -4.8222 1.174)" class="st29" width="133.1" height="166.8"/>
				
					<rect x="132.3" y="540.2" transform="matrix(1 -7.735231e-03 7.735231e-03 1 -4.8179 1.5478)" class="st30" width="130.8" height="166.8"/>
				<g>
					
						<rect x="140.1" y="552.7" transform="matrix(1 -7.734467e-03 7.734467e-03 1 -4.443 1.5809)" class="st31" width="124.1" height="45.1"/>
					
						<rect x="140.5" y="605.6" transform="matrix(1 -7.734467e-03 7.734467e-03 1 -4.8526 1.5856)" class="st31" width="124.1" height="45.1"/>
					
						<rect x="140.9" y="658.6" transform="matrix(1 -7.734467e-03 7.734467e-03 1 -5.2749 1.5905)" class="st31" width="124.1" height="48.4"/>
				</g>
				<g>
					<path class="st4" d="M224.8,577.5l-31,0.2c-1.3,0-2.4-1.1-2.4-2.4l0,0c0-1.3,1.1-2.4,2.4-2.4l31-0.2c1.3,0,2.4,1.1,2.4,2.4l0,0
						C227.2,576.4,226.1,577.5,224.8,577.5z"/>
					<path class="st4" d="M226.4,630l-31,0.2c-1.3,0-2.4-1.1-2.4-2.4l0,0c0-1.3,1.1-2.4,2.4-2.4l31-0.2c1.3,0,2.4,1.1,2.4,2.4l0,0
						C228.8,628.9,227.7,630,226.4,630z"/>
					<path class="st4" d="M226.8,682.6l-31,0.2c-1.3,0-2.4-1.1-2.4-2.4v0c0-1.3,1.1-2.4,2.4-2.4l31-0.2c1.3,0,2.4,1.1,2.4,2.4l0,0
						C229.2,681.5,228.1,682.6,226.8,682.6z"/>
				</g>
			</g>
			<g>
				<g>
					<path class="st29" d="M567.4,714.4l-62.2,1.1c-3.7,0.1-6.8-2.9-6.8-6.6l0,0c-0.1-2.9,1.7-5.4,4.4-6.4l30.6-11.3l33.6,0.2
						L567.4,714.4z"/>
					<path class="st16" d="M504,717.3l63-0.7l0-4.5l-67.5,0.7l0,0C499.5,715.3,501.5,717.3,504,717.3z"/>
				</g>
				<g>
					<line class="st32" x1="534.2" y1="700.3" x2="526.8" y2="692.6"/>
					<line class="st32" x1="528.9" y1="702.6" x2="521.5" y2="694.9"/>
					<line class="st32" x1="523.8" y1="705.7" x2="515.5" y2="696.9"/>
				</g>
				<g>
					<path class="st33" d="M569.4,693.9c-4.1-60.6-3.5-116.7,1.1-128.1c4.8-7.1,42.5-22.7,80.2-24.6l-18-38.4
						c-49.5,2.9-84.8,21.7-97,43.1c-5.2,9-9.6,27.1-6.6,89c1.5,32.4,3.3,57.8,3.3,57.8L569.4,693.9z"/>
				</g>
				<g>
					<path class="st34" d="M512,716.4l-62.2,0.9c-3.7,0.1-6.8-2.9-6.8-6.6l0,0c0-2.9,1.7-5.4,4.4-6.4l30.6-11.2l33.6,0.3L512,716.4z
						"/>
					<path class="st16" d="M448.6,719l64-0.5l0-4.5l-68.5,0.5l0,0C444.1,717,446.1,719,448.6,719z"/>
				</g>
				<g>
					<line class="st32" x1="478.9" y1="702.2" x2="471.5" y2="694.4"/>
					<line class="st32" x1="473.6" y1="704.4" x2="466.2" y2="696.7"/>
					<line class="st32" x1="468.5" y1="707.5" x2="460.2" y2="698.7"/>
				</g>
				<g>
					<path class="st33" d="M514.1,694.4c-4.1-60.6-3.5-116.7,1.1-128.1c4.8-7.1,42.5-22.7,80.2-24.6l-18-38.4
						c-49.5,2.9-84.8,21.7-97,43.1c-5.2,9-9.6,27.1-6.6,89c1.5,32.4,3.3,57.8,3.3,57.8L514.1,694.4z"/>
				</g>
				<path class="st33" d="M565.9,514.4c0.1,6.8,2.5,13,6.6,17.8c5.2,6.2,13,10.1,21.7,10l47.2-0.4c1.4,0,2.8-0.1,4.1-0.3
					c3.5-0.5,6.7-1.7,9.6-3.4c0.5-0.3,1-0.6,1.5-0.9c7.7-5.1,12.7-13.8,12.6-23.6l-1-15l-101.7-0.1L565.9,514.4z"/>
				<g>
					<g>
						<g>
							<path class="st14" d="M532.9,434.6l-24.4-3.7c-1.8-0.3-3-1.9-2.7-3.7l0,0c0.3-1.8,1.9-3,3.7-2.7l24.4,3.7
								c1.8,0.3,3,1.9,2.7,3.7l0,0C536.4,433.7,534.7,434.9,532.9,434.6z"/>
							<path class="st14" d="M525.2,441.3l-19.6-3c-1.8-0.3-3-1.9-2.7-3.7l0,0c0.3-1.8,1.9-3,3.7-2.7l19.6,3c1.8,0.3,3,1.9,2.7,3.7
								l0,0C528.7,440.3,527,441.5,525.2,441.3z"/>
							<path class="st14" d="M529.8,449.8l-23.2-3.5c-1.8-0.3-3-1.9-2.7-3.7l0,0c0.3-1.8,1.9-3,3.7-2.7l23.2,3.5
								c1.8,0.3,3,1.9,2.7,3.7l0,0C533.2,448.8,531.6,450,529.8,449.8z"/>
						</g>
						<path class="st14" d="M522.3,428.4c0.3,0,3.2,0,6.5-0.1c5.6-0.1,11.1,1.1,16.1,3.5l9.6,4.6c0,0-5.4,16.4-6.1,16.5
							c-18.5,3.5-24.9-4.9-24.9-4.9L522.3,428.4z"/>
					</g>
					
						<rect x="536.8" y="428.2" transform="matrix(-1 7.734467e-03 -7.734467e-03 -1 1085.1647 878.9298)" class="st4" width="8.2" height="26.7"/>
				</g>
				<g>
					<path class="st33" d="M598.9,457.4c19.4-0.1,37-11.6,45-29.3l0.4-0.9l24.7-77.6l-31.3-10l-24.1,75.6c-2.9,5.7-8.8,9.3-15.1,9.2
						l-53.8-0.1l-0.1,32.9l53.8,0.1C598.6,457.4,598.8,457.4,598.9,457.4z"/>
				</g>
				<g>
					<g>
						<path class="st14" d="M423,426.8c2-3.6,5-6.6,8.7-8.4c0,0,0.1,0,0.1,0c5-2.5,10.5-3.8,16.1-3.7l10.7,0.1
							c0,0,2.9,23.2,2.7,22.4c-0.3-1.5-26.1-0.9-38-0.6c-2.6,0.1-4.2-2.7-3-4.9L423,426.8z"/>
					</g>
					
						<rect x="454.9" y="413" transform="matrix(-1 7.734467e-03 -7.734467e-03 -1 923.3397 849.83)" class="st4" width="10.2" height="27.3"/>
				</g>
				<g>
					<path class="st35" d="M515.2,443.1c19.4-0.1,37-11.6,45-29.3l35.9-79.3L566.1,321l-35.9,79.3c-2.7,6.1-8.8,10-15.5,10
						l-53.8-0.1l-0.1,32.9l53.8,0.1C514.9,443.1,515,443.1,515.2,443.1z"/>
				</g>
				<path class="st35" d="M556,350.3l1.1,69l1.5,87.8c0,0,1.9,2.1,7.6,5c4.9,2.5,12.6,5.7,24.4,8.7c13.7,3.4,32.9,3.8,49.4,3.3
					c18.1-0.6,32.8-2.3,32.8-2.3L671,349.4c-0.2-24.3-17.9-44.3-41-48.2c-2.8-0.5-5.6-0.7-8.6-0.7l-16.6,0.1
					C577.6,300.9,555.8,323.1,556,350.3z"/>
				<g>
					<g>
						
							<rect x="618.2" y="576.1" transform="matrix(1 -7.734467e-03 7.734467e-03 1 -4.8057 4.8647)" class="st19" width="16.6" height="95.4"/>
						<path class="st18" d="M634.5,581.4l0.2,20.9l-16.7-5.9l-0.1-14.1C622.1,582,630.1,581.6,634.5,581.4z"/>
					</g>
					<path class="st3" d="M575.1,584.7l99.5-0.8c5.1,0,9.2-4.2,9.2-9.3l0,0c0-5.1-4.2-9.2-9.3-9.2l-99.5,0.8c-5.1,0-9.2,4.2-9.2,9.3
						l0,0C565.8,580.6,570,584.7,575.1,584.7z"/>
					<g>
						<g>
							<path class="st3" d="M556.8,702.8l10.4-0.1c-0.1-11.7,9.9-21.3,22.4-21.4l75.7-0.6c12.4-0.1,22.6,9.3,22.7,21.1l10.4-0.1
								c-0.1-17.1-15-30.9-33.2-30.8l-75.7,0.6C571.3,671.6,556.6,685.7,556.8,702.8z"/>
						</g>
						
							<rect x="614.9" y="656.5" transform="matrix(-1 7.734467e-03 -7.734467e-03 -1 1259.0717 1323.0837)" class="st3" width="24.3" height="14.9"/>
					</g>
					<g>
						
							<ellipse transform="matrix(1 -7.760441e-03 7.760441e-03 1 -5.4983 5.4038)" class="st16" cx="693.6" cy="711.2" rx="8.6" ry="8.1"/>
						<path class="st1" d="M681.1,710.6l23.6-0.2l0-2.2c0-6.1-5-11-11.1-10.9l-1.6,0c-6.1,0-11,5-10.9,11.1L681.1,710.6z"/>
						
							<ellipse transform="matrix(1 -7.760445e-03 7.760445e-03 1 -5.5102 4.3792)" class="st16" cx="561.5" cy="712.2" rx="8.6" ry="8.1"/>
						<path class="st1" d="M549.1,711.6l23.6-0.2l0-2.2c0-6.1-5-11-11.1-10.9l-1.6,0c-6.1,0-11,5-10.9,11.1L549.1,711.6z"/>
					</g>
					
						<rect x="619.8" y="674.2" transform="matrix(-1 7.734467e-03 -7.734467e-03 -1 1258.6726 1373.0072)" class="st3" width="13.8" height="29.4"/>
					<g>
						
							<ellipse transform="matrix(1 -7.760445e-03 7.760445e-03 1 -5.5043 4.8839)" class="st16" cx="626.6" cy="711.7" rx="8.6" ry="8.1"/>
						<path class="st1" d="M614.1,711.1l23.6-0.2l0-2.2c0-6.1-5-11-11.1-10.9l-1.6,0c-6.1,0-11,5-10.9,11.1L614.1,711.1z"/>
					</g>
				</g>
				<path class="st36" d="M757.1,395.6l-21,160.8c-1.3,9.8-9.4,17.2-19.3,17.6l-81.2,1.6l43.6-202.3l57.6-0.5
					C749.1,372.6,758.7,383.4,757.1,395.6z"/>
				<path class="st37" d="M539.7,576.3l112.9-0.9c9.6-0.1,17.4-8,17.4-17.6v0c-0.1-9.6-8-17.4-17.6-17.4l-112.9,0.9
					c-9.6,0.1-17.4,8-17.4,17.6v0C522.2,568.5,530.1,576.4,539.7,576.3z"/>
				<path class="st33" d="M644.4,344.5c2.4,31.6-2.8,145.9-4.5,179.6c18.1-0.6,32.8-2.3,32.8-2.3L671,349.4
					c-0.2-24.3-17.9-44.3-41-48.2C630,301.3,641.5,307.2,644.4,344.5z"/>
				<polygon class="st4" points="587.5,303.8 638.3,303.5 638.2,289.3 587.4,295.7 				"/>
				<path class="st37" d="M671.4,553.2l22.3-164.9c1-7.3-4.6-14.1-12.4-15l0,0c-7.8-0.9-15,4.3-16,11.7l-22.3,164.9
					c-1,7.3,4.6,14.1,12.4,15l0,0C663.2,565.8,667.3,571.2,671.4,553.2z"/>
				<path class="st33" d="M557.1,419.3l1.5,87.8c0,0,1.9,2.1,7.6,5l10.7-132.4C576.8,379.7,566.3,406.5,557.1,419.3z"/>
			</g>
		</g>
		<path class="st38" d="M335.9,359.6L342,392l4.3,22.7c2.3,1,4.8,1.6,7.5,1.6l55-0.4c-5.3-5.4-14.1-14.4-23.6-24.2
			c-14.8-15.3-31.3-32.7-38.6-41.5L335.9,359.6z"/>
	</g>
	<g>
		<path class="st21" d="M366.8,443.3L258,444.1c-0.6-0.9-1.1-1.8-1.4-2.9l-25-87.7c-1.2-4.2,1.9-8.4,6.3-8.4l95.8-0.7
			c3,0,5.6,1.9,6.4,4.8L366.8,443.3z"/>
		<path class="st5" d="M236.7,350.3l25,87.6c1.2,4.1,4.9,6.9,9.2,6.8L373,444L345,346c-0.8-2.8-3.4-4.8-6.4-4.8L243,342
			C238.6,342,235.5,346.2,236.7,350.3z"/>
		<path class="st23" d="M242.1,354.2l20.4,71.5l4.3,15l101.3-0.8l-4.3-15l-21.4-74.7c-0.7-2.6-3.2-4.4-5.9-4.4l-88.7,0.7
			C243.9,346.4,241,350.3,242.1,354.2z"/>
		<g>
			<g>
				<polygon class="st39" points="301.8,355.7 333,355.5 332.3,353.3 301.1,353.5 				"/>
				<polygon class="st7" points="273.5,356 288.3,355.8 287.6,353.7 272.8,353.8 				"/>
				<polygon class="st5" points="252.2,356.1 267,356 266.3,353.8 251.5,353.9 				"/>
				<polygon class="st6" points="268.7,356 272.2,356 271.5,353.8 268,353.8 				"/>
				<polygon class="st5" points="290,355.8 300.3,355.7 299.6,353.6 289.3,353.6 				"/>
			</g>
			<g>
				<polygon class="st21" points="323.8,393 309,393.1 308.3,390.9 323.1,390.8 				"/>
				<polygon class="st8" points="345.1,392.8 330.4,392.9 329.7,390.7 344.4,390.6 				"/>
				<polygon class="st6" points="328.6,392.9 325.1,393 324.4,390.8 327.9,390.8 				"/>
			</g>
			<g>
				<polygon class="st7" points="324.3,364.9 336,364.8 335.3,362.6 323.6,362.7 				"/>
				<polygon class="st6" points="296,365.1 301.1,365.1 300.4,362.9 295.3,362.9 				"/>
				<polygon class="st7" points="255.2,365.4 279.7,365.3 279,363.1 254.5,363.3 				"/>
				<polygon class="st6" points="281.5,365.2 294.7,365.1 294,363 280.8,363.1 				"/>
				<polygon class="st6" points="302.8,365.1 322.9,364.9 322.2,362.7 302.1,362.9 				"/>
			</g>
			<g>
				<polygon class="st10" points="342.5,420.9 354.2,420.8 353.5,418.6 341.8,418.7 				"/>
			</g>
			<g>
				<polygon class="st21" points="327.4,374.2 339.1,374.2 338.4,372 326.7,372.1 				"/>
				<polygon class="st21" points="308.3,374.4 320,374.3 319.3,372.1 307.6,372.2 				"/>
				<polygon class="st6" points="261.5,374.8 281.6,374.6 280.9,372.4 260.8,372.6 				"/>
			</g>
			<g>
				<polygon class="st6" points="342.1,383.5 322,383.6 321.3,381.5 341.4,381.3 				"/>
			</g>
		</g>
		<polygon class="st5" points="261.2,425.6 265.6,440.6 369.5,439.8 365.1,424.8 		"/>
		<g>
			<path class="st5" d="M317.3,444.7l124.4-1c2.9,0,5.3-2.4,5.2-5.3l0,0c0-2.9-2.4-5.3-5.3-5.2l-124.4,1c-2.9,0-5.3,2.4-5.2,5.3l0,0
				C312,442.4,314.4,444.7,317.3,444.7z"/>
		</g>
		<polygon class="st40" points="267.6,341.8 269.7,346.2 306.5,425.3 310.3,433.4 349.4,433.1 345.6,425 308.8,345.9 306.7,341.5 		
			"/>
		<polygon class="st40" points="382.1,266.7 436.8,384.2 494.4,383.7 439.7,266.3 		"/>
		<g>
			<g>
				<path class="st21" d="M270.1,444.7l72-0.6c2.9,0,5.3-2.4,5.2-5.3l0,0c0-2.9-2.4-5.3-5.3-5.2l-72,0.6c-2.9,0-5.3,2.4-5.2,5.3l0,0
					C264.8,442.4,267.2,444.8,270.1,444.7z"/>
			</g>
			<g>
				
					<rect x="296" y="437.4" transform="matrix(-1 7.734467e-03 -7.734467e-03 -1 605.6293 875.6202)" class="st16" width="10.3" height="3.1"/>
				
					<rect x="309.3" y="437.3" transform="matrix(-1 7.734467e-03 -7.734467e-03 -1 629.5403 875.3428)" class="st16" width="7.5" height="3.1"/>
			</g>
		</g>
	</g>
	<g>
		<g>
			<path class="st41" d="M371.1,401.1l0.3,43.1l36-0.3l-0.3-43.1c0-1.9-1.6-3.4-3.5-3.4l-29.1,0.2
				C372.7,397.7,371.1,399.2,371.1,401.1z"/>
			<g>
				<path class="st7" d="M407,436.6c0.5-0.3,11.5-6.8,12.4-18.2c0.3-4.3-1.3-7-2.8-8.5c-4-4.1-10.6-3.8-11.3-3.7l0.3,5.3
					c1.3-0.1,5.3,0.2,7.2,2.2c1,1,1.4,2.4,1.3,4.3c-0.7,8.6-9.7,14-9.8,14L407,436.6z"/>
			</g>
		</g>
		<path class="st7" d="M388.3,444.1l19.2-0.1l-0.3-43.1c0-1.9-1.6-3.4-3.5-3.4l-1.2,0c0,2.2-0.5,19.4-5.2,31.9
			C393.2,440.1,389.4,443.3,388.3,444.1z"/>
		<path class="st42" d="M416.6,409.9c-2.8-2.9-7-3.6-9.4-3.7l0-5.4c0-1.9-1.6-3.4-3.5-3.4l-1.2,0c0,2.2-0.5,19.4-5.2,31.9
			c-4.1,10.8-7.8,14-9,14.8l19.2-0.1l-0.1-7.7c2.1-1.4,11.1-7.7,11.9-17.9C419.7,414.1,418,411.4,416.6,409.9z M414.1,418
			c-0.4,5.3-4,9.4-6.7,11.8l-0.1-18.2c1.7,0.1,4.2,0.7,5.6,2.1C413.8,414.7,414.2,416.1,414.1,418z"/>
	</g>
	<g>
		<g>
			
				<rect x="782.7" y="360.2" transform="matrix(-0.9833 0.1819 -0.1819 -0.9833 1627.1587 628.3101)" class="st43" width="4.1" height="57.1"/>
			
				<rect x="777.6" y="359.1" transform="matrix(-0.9833 0.1819 -0.1819 -0.9833 1615.401 587.2817)" class="st43" width="6.4" height="17.2"/>
		</g>
		<g>
			<polygon class="st44" points="794.8,424.4 798.9,424 793.7,367.1 791.2,363.5 789.6,367.5 			"/>
		</g>
		<g>
			<polygon class="st45" points="800.5,427.2 804.6,428 815.1,371.8 813.7,367.6 811,371.1 			"/>
		</g>
		<g>
			<polygon class="st46" points="791.5,440.3 809.2,440.2 814.6,393.3 785.3,393.5 			"/>
			<polygon class="st47" points="784.8,440.4 802.5,440.3 804.8,393.4 778.7,393.6 			"/>
		</g>
	</g>
	<g>
		<g>
			<path class="st37" d="M239.1,515.2l0.2,25.8l-90,0.7c-5.6,0-10.4-3.5-12.2-8.5c-0.5-1.3-0.8-2.8-0.8-4.3c0-3.5,1.4-6.8,3.7-9.1
				c2.3-2.3,5.5-3.8,9.1-3.8L239.1,515.2z"/>
			<path class="st42" d="M219.1,532.6l0.1,8.6l-69.9,0.5c-5.6,0-10.4-3.5-12.2-8.5L219.1,532.6z"/>
			<path class="st36" d="M258.4,515.1l0.2,25.8l-59,0.5c-7.1,0.1-12.9-5.7-13-12.8c0-3.6,1.4-6.8,3.7-9.2c2.3-2.3,5.5-3.8,9.1-3.8
				L258.4,515.1z"/>
			<path class="st4" d="M258.4,519.5l0.1,16.5l-55.6,0.4c-4.6,0-8.3-3.6-8.3-8.2c0-2.3,0.9-4.4,2.4-5.9c1.5-1.5,3.5-2.4,5.8-2.5
				L258.4,519.5z"/>
		</g>
		<g>
			<path class="st48" d="M240.5,464l0.2,25.8l-90,0.7c-7.1,0.1-12.9-5.7-13-12.8c0-3.6,1.4-6.8,3.7-9.2c2.3-2.3,5.5-3.8,9.1-3.8
				L240.5,464z"/>
			<path class="st49" d="M220.1,472.7l-0.1-8.6l-69.9,0.5c-5.6,0-10.3,3.6-12.1,8.7L220.1,472.7z"/>
			<path class="st50" d="M258,463.8l0.2,25.8l-59,0.5c-7.1,0.1-12.9-5.7-13-12.8c0-3.6,1.4-6.8,3.7-9.2c2.3-2.3,5.5-3.8,9.1-3.8
				L258,463.8z"/>
			<path class="st4" d="M258,468.2l0.1,16.5l-55.6,0.4c-4.6,0-8.3-3.6-8.3-8.2c0-2.3,0.9-4.4,2.4-5.9c1.5-1.5,3.5-2.4,5.8-2.5
				L258,468.2z"/>
		</g>
		<g>
			<path class="st9" d="M245.3,489.9l0.2,25.8l-90,0.7c-7.1,0.1-12.9-5.7-13-12.8c0-2.2,0.5-4.3,1.5-6.1c0.6-1.1,1.4-2.2,2.2-3.1
				c2.3-2.3,5.5-3.8,9.1-3.8L245.3,489.9z"/>
			<path class="st51" d="M242.9,489.9l0.1,6.8l-99,0.8c0.6-1.1,1.4-2.2,2.2-3.1c2.3-2.3,5.5-3.8,9.1-3.8L242.9,489.9z"/>
			<path class="st51" d="M243.1,515.7l-0.1-6.8l-99,0.8c0.6,1.1,1.4,2.2,2.3,3.1c2.4,2.3,5.6,3.7,9.1,3.7L243.1,515.7z"/>
			<path class="st52" d="M268.9,489.7l0.2,25.8l-54,0.4c-7.1,0.1-12.9-5.7-13-12.8c0-3.6,1.4-6.8,3.7-9.2c2.3-2.3,5.5-3.8,9.1-3.8
				L268.9,489.7z"/>
			<path class="st4" d="M268.9,494.1l0.1,16.5l-50.6,0.4c-4.6,0-8.3-3.6-8.3-8.2c0-2.3,0.9-4.4,2.4-5.9c1.5-1.5,3.5-2.4,5.8-2.5
				L268.9,494.1z"/>
		</g>
	</g>
	<g>
		<g>
			<g>
				<path class="st16" d="M230.2,338.6L230.2,338.6c4.3-4.6,3.8-11.7-1-15.8l-0.5-0.5c-4.8-4.1-12.2-3.7-16.4,0.9v0
					c-4.3,4.6-3.8,11.7,1,15.8l0.5,0.5C218.6,343.6,226,343.2,230.2,338.6z"/>
				<path class="st31" d="M221.3,360.9l11.4,9.8l31.9-34.6l-11.4-9.8c-7.9-6.8-19.2-7.6-27.9-2.8c-2.2,1.2-4.2,2.8-6,4.7
					c-4.4,4.8-6.4,10.8-6,16.7C213.6,350.9,216.3,356.7,221.3,360.9z"/>
				<path class="st8" d="M231.4,349.9l11.4,9.8l21.8-23.6l-11.4-9.8c-7.9-6.8-19.2-7.6-27.9-2.8c-1.5,3.3-2.1,6.9-1.9,10.4
					C223.8,339.9,226.5,345.7,231.4,349.9z"/>
			</g>
			<path class="st5" d="M232.1,370.6c3.4,3,13.5-2.2,22.5-11.6c9-9.4,13.5-19.5,10-22.6c-2.7-2.4-9.6,0.3-16.8,6.3
				c-1.9,1.6-3.8,3.4-5.7,5.3c-2.2,2.3-4.1,4.6-5.7,6.9C231.4,361.9,229.5,368.3,232.1,370.6z"/>
			<path class="st4" d="M236.4,354.9c2.6,2.9,7.1,3.7,10.7,1.7c4.1-2.3,5.5-7.3,3.2-11.3c-0.6-1.1-1.5-1.9-2.4-2.6
				c-1.9,1.6-3.8,3.4-5.7,5.3C239.9,350.3,238,352.6,236.4,354.9z"/>
		</g>
		<polyline class="st53" points="173.9,450 143.8,355.4 202.9,315.3 215.5,325.8 		"/>
		<g>
			<path class="st16" d="M196.4,315.9c0,3.9,3.3,7,7.4,7c4,0,7.3-3.2,7.3-7.1s-3.3-7-7.4-7C199.6,308.8,196.4,312,196.4,315.9z"/>
			<path class="st10" d="M200.1,315.9c0,1.9,1.7,3.5,3.7,3.5s3.6-1.6,3.6-3.6c0-1.9-1.7-3.5-3.7-3.5
				C201.7,312.3,200.1,313.9,200.1,315.9z"/>
		</g>
		<path class="st10" d="M144.4,465l75.7-0.6l0,0c-0.1-8.3-6.8-15-15.1-14.9l-45.6,0.4C151,449.9,144.4,456.7,144.4,465L144.4,465z"
			/>
		
			<rect x="190.7" y="445.8" transform="matrix(-1 7.734467e-03 -7.734467e-03 -1 398.5382 894.2043)" class="st16" width="13.7" height="4.1"/>
		<g>
			
				<ellipse transform="matrix(1 -7.734467e-03 7.734467e-03 1 -2.7518 1.1273)" class="st16" cx="144.4" cy="356.3" rx="10.2" ry="9.9"/>
			
				<ellipse transform="matrix(1 -7.734467e-03 7.734467e-03 1 -2.7518 1.1273)" class="st10" cx="144.4" cy="356.3" rx="5.1" ry="4.9"/>
		</g>
	</g>
	<g>
		<g>
			<path class="st54" d="M79.6,471.1c11.2,15,33.5,17.4,33.5,17.4s4.1-22-7.1-37.1c-11.2-15-33.5-17.4-33.5-17.4
				S68.3,456.1,79.6,471.1z"/>
			<path class="st55" d="M126.1,461.7c-10.1,10.1-9.4,27.2-9.4,27.2s17.1,0.7,27.2-9.4c10.1-10.1,9.4-27.2,9.4-27.2
				S136.2,451.6,126.1,461.7z"/>
			<path class="st56" d="M100.8,454.3c-1.9,18.7,12.9,35.5,12.9,35.5s17.9-13.4,19.9-32.1c1.9-18.7-12.9-35.5-12.9-35.5
				S102.7,435.7,100.8,454.3z"/>
		</g>
		<g>
			<polygon class="st57" points="102.9,541.4 141.5,541.1 153.7,484.6 89.8,485.1 			"/>
			<polygon class="st34" points="88.3,541.5 126.9,541.2 132.2,484.8 75.2,485.2 			"/>
		</g>
	</g>
</g>
</svg>
