<?xml version="1.0" encoding="utf-8"?>
<!-- Generator: Adobe Illustrator 22.0.0, SVG Export Plug-In . SVG Version: 6.00 Build 0)  -->
<svg version="1.1" id="Layer_1" xmlns="http://www.w3.org/2000/svg" xmlns:xlink="http://www.w3.org/1999/xlink" x="0px" y="0px"
	 viewBox="0 0 643.5 356.6" style="enable-background:new 0 0 643.5 356.6;" xml:space="preserve">
<style type="text/css">
	.st0{fill:#0056A2;stroke:#FFFFFF;stroke-miterlimit:10;}
	.st1{fill:none;stroke:#FFFFFF;stroke-miterlimit:10;}
	.st2{fill:none;}
	.st3{clip-path:url(#SVGID_2_);}
	.st4{fill:#0056A2;}
</style>
<title>logovglab01</title>
<rect x="92.1" y="103.8" class="st0" width="24.8" height="27.3"/>
<rect x="23.1" y="103.8" class="st0" width="24.8" height="27.3"/>
<rect x="57.4" y="69.1" class="st0" width="24.8" height="27.3"/>
<rect x="92.1" y="31.6" class="st0" width="24.8" height="27.3"/>
<rect x="23.1" y="31" class="st0" width="24.8" height="27.3"/>
<path class="st0" d="M261.3,4.3c0-1.7,0.3-1.5-1.6-1.5H2.2c-1.9,0-1.6-0.2-1.6,1.7c0,82.3,0,164.5,0,246.8c0,0.4,0,0.8,0,1.2
	c0.6,10.6,2.5,21,5.8,31c4.5,14,11.2,26.9,22.2,37c10.5,9.7,22.4,16.7,37.3,17.2c11.9,0.4,23.8,0.6,35.6-0.9
	c7.8-1.2,15.8,1.2,21.7,6.5c3.3,2.9,6,6.5,7.8,10.5l0.7-1.4c5.8-11.3,16.6-17,29.2-15.6c3.2,0.4,6.4,0.8,9.6,1
	c7.5,0.5,15.1,0.5,22.6,0c4.4-0.3,8.9-0.1,13.2-1.4c15.9-4.8,28.1-14.5,37.4-28c6.7-9.7,11-20.6,13.9-32c2.1-8.2,3.7-16.4,3.7-24.8
	C261.3,169.2,261.3,86.8,261.3,4.3z M253.6,13.1c0,8.5,0,154.8,0,154.8l-0.1,81.6c0,0-0.1,4.7-0.6,6c-0.2,0.1-6.7-1.7-11.2-2.5
	c-3.1-0.6-6.3-1-9.5-1.2c-11.9-0.5-26.4,1.1-37.4,9.2c-7.2,5-19.7,28.5-19.7,28.5s-4.6,7.4-8.6,13.8c-1.2,2.2-2.2,4-3.1,5.3
	c-1.5,2.3-2.6,4-3.1,4c-2.4-0.7-7-2.2-9.8-2.4c-3.7-0.6-6.5-0.9-8.3-1c-6.5-0.6-13-0.6-19.5,0.1c-14.7,1.2-19,4.9-20.2,3.9
	c-3.8-4.8-10.5-16.6-15.1-24.4c-10-16.6-13.2-23.5-20.7-28.8c-1-0.7-2-1.4-3.1-1.9l-2.8-1.5c-4.8-1.8-21.8-9.2-48.8-1.5
	c-1.8,0.4-1.4,0.3-2.2,0c-0.7-0.3-0.6-65.2-0.6-65.2L9.4,12.5c0-0.1,0-0.2,0-0.3c0-0.3,0.2-0.4,0.6-0.4h0.2c0.1,0,235,0,238.4,0h2.3
	c0,0,0.5,0,1.2,0h0.5C253.3,11.8,253.6,12,253.6,13.1z"/>
<path class="st0" d="M152.2,64.1c0.7-2,2.3-3.5,4.3-4.1c0.6-0.1,1-0.6,0.9-1.2c0-1.1,0.1-2.2,0.2-3.3c0.3-2.8,1-5.6,2-8.3l3.9-7.6
	c0.4-0.7,0.8-1.4,1.1-2.2c1.2-2.9-0.2-6.1-3.1-7.2c-0.8-0.3-1.7-0.5-2.6-0.4c-1.4,0.1-2.8,0.1-4.1-0.2c-0.9-0.1-1.6-0.9-1.5-1.8
	c0,0,0,0,0,0c-0.1-1,0.4-1.9,1.4-2c1.8-0.1,2.8-1.2,3.6-2.6c1.6-2.2,4.2-3.3,6.8-2.9c0.6,0,1.1,0.2,1.5,0.6c0.5,0.4,1.1,0.6,1.7,0.5
	c1.3-1,2.8-1.6,4.5-1.7c0.5,0,1-0.2,1.4,0.2c-0.2,1.8-1.4,3.3-3,3.9c-0.3,0.1-0.6,0.2-0.9,0.3c-0.7,0.3-1,0.7-0.7,1.5
	c0.2,0.5,0.4,1.1,0.5,1.6c1.3,4,0.8,8.1,0.4,12.2c-0.1,0.9-0.2,1.9-0.3,2.8c-0.2,0.8,0,1.3,1,0.9c0.1,0,0.2,0,0.4,0
	c2.5-1.1,4.8-2.4,7.5-2.9c3.1-0.4,6.3-0.4,9.5,0.1c3.3,0.3,6.4,1,8.4,3.9c0.7,1.2,1.9,2,3.2,2.4c0.9,0.2,1.7,0.9,2,1.9
	c0.3,0.6,0.1,1.3-0.4,1.6l0,0c-0.3,0.3-0.7,0.1-1,0.2c-0.6,0.3-1.2,0.6-1.1,1.4c0.3,2.3-0.5,4.5-2.1,6.1c-0.4,0.5-0.5,1.2-0.1,1.8
	c0.9,2.2,2.1,4.2,3.6,5.9c1.2,1.7,1.7,3.7,1.5,5.8c-0.1,2.5-0.5,5.1-0.8,7.6c-0.2,2.2-1.7,3.6-2.9,5.1c-1.1,0.6-2.2,0.3-3.3,0.4
	c-0.7,0-1.5,0-2.2,0c-0.5,0-1.1,0-1.3-0.6c-0.2-0.6,0-1.3,0.5-1.7c0.9-0.5,1.7-1.2,2.5-1.9c1.1-1.5,2.5-2.8,3-4.7
	c0.4-1.3,0-2.7-0.9-3.5c-1.4-1.3-2.6-2.8-3.5-4.5c-0.4-0.5-0.8-0.5-1,0.2c-0.1,0.4-0.1,0.8-0.1,1.2c0.1,2.1-0.4,4.2-1.5,6.1
	c-1.5,2.3-2.2,5.1-2,7.9c0.2,0.6,0,1.2-0.5,1.5c-2,0.7-4,0.3-6,0.3c-0.8,0-0.9-0.5-0.8-1.2c0.2-0.8,0.6-1.5,1.2-2.1
	c1-0.9,1.7-2.1,2.1-3.4c0.4-1.2,1-2.2,1.5-3.4c0.8-1.3,1.4-2.8,1.9-4.2c0.3-0.7,0.1-1.4-0.4-1.9c-1.1-1.1-2.2-2.3-3.4-3.4
	c-1.4-1.4-3.3-1.5-5.1-1.7c-0.9-0.1-1.7-0.1-2.6,0c-0.7-0.1-1.4,0-2.1,0.2c-2.1,0.5-2.6,0.9-2.9,3c-0.5,3.2-0.7,6.5-0.6,9.7
	c0.2,0.7-0.2,1.4-0.9,1.7c-1.9,0.7-2.2,2.2-2.3,3.9c0,0.6,0.1,1.2-0.3,1.8c0,0.4-0.1,0.6-0.6,0.7c-2.5,0.3-2.7,0.2-2.6-2.3
	c0.1-1.3,0.4-2.6,0.7-3.8c0.2-2.3,0.1-4.6,0.2-6.9c-0.1-2.2-0.5-4.3-1.2-6.3c-0.4-1.3-1.5-1.3-2.6-1.3c-1.3-0.2-1.9,0.4-2.5,1.5
	c-1.8,2.7-1.7,5.6-1.2,8.6c0.2,1.1,0.6,2.3,0.1,3.5c-0.1,0.1-0.2,0.2-0.4,0.1c-0.7,0-1.5,0-2.2,0s-1.4-0.2-1.5-1c0-1.1-0.3-2.2-1-3
	c-0.6-0.8-0.8-1.7-0.7-2.6C152,68.6,152.1,66.3,152.2,64.1z"/>
<path class="st0" d="M227.6,161.1c-1.5,0.2-2.9,0.3-4.4,0.2h-2.4c0.3-1.2,1-2.4,1.9-3.3c0.8-0.6,1.3-1.4,1.5-2.4
	c-0.4-0.6,0-1.1,0.3-1.6c0.9-2.1,2.1-4,2.9-6.2c0.5-0.8,0.3-1.9-0.5-2.5c-0.6-0.6-1.1-1.3-1.7-1.9c-1.2-1.5-2.9-2.5-4.8-2.8
	c-0.3,0-0.6-0.1-0.7-0.4c-1.8-0.4-3.6-0.4-5.4,0c-2.5,0.6-3.3,2.4-3.4,4.7c-0.3,2.7-0.4,5.3-0.4,8c0.2,1-0.4,2-1.4,2.3
	c-0.9,0.4-1.6,1.3-1.7,2.3c-0.3,1.2,0.2,2.5-0.5,3.7l0,0h-0.5c-3.2-0.1-2.7,0.7-2.6-2.9c0-0.6,0.2-1.3,0.4-1.9
	c1.3-4.6,1.2-9.4-0.1-13.9c-0.6-2.3-0.8-2.4-3.2-2.4c-1.3,0.2-1.9,1.1-2.6,2.2c-1.6,2.5-1.5,5.1-1.1,7.9c0.1,0.9,0.2,1.8,0.3,2.7
	c0,0.5,0.2,1.1-0.5,1.3s-1.5,0.1-2.3,0.2c-1,0.2-1.4-0.4-1.3-1.2c0.1-1.2-0.4-2.4-1.2-3.3c-0.9-1-0.5-2.5-0.6-3.8c0-0.7,0-1.5,0-2.2
	c0.3-0.7,0-1.5,0.2-2.2c0-0.7,0.1-1.3,0.3-1.9c1.1-1.4,2.6-2.5,4.3-3c0.5-0.1,0.5-0.5,0.5-0.9s0-1.1,0-1.7c0.3-0.4,0-0.8,0.2-1.2
	l0.3-2.7c0.4-1.8,0.8-3.6,1.4-5.4l3.7-7.6c0.9-1.3,1.6-2.7,1.9-4.3c0.3-3.1-1.9-5.9-5-6.2c-0.5-0.1-0.9,0-1.4,0
	c-0.9,0.1-1.8,0.1-2.7,0H195c-0.9,0-2,0-2.4-1c-0.5-1-0.2-2.3,0.7-3l1.5-0.3c0.8-0.1,1.5-0.5,1.9-1.2c0.7-1.4,1.8-2.6,3.2-3.4
	c1.1-1.2,2.8-1.6,4.3-1.1c0.7,0.3,1.4,0.7,2,1.2c0.3,0.4,0.9,0.4,1.2,0c0,0,0,0,0,0c0.8-0.6,1.8-1.1,2.8-1.5
	c0.2-0.1,0.5-0.1,0.7-0.1c0.6,0,1.3,0,1.9-0.1c0.3,0,0.5,0.1,0.6,0.4c-0.3,2-1.8,3.7-3.7,4.3c-1.3,0.4-1.3,0.5-0.9,1.7
	c1.2,3.8,1.6,7.7,1,11.7c-0.2,1.5-0.3,3.1-0.5,4.6c0,0.4-0.2,0.8,0.1,1s0.7-0.2,1.1-0.3c3.1-1.5,6.2-3,9.7-3.3
	c1.6-0.1,3.2,0,4.8,0.1c1.3,0.3,2.7,0.3,4,0.7c2.9,0.3,5.6,1.9,7.3,4.3c0.7,0.9,1.6,1.6,2.7,2c1,0.2,1.8,0.9,2.2,1.8
	c0.2,0.7,0.3,1.3-0.4,1.7c-0.6-0.1-1.3,0-1.9,0.2c-0.1,0.7-0.2,1.4-0.1,2.1c0.2,1.9-0.5,3.8-1.8,5.1c-0.7,0.6-0.8,1.6-0.4,2.4
	c0.9,2,2.1,4,3.6,5.7c1.2,1.7,1.8,3.7,1.5,5.8c-0.2,2.8-0.5,5.7-0.9,8.5c-0.3,1.8-1.5,2.9-2.8,4c-1,0.5-2.1,0.1-3.2,0.3
	c-0.8,0-1.5,0-2.3,0c-0.4,0-1,0.3-1.1-0.4c-0.2-0.6,0.1-1.2,0.6-1.5c0.8-0.4,1.6-0.9,2.2-1.5c0.1-0.2,0.2-0.3,0.3-0.5
	c-0.1-0.7,0.4-1,0.8-1.4c0.9-0.9,1.5-2,1.9-3.2c0.4-1.3,0.1-2.7-0.9-3.6c-1.4-1.3-2.5-2.9-3.5-4.5c-0.4-0.5-0.8-0.4-1,0.2
	c-0.1,0.4-0.1,0.7-0.1,1.1c0.1,2.2-0.4,4.3-1.5,6.2c-1.5,2.3-2.1,5.1-1.9,7.8C228.2,160.2,228.4,160.9,227.6,161.1z"/>
<path class="st1" d="M195.3,106.8h2.7C197.1,107.1,196.2,107.1,195.3,106.8z"/>
<path class="st1" d="M197,133c0,0.4,0.1,0.9-0.2,1.2C196.8,133.8,196.6,133.3,197,133z"/>
<path class="st1" d="M191.6,141.8c0.1,0.7,0,1.5-0.2,2.2C191.5,143.2,191.2,142.5,191.6,141.8z"/>
<path class="st1" d="M176.7,63.2c-0.5,0.4-1.2,0-1.7,0.5c-0.2-0.1-0.3-0.2-0.5-0.3C175.2,63.1,175.9,63.1,176.7,63.2z"/>
<path class="st1" d="M229.1,117.3v0.2l-4-0.7C226.5,116.7,227.8,116.8,229.1,117.3z"/>
<path class="st0" d="M128.9,11.7h7.6v126.1c0,0-0.5,3.1,1.4,4l115.7,54.5l0.1,8.1c-0.4-0.7-1-1.3-1.7-1.7l-119.3-56.1L9.9,203.3
	c0,0-0.4,0.1-0.4,0.9v-8.4c0,0,0.1,0.5,1.4-0.1l117.7-54.5c0,0,0.4,0,0.4-1L128.9,11.7z"/>
<path class="st0" d="M253.6,230.1c0,0,0.4-1.1-2.4-2.3l-118.4-55.7L10,228.7c0,0-0.5-0.1-0.5,1V221c0,0,0,0.7,0.9,0.3l122.5-56.5
	l119.7,56.5c0,0,1,0.5,1-0.3L253.6,230.1z"/>
<path class="st2" d="M124.1,309.2l-0.6-3l4.2-1.2l0.2-10.6l-4.4-1.8v-2.5l4.6-2.6l0.3-9l-4.1-1.5l-0.8-3.5l5.2-1.8v-4l-5-2l5.2-3
	v-5.5l-5.4-2.6l5.6-2.9l0.4-18.3c0,0-3,5.9-7.4,9.1l-1.4-4.8c-1.6,2.2-3.1,4.6-4.4,7.1c0,0-1,2.3-1.9,2.1l-0.2-1.5
	c-0.2,0.4-0.3,0.9-0.3,1.4l-3.3-2.6c-0.6,1-1,2.2-0.9,3.5c0.2,1.8,1,6.2,0,6.8l-5-4.2c0,0,0.4,8,2.2,10.2c-3.2-1.8-6-4.1-8.3-6.9
	c-0.6-0.9-1.2-1.9-1.5-3c0,0-1.8,3.6-1.1,11.3c-3.4-4-6.1-8.6-7.9-13.6c-2.5-7.5,1.6-15.9,4-19.1c1.2-1.3,2.4-2.5,3.7-3.6
	c0,0,2.6-8.8,5.1-10.6c0.7-0.8,1.6-1.4,2.7-1.6c0,0-9.1,0.2-13.5,2.6c0,0,6.6-9.1,12.5-13s15.5-3.8,21.5-2c6.8,2.1,11.7,8,12.3,15.1
	c-0.6-6.5,2.8-12.7,8.5-15.8c10-5.8,20.9-0.6,25.3,3.5s5.7,5.1,5.7,5.1s-8.8-1-11.5,0.1c0.8,0.3,1.6,0.8,2.3,1.3
	c0,0,9.8-1.6,17.8,7.6c2.7,3.2,4.4,7.3,4.6,11.5c0.4,3.7,0.4,7.4,0,11.1c-1.8-3.4-4.2-6.5-7.1-9.1c0.7,2.6,0.5,5.3-0.5,7.8
	c-1.7,4.4-2.1,6-2.1,6s-0.6-3.9-1.6-5.3s-2.1-3.4-2.1-4.2c0,0-1.5,5.3-2.1,6c0,0-0.9,0.7-3-4c-0.3,4.4-1.1,8.7-2.6,12.8l-2.1,5.1
	c0,0-1-7.1-3.7-10c-0.5,2.5-1.6,4.8-3.3,6.7c-2.8,3-4,4.2-4,4.2s0.7-7.9-0.3-10.1c0,0-3.3,4.9-3.9,5.1s-1.2-3.4-1.5-6
	c-0.2-1.6-0.5-3.2-0.9-4.7c0,0-2.6,4.3-2.9,4.1s-2.5-3-3.8-9.3s-2.4-6.9-4-6.8l1.1,0.7v23.9l3,0.8l-0.1,2.5l-2.9,1.9v5.4l3.3,2.7
	l-3.3,0.9v9.4l3.3,1.5l0.7,3.5l-3.8,1.2l0.1,7.6l3.6,1.6v3.4L139,298v7.4l3.1,1.7l0.1,1.8l-9.3,3.7L124.1,309.2z"/>
<g>
	<defs>
		<path id="SVGID_1_" d="M124.1,309.2l-0.6-3l4.2-1.2l0.2-10.6l-4.4-1.8v-2.5l4.6-2.6l0.3-9l-4.1-1.5l-0.8-3.5l5.2-1.8v-4l-5-2
			l5.2-3v-5.5l-5.4-2.6l5.6-2.9l0.4-18.3c0,0-3,5.9-7.4,9.1l-1.4-4.8c-1.6,2.2-3.1,4.6-4.4,7.1c0,0-1,2.3-1.9,2.1l-0.2-1.5
			c-0.2,0.4-0.3,0.9-0.3,1.4l-3.3-2.6c-0.6,1-1,2.2-0.9,3.5c0.2,1.8,1,6.2,0,6.8l-5-4.2c0,0,0.4,8,2.2,10.2c-3.2-1.8-6-4.1-8.3-6.9
			c-0.6-0.9-1.2-1.9-1.5-3c0,0-1.8,3.6-1.1,11.3c-3.4-4-6.1-8.6-7.9-13.6c-2.5-7.5,1.6-15.9,4-19.1c1.2-1.3,2.4-2.5,3.7-3.6
			c0,0,2.6-8.8,5.1-10.6c0.7-0.8,1.6-1.4,2.7-1.6c0,0-9.1,0.2-13.5,2.6c0,0,6.6-9.1,12.5-13s15.5-3.8,21.5-2
			c6.8,2.1,11.7,8,12.3,15.1c-0.6-6.5,2.8-12.7,8.5-15.8c10-5.8,20.9-0.6,25.3,3.5s5.7,5.1,5.7,5.1s-8.8-1-11.5,0.1
			c0.8,0.3,1.6,0.8,2.3,1.3c0,0,9.8-1.6,17.8,7.6c2.7,3.2,4.4,7.3,4.6,11.5c0.4,3.7,0.4,7.4,0,11.1c-1.8-3.4-4.2-6.5-7.1-9.1
			c0.7,2.6,0.5,5.3-0.5,7.8c-1.7,4.4-2.1,6-2.1,6s-0.6-3.9-1.6-5.3s-2.1-3.4-2.1-4.2c0,0-1.5,5.3-2.1,6c0,0-0.9,0.7-3-4
			c-0.3,4.4-1.1,8.7-2.6,12.8l-2.1,5.1c0,0-1-7.1-3.7-10c-0.5,2.5-1.6,4.8-3.3,6.7c-2.8,3-4,4.2-4,4.2s0.7-7.9-0.3-10.1
			c0,0-3.3,4.9-3.9,5.1s-1.2-3.4-1.5-6c-0.2-1.6-0.5-3.2-0.9-4.7c0,0-2.6,4.3-2.9,4.1s-2.5-3-3.8-9.3s-2.4-6.9-4-6.8l1.1,0.7v23.9
			l3,0.8l-0.1,2.5l-2.9,1.9v5.4l3.3,2.7l-3.3,0.9v9.4l3.3,1.5l0.7,3.5l-3.8,1.2l0.1,7.6l3.6,1.6v3.4L139,298v7.4l3.1,1.7l0.1,1.8
			l-9.3,3.7L124.1,309.2z"/>
	</defs>
	<clipPath id="SVGID_2_">
		<use xlink:href="#SVGID_1_"  style="overflow:visible;"/>
	</clipPath>
	<g class="st3">
		<path class="st1" d="M1.3,2.9V5c0,80.8,0,161.5,0,242.3c0,5.2,0.3,10.4,1,15.5c1.9,12.9,5.4,25.3,11.3,36.9
			c7.8,15.2,19.2,26.8,34.8,33.9c4.6,2.1,9.3,3.7,14.4,3.9c5.6,0.2,11.2,0.7,16.7,0.7c6.4-0.1,12.8-0.5,19.2-1
			c4-0.3,7.9-0.9,11.8-0.1c9.3,1.7,15.9,7.2,20.3,15.3c0.2,0.4,0.4,0.8,0.7,1.3c0.3-0.5,0.5-0.8,0.6-1.2
			c5.9-11.4,16.7-17.2,29.5-15.7c4.2,0.6,8.5,1,12.8,1.2c8.1,0.1,16.3-0.2,24.5-0.5c2.6,0,5.2-0.4,7.7-1.1
			c14.6-4.2,26.2-12.8,35.3-24.8c7.3-9.4,12-20.1,15.2-31.5c2.8-9.7,4.7-19.6,4.7-29.7c0.1-11.1,0-22.1,0-33.2V2.9H1.3z"/>
		<path class="st1" d="M110.9,244.5l2.1,1.8c1.4,1.3,2.2,1.3,3.3-0.3c0.9-1.4,1.5-2.9,2.3-4.3c0.6-1.1,1.3-2.2,2.2-3.6
			c0.5,1.8,1,3.3,1.5,5c3.4-2.4,5.4-5.6,7.4-8.9c-0.1,5.5-0.3,10.9-0.4,16.2c0.1,1-0.5,1.9-1.4,2.3c-1.5,0.7-2.8,1.7-4.2,2.5
			c-0.4,0.2-0.8,0.2-1.2,0.2c-3.5-0.7-7-1.3-10.5-2c-0.7-0.1-1.2-0.7-1.1-1.4c-0.1-1.5-0.4-3.1-0.4-4.6
			C110.4,246.4,110.6,245.4,110.9,244.5z"/>
		<path class="st1" d="M138.9,229.1c1,0.4,1.7,1.3,1.9,2.4c0.6,2,0.9,4,1.5,5.9c0.7,2.2,1.5,4.4,2.4,6.5c0.3,0.5,0.6,0.9,0.9,1.4
			l2.9-3.9c1.6,3.3,0.5,7.3,2.6,10.7c1.3-1.7,2.5-3.2,3.7-4.7h0.3c0.1,1.6,0.3,3.2,0.4,4.9c0,0.3-0.5,0.8-0.9,0.8
			c-3.6,0.8-7.3,1.5-10.9,2.3c-0.6,0.2-1.4-0.1-1.6-0.7c-0.4-0.4-0.9-0.7-1.4-0.8c-1.1-0.3-1.4-0.8-1.4-1.9c0-6.9,0-13.9-0.1-20.8
			C139.1,230.6,139,229.9,138.9,229.1z"/>
		<path class="st1" d="M169.9,246.9c0.4-2.7,0.9-5.3,1.3-7.7c0.7,1,1.5,2.1,2.4,3.2l0.5-0.1c0.6-1.8,1.2-3.6,1.8-5.4l0.3-0.1
			c0.8,1.6,1.6,3.2,2.3,4.9c0,0.4-0.1,0.7-0.4,0.9c-2.5,1.5-5,3-7.6,4.4C170.4,246.9,170.2,246.9,169.9,246.9z"/>
		<path class="st1" d="M182.3,239.1c0.3-2,0.6-4,0.9-6.1l3.2,3.4l-3.9,3C182.4,239.3,182.3,239.2,182.3,239.1z"/>
		<path class="st1" d="M160.8,250.6l2-4.4c0.2,0.3,0.4,0.6,0.6,1c0.3,0.8,0.9,2.1,0.7,2.3c-0.9,0.6-1.9,1.1-3,1.5
			C160.9,250.9,160.8,250.8,160.8,250.6z"/>
	</g>
</g>
<path class="st0" d="M124.1,309.2l-0.6-3l4.2-1.2l0.2-10.6l-4.4-1.8v-2.5l4.6-2.6l0.3-9l-4.1-1.5l-0.8-3.5l5.2-1.8v-4l-5-2l5.2-3
	v-5.5l-5.4-2.6l5.6-2.9l0.4-18.3c0,0-3,5.9-7.4,9.1l-1.4-4.8c-1.6,2.2-3.1,4.6-4.4,7.1c0,0-1,2.3-1.9,2.1l-0.2-1.5
	c-0.2,0.4-0.3,0.9-0.3,1.4l-3.3-2.6c-0.6,1-1,2.2-0.9,3.5c0.2,1.8,1,6.2,0,6.8l-5-4.2c0,0,0.4,8,2.2,10.2c-3.2-1.8-6-4.1-8.3-6.9
	c-0.6-0.9-1.2-1.9-1.5-3c0,0-1.8,3.6-1.1,11.3c-3.4-4-6.1-8.6-7.9-13.6c-2.5-7.5,1.6-15.9,4-19.1c1.2-1.3,2.4-2.5,3.7-3.6
	c0,0,2.6-8.8,5.1-10.6c0.7-0.8,1.6-1.4,2.7-1.6c0,0-9.1,0.2-13.5,2.6c0,0,6.6-9.1,12.5-13s15.5-3.8,21.5-2c6.8,2.1,11.7,8,12.3,15.1
	c-0.6-6.5,2.8-12.7,8.5-15.8c10-5.8,20.9-0.6,25.3,3.5s5.7,5.1,5.7,5.1s-8.8-1-11.5,0.1c0.8,0.3,1.6,0.8,2.3,1.3
	c0,0,9.8-1.6,17.8,7.6c2.7,3.2,4.4,7.3,4.6,11.5c0.4,3.7,0.4,7.4,0,11.1c-1.8-3.4-4.2-6.5-7.1-9.1c0.7,2.6,0.5,5.3-0.5,7.8
	c-1.7,4.4-2.1,6-2.1,6s-0.6-3.9-1.6-5.3s-2.1-3.4-2.1-4.2c0,0-1.5,5.3-2.1,6c0,0-0.9,0.7-3-4c-0.3,4.4-1.1,8.7-2.6,12.8l-2.1,5.1
	c0,0-1-7.1-3.7-10c-0.5,2.5-1.6,4.8-3.3,6.7c-2.8,3-4,4.2-4,4.2s0.7-7.9-0.3-10.1c0,0-3.3,4.9-3.9,5.1s-1.2-3.4-1.5-6
	c-0.2-1.6-0.5-3.2-0.9-4.7c0,0-2.6,4.3-2.9,4.1s-2.5-3-3.8-9.3s-2.4-6.9-4-6.8l1.1,0.7v23.9l3,0.8l-0.1,2.5l-2.9,1.9v5.4l3.3,2.7
	l-3.3,0.9v9.4l3.3,1.5l0.7,3.5l-3.8,1.2l0.1,7.6l3.6,1.6v3.4L139,298v7.4l3.1,1.7l0.1,1.8l-9.3,3.7L124.1,309.2z"/>
<path class="st4" d="M382,178.1L311,3.8h21.7L382,132.2L431.1,3.8h21.5L382,178.1z"/>
<path class="st4" d="M574.3,84.9h69.2v5.6c0,26.4-7.5,47.3-22.5,62.6s-35.4,22.9-61.3,22.9c-7.6,0-15.1-0.8-22.5-2.5
	c-6.9-1.6-13.5-4-19.8-7.3c-13.4-7.2-24.4-18.1-31.9-31.4c-7.5-13.3-11.2-28.5-11.2-45.5c0-14,2.2-26.6,6.7-37.9
	c4.5-11.3,11.4-21.5,20.2-29.8c7.6-7.2,16.5-12.7,26.4-16.3c10.7-3.8,21.9-5.6,33.2-5.5c16.1,0,30.1,2.9,42,8.8
	c12,6,22.2,15.1,29.5,26.4l-16.8,13.4c-6-10.2-13.6-17.8-22.6-22.9c-9-5.1-19.5-7.6-31.4-7.6c-19.5,0-35.3,6.6-47.5,19.7
	s-18.2,30.3-18.2,51.6c0,20,6.2,36.4,18.5,49.3c12.3,12.9,28.1,19.3,47.2,19.3c16.8,0,30.8-5.1,42-15.3
	c11.2-10.2,17.4-23.5,18.6-39.8h-47.9V84.9z"/>
<g>
	<polygon class="st4" points="459.7,284.3 483.6,284.3 471.7,256.6 	"/>
	<path class="st4" d="M563.7,269.9c2.6-1.9,3.9-5,3.9-9.3c0-4.8-1.2-8.2-3.6-10.1c-2.4-1.9-7-2.9-13.7-2.9h-7v25.1h7
		C556.6,272.7,561.1,271.8,563.7,269.9z"/>
	<path class="st4" d="M619.8,207.9H334.8c-6.9,0-12.5,5.7-12.5,12.6v123.6c0,6.9,5.6,12.5,12.6,12.6h284.9c6.9,0,12.5-5.6,12.5-12.6
		V220.5C632.3,213.5,626.7,207.9,619.8,207.9z M416.3,314.9H379v-75.1h8.9v66.6h28.4V314.9z M496.1,314.9l-9.8-23h-29.3l-9.7,23
		h-9.7l34.1-78.1l34.2,78.1H496.1z M578.4,302.2c-1,2.6-2.6,5-4.6,7c-2.2,2.1-4.9,3.6-7.8,4.4c-3.1,0.9-8.3,1.3-15.6,1.3h-15.7
		v-75.1h15.7c4.1-0.1,8.2,0.2,12.2,0.9c2.4,0.5,4.7,1.5,6.8,2.9c2.4,1.8,4.3,4.1,5.6,6.8c1.3,2.9,2,6,2,9.2c0.1,3.5-0.9,7-2.8,10
		c-2,2.8-5,4.7-8.3,5.6c4.2,0.5,8,2.7,10.5,6c2.6,3.3,3.9,7.5,3.9,12.5C580.1,296.6,579.5,299.5,578.4,302.2z"/>
	<path class="st4" d="M564.3,281.7c-1.3-0.8-2.7-1.3-4.2-1.5c-2.4-0.4-4.9-0.5-7.3-0.5h-9.6v27.4h7c3.4,0.1,6.9-0.1,10.3-0.6
		c1.8-0.3,3.5-1,5-2c1.6-1.2,2.9-2.7,3.7-4.6c0.9-2,1.4-4.2,1.3-6.5c0.1-2.5-0.5-4.9-1.6-7.1C567.9,284.4,566.3,282.8,564.3,281.7z"
		/>
</g>
</svg>
