<svg id="Capa_1" data-name="Capa 1" xmlns="http://www.w3.org/2000/svg" xmlns:xlink="http://www.w3.org/1999/xlink" viewBox="0 0 640 480"><defs><clipPath id="clip-path"><rect x="355.9" y="188.3" width="34" height="43.7" style="fill:none"/></clipPath><clipPath id="clip-path-2"><rect x="394.1" y="188.3" width="34" height="43.7" style="fill:none"/></clipPath><clipPath id="clip-path-3"><rect x="355.9" y="237" width="34" height="43.7" style="fill:none"/></clipPath><clipPath id="clip-path-4"><rect x="394.1" y="237" width="34" height="43.7" style="fill:none"/></clipPath><clipPath id="clip-path-5"><path d="M360.9-228.8l-90.4,22.4c-5.7,22.7-28.8,29-37.9,59.7-30,101.5,60.3,46.1,61.3,161.7s70.8,55.7,62.7,123.9S424,183.5,415,231s43.5,34.2,44.6,63.9,38.3,22.6,31.2,41.3,14.7,27.6,14.7,27.6l1.9-.7-1.6-6.6,4.2-5.9,2.8,11.1,2-.3s15.1-18,.1-31.3,21.2-24.3,8.3-51.1,39.7-39.5,9.6-77.4,47.7-52.3,8.7-108.8,50.7-36.1-2.4-138.8,48.3-70.2-25.6-146c-22.4-22.9-41.4-43.4-57.1-60.7l-90.4,22.4" style="fill:none"/></clipPath><linearGradient id="linear-gradient" x1="206.89" y1="1630.92" x2="402.45" y2="1826.47" gradientTransform="translate(173.2 -1446) rotate(-3.2)" gradientUnits="userSpaceOnUse"><stop offset="0" stop-color="#3d69fa"/><stop offset="1" stop-color="#202f80"/></linearGradient><linearGradient id="linear-gradient-2" x1="253.56" y1="1666.58" x2="295.14" y2="1871.15" xlink:href="#linear-gradient"/><linearGradient id="linear-gradient-3" x1="3653.83" y1="-3985.75" x2="3844.18" y2="-3795.4" gradientTransform="translate(4203.6 -3840.9) rotate(-178.2)" gradientUnits="userSpaceOnUse"><stop offset="0" stop-color="#f1cc30"/><stop offset="1" stop-color="#e1771c"/></linearGradient><linearGradient id="linear-gradient-4" x1="3699.26" y1="-3951.04" x2="3739.73" y2="-3751.91" xlink:href="#linear-gradient-3"/><linearGradient id="linear-gradient-5" x1="4336.1" y1="-3496.61" x2="4531.65" y2="-3301.06" gradientTransform="translate(3558.2 -4581) rotate(161)" xlink:href="#linear-gradient"/><linearGradient id="linear-gradient-6" x1="4382.78" y1="-3460.95" x2="4424.36" y2="-3256.38" gradientTransform="translate(3558.2 -4581) rotate(161)" xlink:href="#linear-gradient"/><linearGradient id="linear-gradient-7" x1="4357.1" y1="-3364.27" x2="4552.65" y2="-3168.72" gradientTransform="translate(3558.2 -4581) rotate(161)" xlink:href="#linear-gradient"/><linearGradient id="linear-gradient-8" x1="4403.78" y1="-3328.62" x2="4445.35" y2="-3124.05" gradientTransform="translate(3558.2 -4581) rotate(161)" xlink:href="#linear-gradient"/><linearGradient id="linear-gradient-9" x1="4384.19" y1="1045.67" x2="4384.19" y2="1142.56" gradientTransform="matrix(0.43, 0.9, -0.9, 0.43, -369.36, -4233.16)" gradientUnits="userSpaceOnUse"><stop offset="0" stop-color="#7ad5fc"/><stop offset="1" stop-color="#4575fa"/></linearGradient><linearGradient id="linear-gradient-10" x1="4379.88" y1="1045.41" x2="4379.88" y2="1143.15" xlink:href="#linear-gradient-9"/><linearGradient id="linear-gradient-11" x1="4382.81" y1="1067.24" x2="4382.81" y2="1171.88" xlink:href="#linear-gradient-9"/><linearGradient id="linear-gradient-12" x1="-1209.64" y1="-1501.62" x2="-1008.88" y2="-1641.36" gradientTransform="translate(2214.8 -199.7) rotate(-60.8)" gradientUnits="userSpaceOnUse"><stop offset="0" stop-color="#da454a"/><stop offset="1" stop-color="#e28e91"/></linearGradient><linearGradient id="linear-gradient-13" x1="-953.9" y1="-1377.62" x2="-1212.18" y2="-1658.35" xlink:href="#linear-gradient-12"/><linearGradient id="linear-gradient-14" x1="2718.52" y1="-4372.89" x2="2779.64" y2="-4415.43" gradientTransform="translate(3543.3 -3903.2) rotate(-172.1)" xlink:href="#linear-gradient-12"/><linearGradient id="linear-gradient-15" x1="2796.38" y1="-4335.13" x2="2717.75" y2="-4420.6" gradientTransform="translate(3543.3 -3903.2) rotate(-172.1)" xlink:href="#linear-gradient-12"/><linearGradient id="linear-gradient-16" x1="1372.77" y1="1064.34" x2="1372.77" y2="1323.88" gradientTransform="matrix(1.66, -0.1, 0.06, 1, -1869.42, -905.21)" xlink:href="#linear-gradient-3"/><linearGradient id="linear-gradient-17" x1="1373.12" y1="1148.42" x2="1373.12" y2="1344.97" gradientTransform="matrix(1.66, -0.1, 0.06, 1, -1869.42, -905.21)" xlink:href="#linear-gradient-3"/><linearGradient id="linear-gradient-18" x1="1093.78" y1="903.17" x2="1093.78" y2="1183.59" gradientTransform="matrix(1.63, -0.36, 0.21, 0.98, -1507.46, -291.04)" xlink:href="#linear-gradient-3"/><linearGradient id="linear-gradient-19" x1="1094.15" y1="994.02" x2="1094.15" y2="1206.37" gradientTransform="matrix(1.63, -0.36, 0.21, 0.98, -1507.46, -291.04)" xlink:href="#linear-gradient-3"/><linearGradient id="linear-gradient-20" x1="3634.96" y1="-4136" x2="3825.32" y2="-3945.65" xlink:href="#linear-gradient-3"/><linearGradient id="linear-gradient-21" x1="3680.39" y1="-4101.29" x2="3720.87" y2="-3902.16" xlink:href="#linear-gradient-3"/><linearGradient id="linear-gradient-22" x1="-1125.36" y1="-1733.3" x2="-1125.36" y2="-1476.31" gradientTransform="translate(2214.8 -199.7) rotate(-60.8)" xlink:href="#linear-gradient-9"/><linearGradient id="linear-gradient-23" x1="-1136.99" y1="-1733.3" x2="-1136.99" y2="-1476.31" gradientTransform="translate(2203.7 334.4) rotate(-45)" xlink:href="#linear-gradient-9"/><linearGradient id="linear-gradient-24" x1="-1129.52" y1="-1676.07" x2="-1129.52" y2="-1397.95" gradientTransform="translate(2214.8 -199.7) rotate(-60.8)" xlink:href="#linear-gradient-9"/><linearGradient id="linear-gradient-25" x1="-1121.52" y1="-1480.3" x2="-984.03" y2="-1342.81" gradientTransform="translate(1507.1 1500.2)" xlink:href="#linear-gradient-3"/><linearGradient id="linear-gradient-26" x1="-1190.81" y1="-1553.18" x2="-1068.59" y2="-1430.96" gradientTransform="translate(1477.9 1602.3)" xlink:href="#linear-gradient-3"/><linearGradient id="linear-gradient-27" x1="-1128.28" y1="-1549.16" x2="-1075.79" y2="-1496.67" gradientTransform="translate(2204.5 321.1) rotate(-45)" xlink:href="#linear-gradient"/><linearGradient id="linear-gradient-28" x1="-1325.33" y1="-1256.44" x2="-1272.84" y2="-1203.94" gradientTransform="translate(2296.4 289.5) rotate(-45)" xlink:href="#linear-gradient-3"/><linearGradient id="linear-gradient-29" x1="-1025.69" y1="-1399.77" x2="-905.77" y2="-1279.86" gradientTransform="translate(2205.5 262.3) rotate(-45)" xlink:href="#linear-gradient-12"/><linearGradient id="linear-gradient-30" x1="-1222.58" y1="-2032.08" x2="-968.09" y2="-2209.23" gradientTransform="matrix(0.26, -0.97, 0.97, 0.26, 2768.13, -354.76)" xlink:href="#linear-gradient-12"/><linearGradient id="linear-gradient-31" x1="-898.38" y1="-1874.88" x2="-1225.8" y2="-2230.77" gradientTransform="matrix(0.26, -0.97, 0.97, 0.26, 2768.13, -354.76)" xlink:href="#linear-gradient-12"/><linearGradient id="linear-gradient-32" x1="4780.76" y1="-733.24" x2="4783.74" y2="-794.42" gradientTransform="translate(1199.3 -4754.1) rotate(106.3)" xlink:href="#linear-gradient-12"/><linearGradient id="linear-gradient-33" x1="4778.97" y1="-760.25" x2="4778.97" y2="-818.69" gradientTransform="translate(1199.3 -4754.1) rotate(106.3)" xlink:href="#linear-gradient-12"/><linearGradient id="linear-gradient-34" x1="-704.4" y1="-3069.77" x2="-704.4" y2="-2761.65" gradientTransform="matrix(-0.02, -1, 1, -0.02, 3382.52, -708.41)" xlink:href="#linear-gradient-9"/><linearGradient id="linear-gradient-35" x1="-714.45" y1="-3101.7" x2="-714.45" y2="-2736.23" gradientTransform="translate(3060.9 1585.9) rotate(-45)" xlink:href="#linear-gradient-9"/><linearGradient id="linear-gradient-36" x1="-709.38" y1="-3001.15" x2="-709.38" y2="-2667.7" gradientTransform="matrix(-0.02, -1, 1, -0.02, 3382.52, -708.41)" xlink:href="#linear-gradient-9"/><linearGradient id="linear-gradient-37" x1="-1050.6" y1="-1381.81" x2="-936.69" y2="-1267.89" gradientTransform="translate(1555 1394.4)" xlink:href="#linear-gradient"/><linearGradient id="linear-gradient-38" x1="-1259.98" y1="-1418.55" x2="-1203.02" y2="-1361.59" gradientTransform="translate(1626.2 1611.8)" xlink:href="#linear-gradient-12"/><linearGradient id="linear-gradient-39" x1="-1239.97" y1="-1408.53" x2="-1183.02" y2="-1351.57" gradientTransform="translate(1624.7 1589.2)" xlink:href="#linear-gradient-12"/><linearGradient id="linear-gradient-40" x1="1819.73" y1="1713.43" x2="1819.73" y2="2009.91" gradientTransform="matrix(0.94, 0.33, -0.33, 0.94, -602.09, -2061.18)" xlink:href="#linear-gradient-9"/><linearGradient id="linear-gradient-41" x1="1806.54" y1="1712.64" x2="1806.54" y2="2011.71" gradientTransform="matrix(0.94, 0.33, -0.33, 0.94, -602.09, -2061.18)" xlink:href="#linear-gradient-9"/><linearGradient id="linear-gradient-42" x1="1815.5" y1="1779.42" x2="1815.5" y2="2099.62" gradientTransform="matrix(0.94, 0.33, -0.33, 0.94, -602.09, -2061.18)" xlink:href="#linear-gradient-9"/><linearGradient id="linear-gradient-43" x1="-961.07" y1="-2901.92" x2="-961.07" y2="-2555.01" gradientTransform="matrix(0.71, -0.71, 0.71, 0.71, 2901.82, 1333.17)" xlink:href="#linear-gradient-9"/><linearGradient id="linear-gradient-46" x1="-1050.63" y1="-1419.59" x2="-1050.63" y2="-1259.17" gradientTransform="translate(2226.7 264.5) rotate(-45)" xlink:href="#linear-gradient-9"/><linearGradient id="linear-gradient-47" x1="-1374.09" y1="-492.01" x2="-1312.7" y2="-430.61" gradientTransform="translate(1757.5 672.2)" xlink:href="#linear-gradient-12"/></defs><title>Mesa de trabajo 24</title><rect x="-21.2" y="-20.6" width="679.8" height="516.78" style="fill:#f1f1f1"/><polygon points="556 316.3 554.4 326 579.1 326 579.1 316.8 556 316.3" style="fill:none;stroke:#fff;stroke-miterlimit:10"/><polygon points="567.4 326 569 335.7 593.3 335.2 591.1 326 567.4 326" style="fill:none;stroke:#fff;stroke-miterlimit:10"/><line x1="395.7" y1="377.6" x2="591.3" y2="377.6" style="fill:none;stroke:#d5e4ef;stroke-miterlimit:10"/><g style="opacity:0.9"><polygon points="438.1 298.3 344.9 299.2 345.9 286.4 438.1 286.4 438.1 298.3" style="fill:#d5e4ef"/><polygon points="432.1 285.3 351.9 285.3 351.9 182 432.9 180.8 432.1 285.3" style="fill:#d5e4ef;opacity:0.65"/><g style="opacity:0.48"><rect x="355.9" y="188.3" width="34" height="43.7" style="fill:none;stroke:#fff;stroke-miterlimit:10;stroke-width:0.5px"/><rect x="394.1" y="188.3" width="34" height="43.7" style="fill:none;stroke:#fff;stroke-miterlimit:10;stroke-width:0.5px"/><rect x="355.9" y="237" width="34" height="43.7" style="fill:none;stroke:#fff;stroke-miterlimit:10;stroke-width:0.5px"/><rect x="394.1" y="237" width="34" height="43.7" style="fill:none;stroke:#fff;stroke-miterlimit:10;stroke-width:0.5px"/></g><g style="clip-path:url(#clip-path)"><path d="M371.7,223.9c-2.7,17.2-32.3,2.8-41.6,28.3-3.9,10.6-.9,16.4,4.6,20.7,2.4,6.4,7.5,14,18.3,10.6,17.7-5.6,19.9-28.6,45.1-28.2,11.1.2,5.3-34,32.7-32.1,11.7.8,30.1-22.9,30.1-22.9l-4.5-7.2.9-.6-4.9-5.7-4-6.4-.9.6-5.5-6.5s-28.9-1.3-30.9,21.7C410,210.2,374.9,203.9,371.7,223.9Z" style="fill:#fff;opacity:0.30000000000000004"/></g><g style="clip-path:url(#clip-path-2)"><path d="M371.7,223.9c-2.7,17.2-32.3,2.8-41.6,28.3-3.9,10.6-.9,16.4,4.6,20.7,2.4,6.4,7.5,14,18.3,10.6,17.7-5.6,19.9-28.6,45.1-28.2,11.1.2,5.3-34,32.7-32.1,11.7.8,30.1-22.9,30.1-22.9l-4.5-7.2.9-.6-4.9-5.7-4-6.4-.9.6-5.5-6.5s-28.9-1.3-30.9,21.7C410,210.2,374.9,203.9,371.7,223.9Z" style="fill:#fff;opacity:0.30000000000000004"/></g><g style="clip-path:url(#clip-path-3)"><path d="M371.7,223.9c-2.7,17.2-32.3,2.8-41.6,28.3-3.9,10.6-.9,16.4,4.6,20.7,2.4,6.4,7.5,14,18.3,10.6,17.7-5.6,19.9-28.6,45.1-28.2,11.1.2,5.3-34,32.7-32.1,11.7.8,30.1-22.9,30.1-22.9l-4.5-7.2.9-.6-4.9-5.7-4-6.4-.9.6-5.5-6.5s-28.9-1.3-30.9,21.7C410,210.2,374.9,203.9,371.7,223.9Z" style="fill:#fff;opacity:0.30000000000000004"/></g><g style="clip-path:url(#clip-path-4)"><path d="M371.7,223.9c-2.7,17.2-32.3,2.8-41.6,28.3-3.9,10.6-.9,16.4,4.6,20.7,2.4,6.4,7.5,14,18.3,10.6,17.7-5.6,19.9-28.6,45.1-28.2,11.1.2,5.3-34,32.7-32.1,11.7.8,30.1-22.9,30.1-22.9l-4.5-7.2.9-.6-4.9-5.7-4-6.4-.9.6-5.5-6.5s-28.9-1.3-30.9,21.7C410,210.2,374.9,203.9,371.7,223.9Z" style="fill:#fff;opacity:0.30000000000000004"/></g></g><g style="opacity:0.7000000000000001"><path d="M369.3,368.5a26.3,26.3,0,0,1-.8-8.3c.4-3.6,2.3-6.8,4.4-9.8s3.4-3.7,5.3-2.8a4.2,4.2,0,0,1,1.7,1.9c3,5.3,2.2,11.8,1.8,17.9-.3,4.2-.3,8.5-1.7,12.4a8.8,8.8,0,0,1-2.1,3.6,4.3,4.3,0,0,1-3.9,1.2c-3.1-.8-3.8-5-3.9-7.6A46,46,0,0,0,369.3,368.5Z" style="fill:#acc9e5"/><path d="M378.3,398.1c1.9.5,3.4.5,4.2,2-1,1.5-2.2,4.3-3.6,5.6s-4.6,3.6-7.4,3.4-5-2.5-7.1-4.3-4.6-2.6-6.3-4.2.8-2.7,2.9-3A45.7,45.7,0,0,1,378.3,398.1Z" style="fill:#b5d2ea"/><path d="M370,404.5c-2.6-3.3-16.1-8.4-19.1-11.3a27.8,27.8,0,0,1-8.3-19.7c0-8.8,4.2-17.2,4.4-26,.1-4.1-.8-8.1-.6-12.1s1.7-8.4,5.1-10.5c5-3.1,11.9,0,14.9,5s3,11.2,2.4,17-1.5,11.8-.1,17.4c2.3,9.2,13.7,15,12.8,25.2-.3,3.6-8.2,10.8-8.3,14.5s-.3,9.5-2.1,13.2,4,7.3-1,1.5C366.9,414.8,373.8,409.3,370,404.5Z" style="fill:#c8d9e8"/><path d="M371,409.3h-.4a41.2,41.2,0,0,0-5.3-28.3l-1.8-2.8a29.7,29.7,0,0,1-4.3-8.1c-1.3-4.4-.4-9.1.5-13.6.2-1.2.4-2.4.6-3.6,1.4-9.1,0-17.3-4.1-23l.3-.2c4.2,5.8,5.7,14.1,4.2,23.3-.2,1.2-.4,2.4-.6,3.6-.8,4.5-1.7,9.1-.5,13.4a29.4,29.4,0,0,0,4.2,8l1.8,2.8A41.6,41.6,0,0,1,371,409.3Z" style="fill:#fff"/><path d="M360.6,350.8a51.2,51.2,0,0,0-7.8-7.7l.3-.3a51.6,51.6,0,0,1,7.9,7.7Z" style="fill:#fff"/><path d="M361.5,374.2l-.4-.2,2.2-3.7,2.2-3.7.4.2-2.2,3.7Z" style="fill:#fff"/><path d="M370.1,392.9c-1.2-1.9-3.6-2.5-5.9-3l-.6-.2a33.5,33.5,0,0,1-9.6-4.1l.2-.4a33.1,33.1,0,0,0,9.5,4l.6.2c2.3.6,4.8,1.2,6.1,3.2Z" style="fill:#fff"/><path d="M358.9,361.5a71.7,71.7,0,0,1-6.5-7.1l.3-.3a71.2,71.2,0,0,0,6.4,7.1Z" style="fill:#fff"/><rect x="358.6" y="338.2" width="7.5" height="0.42" transform="translate(-100.4 516.4) rotate(-64.1)" style="fill:#fff"/><path d="M367.5,384l-.4-.2a66.4,66.4,0,0,1,3.2-6.8l.4.2A66.1,66.1,0,0,0,367.5,384Z" style="fill:#fff"/><path d="M382.5,400.1c-8.3,2.4-17.4,3-25.2-.8l4.5,28s.5,1.2,6.7,1.2,7.2-1.2,7.2-1.2Z" style="fill:#d5e4ef"/><path d="M378.4,416.8l.6-2.2-1.1.3a24.1,24.1,0,0,1-6.5.5,32.8,32.8,0,0,1-10.3-1.9l-1.7-.7.4,2.3.6.3C366.1,417.7,372.7,418.9,378.4,416.8Z" style="fill:#fff"/></g><g style="clip-path:url(#clip-path-5)"><path d="M601.1,208.3a59.9,59.9,0,1,0-95.9,51.1,29.1,29.1,0,0,1,10.7,30,31.1,31.1,0,1,0,59.5-3.5,28.7,28.7,0,0,1,7.2-30.8A59.7,59.7,0,0,0,601.1,208.3Z" style="fill:url(#linear-gradient)"/><path d="M481.5,214.9a59.7,59.7,0,0,0,23.6,44.5,29.1,29.1,0,0,1,10.7,30,31.2,31.2,0,0,0-.7,10.7l.2,1.5a31.2,31.2,0,0,0,16.2-39.1,28.7,28.7,0,0,1,7.2-30.8,59.9,59.9,0,0,0,6.3-79.8,59.8,59.8,0,0,0-63.5,62.9Z" style="fill:url(#linear-gradient-2)"/><path d="M306.2-17.4a58.3,58.3,0,0,0,57.9,60.1,58.5,58.5,0,0,0,58.6-56.3,58.1,58.1,0,0,0-19.1-45.2,28.3,28.3,0,0,1-7.8-30,30.4,30.4,0,0,0,1.6-10.4,30.4,30.4,0,0,0-27.2-29.5,30.3,30.3,0,0,0-33.4,29.2,30.3,30.3,0,0,0,1.1,9,28,28,0,0,1-9.6,29.3A58.1,58.1,0,0,0,306.2-17.4Z" style="fill:url(#linear-gradient-3)"/><path d="M422.7-13.6a58.1,58.1,0,0,0-19.1-45.2,28.3,28.3,0,0,1-7.8-30,30.4,30.4,0,0,0,1.6-10.4c0-.5,0-1-.1-1.5a30.3,30.3,0,0,0-20.1,27.6,30.3,30.3,0,0,0,1.1,9,28,28,0,0,1-9.6,29.3A58.1,58.1,0,0,0,346.7,9,58,58,0,0,0,355.8,42a58.9,58.9,0,0,0,8.3.7A58.5,58.5,0,0,0,422.7-13.6Z" style="fill:url(#linear-gradient-4)"/><path d="M460.9,135.2a59.9,59.9,0,1,0,78.5-75.2,29.1,29.1,0,0,1-18.4-26,31.1,31.1,0,1,0-56.3,19.6A28.7,28.7,0,0,1,466,85.1,59.7,59.7,0,0,0,460.9,135.2Z" style="fill:url(#linear-gradient-5)"/><path d="M574.2,96.4a59.7,59.7,0,0,0-34.8-36.5,29.1,29.1,0,0,1-18.4-26,31.2,31.2,0,0,0-2.3-10.5L518,22a31.2,31.2,0,0,0-4.9,42,28.7,28.7,0,0,1,1.4,31.6,59.9,59.9,0,0,0,15.6,78.6,59.8,59.8,0,0,0,44.1-77.8Z" style="fill:url(#linear-gradient-6)"/><path d="M398,16.9a59.9,59.9,0,0,0,77.5,36.7,60.1,60.1,0,0,0,35.8-75.4,59.7,59.7,0,0,0-34.8-36.5,29.1,29.1,0,0,1-18.4-26,31.2,31.2,0,0,0-2.3-10.5,31.3,31.3,0,0,0-36.8-18.4,31.2,31.2,0,0,0-21.5,40.2,31.1,31.1,0,0,0,4.3,8.2,28.7,28.7,0,0,1,1.4,31.6A59.7,59.7,0,0,0,398,16.9Z" style="fill:url(#linear-gradient-7)"/><path d="M511.3-21.9a59.7,59.7,0,0,0-34.8-36.5,29.1,29.1,0,0,1-18.4-26,31.2,31.2,0,0,0-2.3-10.5l-.6-1.4a31.2,31.2,0,0,0-9.2,33.8,31.1,31.1,0,0,0,4.3,8.2,28.7,28.7,0,0,1,1.4,31.6,59.7,59.7,0,0,0-5.2,50.1,59.6,59.6,0,0,0,20.7,28.5,60.6,60.6,0,0,0,8.2-2.4A60.1,60.1,0,0,0,511.3-21.9Z" style="fill:url(#linear-gradient-8)"/><path d="M574.8,184.6c4.5-11.5,1.4-22.9-7-25.4s-18.8,4.7-23.4,16.1c-2.3,5.9-2.6,11.7-1.3,16.4a16.7,16.7,0,0,1-1.5,12.6l-.8,1.7c-2.3,5.7-.7,11.4,3.5,12.7s9.4-2.3,11.7-8.1a15.6,15.6,0,0,0,.6-1.7,18.6,18.6,0,0,1,7.7-10.7A29.2,29.2,0,0,0,574.8,184.6Z" style="fill:url(#linear-gradient-9)"/><path d="M541.1,193.8a4.8,4.8,0,0,1-5.8,2.7,4,4,0,0,1-2.7-5.3,4.8,4.8,0,0,1,5.8-2.7A4,4,0,0,1,541.1,193.8Z" style="fill:url(#linear-gradient-10)"/><path d="M556.6,208.9a18.6,18.6,0,0,1,7.7-10.7,29.2,29.2,0,0,0,10.5-13.5c4.5-11.5,1.4-22.9-7-25.4a13,13,0,0,0-7.2,0,31.1,31.1,0,0,0-5.6,9.1c-2.3,5.9-2.6,11.7-1.3,16.3a16.7,16.7,0,0,1-1.5,12.6l-.8,1.7c-2.3,5.7-.7,11.4,3.5,12.7h.5l.5-1.2A15.6,15.6,0,0,0,556.6,208.9Z" style="fill:url(#linear-gradient-11)"/><path d="M317.6-85.1a22.4,22.4,0,0,0-22.6,20,22.1,22.1,0,0,0,3.6,14.5A10.3,10.3,0,0,1,297-37.3a24.2,24.2,0,0,0-7.7,15.8,24.3,24.3,0,0,0,2.2,12.4,10.4,10.4,0,0,1-5.5,14,54.3,54.3,0,1,0,50.5,4.3,10.3,10.3,0,0,1-2.9-14.6,24.2,24.2,0,0,0,4.3-11.9,24.2,24.2,0,0,0-5.1-17.1,10.2,10.2,0,0,1,.6-13.4,22.1,22.1,0,0,0,5.9-13.5A22.2,22.2,0,0,0,317.6-85.1Z" style="fill:url(#linear-gradient-12)"/><path d="M298.6-50.5A10.3,10.3,0,0,1,297-37.3a24.2,24.2,0,0,0-7.7,15.8,24.3,24.3,0,0,0,2.2,12.4,10.4,10.4,0,0,1-5.5,14A54.3,54.3,0,0,0,319,107.9,54.3,54.3,0,0,0,310,23.8,10.3,10.3,0,0,1,307,9.2a24.2,24.2,0,0,0,4.3-11.9,24.2,24.2,0,0,0-5.1-17.1,10.2,10.2,0,0,1,.6-13.4,22.1,22.1,0,0,0,5.9-13.5A22.2,22.2,0,0,0,296-69.8a21.7,21.7,0,0,0-1,4.7A22.1,22.1,0,0,0,298.6-50.5Z" style="fill:url(#linear-gradient-13)"/><path d="M190.4,77.1a6.8,6.8,0,0,0,8.2,4.2,6.7,6.7,0,0,0,3.7-2.6,3.1,3.1,0,0,1,3.9-1,7.4,7.4,0,0,0,8.6-1.5,3.2,3.2,0,0,1,4.6,0A16.5,16.5,0,1,0,215,61.3a3.1,3.1,0,0,1-3.8,2.4,7.4,7.4,0,0,0-8.1,3.4,3.1,3.1,0,0,1-3.9,1.3,6.8,6.8,0,0,0-8.8,8.6Z" style="fill:url(#linear-gradient-14)"/><path d="M202.3,78.7a3.1,3.1,0,0,1,3.9-1,7.4,7.4,0,0,0,8.6-1.5,3.2,3.2,0,0,1,4.6,0,16.5,16.5,0,0,0,25.5-20.8,16.5,16.5,0,0,0-22.8,11.9,3.1,3.1,0,0,1-3.8,2.4,7.4,7.4,0,0,0-8.1,3.4,3.1,3.1,0,0,1-3.9,1.3,6.8,6.8,0,0,0-9.2,7.1l1.5-.2A6.7,6.7,0,0,0,202.3,78.7Z" style="fill:url(#linear-gradient-15)"/><path d="M537.4,151.5c-.8-13.4-7.7-25.2-18.1-33.2-7.8-6-10.8-13.8-8.2-21.6a25.6,25.6,0,0,0,1.2-9.5c-.9-15.4-15.4-27.1-32.4-26.1s-30,14.3-29.1,29.7a25.6,25.6,0,0,0,2.3,9.3c3.4,7.4,1.4,15.5-5.7,22.4-9.4,9.2-14.9,21.6-14.1,35,.9,15.3,9.7,28.4,22.6,36.3,8.7,5.3,13.3,12.5,13.4,20.2q0,.4,0,.9c.6,10.3,10.3,18.1,21.6,17.4s20.1-9.5,19.5-19.8a17.1,17.1,0,0,0-.2-1.8c-1.2-7.4,2.1-15,9.7-21.2C531.4,180.1,538.3,166.4,537.4,151.5Z" style="fill:url(#linear-gradient-16)"/><path d="M469.3,214q0,.4,0,.9c.6,10.3,10.3,18.1,21.6,17.4s20.1-9.5,19.5-19.8a17.1,17.1,0,0,0-.2-1.8c-1.2-7.4,2.1-15,9.7-21.2a49.6,49.6,0,0,0,10.2-11.3,49.3,49.3,0,0,0-6.5-6c-7.8-6-10.8-13.8-8.2-21.6a25.6,25.6,0,0,0,1.2-9.5c-.9-15.4-15.4-27.1-32.4-26.1s-30,14.3-29.1,29.7a25.6,25.6,0,0,0,2.3,9.3c3.4,7.4,1.4,15.5-5.7,22.4a49,49,0,0,0-6.8,8.3,50.1,50.1,0,0,0,11.1,9.1C464.6,199.1,469.3,206.4,469.3,214Z" style="fill:url(#linear-gradient-17)"/><path d="M552.5,327.1c-3.1-14.2-12.4-25.6-24.9-32.3-9.3-5.1-13.8-12.9-12.4-21.7a27.6,27.6,0,0,0-.3-10.3c-3.6-16.3-21-26.3-39-22.4s-29.6,20.3-26.1,36.6a27.6,27.6,0,0,0,4,9.5c4.9,7.4,4.1,16.4-2.2,24.9-8.5,11.4-12.2,25.6-9.1,39.8,3.5,16.2,15.1,28.7,30.3,34.9,10.2,4.2,16.4,11.1,17.7,19.3l.2.9c2.4,10.9,14,17.6,26,15s19.8-13.6,17.4-24.5a18.5,18.5,0,0,0-.5-1.9c-2.6-7.7-.3-16.4,6.7-24.3C551,358.7,556,342.9,552.5,327.1Z" style="fill:url(#linear-gradient-18)"/><path d="M490.5,405.4l.2.9c2.4,10.9,14,17.6,26,15s19.8-13.6,17.4-24.5a18.5,18.5,0,0,0-.5-1.9c-2.6-7.7-.3-16.4,6.7-24.3a53.6,53.6,0,0,0,8.9-13.7,53.2,53.2,0,0,0-8-5.3c-9.3-5.1-13.8-12.9-12.4-21.7a27.6,27.6,0,0,0-.3-10.3c-3.6-16.3-21-26.3-39-22.4s-29.6,20.3-26.1,36.6a27.6,27.6,0,0,0,4,9.5c4.9,7.4,4.1,16.4-2.2,24.9a52.9,52.9,0,0,0-5.9,10,54.1,54.1,0,0,0,13.3,7.9C483,390.3,489.2,397.2,490.5,405.4Z" style="fill:url(#linear-gradient-19)"/><path d="M320.4,133.4A58.3,58.3,0,1,0,417.8,92a28.3,28.3,0,0,1-7.8-30,30.3,30.3,0,1,0-58-1.6,28,28,0,0,1-9.6,29.3A58.1,58.1,0,0,0,320.4,133.4Z" style="fill:url(#linear-gradient-20)"/><path d="M436.9,137.2A58.1,58.1,0,0,0,417.8,92a28.3,28.3,0,0,1-7.8-30,30.4,30.4,0,0,0,1.6-10.4c0-.5,0-1-.1-1.5a30.3,30.3,0,0,0-19,36.6,28,28,0,0,1-9.6,29.3A58.3,58.3,0,0,0,370,192.8a58.2,58.2,0,0,0,66.9-55.6Z" style="fill:url(#linear-gradient-21)"/><path d="M214.9-42.9C182-33.6,160.6-7.6,167,15.1s38.3,33.5,71.2,24.2c16.8-4.8,30.6-13.9,39.3-24.7A49.9,49.9,0,0,1,308.6-3.1l4.9-1.1c16.4-4.7,27.2-17.6,24-29S318.3-50,301.8-45.4a44.8,44.8,0,0,0-4.8,1.7,49.9,49.9,0,0,1-35.8,1.2C248.2-47.2,231.7-47.7,214.9-42.9Z" style="fill:url(#linear-gradient-22)"/><circle cx="288.6" cy="27.2" r="12" transform="translate(3.5 79.8) rotate(-15.8)" style="fill:url(#linear-gradient-23)"/><path d="M297.1-43.7a49.9,49.9,0,0,1-35.8,1.2c-13-4.7-29.6-5.2-46.4-.4C182-33.6,160.6-7.6,167,15.1a32,32,0,0,0,10.5,15.8,84.6,84.6,0,0,0,29.1-3.1c16.8-4.8,30.6-13.9,39.3-24.7a49.9,49.9,0,0,1,31.1-17.8l4.9-1.1c16.4-4.7,27.2-17.6,24-29l-.5-1.4-3.5.8A44.8,44.8,0,0,0,297.1-43.7Z" style="fill:url(#linear-gradient-24)"/><circle cx="413.1" cy="47.5" r="22.4" transform="translate(170.3 385.1) rotate(-60.8)" style="fill:url(#linear-gradient-25)"/><circle cx="311.6" cy="73.6" r="19.9" transform="translate(95.4 309.8) rotate(-60.8)" style="fill:url(#linear-gradient-26)"/><circle cx="336.8" cy="23.5" r="20.3" transform="translate(6.4 92.7) rotate(-15.8)" style="fill:url(#linear-gradient-27)"/><circle cx="496.3" cy="338.2" r="20.3" transform="translate(-73.4 148.2) rotate(-15.8)" style="fill:url(#linear-gradient-28)"/><circle cx="548.7" cy="-2.2" r="46.4" transform="translate(21.4 149.6) rotate(-15.8)" style="fill:url(#linear-gradient-29)"/><path d="M429.5,49.3A28.4,28.4,0,0,0,408,81a28,28,0,0,0,9,16.7,13.1,13.1,0,0,1,2.3,16.8,30.9,30.9,0,0,0,2.1,36.4,13.2,13.2,0,0,1-2.4,18.9,68.8,68.8,0,1,0,63.4-10.6,13.1,13.1,0,0,1-8.2-17.1,30.9,30.9,0,0,0-10.1-35.3,13,13,0,0,1-3.5-16.6,28.2,28.2,0,0,0-31.1-40.8Z" style="fill:url(#linear-gradient-30)"/><path d="M417.1,97.7a13.1,13.1,0,0,1,2.3,16.8,30.9,30.9,0,0,0,2.1,36.4,13.2,13.2,0,0,1-2.4,18.9,68.8,68.8,0,0,0,73,116,68.8,68.8,0,0,0-37.6-100.4,13.1,13.1,0,0,1-8.2-17.1A30.9,30.9,0,0,0,436.1,133a13,13,0,0,1-3.5-16.6,28.1,28.1,0,0,0-24.9-41.5A27.4,27.4,0,0,0,408,81,28,28,0,0,0,417.1,97.7Z" style="fill:url(#linear-gradient-31)"/><path d="M594.6,65.7c12,3.5,23.3.5,25.4-6.6s-5.9-15.8-17.9-19.3c-6.8-2-13.5-1.9-18.3-.1a13,13,0,0,1-9,0l-.9-.3c-4.7-1.4-9.2.1-10.1,3.2s2.1,6.8,6.8,8.2l.9.2a13,13,0,0,1,7.6,4.9C582.2,60,587.7,63.7,594.6,65.7Z" style="fill:url(#linear-gradient-32)"/><path d="M602.1,39.8c-6.8-2-13.5-1.9-18.3-.1a13.1,13.1,0,0,1-5.6.8c0,2.8,2.9,5.8,6.9,7l.9.2a13,13,0,0,1,7.6,4.9c3.1,4.1,8.6,7.8,15.5,9.8a36.3,36.3,0,0,0,7.6,1.4,9.1,9.1,0,0,0,3.3-4.6C622.1,51.9,614.1,43.3,602.1,39.8Z" style="fill:url(#linear-gradient-33)"/><path d="M402.5,36.6c-28.4,29.5-35,69.4-14.6,89s60,11.6,88.4-18c14.5-15.1,23.3-32.9,25.7-49.3a59.9,59.9,0,0,1,21.4-37.2,53.8,53.8,0,0,0,4.4-4.1c14.2-14.8,17.5-34.7,7.3-44.5s-30-5.8-44.2,9a53.8,53.8,0,0,0-4,4.6A59.9,59.9,0,0,1,450.7,9C434.4,12.1,417,21.5,402.5,36.6Z" style="fill:url(#linear-gradient-34)"/><circle cx="525.3" cy="60.8" r="17" transform="translate(117.2 397.1) rotate(-46.1)" style="fill:url(#linear-gradient-35)"/><path d="M487.1-13.8A59.9,59.9,0,0,1,450.7,9c-16.3,3-33.7,12.5-48.2,27.6-28.4,29.5-35,69.4-14.6,89a38.4,38.4,0,0,0,20.4,10,101.4,101.4,0,0,0,28.2-20.8c14.5-15.1,23.3-32.9,25.7-49.3a59.9,59.9,0,0,1,21.4-37.2,53.8,53.8,0,0,0,4.4-4.1c14.2-14.8,17.5-34.7,7.3-44.5l-1.3-1.1-3.1,3A53.8,53.8,0,0,0,487.1-13.8Z" style="fill:url(#linear-gradient-36)"/><circle cx="527.3" cy="35.4" r="18.5" transform="translate(239.4 478.5) rotate(-60.8)" style="fill:url(#linear-gradient-37)"/><circle cx="377.6" cy="204.7" r="9.3" transform="translate(14.8 434.6) rotate(-60.8)" style="fill:url(#linear-gradient-38)"/><circle cx="396.1" cy="192.1" r="9.3" transform="translate(35.3 444.3) rotate(-60.8)" style="fill:url(#linear-gradient-39)"/><path d="M540.2,231c-15-34.7-46.4-52.6-70.1-40s-30.7,50.8-15.7,85.5c7.7,17.7,19.6,31,32.6,38.2S507,332.1,511,345.3a49,49,0,0,0,1.9,5.3c7.5,17.3,23.2,26.3,35,20s15.4-25.4,7.9-42.7a47.6,47.6,0,0,0-2.5-5,57.1,57.1,0,0,1-6.6-39.8C549.8,267.3,547.9,248.7,540.2,231Z" style="fill:url(#linear-gradient-40)"/><path d="M487,323.7c2.9,6.7-.1,15-6.8,18.5s-14.4.9-17.3-5.8.1-15,6.8-18.5S484.1,317,487,323.7Z" style="fill:url(#linear-gradient-41)"/><path d="M553.3,322.8a57.1,57.1,0,0,1-6.6-39.8c3.1-15.7,1.2-34.3-6.5-52-15-34.7-46.4-52.6-70.1-40a39.6,39.6,0,0,0-15.6,15.5,95.1,95.1,0,0,0,7.7,31.8c7.7,17.7,19.6,31,32.6,38.2s19.9,17.4,23.9,30.6a49,49,0,0,0,1.9,5.3c7.5,17.3,23.2,26.3,35,20l1.4-.9c-.4-1.2-.9-2.5-1.4-3.7A47.6,47.6,0,0,0,553.3,322.8Z" style="fill:url(#linear-gradient-42)"/><circle cx="325" cy="115.3" r="16.1" transform="translate(-2 224.9) rotate(-38.1)" style="fill:url(#linear-gradient-43)"/></g><circle cx="311.6" cy="73.6" r="19.9" transform="translate(95.4 309.8) rotate(-60.8)" style="fill:url(#linear-gradient-26)"/><circle cx="288.6" cy="27.2" r="12" transform="translate(3.5 79.8) rotate(-15.8)" style="fill:url(#linear-gradient-23)"/><circle cx="551.5" cy="75.1" r="7.5" transform="translate(0.4 153.3) rotate(-15.8)" style="fill:url(#linear-gradient-46)"/><circle cx="395.7" cy="192.5" r="10" transform="translate(-25.6 319.5) rotate(-42.7)" style="fill:url(#linear-gradient-47)"/><ellipse cx="493.4" cy="443.8" rx="77.9" ry="9.9" style="fill:#cee2f2;opacity:0.5700000000000001"/><path d="M495.5,287.5s-14.5-13.3-26.7,1.1-4.7,22.1.7,29.7c-1.8,2.6-9.6,12.6,0,18.9s18.6,4.2,18.6,4.2l32.3,1s5.3-13.9-5.2-19.7c-2.1-15.5-5.1-23-5.1-23Z" style="fill:#003d6e"/><path d="M551.6,410.8l-22.3-1.6-3.3,8.8s2.6,4.7,5.7,3.9l24.1-6.4Z" style="fill:#144966"/><path d="M429.8,409.6s21.3-4.8,25.4-4.2-1.3,13-1.3,13Z" style="fill:#144966"/><path d="M457.5,404.6c0,.5,3.3,27.9,3.3,27.9l53.1-2.4,3.5-18.3Z" style="fill:#144966"/><path d="M558.8,414.3a15,15,0,0,1,5.2,8.4c1.3,6.1-.8,16.5-24.4,17.1-37,1-54,2.8-54,2.8l-3.5-15.2s58.1-18.2,66.9-16.7C553.7,410.4,555.8,411.9,558.8,414.3Z" style="fill:#3382af"/><path d="M504.8,430.5s32.4-1.9,28.8,10.5-31.3,3-31.3,3Z" style="fill:#8aa5bc"/><path d="M535.4,355.3c-1.4-16.8-16.1-20.1-26.3-21.5s-7.9-9.3-7.9-9.3l-9.7,1.1-8.4-.9s2.3,7.9-7.9,9.3-24.9,4.7-26.3,21.5-9.2,22.6.9,39.4c7.7,5.2,41.8.2,42.8,0,5.8.8,34.8,4.6,41.8-.1C544.7,378,536.9,372.2,535.4,355.3Z" style="fill:#fff"/><path d="M490.9,341.9c9.1.1,13-5.6,14.5-9.1a7,7,0,0,1-4.1-8.3l-9.7,1.1-8.4-.9a7,7,0,0,1-2.5,7.4C480.7,336.1,482.4,341.9,490.9,341.9Z" style="fill:#8aa5bc"/><path d="M477.7,301.5s-3.4,29.1,13.7,29.1S505,301.5,505,301.5Z" style="fill:#acc9e5"/><path d="M426.7,410.4A13.3,13.3,0,0,0,420,418c-2.4,7-2.7,19.8,25.9,22.7,39.8,4.1,57.6,6.5,57.6,6.5l4.5-19.8s-61-17.6-72.3-18.1C431.7,409,429.2,409.2,426.7,410.4Z" style="fill:#156093"/><path d="M490.9,361H452.6s-4.4-.3-4.6,6.2,0,49.8,0,49.8-1,3.4,7.1,3.4l77.3.6s2.8-.1,2.7-2.3,0-52.2,0-52.2.5-4.9-5.7-4.9Z" style="fill:#acc9e5"/><path d="M491.4,290.2s-4.8,20.1,15.2,20a11.2,11.2,0,0,0,0,11.8c3.9,6,8.9,3.1,8.9,3.1s6.3-7.5.9-17.9c1.4-5,2.6-11.9-.5-17S500.7,277.5,491.4,290.2Z" style="fill:#003d6e"/><path d="M495.2,289.8h-3.7l-16.6,1.1-4.9,3.4v16.1s7.9,3.4,7.8,3.1c-.3-18.3,15.5-10.2,15.5-10.2" style="fill:#003d6e"/><circle cx="492.1" cy="392.1" r="6.5" style="fill:#e5e5e5"/><polygon points="567.5 281.3 559.8 281.3 559.5 242.3 567.5 242.7 567.5 281.3" style="fill:#d5e4ef;opacity:0.42"/><polygon points="575.4 281.3 567.5 281.3 567.5 240.8 575.4 240.4 575.4 281.3" style="fill:#acc9e5;opacity:0.31"/><polygon points="600 279.2 592.7 281.3 583.1 246.5 590.6 245.1 600 279.2" style="fill:#fff"/><rect x="590" y="256.8" width="2.6" height="12.07" transform="translate(-48.7 167.2) rotate(-15.5)" style="fill:#fff"/><line x1="559.8" y1="269.4" x2="567.5" y2="269.4" style="fill:none;stroke:#fff;stroke-miterlimit:10;stroke-width:0.5px"/><line x1="559.8" y1="253.5" x2="567.5" y2="253.5" style="fill:none;stroke:#fff;stroke-miterlimit:10;stroke-width:0.5px"/><polygon points="583.1 281.3 575.4 281.3 575.4 241.4 583.1 241.8 583.1 281.3" style="fill:#d5e4ef;opacity:0.42"/><line x1="575.4" y1="259.8" x2="583.1" y2="259.8" style="fill:none;stroke:#fff;stroke-miterlimit:10;stroke-width:0.5px"/><rect x="569" y="243.7" width="4.8" height="6.76" style="fill:#acc9e5;opacity:0.21"/><rect x="569" y="252.4" width="4.8" height="26.24" style="fill:#acc9e5;opacity:0.21"/><polygon points="606.4 286.5 548.8 286.1 548.8 281.3 605.8 281.3 606.4 286.5" style="fill:none;stroke:#fff;stroke-miterlimit:10"/></svg>