<?xml version="1.0" encoding="utf-8"?>
<!-- Generator: Adobe Illustrator 22.0.0, SVG Export Plug-In . SVG Version: 6.00 Build 0)  -->
<svg version="1.1" id="Layer_1" xmlns="http://www.w3.org/2000/svg" xmlns:xlink="http://www.w3.org/1999/xlink" x="0px" y="0px"
	 viewBox="0 0 2000 2000" style="enable-background:new 0 0 2000 2000;" xml:space="preserve">
<style type="text/css">
	.st0{fill:#353535;}
	.st1{fill:#757575;}
	.st2{fill:#992343;}
	.st3{fill:#A62D4E;}
	.st4{fill:#13B0BF;}
	.st5{fill:#DBB89C;}
	.st6{fill:#EED3B6;}
	.st7{fill:#EA3C3D;}
	.st8{fill:#FFFFFF;}
	.st9{fill:#EAEAEA;}
	.st10{opacity:0.11;fill:#060606;}
	.st11{fill:#272765;}
	.st12{fill:#FCFDFF;}
	.st13{fill:#3E3E75;}
	.st14{fill:#141433;}
	.st15{fill:#0D0D21;}
	.st16{fill:#EDD2B6;}
	.st17{fill:#383838;}
	.st18{fill:#F4F4F4;}
	.st19{fill:#DDDDDD;}
	.st20{fill:#C1C1C1;}
	.st21{fill:#542F18;}
	.st22{fill:#723F19;}
	.st23{opacity:0.4;fill:#2E92A3;}
	.st24{fill:url(#SVGID_1_);}
	.st25{fill:#9DD2F9;}
	.st26{fill:url(#SVGID_2_);}
	.st27{fill:#27405E;}
	.st28{opacity:0.2;fill:#FFFFFF;}
	.st29{fill:url(#SVGID_3_);}
	.st30{fill:url(#SVGID_4_);}
	.st31{fill:#17232B;}
	.st32{fill:#0F7DA3;}
	.st33{fill:#D9C1A7;}
	.st34{fill:#004056;}
	.st35{fill:#00587F;}
	.st36{opacity:0.3;fill:#7474ED;}
	.st37{fill:#DB455A;}
	.st38{fill:#FC9DAB;}
	.st39{fill:#F27281;}
	.st40{fill:#FFC673;}
	.st41{fill:#E09220;}
	.st42{fill:#F7B03E;}
	.st43{fill:#455560;}
	.st44{fill:#1E2B33;}
	.st45{fill:#3A6691;}
	.st46{fill:#CC4051;}
	.st47{fill:url(#SVGID_5_);}
	.st48{fill:url(#SVGID_6_);}
	.st49{fill:url(#SVGID_7_);}
	.st50{fill:url(#SVGID_8_);}
	.st51{fill:#5B3127;}
	.st52{fill:url(#SVGID_9_);}
	.st53{clip-path:url(#SVGID_11_);}
	.st54{fill:#E5CF36;}
	.st55{fill:#A2923C;}
</style>
<path class="st0" d="M1036.3,1891.5c0,23.7,6.1,25.7,13.7,25.7c7.6,0,13.7-2,13.7-25.7s-6.1-42.8-13.7-42.8
	C1042.5,1848.7,1036.3,1867.9,1036.3,1891.5z"/>
<path class="st0" d="M1005.9,1891.5c0,23.7,6.1,25.7,13.7,25.7c7.6,0,13.7-2,13.7-25.7s-6.1-42.8-13.7-42.8
	C1012.1,1848.7,1005.9,1867.9,1005.9,1891.5z"/>
<path class="st1" d="M1002.5,1878.5c0,21.4,15.2,21.5,33.8,21.5c18.7,0,33.8-0.1,33.8-21.5c0-21.4-15.2-38.7-33.8-38.7
	C1017.6,1839.8,1002.5,1857.2,1002.5,1878.5z"/>
<path class="st0" d="M613.6,1780.6c0,23.7,6.1,25.7,13.7,25.7s13.7-2,13.7-25.7s-6.1-42.8-13.7-42.8S613.6,1757,613.6,1780.6z"/>
<path class="st0" d="M583.2,1780.6c0,23.7,6.1,25.7,13.7,25.7c7.6,0,13.7-2,13.7-25.7s-6.1-42.8-13.7-42.8
	C589.4,1737.8,583.2,1757,583.2,1780.6z"/>
<path class="st1" d="M579.8,1767.7c0,21.4,15.2,21.5,33.8,21.5c18.7,0,33.8-0.1,33.8-21.5s-15.2-38.7-33.8-38.7
	C595,1729,579.8,1746.3,579.8,1767.7z"/>
<path class="st0" d="M1464.5,1781.1c0,23.7,6.1,25.7,13.7,25.7c7.6,0,13.7-2,13.7-25.7s-6.1-42.8-13.7-42.8
	C1470.7,1738.3,1464.5,1757.4,1464.5,1781.1z"/>
<path class="st0" d="M1434.1,1781.1c0,23.7,6.1,25.7,13.7,25.7s13.7-2,13.7-25.7s-6.1-42.8-13.7-42.8S1434.1,1757.4,1434.1,1781.1z"
	/>
<path class="st1" d="M1430.7,1768.1c0,21.4,15.2,21.5,33.8,21.5c18.7,0,33.8-0.1,33.8-21.5c0-21.4-15.2-38.7-33.8-38.7
	C1445.8,1729.4,1430.7,1746.7,1430.7,1768.1z"/>
<path class="st0" d="M1287.9,1654.5c0,23.7,6.1,25.7,13.7,25.7c7.6,0,13.7-2,13.7-25.7s-6.1-42.8-13.7-42.8
	C1294,1611.6,1287.9,1630.8,1287.9,1654.5z"/>
<path class="st0" d="M1257.5,1654.5c0,23.7,6.1,25.7,13.7,25.7c7.6,0,13.7-2,13.7-25.7s-6.1-42.8-13.7-42.8
	C1263.6,1611.6,1257.5,1630.8,1257.5,1654.5z"/>
<path class="st1" d="M1254,1641.5c0,21.4,15.2,21.5,33.8,21.5s33.8-0.1,33.8-21.5s-15.2-38.7-33.8-38.7S1254,1620.1,1254,1641.5z"/>
<path class="st0" d="M784.2,1661.8c0,23.7,6.1,25.7,13.7,25.7c7.6,0,13.7-2,13.7-25.7s-6.1-42.8-13.7-42.8
	C790.3,1619,784.2,1638.2,784.2,1661.8z"/>
<path class="st0" d="M753.8,1661.8c0,23.7,6.1,25.7,13.7,25.7s13.7-2,13.7-25.7s-6.1-42.8-13.7-42.8S753.8,1638.2,753.8,1661.8z"/>
<path class="st1" d="M750.3,1648.8c0,21.4,15.2,21.5,33.8,21.5c18.7,0,33.8-0.1,33.8-21.5c0-21.4-15.2-38.7-33.8-38.7
	C765.5,1610.1,750.3,1627.4,750.3,1648.8z"/>
<path class="st0" d="M996.9,1639.8l-192.2-42.3c-9.5-2.1-19.5,0-27.1,6c-4.8,3.8-8.9,9.3-9.5,17.2c-0.9,11.9,6.9,22.8,18.3,26.3
	l133.6,40.6l71.7-3.4L996.9,1639.8z"/>
<path class="st0" d="M1004,1728.7v120.3c0,13.5,13.5,24.5,30.7,25.1c0.4,0,0.8,0,1.3,0c17.9,0.4,32.6-11,32.6-25.1v-120.3
	c0-13.9-14.3-25.1-31.9-25.1h-0.7C1018.3,1703.6,1004,1714.8,1004,1728.7z"/>
<path class="st0" d="M1090.4,1636.4l177-39c9.5-2.1,19.5,0,27.1,6c4.8,3.8,8.9,9.3,9.5,17.2c0.9,11.9-6.9,22.8-18.3,26.3
	l-133.2,40.6l-72.1-3.4L1090.4,1636.4z"/>
<path class="st0" d="M1077.7,1669.5l375.7,45.9c16.6,3.9,25.2,11.4,29.4,19.6c7.8,15.1-4.1,33-21.1,32.1l-405.1-22l-37.3-51.4
	L1077.7,1669.5z"/>
<path class="st0" d="M1004.5,1669.5l-375.7,45.9c-16.6,3.9-25.2,11.4-29.4,19.6c-7.8,15.1,4.1,33,21.1,32.1l405.1-22l37.3-51.4
	L1004.5,1669.5z"/>
<path class="st1" d="M996.2,1102.9l-8.6,542.5c-0.3,18,6.8,35.4,19.9,47.7c13.9,13.1,34.2,22.6,58.1,5.3
	c18.1-13.2,28.2-34.7,27.5-57.1l-18-538.4H996.2z"/>
<path class="st2" d="M646.5,881.3c-4.3-2.6-32.4-18.1-59,0.4c-3.5,2.4-5.5,6.4-5.5,10.6v152.8c0,1,0.1,2.1,0.4,3.1
	c2.3,9.4,16.3,55.3,66,30c4.3-2.2,7.1-6.7,7.1-11.5V893.8c0-5.1-3-9.7-7.6-11.8l0,0C647.4,881.8,647,881.6,646.5,881.3z"/>
<path class="st2" d="M1420.1,874c4.3-2.6,32.4-18.1,59,0.4c3.5,2.4,5.5,6.4,5.5,10.6v152.8c0,1-0.1,2.1-0.4,3.1
	c-2.3,9.4-16.3,55.3-66,30c-4.3-2.2-7.1-6.7-7.1-11.5V886.5c0-5.1,3-9.7,7.6-11.8l0,0C1419.3,874.5,1419.7,874.3,1420.1,874z"/>
<path class="st0" d="M1448.1,1006.6c-97.2,15.9-258.5,17.6-411.7,14.4c-153.2,3.3-314.6,1.5-411.7-14.4c0,0-83.4,48.1-63.6,110.6
	c0,0,5.9,52.2,72.1,104.6c40.4,32,88.8,51.9,139.8,59.1c55.9,7.9,153.9,18.1,263.3,15.2c109.4,2.9,207.4-7.2,263.4-15.2
	c51-7.2,99.5-27.1,139.8-59.1c66.2-52.5,72.1-104.6,72.1-104.6C1531.4,1054.7,1448.1,1006.6,1448.1,1006.6z"/>
<path class="st3" d="M1364.9,411.1c0-51.5-92.9-126.5-332.6-126.5c-229.2,0-332.6,75-332.6,126.5L662.4,1051
	c29.3,23.7,217.1,53.7,279.3,53.5l90.6,0.2l90.6-0.2c62.3,0.2,250-29.8,279.3-53.5L1364.9,411.1z"/>
<path class="st4" d="M1295.8,1160.2c0,0-47.5-29.9-65.8-29.9h-183.9h-0.2H862c-18.2,0-65.8,29.9-65.8,29.9c0,18.2-6.3,36.4,12,36.4
	H1046h0.2h237.7C1302.1,1196.5,1295.8,1178.4,1295.8,1160.2z"/>
<path class="st5" d="M1188.8,643.1l-56.5-48.4c-47.2-21.9-46.1-55.9-46.1-55.9h-48.5h-0.8h-48.5c0,0,1.4,33.7-45.8,55.6L903.1,643
	l136.8-2L1188.8,643.1z"/>
<path class="st6" d="M1278.7,1620.6c0,0-3.5,64.9,11.5,98.9l-118.8-11.9c0,0,18.7-35.3-0.1-87H1278.7z"/>
<path class="st6" d="M800.4,1611.9c0,0,3.5,64.9-11.5,98.9l118.8-11.9c0,0-18.7-35.3,0.1-87H800.4z"/>
<path class="st7" d="M810.3,1703.7c-8.4-0.7-15.7-2.9-20.6-6c-3.5,3.3-7.9,7.2-12.8,11.5c-0.2,0.2-0.4,0.4-0.7,0.6
	c-3.3,2.9-7,6-10.9,9.2c-0.1,0.1-0.3,0.2-0.4,0.3c-1.5,1.2-3,2.4-4.6,3.7c-0.3,0.2-0.7,0.5-1,0.8c-3.4,2.7-7,5.4-10.7,8.1
	c-0.8,0.6-1.6,1.2-2.4,1.7c-1.4,1-2.8,2-4.3,3.1c-1.1,0.8-2.1,1.5-3.2,2.3c-3,2.1-6.2,4.3-9.4,6.2c-1.5,1.1-3.2,2.1-4.8,3.1
	c-12.4,7.8-25.8,15.1-39.8,21.1c-2.4,1.1-4.9,2.1-7.4,3.1c-49.1,18.9-53.5,46.3-52,60.3c0.6,5.7,2.2,9.2,2.2,9.2
	s19.9,10.2,45.8,10.8c95.1,2.1,243.6-49.1,243.6-49.1s10.6-12.7,7-41.9c-0.2-1.4-0.3-2.8-0.6-4.2c-0.3-2-13.9-57.3-19.2-73
	c-12.2,4.2-31.7,10.3-67,17.4c-3.2,0.7-6,1.1-8.7,1.5c-1.8,0.2-3.5,0.4-5,0.6c-3.1,0.3-6,0.3-8.4,0.1l-0.3,0l-1,0
	c-0.1-0.1-0.2-0.1-0.3-0.1L810.3,1703.7z"/>
<path class="st8" d="M671.7,1834.6c-21.6-0.5-39.4-7.2-46.4-10.3c-0.3,3-0.2,5.9,0.1,8.3c0.6,5.7,2.2,9.2,2.2,9.2s20,10.2,46,10.8
	c95.1,2,243.6-49.2,243.6-49.2s4.7-5.7,6.8-18.3C885.2,1797.8,758.1,1836.5,671.7,1834.6z"/>
<path class="st8" d="M815.3,1729.3c-1,3.1-5.3,4.6-9.6,3.2l-42.7-13.6c3.9-3.2,7.6-6.3,10.9-9.2l35.4,11.3
	C813.6,1722.5,816.4,1726.1,815.3,1729.3z"/>
<path class="st8" d="M795.3,1741.2c-1,3.2-5.3,4.7-9.6,3.3l-39.4-12.6c3.7-2.7,7.3-5.4,10.7-8.1c0.3-0.3,0.7-0.6,1-0.8l31.3,10.1
	C793.7,1734.4,796.4,1738.1,795.3,1741.2z"/>
<path class="st8" d="M774.6,1754.1c-1,3.2-5.3,4.7-9.6,3.3l-38-12.2c3.2-2,6.4-4.1,9.4-6.2c1.1-0.8,2.2-1.5,3.2-2.3l29.1,9.3
	C773.1,1747.3,775.7,1751,774.6,1754.1z"/>
<path class="st7" d="M1269.3,1712.4c8.4-0.7,15.7-2.9,20.6-6c3.5,3.3,7.9,7.2,12.8,11.5c0.2,0.2,0.4,0.4,0.7,0.6
	c3.3,2.9,7,6,10.9,9.2c0.1,0.1,0.3,0.2,0.4,0.3c1.5,1.2,3,2.4,4.6,3.7c0.3,0.2,0.7,0.5,1,0.8c3.4,2.7,7,5.4,10.7,8.1
	c0.8,0.6,1.6,1.2,2.4,1.7c1.4,1,2.8,2,4.3,3.1c1.1,0.8,2.1,1.5,3.2,2.3c3,2.1,6.2,4.3,9.4,6.2c1.5,1.1,3.2,2.1,4.8,3.1
	c12.4,7.8,25.8,15.1,39.8,21.1c2.4,1.1,4.9,2.1,7.4,3.1c49.1,18.9,53.5,46.3,52,60.3c-0.6,5.7-2.2,9.2-2.2,9.2s-19.9,10.2-45.8,10.8
	c-95.1,2.1-243.6-49.1-243.6-49.1s-10.6-12.7-7-41.9c0.2-1.4,0.3-2.8,0.6-4.2c0.3-2,13.9-57.3,19.2-73c12.2,4.2,31.7,10.3,67,17.4
	c3.2,0.7,6,1.1,8.7,1.5c1.8,0.2,3.5,0.4,5,0.6c3.1,0.3,6,0.3,8.4,0.1l0.3,0l1,0c0.1-0.1,0.2-0.1,0.3-0.1L1269.3,1712.4z"/>
<path class="st8" d="M1407.9,1843.4c21.6-0.5,39.4-7.2,46.4-10.3c0.3,3,0.2,5.9-0.1,8.3c-0.6,5.7-2.2,9.2-2.2,9.2s-20,10.2-46,10.8
	c-95.1,2-243.6-49.2-243.6-49.2s-4.7-5.7-6.8-18.3C1194.4,1806.5,1321.5,1845.3,1407.9,1843.4z"/>
<path class="st8" d="M1264.3,1738.1c1,3.1,5.3,4.6,9.6,3.2l42.7-13.6c-3.9-3.2-7.6-6.3-10.9-9.2l-35.4,11.3
	C1266,1731.2,1263.3,1734.9,1264.3,1738.1z"/>
<path class="st8" d="M1284.3,1749.9c1,3.2,5.3,4.7,9.6,3.3l39.4-12.6c-3.7-2.7-7.3-5.4-10.7-8.1c-0.3-0.3-0.7-0.6-1-0.8l-31.3,10.1
	C1285.9,1743.2,1283.2,1746.8,1284.3,1749.9z"/>
<path class="st8" d="M1305,1762.8c1,3.2,5.3,4.7,9.6,3.3l38-12.2c-3.2-2-6.4-4.1-9.4-6.2c-1.1-0.8-2.2-1.5-3.2-2.3l-29.1,9.3
	C1306.6,1756.1,1303.9,1759.7,1305,1762.8z"/>
<polygon class="st9" points="1170.1,612.7 1037.9,985.2 905.9,613 1038.1,608.2 "/>
<polygon class="st10" points="1048.6,552 1128.8,633.9 1157.7,517.8 1117,508.2 "/>
<g>
	<g>
		<g>
			<path class="st7" d="M1058.2,657.4c-0.7,1.3-3.6,2.3-6.6,2.3H1032c-3,0-5.9-1-6.6-2.3l-11.2-21.9c-2.2-4.3,0.8-8.2,7-8.2h41.2
				c6.2,0,9.2,4,7,8.2L1058.2,657.4z"/>
		</g>
		<g>
			<polygon class="st7" points="1093.2,1139.8 990.3,1139.8 1014.1,812 1025.3,656.9 1058.2,656.9 1069.8,817.3 			"/>
		</g>
	</g>
</g>
<path class="st11" d="M1418,874.5L1388,772.6c-34.2-136.5-206.7-172.1-206.7-172.1l-37.9,69.7l-102.3,327l-102.3-327L901,600.5
	c0,0-172.6,35.6-206.7,172.1l-29.9,101.9c-13.5,45.9-15.8,94.3-7.1,141.3c0.1,0.5,0.2,1,0.3,1.5c3.6,19.5,12.1,37.7,24.7,53
	l62.2,75.5l64.1-53.4l-53.9-75.3c0,0,0.3-39.1,8.2-61l76.6-99.8l-7.7,233.2l-21.6,97.4c0,0-3,25.6,16,31.7l214.6,2.6v0l0.4,0l0.4,0
	v0l214.6-2.6c19-6.1,16-31.7,16-31.7l-21.6-97.4l-7.7-233.2l76.6,99.8c7.9,21.8,8.2,61,8.2,61l-53.9,75.3l64.1,53.4l62.2-75.5
	c12.6-15.3,21.1-33.5,24.7-53c0.1-0.5,0.2-1,0.3-1.5C1433.8,968.8,1431.5,920.4,1418,874.5z"/>
<polygon class="st12" points="1051.6,625.7 1131.8,707.6 1161.7,595.7 1112.4,581.9 "/>
<path class="st13" d="M1184.1,745h-45.9l15.6,24.3l-112.6,227.9l93.3-365.5l9.6-40.9c0,0,38.2,9.1,51.3,14.4L1184.1,745z"/>
<polygon class="st10" points="1021.3,552 941.1,633.9 912.2,517.8 952.9,508.2 "/>
<polygon class="st12" points="1024.3,625.7 944.1,707.6 914.2,595.7 963.5,581.9 "/>
<path class="st13" d="M891.8,745h45.9l-15.6,24.3l116,229.6l-96.7-367.2l-9.6-40.9c0,0-38.2,9.1-51.3,14.4L891.8,745z"/>
<path class="st14" d="M914.1,1602l-131.3-14.4c0,0-10.6-170.3-8-187.8c9.8-65.5,7.2-173.6,22.2-218.9c14.9-45.3,70.6-62.1,70.6-62.1
	s69.6-47.3,109.8-19.7c11.1,7.7,53,27.4-21.5,347.4C936.4,1530.5,914.1,1602,914.1,1602z"/>
<path class="st14" d="M1159,1600.4l131.9-9.6c0,0,19.2-169.8,17.5-187.3c-6.4-65.8,1.6-173.7-11.1-219.5
	c-12.6-45.8-67.4-64.7-67.4-64.7s-67.2-49.8-108.7-23.7c-11.5,7.2-54.3,25.5,3.8,347.9C1140.4,1528.1,1159,1600.4,1159,1600.4z"/>
<path class="st15" d="M909,1640.8H790.7c-11.4,0-20.7-9.3-20.7-20.7v-18.5c0-11.4,9.3-20.7,20.7-20.7H909c11.4,0,20.7,9.3,20.7,20.7
	v18.5C929.7,1631.5,920.4,1640.8,909,1640.8z"/>
<path class="st15" d="M1169.5,1640.8h118.3c11.4,0,20.7-9.3,20.7-20.7v-18.5c0-11.4-9.3-20.7-20.7-20.7h-118.3
	c-11.4,0-20.7,9.3-20.7,20.7v18.5C1148.8,1631.5,1158.1,1640.8,1169.5,1640.8z"/>
<path class="st5" d="M885.9,329.4c0.7,21.4-3.6,40.1-14.7,40.5c-11.1,0.4-19.1-16.7-19.8-38.2c-0.7-21.4,7.8-39.1,18.8-39.5
	C881.3,291.8,885.2,308,885.9,329.4z"/>
<path class="st16" d="M1174.4,325.1c-0.7,21.4,3.6,40.1,14.7,40.5c11.1,0.4,19.1-16.7,19.8-38.2c0.7-21.4-7.8-39.1-18.8-39.5
	C1179,287.5,1175.1,303.7,1174.4,325.1z"/>
<ellipse class="st6" cx="1032.6" cy="334.1" rx="150.6" ry="213.9"/>
<path class="st17" d="M889.9,402.5c0,0-34.4-128.3,39.3-192.5c0,0,55,44.3,121.9,28.7c0,0,22.1-4.7,48.8-21.5c0,0,52.2-22.2,69.4,29
	c18.3,54.5,9,110,10.1,143.1c0,0,29.6-88.4,30.7-106.1c0,0,9.2-64.1-7.5-101.9c0,0-12.2-40.5-58.8-61.2c0,0-16-52.5-126.1-43.7
	c0,0-81.3-11.4-100.5,46.3c0,0-68.7,15.1-62.3,134.6C854.9,257.4,848.8,347.5,889.9,402.5z"/>
<path class="st18" d="M866.9,1025.6H415.1c-26,0-47.1-21.1-47.1-47.1V717.1c0-26,21.1-47.1,47.1-47.1h451.8
	c26,0,47.1,21.1,47.1,47.1v261.3C914,1004.5,892.9,1025.6,866.9,1025.6z"/>
<g>
	<g>
		<path class="st19" d="M386.3,1015.1c4.3,6.5,11.6,10.8,20,10.8h484c13.2,0,23.7-10.9,23.7-24V716.8c0-5.8-2-11.1-5.5-15.3
			L386.3,1015.1z"/>
	</g>
</g>
<path class="st20" d="M900.5,1024.6H381.5c-7.5,0-13.5,6.1-13.5,13.5v3c0,7.5,6.1,13.5,13.5,13.5h518.9c7.5,0,13.5-6.1,13.5-13.5v-3
	C914,1030.6,907.9,1024.6,900.5,1024.6z"/>
<path class="st18" d="M1232.1,296.9c0,0,34.8,38,6.1,99.6c0,0-38.8,78-173.2,82.3v-13.2c0,0,198.9-3.5,165.8-145.5L1232.1,296.9z"/>
<path class="st7" d="M1064.7,489h-63.9c-9.7,0-17.6-7.9-17.6-17.6l0,0c0-9.7,7.9-17.6,17.6-17.6h63.9c9.7,0,17.6,7.9,17.6,17.6l0,0
	C1082.3,481.1,1074.4,489,1064.7,489z"/>
<path class="st7" d="M1217.1,351.6h-3.7c-9.2,0-16.8-7.5-16.8-16.8v-49.2c0-9.2,7.5-16.8,16.8-16.8h3.7c9.2,0,16.8,7.5,16.8,16.8
	v49.2C1233.8,344,1226.3,351.6,1217.1,351.6z"/>
<g>
	<rect x="485.6" y="1890" class="st21" width="60" height="107.2"/>
	<path class="st22" d="M560.9,1985.8c0,7.9-5.3,14.2-11.9,14.2h-66.7c-6.6,0-11.9-6.4-11.9-14.2l0,0c0-7.9,5.3-14.2,11.9-14.2H549
		C555.6,1971.5,560.9,1977.9,560.9,1985.8L560.9,1985.8z"/>
</g>
<g>
	<rect x="1500" y="1888.5" class="st21" width="60" height="107.2"/>
	<path class="st22" d="M1575.3,1984.3c0,7.9-5.3,14.2-11.9,14.2h-66.7c-6.6,0-11.9-6.4-11.9-14.2l0,0c0-7.9,5.3-14.2,11.9-14.2h66.7
		C1569.9,1970.1,1575.3,1976.5,1575.3,1984.3L1575.3,1984.3z"/>
</g>
<path class="st22" d="M1628.6,1177v778.9h-219.1v-259.5c0-127.8-130.2-231.5-290.8-231.5H929.1c-160.6,0-290.8,103.6-290.8,231.5
	v259.5H414.5V1177H1628.6z"/>
<rect x="426.3" y="1164.9" class="st21" width="1214.7" height="36.9"/>
<rect x="373" y="1050.7" class="st22" width="1321.3" height="114.2"/>
<rect x="985.5" y="1549.6" class="st0" width="108.1" height="166.6"/>
<ellipse class="st23" cx="737.7" cy="962.6" rx="68.1" ry="41.5"/>
<g>
	<g>
		<linearGradient id="SVGID_1_" gradientUnits="userSpaceOnUse" x1="462.1821" y1="962.5325" x2="584.5126" y2="962.5325">
			<stop  offset="0" style="stop-color:#FFFFFF"/>
			<stop  offset="1" style="stop-color:#B8D0F2"/>
		</linearGradient>
		<path class="st24" d="M584.5,975.1c0.1-0.3,0.1-0.5,0-0.8v-4l-8.3-1.7c-18.3-10.6-67.5-39-70.3-40.6c-3.5-2-7,0-7,0
			s-24.2,14-32.6,18.8l-4-0.8v4c-0.2,1.3,1.5,2.3,1.5,2.3s73.6,42.5,77.1,44.5c1.1,0.6,2.2,0.9,3.2,0.9l0,0l0,0
			c2.2,0,3.8-0.9,3.8-0.9l31.6-18.2c0,0,0,0,3.5-2C583.9,976.2,584.3,975.6,584.5,975.1L584.5,975.1L584.5,975.1z"/>
		<path class="st8" d="M579.5,974.7l-31.6,18.2c0,0-3.5,2-7,0c-3.5-2-77.1-44.5-77.1-44.5s-3.5-2,0-4c3.5-2,35.1-20.2,35.1-20.2
			s3.5-2,7,0c3.5,2,77.1,44.6,77.1,44.6s3.5,2,0,4C579.5,974.7,579.5,974.7,579.5,974.7z"/>
		<polygon class="st25" points="568.9,964.6 505.8,928.2 470.7,948.4 533.9,984.8 		"/>
		<linearGradient id="SVGID_2_" gradientUnits="userSpaceOnUse" x1="546.4742" y1="977.1545" x2="568.9496" y2="977.1545">
			<stop  offset="0" style="stop-color:#FFFFFF"/>
			<stop  offset="1" style="stop-color:#B8D0F2"/>
		</linearGradient>
		<path class="st26" d="M568.5,971.3l-0.6-0.3c-0.9-0.5-2-0.5-2.9,0l-18,10.4c-0.7,0.4-0.7,1.5,0,1.9l0.2,0.1c1,0.6,2.3,0.6,3.3,0
			l17.9-10.3C569.1,972.6,569.1,971.6,568.5,971.3z"/>
		<ellipse class="st27" cx="484.8" cy="936" rx="1.8" ry="0.7"/>
	</g>
	<path class="st28" d="M504.7,923.6c-3.1-1.1-5.9,0.5-5.9,0.5s-31.6,18.2-35.1,20.2c-3.5,2,0,4,0,4s73.6,42.5,77.1,44.5
		c0.9,0.5,1.8,0.8,2.6,0.9C530.9,971,513.4,939.3,504.7,923.6z"/>
</g>
<g>
	<linearGradient id="SVGID_3_" gradientUnits="userSpaceOnUse" x1="446.2155" y1="910.0964" x2="752.6545" y2="910.0964">
		<stop  offset="0" style="stop-color:#FFFFFF"/>
		<stop  offset="1" style="stop-color:#B8D0F2"/>
	</linearGradient>
	<polygon class="st29" points="446.2,849.8 446.2,860.1 637.2,970.4 752.7,904.2 752.7,893.1 	"/>
	<g>
		<linearGradient id="SVGID_4_" gradientUnits="userSpaceOnUse" x1="446.1662" y1="881.4181" x2="752.7955" y2="881.4181">
			<stop  offset="0" style="stop-color:#FFFFFF"/>
			<stop  offset="1" style="stop-color:#B8D0F2"/>
		</linearGradient>
		<path class="st30" d="M741,912.6l-94.9,55.8c0,0-8.2,4.7-16.4,0c-8.2-4.7-179.9-103.9-179.9-103.9s-8.2-4.7,0-9.4
			c8.2-4.7,103.1-60.5,103.1-60.5s8.2-4.7,16.4,0c8.2,4.7,179.9,103.9,179.9,103.9s8.2,4.7,0,9.4C741,912.6,741,912.6,741,912.6z"/>
		<path class="st8" d="M741,903.2L646.1,959c0,0-8.2,4.7-16.4,0c-8.2-4.7-179.9-103.9-179.9-103.9s-8.2-4.7,0-9.4
			c8.2-4.7,103.1-60.5,103.1-60.5s8.2-4.7,16.4,0c8.2,4.7,179.9,103.9,179.9,103.9s8.2,4.7,0,9.4C741,903.2,741,903.2,741,903.2z"/>
		<polygon class="st25" points="735.7,890.9 569.3,794.6 466.1,855.1 632.8,951.3 		"/>
		<path class="st31" d="M509.3,819.6c0,0.9,1.8,1.7,4.1,1.7c2.3,0,4.1-0.8,4.1-1.7c0-0.9-1.8-1.7-4.1-1.7
			C511.2,817.9,509.3,818.7,509.3,819.6z"/>
	</g>
	<path class="st28" d="M566.7,784c-7.2-2.6-13.8,1.2-13.8,1.2s-94.9,55.8-103.1,60.5c-8.2,4.7,0,9.4,0,9.4S621.5,954.3,629.7,959
		c2.1,1.2,4.2,1.8,6.1,2C606.4,907.8,586.9,820.7,566.7,784z"/>
</g>
<g>
	<g>
		<polygon class="st32" points="681.9,877.6 614.5,916.5 614.5,911 681.9,872.1 		"/>
		<polygon class="st33" points="681.9,872.1 595.3,822.1 527.9,861 614.5,911 		"/>
		<polygon class="st34" points="614.5,916.5 527.9,866.5 527.9,861 614.5,911 		"/>
		<polygon class="st32" points="681.9,855.3 614.5,894.2 614.5,888.6 681.9,849.7 		"/>
		<polygon class="st35" points="527.9,838.6 614.5,888.6 681.9,849.7 595.3,799.7 		"/>
		<polygon class="st34" points="614.5,894.2 527.9,844.2 527.9,838.6 614.5,888.6 		"/>
		<path class="st8" d="M681.9,855.3L681.9,855.3c5,3,6.1,9.8,2.3,14.2l-2.3,2.7L614.5,911l-86.6-50v-16.8l86.6,50L681.9,855.3z"/>
		<path class="st32" d="M683.4,850.6l-1.5-0.9v5.5l0,0c5,3,6.1,9.8,2.3,14.2l-2.3,2.7v5.5l4.7-5.1
			C692.8,865.9,691.3,855.2,683.4,850.6z"/>
		<polygon class="st32" points="677.1,880.4 677.1,874.9 681.9,872.1 681.9,877.6 		"/>
		<polygon class="st36" points="614.5,894.2 614.5,911 527.9,861 527.9,844.2 		"/>
	</g>
	<g>
		<polygon class="st37" points="549.5,852.3 602.2,882.7 602.2,878.4 549.5,847.9 		"/>
		<polygon class="st33" points="549.5,847.9 617.3,808.8 670,839.2 602.2,878.4 		"/>
		<polygon class="st38" points="602.2,882.7 670,843.6 670,839.2 602.2,878.4 		"/>
		<polygon class="st37" points="549.5,834.8 602.2,865.2 602.2,860.9 549.5,830.4 		"/>
		<polygon class="st39" points="670,821.7 602.2,860.9 549.5,830.4 617.3,791.3 		"/>
		<polygon class="st38" points="602.2,865.2 670,826.1 670,821.7 602.2,860.9 		"/>
		<path class="st8" d="M549.5,834.8L549.5,834.8c-3.9,2.3-4.8,7.6-1.8,11.1l1.8,2.1l52.7,30.4l67.8-39.1v-13.2l-67.8,39.1
			L549.5,834.8z"/>
		<path class="st36" d="M549.5,834.8c-3.9,2.3-4.8,7.6-1.8,11.1l1.8,2.1l52.7,30.4v-13.2L549.5,834.8z"/>
		<path class="st37" d="M548.3,831.1l1.2-0.7v4.3l0,0c-3.9,2.3-4.8,7.6-1.8,11.1l1.8,2.1v4.3l-3.7-4
			C540.9,843.1,542.1,834.7,548.3,831.1z"/>
		<polygon class="st8" points="575.8,832.7 621,806.4 643.6,819.7 598.6,845.7 		"/>
	</g>
	<g>
		<polygon class="st40" points="665.2,831.8 616.1,860.1 616.1,856.1 665.2,827.8 		"/>
		<polygon class="st33" points="665.2,827.8 602.1,791.3 553,819.6 616.1,856.1 		"/>
		<polygon class="st41" points="616.1,860.1 553,823.7 553,819.6 616.1,856.1 		"/>
		<polygon class="st40" points="665.2,815.5 616.1,843.8 616.1,839.8 665.2,811.5 		"/>
		<polygon class="st42" points="553,803.3 616.1,839.8 665.2,811.5 602.1,775 		"/>
		<polygon class="st41" points="616.1,843.8 553,807.4 553,803.3 616.1,839.8 		"/>
		<path class="st8" d="M665.2,815.5L665.2,815.5c3.6,2.2,4.5,7.1,1.7,10.3l-1.7,1.9l-49.1,28.3L553,819.6v-12.3l63.1,36.4
			L665.2,815.5z"/>
		<path class="st40" d="M666.3,812.1l-1.1-0.7l0,4l0,0c3.6,2.2,4.5,7.1,1.7,10.3l-1.7,1.9v4l3.5-3.7
			C673.2,823.2,672,815.5,666.3,812.1z"/>
		<g>
			<path class="st41" d="M569.9,801.8l49.1,28.4l32.6-18.8l-49.3-28.7L569.9,801.8z"/>
		</g>
		<polygon class="st36" points="616.1,856.1 616.1,843.8 553,807.4 553,819.6 		"/>
	</g>
</g>
<g>
	<polygon class="st43" points="678.7,765.1 678.7,768.3 608.6,808.8 538.5,768.3 538.5,765.1 	"/>
	<path class="st27" d="M569.5,776.1v24.6c0,12.9,17.7,23.4,39.4,23.4s39.4-10.5,39.4-23.4v-24.6H569.5z"/>
	<path class="st44" d="M648.4,786.9l-37.8,28.4c0,0-42-28.2-40.4-28.7c1.6-0.5,26.6-9.6,26.6-9.6L648.4,786.9z"/>
	<polygon class="st45" points="538.5,768.3 608.6,727.8 678.7,768.3 608.6,808.8 	"/>
	<polygon class="st27" points="538.5,765.1 608.6,724.6 678.7,765.1 608.6,805.6 	"/>
	<polygon class="st44" points="608.6,808.8 608.6,805.6 538.5,765.1 538.5,768.3 	"/>
	<g>
		<path class="st46" d="M644.6,836.6h2.9c1.7,0,3-1.4,2.9-3.1l-1.5-20c-0.1-1.5-1.4-2.7-2.9-2.7l0,0c-1.5,0-2.8,1.2-2.9,2.7l-1.5,20
			C641.5,835.1,642.9,836.6,644.6,836.6z"/>
		<g>
			<polygon class="st46" points="645.4,824.5 646.8,824.5 646.8,781.9 608.1,759 607.3,760.2 645.4,782.7 			"/>
		</g>
		<path class="st46" d="M649.3,805.7c0,1.8-1.5,3.3-3.3,3.3c-1.8,0-3.3-1.5-3.3-3.3s1.5-3.3,3.3-3.3
			C647.8,802.4,649.3,803.9,649.3,805.7z"/>
	</g>
</g>
<g>
	<linearGradient id="SVGID_5_" gradientUnits="userSpaceOnUse" x1="648.5019" y1="719.8575" x2="758.2977" y2="719.8575">
		<stop  offset="0" style="stop-color:#FFFFFF"/>
		<stop  offset="1" style="stop-color:#B8D0F2"/>
	</linearGradient>
	<path class="st47" d="M758.3,760.6c0-15.7-9.5-33.7-21.2-40.3c-0.8-0.5-1.6-0.8-2.4-1.1c-3.6-18.4-14.9-36.8-28.3-44.3
		c-8.6-4.8-16.3-4.2-21.7,0.6c-0.2,0.2-0.5,0.4-0.7,0.6c-0.2,0.2-0.5,0.4-0.7,0.6c-0.2,0.2-0.5,0.4-0.7,0.6
		c-0.2,0.2-0.5,0.4-0.7,0.6c-0.2,0.2-0.5,0.4-0.7,0.6c-0.2,0.2-0.5,0.4-0.7,0.6c-0.2,0.2-0.5,0.4-0.7,0.6c-0.2,0.2-0.5,0.4-0.7,0.6
		c-2.3,1.8-4.2,4.3-5.7,7.5c-5.3-2.8-10.1-2.3-13.4,0.7c-0.2,0.2-0.5,0.4-0.7,0.6c-0.2,0.2-0.5,0.4-0.7,0.6
		c-0.2,0.2-0.5,0.4-0.7,0.6c-0.2,0.2-0.5,0.4-0.7,0.6c-0.2,0.2-0.5,0.4-0.7,0.6c-0.2,0.2-0.5,0.4-0.7,0.6c-0.2,0.2-0.5,0.4-0.7,0.6
		c-0.2,0.2-0.5,0.4-0.7,0.6c-3.5,2.6-5.6,7.8-5.6,14.8c0,0.7,0,1.5,0.1,2.2l103.1,57.8c0-0.3,0-0.7,0-1l0.7,0.4c0-0.3,0-0.7,0-1
		l0.7,0.4c0-0.3,0-0.7,0-1l0.7,0.4c0-0.3,0-0.7,0-1l0.7,0.4c0-0.3,0-0.7,0-1l0.7,0.4c0-0.3,0-0.7,0-1l0.7,0.4c0-0.3,0-0.7,0-1
		l0.7,0.4c0-0.3,0-0.7,0-1l0.7,0.4c0-0.3,0-0.7,0-1l0.7,0.4C758.3,762.1,758.3,761.4,758.3,760.6z"/>
	<path class="st8" d="M751.7,768.1c0-0.7,0.1-1.4,0.1-2.1c0-15.7-9.5-33.7-21.2-40.3c-0.8-0.5-1.6-0.8-2.4-1.1
		c-3.6-18.4-14.9-36.8-28.3-44.3c-14.3-8-26.3-1-29,15.6c-1.2-1-2.4-1.8-3.6-2.5c-10.4-5.8-18.8,0.8-18.8,14.7c0,0.7,0,1.5,0.1,2.2
		L751.7,768.1z"/>
</g>
<g>
	
		<linearGradient id="SVGID_6_" gradientUnits="userSpaceOnUse" x1="1169.3912" y1="729.1135" x2="1279.187" y2="729.1135" gradientTransform="matrix(-1 0 0 1 1727.2554 0)">
		<stop  offset="0" style="stop-color:#FFFFFF"/>
		<stop  offset="1" style="stop-color:#B8D0F2"/>
	</linearGradient>
	<path class="st48" d="M448.1,769.9c0-15.7,9.5-33.7,21.2-40.3c0.8-0.5,1.6-0.8,2.4-1.1c3.6-18.4,14.9-36.8,28.3-44.3
		c8.6-4.8,16.3-4.2,21.7,0.6c0.2,0.2,0.5,0.4,0.7,0.6c0.2,0.2,0.5,0.4,0.7,0.6c0.2,0.2,0.5,0.4,0.7,0.6c0.2,0.2,0.5,0.4,0.7,0.6
		c0.2,0.2,0.5,0.4,0.7,0.6c0.2,0.2,0.5,0.4,0.7,0.6c0.2,0.2,0.5,0.4,0.7,0.6c0.2,0.2,0.5,0.4,0.7,0.6c2.3,1.8,4.2,4.3,5.7,7.5
		c5.3-2.8,10.1-2.3,13.4,0.7c0.2,0.2,0.5,0.4,0.7,0.6c0.2,0.2,0.5,0.4,0.7,0.6c0.2,0.2,0.5,0.4,0.7,0.6c0.2,0.2,0.5,0.4,0.7,0.6
		c0.2,0.2,0.5,0.4,0.7,0.6c0.2,0.2,0.5,0.4,0.7,0.6c0.2,0.2,0.5,0.4,0.7,0.6c0.2,0.2,0.5,0.4,0.7,0.6c3.5,2.6,5.6,7.8,5.6,14.8
		c0,0.7,0,1.5-0.1,2.2l-103.1,57.8c0-0.3,0-0.7,0-1l-0.7,0.4c0-0.3,0-0.7,0-1l-0.7,0.4c0-0.3,0-0.7,0-1l-0.7,0.4c0-0.3,0-0.7,0-1
		l-0.7,0.4c0-0.3,0-0.7,0-1l-0.7,0.4c0-0.3,0-0.7,0-1l-0.7,0.4c0-0.3,0-0.7,0-1l-0.7,0.4c0-0.3,0-0.7,0-1l-0.7,0.4c0-0.3,0-0.7,0-1
		l-0.7,0.4C448.1,771.3,448.1,770.6,448.1,769.9z"/>
	<path class="st8" d="M454.6,777.4c0-0.7-0.1-1.4-0.1-2.1c0-15.7,9.5-33.7,21.2-40.3c0.8-0.5,1.6-0.8,2.4-1.1
		c3.6-18.4,14.9-36.8,28.3-44.3c14.3-8,26.3-1,29,15.6c1.2-1,2.4-1.8,3.6-2.5c10.4-5.8,18.8,0.8,18.8,14.7c0,0.7,0,1.5-0.1,2.2
		L454.6,777.4z"/>
</g>
<g>
	<ellipse class="st23" cx="1597" cy="1096.7" rx="99" ry="60.3"/>
	<g>
		<g>
			<linearGradient id="SVGID_7_" gradientUnits="userSpaceOnUse" x1="1651.0179" y1="871.8314" x2="1545.0367" y2="1209.962">
				<stop  offset="0" style="stop-color:#FFFFFF"/>
				<stop  offset="1" style="stop-color:#B8D0F2"/>
			</linearGradient>
			<path class="st49" d="M1618.9,955l-90.2,30.3v113.5c0,23,30.6,41.6,68.3,41.6s68.3-18.6,68.3-41.6V985.3L1618.9,955z"/>
			<linearGradient id="SVGID_8_" gradientUnits="userSpaceOnUse" x1="1528.7478" y1="985.3376" x2="1665.3171" y2="985.3376">
				<stop  offset="0" style="stop-color:#FFFFFF"/>
				<stop  offset="1" style="stop-color:#B8D0F2"/>
			</linearGradient>
			<ellipse class="st50" cx="1597" cy="985.3" rx="68.3" ry="41.6"/>
			<path class="st51" d="M1538.9,1007.2c12,11.9,33.6,19.8,58.1,19.8c24.6,0,46.1-7.9,58.1-19.8c0.8-2.4,1.3-4.9,1.3-7.5
				c0-20-26.6-36.2-59.4-36.2s-59.4,16.2-59.4,36.2C1537.6,1002.3,1538.1,1004.7,1538.9,1007.2z"/>
		</g>
		<path class="st8" d="M1597,948.5c34.4,0,63.5,16.9,63.5,36.8s-29.1,36.8-63.5,36.8c-34.4,0-63.5-16.9-63.5-36.8
			S1562.6,948.5,1597,948.5 M1597,943.7c-37.7,0-68.3,18.6-68.3,41.6c0,23,30.6,41.6,68.3,41.6c37.7,0,68.3-18.6,68.3-41.6
			C1665.3,962.4,1634.7,943.7,1597,943.7L1597,943.7z"/>
		<g>
			<linearGradient id="SVGID_9_" gradientUnits="userSpaceOnUse" x1="1662.0769" y1="1121.6356" x2="1660.1071" y2="1060.8959">
				<stop  offset="0" style="stop-color:#FFFFFF"/>
				<stop  offset="1" style="stop-color:#B8D0F2"/>
			</linearGradient>
			<path class="st52" d="M1655.3,1031.2l-2.5-1.4v0l0,0v0l0,0v0l0,0v0l0,0v0l0,0v0l0,0v0l0,0v0l0,0v0l0,0v0l0,0v0l0,0v0l0,0v0l0,0v0
				l0,0v0l0,0v0l0,0v0l0,0v0l0,0v0l0,0v0l0,0v0l0,0v0l0,0v0l0,0v0l0,0v0l0,0v0l0,0v0l0,0v0l0,0v0l0,0v0l0,0v0l0,0v0l0,0v0l0,0v0l0,0
				v0l0,0v0l0,0v0l0,0v0l0,0v0l0,0v0l0,0v0l0,0v0l0,0v0l0,0v0l0,0v0l0,0v0l0,0v0l0,0v0l0,0v0l0,0v0l0,0v0l0,0v0l0,0v0l0,0v0l0,0v0
				l0,0v0l0,0v0l0,0v0l0,0v0l0,0v0l0,0v0l0,0v0l0,0v0l0,0v0l0,0v0l0,0v0l0,0v0l0,0v0l0,0v0l0,0v0l0,0v0l0,0v0l0,0v0l0,0v0l0,0v0l0,0
				v0l0,0v0l0,0v0l0,0v0l0,0v0l0,0v0l0,0v0l0,0v0l0,0v0l0,0v0l0,0v0l0,0v0l0,0v0l0,0v0l0,0v0l0,0v0l0,0v0l0,0v0l0,0v0l0,0v0l0,0v0
				l0,0v0l0,0v0l0,0v0l0,0v0l0,0v0l0,0v0l0,0v0l0,0v0l0,0v0l0,0v0l0,0v0l0,0v0l0,0v0l0,0v0l0,0v0l0,0v0l0,0v0l0,0v0l0,0v0l0,0v0l0,0
				v0l0,0v0l0,0v0l0,0v0l0,0v0l0,0v0l0,0v0l0,0v0l0,0v0l0,0v0l0,0v0l0,0v0l0,0v0l0,0v0l0,0v0l0,0v0l0,0v0l0,0v0l0,0v0l0,0v0l0,0v0
				l0,0v0l0,0v0l0,0v0l0,0v0l0,0v0l0,0v0l0,0v0l0,0v0l0,0v0l0,0v0l0,0v0l0,0v0l0,0v0l0,0v0l0,0v0l0,0v0l0,0v0l0,0v0l0,0v0l0,0v0l0,0
				v0l0,0v0l0,0v0l0,0v0l0,0v0l0,0v0l0,0v0l0,0v0l0,0v0l0,0v0l0,0v0l0,0v0l0,0v0l0,0v0l0,0v0l0,0v0l0,0v0l0,0v0l0,0v0l0,0v0l0,0v0
				l0,0v0l0,0v0l0,0v0l0,0v0l0,0v0l0,0v0l0,0v0l0,0v0l0,0v0l0,0v0l0,0v0l0,0v0l0,0v0l0,0v0l0,0v0l0,0v0l0,0v0l0,0v0l0,0v0l0,0v0l0,0
				v0l0,0v0l0,0v0l0,0v0l0,0v0l0,0v0l0,0v0l0,0v0l0,0v0l0,0v0l0,0v0l0,0v0l0,0v0l0,0v0l0,0v0l0,0v0l0,0v0l0,0v0l0,0v0l0,0v0l0,0v0
				l0,0v0l0,0v0l0,0v0l0,0v0l0,0v0l0,0v0l0,0v0l0,0v0l0,0v0l0,0v0l0,0v0l0,0v0l0,0v0l0,0v0l0,0v0l0,0v0l0,0v0l0,0v0l0,0v0l0,0v0l0,0
				v0l0,0v0l0,0v0l0,0v0l0,0v0l0,0v0l0,0v0l0,0v0l0,0v0l0,0v0l0,0v0l0,0v0l0,0v0l0,0v0l0,0v0l0,0v0l0,0v0l0,0v0l0,0v0l0,0v0l0,0v0
				l0,0v0l0,0v0l0,0v0l0,0v0l0,0v0l0,0v0l0,0v0l0,0v0l0,0v0l0,0v0l0,0v0l0,0v0l0,0v0l0,0v0l0,0v0l0,0v0l0,0v0l0,0v0l0,0v0l0,0v0l0,0
				v0l0,0v0l0,0v0l0,0v0l0,0v0l0,0v0l0,0v0l0,0v0l0,0v0l0,0v0l0,0v0l0,0v0l0,0v0l0,0v0l0,0v0l0,0v0l0,0v0l0,0v0l0,0v0l0,0v0l0,0v0
				l0,0v11.5c11.6,7.8,18.7,21,18.7,35c0,4.5-1.5,8.6-4.3,11.9c-0.9,0.1-1.7,0.2-2.6,0.2v0c0,0,0,0,0,0v0c0,0,0,0,0,0v0c0,0,0,0,0,0
				v0c0,0,0,0,0,0v0c0,0,0,0,0,0v0c0,0,0,0,0,0v0c0,0,0,0,0,0v0c0,0,0,0,0,0v0c0,0,0,0,0,0v0c0,0,0,0,0,0v0c0,0,0,0,0,0v0
				c0,0,0,0,0,0v0c0,0,0,0,0,0v0c0,0,0,0,0,0v0c0,0,0,0,0,0v0c0,0,0,0,0,0v0c0,0,0,0,0,0v0c0,0,0,0,0,0v0c0,0,0,0,0,0v0c0,0,0,0,0,0
				v0c0,0,0,0,0,0v0c0,0,0,0,0,0v0c0,0,0,0,0,0v0c0,0,0,0,0,0v0c0,0,0,0,0,0v0c0,0,0,0,0,0v0c0,0,0,0,0,0v0c0,0,0,0,0,0v0
				c0,0,0,0,0,0v0c0,0,0,0,0,0v0c0,0,0,0,0,0v0c0,0,0,0,0,0v0c0,0,0,0,0,0v0c0,0,0,0,0,0v0c0,0,0,0,0,0v0c0,0,0,0,0,0v0c0,0,0,0,0,0
				v0c0,0,0,0,0,0v0c0,0,0,0,0,0v0c0,0,0,0,0,0v0c0,0,0,0,0,0v0c0,0,0,0,0,0v0c0,0,0,0,0,0v0c0,0,0,0,0,0v0c0,0,0,0,0,0v0
				c0,0,0,0,0,0v0c0,0,0,0,0,0v0c0,0,0,0,0,0v0c0,0,0,0,0,0v0c0,0,0,0,0,0v0c0,0,0,0,0,0v0c0,0,0,0,0,0v0c0,0,0,0,0,0v0c0,0,0,0,0,0
				v0c0,0,0,0,0,0v0c0,0,0,0,0,0v0c0,0,0,0,0,0v0c0,0,0,0,0,0v0c0,0,0,0,0,0v0c0,0,0,0,0,0v0c0,0,0,0,0,0v0c0,0,0,0,0,0v0
				c0,0,0,0,0,0v0c0,0,0,0,0,0v0c0,0,0,0,0,0v0c0,0,0,0,0,0v0c0,0,0,0,0,0v0c0,0,0,0,0,0v0c0,0,0,0,0,0v0c0,0,0,0,0,0v0c0,0,0,0,0,0
				v0c0,0,0,0,0,0v0c0,0,0,0,0,0v0c0,0,0,0,0,0v0c0,0,0,0,0,0v0c0,0,0,0,0,0v0c0,0,0,0,0,0v0c0,0,0,0,0,0v0c0,0,0,0,0,0v0
				c0,0,0,0,0,0v0c0,0,0,0,0,0v0c0,0,0,0,0,0v0c0,0,0,0,0,0v0c0,0,0,0,0,0v0c0,0,0,0,0,0v0c0,0,0,0,0,0v0c0,0,0,0,0,0v0c0,0,0,0,0,0
				v0c0,0,0,0,0,0v0c0,0,0,0,0,0v0c0,0,0,0,0,0v0c0,0,0,0,0,0v0c0,0,0,0,0,0v0c0,0,0,0,0,0v0c0,0,0,0,0,0v0c0,0,0,0,0,0v0
				c0,0,0,0,0,0v0c0,0,0,0,0,0v0c0,0,0,0,0,0v0c0,0,0,0,0,0v0c0,0,0,0,0,0v0c0,0,0,0,0,0v0c0,0,0,0,0,0v0c0,0,0,0,0,0v0c0,0,0,0,0,0
				v0c0,0,0,0,0,0v0c0,0,0,0,0,0v0c0,0,0,0,0,0v0c0,0,0,0,0,0v0c0,0,0,0,0,0v0c0,0,0,0,0,0v0c0,0,0,0,0,0v0c0,0,0,0,0,0v0
				c0,0,0,0,0,0v0c0,0,0,0,0,0v0c0,0,0,0,0,0v0c0,0,0,0,0,0v0c0,0,0,0,0,0v0c0,0,0,0,0,0v0c0,0,0,0,0,0v0c0,0,0,0,0,0v0c0,0,0,0,0,0
				v0c0,0,0,0,0,0v0c0,0,0,0,0,0v0c0,0,0,0,0,0v0c0,0,0,0,0,0v0c0,0,0,0,0,0v0c0,0,0,0,0,0v0c0,0,0,0,0,0v0c0,0,0,0,0,0v0
				c0,0,0,0,0,0v0c0,0,0,0,0,0v0c0,0,0,0,0,0v0c0,0,0,0,0,0v0c0,0,0,0,0,0v0c0,0,0,0,0,0v0c0,0,0,0,0,0v0c0,0,0,0,0,0v0c0,0,0,0,0,0
				v0c0,0,0,0,0,0v0c0,0,0,0,0,0v0c0,0,0,0,0,0v0c0,0,0,0,0,0v0c0,0,0,0,0,0v0c0,0,0,0,0,0v0c0,0,0,0,0,0v0c0,0,0,0,0,0v0
				c0,0,0,0,0,0v0c0,0,0,0,0,0v0c0,0,0,0,0,0v0c0,0,0,0,0,0v0c0,0,0,0,0,0v0c0,0,0,0,0,0v0c0,0,0,0,0,0v0c0,0,0,0,0,0v0c0,0,0,0,0,0
				v0c0,0,0,0,0,0v0c0,0,0,0,0,0v0c0,0,0,0,0,0v0c0,0,0,0,0,0v0c0,0,0,0,0,0v0c0,0,0,0,0,0v0c0,0,0,0,0,0v0c0,0,0,0,0,0v0
				c0,0,0,0,0,0v0c0,0,0,0,0,0v0c0,0,0,0,0,0v0c0,0,0,0,0,0v0c0,0,0,0,0,0v0c0,0,0,0,0,0v0c0,0,0,0,0,0v0c0,0,0,0,0,0v0c0,0,0,0,0,0
				v0c0,0,0,0,0,0v0c0,0,0,0,0,0v0c0,0,0,0,0,0v0c0,0,0,0,0,0v0c0,0,0,0,0,0v0c0,0,0,0,0,0v0c0,0,0,0,0,0v0c0,0,0,0,0,0v0
				c0,0,0,0,0,0v0c0,0,0,0,0,0v0c0,0,0,0,0,0v0c0,0,0,0,0,0v0c0,0,0,0,0,0v0c0,0,0,0,0,0v0c0,0,0,0,0,0v0c0,0,0,0,0,0v0c0,0,0,0,0,0
				v0c0,0,0,0,0,0v0c0,0,0,0,0,0v0c0,0,0,0,0,0v0c0,0,0,0,0,0v0c0,0,0,0,0,0v0c0,0,0,0,0,0v0c0,0,0,0,0,0v0c0,0,0,0,0,0v0
				c0,0,0,0,0,0v0c0,0,0,0,0,0v0c0,0,0,0,0,0v0c0,0,0,0,0,0v0c0,0,0,0,0,0v0c0,0,0,0,0,0v0c0,0,0,0,0,0v0c0,0,0,0,0,0v0c0,0,0,0,0,0
				v0c0,0,0,0,0,0v0c0,0,0,0,0,0v0c0,0,0,0,0,0v0c0,0,0,0,0,0v0c0,0,0,0,0,0v0c0,0,0,0,0,0v0c0,0,0,0,0,0v0c0,0,0,0,0,0v0
				c0,0,0,0,0,0v0c0,0,0,0,0,0v0c0,0,0,0,0,0v0c0,0,0,0,0,0v0c0,0,0,0,0,0v0c0,0,0,0,0,0v0c0,0,0,0,0,0v0c0,0,0,0,0,0v0c0,0,0,0,0,0
				v0c0,0,0,0,0,0v0c0,0,0,0,0,0v0c0,0,0,0,0,0v0c0,0,0,0,0,0v0c0,0,0,0,0,0v0c0,0,0,0,0,0v0c0,0,0,0,0,0v0c0,0,0,0,0,0v0
				c0,0,0,0,0,0v0c0,0,0,0,0,0v0c0,0,0,0,0,0v0c0,0,0,0,0,0v0c0,0,0,0,0,0v0c0,0,0,0,0,0v0c0,0,0,0,0,0v0c0,0,0,0,0,0v0c0,0,0,0,0,0
				v0c0,0,0,0,0,0v0c0,0,0,0,0,0v0c0,0,0,0,0,0v0c0,0,0,0,0,0v0c0,0,0,0,0,0v0c0,0,0,0,0,0v0c0,0,0,0,0,0v0c0,0,0,0,0,0v0
				c0,0,0,0,0,0v0c0,0,0,0,0,0v0c0,0,0,0,0,0v0c0,0,0,0,0,0v0c0,0,0,0,0,0v0c0,0,0,0,0,0v0c0,0,0,0,0,0v0c0,0,0,0,0,0v0c0,0,0,0,0,0
				v0c0,0,0,0,0,0v0c0,0,0,0,0,0v0c0,0,0,0,0,0v0c0,0,0,0,0,0v0c0,0,0,0,0,0v0c0,0,0,0,0,0v0c0,0,0,0,0,0v0c0,0,0,0,0,0v0
				c0,0,0,0,0,0v0c0,0,0,0,0,0v0c0,0,0,0,0,0v0c0,0,0,0,0,0v0c0,0,0,0,0,0v0c0,0,0,0,0,0v0c0,0,0,0,0,0v0c0,0,0,0,0,0v0c0,0,0,0,0,0
				v0c0,0,0,0,0,0v0c0,0,0,0,0,0v0c0,0,0,0,0,0v0c0,0,0,0,0,0v0c0,0,0,0,0,0v0c0,0,0,0,0,0v0c0,0,0,0,0,0v0c0,0,0,0,0,0v0
				c0,0,0,0,0,0v0c0,0,0,0,0,0v0c0,0,0,0,0,0v0c0,0,0,0,0,0v0c0,0,0,0,0,0v0c0,0,0,0,0,0v0c0,0,0,0,0,0v0c0,0,0,0,0,0v0c0,0,0,0,0,0
				v0c0,0,0,0,0,0v0c0,0,0,0,0,0v0c0,0,0,0,0,0v0c0,0,0,0,0,0v0c0,0,0,0,0,0v0c0,0,0,0,0,0v0c0,0,0,0,0,0v0c0,0,0,0,0,0v0
				c0,0,0,0,0,0v9.9c4.9,0,9.8-1.3,14.3-3.9c0,0,0,0,0,0c0,0,0,0,0,0c0,0,0,0,0,0c0,0,0,0,0,0c0,0,0,0,0,0c0,0,0,0,0,0c0,0,0,0,0,0
				c0,0,0,0,0,0c0,0,0,0,0,0c0,0,0,0,0,0c0,0,0,0,0,0c0,0,0,0,0,0c0,0,0,0,0,0c0,0,0,0,0,0c0,0,0,0,0,0c0,0,0,0,0,0c0,0,0,0,0,0
				c0,0,0,0,0,0c0,0,0,0,0,0c0,0,0,0,0,0c0,0,0,0,0,0c0,0,0,0,0,0c0,0,0,0,0,0c0,0,0,0,0,0c0,0,0,0,0,0c0,0,0,0,0,0c0,0,0,0,0,0
				c0,0,0,0,0,0c0,0,0,0,0,0c0,0,0,0,0,0c0,0,0,0,0,0c0,0,0,0,0,0c0,0,0,0,0,0c0,0,0,0,0,0c0,0,0,0,0,0c0,0,0,0,0,0c0,0,0,0,0,0
				c0,0,0,0,0,0c0,0,0,0,0,0c0,0,0,0,0,0c0,0,0,0,0,0c0,0,0,0,0,0c0,0,0,0,0,0c0,0,0,0,0,0c0,0,0,0,0,0c0,0,0,0,0,0c0,0,0,0,0,0
				c0,0,0,0,0,0c0,0,0,0,0,0c0,0,0,0,0,0c0,0,0,0,0,0c0,0,0,0,0,0c0,0,0,0,0,0c0,0,0,0,0,0c0,0,0,0,0,0c0,0,0,0,0,0c0,0,0,0,0,0
				c0,0,0,0,0,0c0,0,0,0,0,0c0,0,0,0,0,0c0,0,0,0,0,0c0,0,0,0,0,0c0,0,0,0,0,0c0,0,0,0,0,0c0,0,0,0,0,0c0,0,0,0,0,0c0,0,0,0,0,0
				c0,0,0,0,0,0c0,0,0,0,0,0c0,0,0,0,0,0c0,0,0,0,0,0c0,0,0,0,0,0c0,0,0,0,0,0c0,0,0,0,0,0c0,0,0,0,0,0c0,0,0,0,0,0c0,0,0,0,0,0
				c0,0,0,0,0,0c0,0,0,0,0,0c0,0,0,0,0,0c0,0,0,0,0,0c0,0,0,0,0,0c0,0,0,0,0,0c0,0,0,0,0,0c0,0,0,0,0,0c0,0,0,0,0,0c0,0,0,0,0,0
				c0,0,0,0,0,0c0,0,0,0,0,0c0,0,0,0,0,0c0,0,0,0,0,0c0,0,0,0,0,0c0,0,0,0,0,0c0,0,0,0,0,0c0,0,0,0,0,0c0,0,0,0,0,0c0,0,0,0,0,0
				c0,0,0,0,0,0c0,0,0,0,0,0c0,0,0,0,0,0c0,0,0,0,0,0c0,0,0,0,0,0c0,0,0,0,0,0c0,0,0,0,0,0c0,0,0,0,0,0c0,0,0,0,0,0c0,0,0,0,0,0
				c0,0,0,0,0,0c0,0,0,0,0,0c0,0,0,0,0,0c0,0,0,0,0,0c0,0,0,0,0,0c0,0,0,0,0,0c0,0,0,0,0,0c0,0,0,0,0,0c0,0,0,0,0,0c0,0,0,0,0,0
				c0,0,0,0,0,0c0,0,0,0,0,0c0,0,0,0,0,0c0,0,0,0,0,0c0,0,0,0,0,0c0,0,0,0,0,0c0,0,0,0,0,0c0,0,0,0,0,0c0,0,0,0,0,0c0,0,0,0,0,0
				c0,0,0,0,0,0c0,0,0,0,0,0c0,0,0,0,0,0c0,0,0,0,0,0c0,0,0,0,0,0c0,0,0,0,0,0c0,0,0,0,0,0c0,0,0,0,0,0c0,0,0,0,0,0c0,0,0,0,0,0
				c0,0,0,0,0,0c0,0,0,0,0,0c0,0,0,0,0,0c0,0,0,0,0,0c0,0,0,0,0,0c0,0,0,0,0,0c0,0,0,0,0,0c0,0,0,0,0,0c0,0,0,0,0,0c0,0,0,0,0,0
				c0,0,0,0,0,0c0,0,0,0,0,0c0,0,0,0,0,0c0,0,0,0,0,0c0,0,0,0,0,0c0,0,0,0,0,0c0,0,0,0,0,0c0,0,0,0,0,0c0,0,0,0,0,0c0,0,0,0,0,0
				c0,0,0,0,0,0c0,0,0,0,0,0c0,0,0,0,0,0c0,0,0,0,0,0c0,0,0,0,0,0c0,0,0,0,0,0c0,0,0,0,0,0c0,0,0,0,0,0c0,0,0,0,0,0c0,0,0,0,0,0
				c0,0,0,0,0,0c0,0,0,0,0,0c0,0,0,0,0,0c0,0,0,0,0,0c0,0,0,0,0,0c0,0,0,0,0,0c0,0,0,0,0,0c0,0,0,0,0,0c0,0,0,0,0,0c0,0,0,0,0,0
				c0,0,0,0,0,0c0,0,0,0,0,0c0,0,0,0,0,0c0,0,0,0,0,0c0,0,0,0,0,0c0,0,0,0,0,0c0,0,0,0,0,0c0,0,0,0,0,0c0,0,0,0,0,0c0,0,0,0,0,0
				c0,0,0,0,0,0c0,0,0,0,0,0c0,0,0,0,0,0c0,0,0,0,0,0c0,0,0,0,0,0c0,0,0,0,0,0c0,0,0,0,0,0c0,0,0,0,0,0c0,0,0,0,0,0c0,0,0,0,0,0
				c0,0,0,0,0,0c0,0,0,0,0,0c0,0,0,0,0,0c0,0,0,0,0,0c0,0,0,0,0,0c0,0,0,0,0,0c0,0,0,0,0,0c0,0,0,0,0,0c0,0,0,0,0,0c0,0,0,0,0,0
				c0,0,0,0,0,0c0,0,0,0,0,0c0,0,0,0,0,0c0,0,0,0,0,0c0,0,0,0,0,0c0,0,0,0,0,0c0,0,0,0,0,0c0,0,0,0,0,0c0,0,0,0,0,0c0,0,0,0,0,0
				c0,0,0,0,0,0c0,0,0,0,0,0c0,0,0,0,0,0c0,0,0,0,0,0c0,0,0,0,0,0c0,0,0,0,0,0c0,0,0,0,0,0c0,0,0,0,0,0c0,0,0,0,0,0c0,0,0,0,0,0
				c0,0,0,0,0,0c0,0,0,0,0,0c0,0,0,0,0,0c0,0,0,0,0,0c0,0,0,0,0,0c0,0,0,0,0,0c0,0,0,0,0,0c0,0,0,0,0,0c0,0,0,0,0,0c0,0,0,0,0,0
				c0,0,0,0,0,0c0,0,0,0,0,0c0,0,0,0,0,0c0,0,0,0,0,0c0,0,0,0,0,0c0,0,0,0,0,0c0,0,0,0,0,0c0,0,0,0,0,0c0,0,0,0,0,0c0,0,0,0,0,0
				c0,0,0,0,0,0c0,0,0,0,0,0c0,0,0,0,0,0c0,0,0,0,0,0c0,0,0,0,0,0c0,0,0,0,0,0c0,0,0,0,0,0c0,0,0,0,0,0c0,0,0,0,0,0c0,0,0,0,0,0
				c0,0,0,0,0,0c0,0,0,0,0,0c0,0,0,0,0,0c0,0,0,0,0,0c0,0,0,0,0,0c0,0,0,0,0,0c0,0,0,0,0,0c0,0,0,0,0,0c0,0,0,0,0,0c0,0,0,0,0,0
				c0,0,0,0,0,0c0,0,0,0,0,0c0,0,0,0,0,0c0,0,0,0,0,0c0,0,0,0,0,0c0,0,0,0,0,0c0,0,0,0,0,0c0,0,0,0,0,0c0,0,0,0,0,0c0,0,0,0,0,0
				c0,0,0,0,0,0c0,0,0,0,0,0c0,0,0,0,0,0c0,0,0,0,0,0c0,0,0,0,0,0c0,0,0,0,0,0c0,0,0,0,0,0c0,0,0,0,0,0c0,0,0,0,0,0c0,0,0,0,0,0
				c0,0,0,0,0,0c0,0,0,0,0,0c0,0,0,0,0,0c0,0,0,0,0,0c0,0,0,0,0,0c0,0,0,0,0,0c0,0,0,0,0,0c0,0,0,0,0,0c0,0,0,0,0,0c0,0,0,0,0,0
				c0,0,0,0,0,0c0,0,0,0,0,0c0,0,0,0,0,0c0,0,0,0,0,0c0,0,0,0,0,0c0,0,0,0,0,0c0,0,0,0,0,0c0,0,0,0,0,0c0,0,0,0,0,0c0,0,0,0,0,0
				c0,0,0,0,0,0c0,0,0,0,0,0c0,0,0,0,0,0c0,0,0,0,0,0c0,0,0,0,0,0c0,0,0,0,0,0c0,0,0,0,0,0c0,0,0,0,0,0c0,0,0,0,0,0c0,0,0,0,0,0
				c0,0,0,0,0,0c0,0,0,0,0,0c0,0,0,0,0,0c0,0,0,0,0,0c0,0,0,0,0,0c0,0,0,0,0,0c0,0,0,0,0,0c0,0,0,0,0,0c0,0,0,0,0,0c0,0,0,0,0,0
				c0,0,0,0,0,0c0,0,0,0,0,0c0,0,0,0,0,0c0,0,0,0,0,0c0,0,0,0,0,0c0,0,0,0,0,0c0,0,0,0,0,0c0,0,0,0,0,0c0,0,0,0,0,0c0,0,0,0,0,0
				c0,0,0,0,0,0c0,0,0,0,0,0c0,0,0,0,0,0c0,0,0,0,0,0c0,0,0,0,0,0c0,0,0,0,0,0c0,0,0,0,0,0c0,0,0,0,0,0c0,0,0,0,0,0c0,0,0,0,0,0
				c0,0,0,0,0,0c0,0,0,0,0,0c0,0,0,0,0,0c0,0,0,0,0,0c0,0,0,0,0,0c0,0,0,0,0,0c0,0,0,0,0,0c0,0,0,0,0,0c0,0,0,0,0,0c0,0,0,0,0,0
				c0,0,0,0,0,0c0,0,0,0,0,0c0,0,0,0,0,0c0,0,0,0,0,0c0,0,0,0,0,0c0,0,0,0,0,0c0,0,0,0,0,0c0,0,0,0,0,0c0,0,0,0,0,0c0,0,0,0,0,0
				c0,0,0,0,0,0c0,0,0,0,0,0c0,0,0,0,0,0c0,0,0,0,0,0c0,0,0,0,0,0c0,0,0,0,0,0c0,0,0,0,0,0c0,0,0,0,0,0c0,0,0,0,0,0c0,0,0,0,0,0
				c0,0,0,0,0,0c0,0,0,0,0,0c0,0,0,0,0,0c0,0,0,0,0,0c0,0,0,0,0,0c0,0,0,0,0,0c0,0,0,0,0,0c0,0,0,0,0,0c0,0,0,0,0,0c0,0,0,0,0,0
				c0,0,0,0,0,0c0,0,0,0,0,0c0,0,0,0,0,0c0,0,0,0,0,0c0,0,0,0,0,0c0,0,0,0,0,0c0,0,0,0,0,0c0,0,0,0,0,0c0,0,0,0,0,0c0,0,0,0,0,0
				c0,0,0,0,0,0c0,0,0,0,0,0c0,0,0,0,0,0c0,0,0,0,0,0c0,0,0,0,0,0c0,0,0,0,0,0c0,0,0,0,0,0c0,0,0,0,0,0c0,0,0,0,0,0c0,0,0,0,0,0
				c0,0,0,0,0,0c0,0,0,0,0,0c0,0,0,0,0,0c0,0,0,0,0,0c0,0,0,0,0,0c0,0,0,0,0,0c0,0,0,0,0,0c0,0,0,0,0,0c0,0,0,0,0,0c0,0,0,0,0,0
				c0,0,0,0,0,0c0,0,0,0,0,0c0,0,0,0,0,0c0,0,0,0,0,0c0,0,0,0,0,0c0,0,0,0,0,0c0,0,0,0,0,0c0,0,0,0,0,0c0,0,0,0,0,0c0,0,0,0,0,0
				c0,0,0,0,0,0c0,0,0,0,0,0c0,0,0,0,0,0c0,0,0,0,0,0c0,0,0,0,0,0c0,0,0,0,0,0c0,0,0,0,0,0c0,0,0,0,0,0c0,0,0,0,0,0c0,0,0,0,0,0
				c0,0,0,0,0,0c0,0,0,0,0,0c0,0,0,0,0,0c0,0,0,0,0,0c0,0,0,0,0,0c0,0,0,0,0,0c0,0,0,0,0,0c0,0,0,0,0,0c0,0,0,0,0,0c0,0,0,0,0,0
				c0,0,0,0,0,0c0,0,0,0,0,0c0,0,0,0,0,0c0,0,0,0,0,0c0,0,0,0,0,0c0,0,0,0,0,0c0,0,0,0,0,0c0,0,0,0,0,0c0,0,0,0,0,0c0,0,0,0,0,0
				c0,0,0,0,0,0c0,0,0,0,0,0c0,0,0,0,0,0c0,0,0,0,0,0c0,0,0,0,0,0c0,0,0,0,0,0c0,0,0,0,0,0c0,0,0,0,0,0c0,0,0,0,0,0c0,0,0,0,0,0
				c0,0,0,0,0,0c0,0,0,0,0,0c0,0,0,0,0,0c0,0,0,0,0,0c0,0,0,0,0,0c0,0,0,0,0,0c0,0,0,0,0,0c0,0,0,0,0,0c0,0,0,0,0,0c0,0,0,0,0,0
				c0,0,0,0,0,0c0,0,0,0,0,0c0,0,0,0,0,0c0,0,0,0,0,0c0,0,0,0,0,0c0,0,0,0,0,0c0,0,0,0,0,0c0,0,0,0,0,0c0,0,0,0,0,0c0,0,0,0,0,0
				c0,0,0,0,0,0c0,0,0,0,0,0c0,0,0,0,0,0c0,0,0,0,0,0c0,0,0,0,0,0c0,0,0,0,0,0c0,0,0,0,0,0c0,0,0,0,0,0c0,0,0,0,0,0c0,0,0,0,0,0
				c0,0,0,0,0,0c0,0,0,0,0,0c0,0,0,0,0,0c0,0,0,0,0,0c0,0,0,0,0,0c0,0,0,0,0,0c0,0,0,0,0,0c0,0,0,0,0,0c0,0,0,0,0,0c0,0,0,0,0,0
				c0,0,0,0,0,0c0,0,0,0,0,0c0,0,0,0,0,0c0,0,0,0,0,0c0,0,0,0,0,0c0,0,0,0,0,0c0,0,0,0,0,0c0,0,0,0,0,0c0,0,0,0,0,0c0,0,0,0,0,0
				c0,0,0,0,0,0c0,0,0,0,0,0c0,0,0,0,0,0c0,0,0,0,0,0c0,0,0,0,0,0c0,0,0,0,0,0c0,0,0,0,0,0c0,0,0,0,0,0c0,0,0,0,0,0c0,0,0,0,0,0
				c0,0,0,0,0,0c0,0,0,0,0,0c0,0,0,0,0,0c0,0,0,0,0,0c0,0,0,0,0,0c0,0,0,0,0,0c0,0,0,0,0,0c0,0,0,0,0,0c0,0,0,0,0,0c0,0,0,0,0,0
				c0,0,0,0,0,0c0,0,0,0,0,0c0,0,0,0,0,0c0,0,0,0,0,0c0,0,0,0,0,0c0,0,0,0,0,0c0,0,0,0,0,0c0,0,0,0,0,0c0,0,0,0,0,0c0,0,0,0,0,0
				c0,0,0,0,0,0c0,0,0,0,0,0c0,0,0,0,0,0c0,0,0,0,0,0c0,0,0,0,0,0c0,0,0,0,0,0c0,0,0,0,0,0c0,0,0,0,0,0c0,0,0,0,0,0c0,0,0,0,0,0
				c0,0,0,0,0,0c0,0,0,0,0,0c0,0,0,0,0,0c0,0,0,0,0,0c0,0,0,0,0,0c0,0,0,0,0,0c0,0,0,0,0,0c0,0,0,0,0,0c0,0,0,0,0,0c0,0,0,0,0,0
				c0,0,0,0,0,0c0,0,0,0,0,0c0,0,0,0,0,0c0,0,0,0,0,0c0,0,0,0,0,0c0,0,0,0,0,0c0,0,0,0,0,0c0,0,0,0,0,0c0,0,0,0,0,0c0,0,0,0,0,0
				c0,0,0,0,0,0c0,0,0,0,0,0c0,0,0,0,0,0c0,0,0,0,0,0c0,0,0,0,0,0c0,0,0,0,0,0c0,0,0,0,0,0c0,0,0,0,0,0c0,0,0,0,0,0c0,0,0,0,0,0
				c0,0,0,0,0,0c0,0,0,0,0,0c0,0,0,0,0,0c0,0,0,0,0,0c0,0,0,0,0,0c0,0,0,0,0,0c0,0,0,0,0,0c0,0,0,0,0,0c0,0,0,0,0,0c0,0,0,0,0,0
				c0,0,0,0,0,0c0,0,0,0,0,0c0,0,0,0,0,0c0,0,0,0,0,0c0,0,0,0,0,0c8.9-5.2,14.3-14.4,14.3-24.7
				C1681.3,1057.8,1671.4,1040.5,1655.3,1031.2z"/>
			<path class="st8" d="M1643.5,1037.8l-2.5-1.4v11.5c11.6,7.8,18.7,21,18.7,35c0,6.7-3.5,12.8-9.3,16.2c-2.9,1.7-6.1,2.5-9.3,2.5
				v9.9c4.9,0,9.8-1.3,14.3-3.9c8.9-5.2,14.3-14.4,14.3-24.7C1669.5,1064.4,1659.6,1047.1,1643.5,1037.8z"/>
		</g>
	</g>
</g>
<g>
	<polygon class="st8" points="663.9,971 761.6,914.6 830,954.1 732.3,1010.5 	"/>
	<path class="st39" d="M743.7,988.1c0,3.1-4.8,5.6-10.7,5.6c-5.9,0-10.7-2.5-10.7-5.6c0-3.1,4.8-5.6,10.7-5.6
		C738.9,982.5,743.7,985,743.7,988.1z"/>
	<g>
		<defs>
			<polygon id="SVGID_10_" points="712.5,955.3 763.7,925.5 810.2,952.7 759,982.5 			"/>
		</defs>
		<clipPath id="SVGID_11_">
			<use xlink:href="#SVGID_10_"  style="overflow:visible;"/>
		</clipPath>
		<g class="st53">
			
				<rect x="784.1" y="911.6" transform="matrix(0.5047 -0.8633 0.8633 0.5047 -422.2286 1143.4099)" class="st27" width="2.5" height="56.1"/>
		</g>
		<g class="st53">
			
				<rect x="774.6" y="917.1" transform="matrix(0.4961 -0.8683 0.8683 0.4961 -430.105 1150.1328)" class="st27" width="2.5" height="57"/>
		</g>
		<g class="st53">
			
				<rect x="765.2" y="923.1" transform="matrix(0.4861 -0.8739 0.8739 0.4861 -437.2068 1158.564)" class="st27" width="2.5" height="55.9"/>
		</g>
		<g class="st53">
			
				<rect x="754.7" y="928.6" transform="matrix(0.4947 -0.8691 0.8691 0.4947 -449.2165 1140.2566)" class="st27" width="2.5" height="55.7"/>
		</g>
		<g class="st53">
			
				<rect x="745.7" y="934.1" transform="matrix(0.5021 -0.8648 0.8648 0.5021 -460.4499 1125.1178)" class="st27" width="2.5" height="56.6"/>
		</g>
		<g class="st53">
			
				<rect x="736.1" y="940.3" transform="matrix(0.5047 -0.8633 0.8633 0.5047 -470.7654 1116.1605)" class="st27" width="2.5" height="56.1"/>
		</g>
	</g>
</g>
<g>
	<polygon class="st8" points="758.6,908.5 793.1,888.6 823.2,906 792.9,923.5 784.4,923.5 	"/>
	<polygon class="st27" points="788.8,918.6 784.4,923.5 792.9,923.5 	"/>
</g>
<g>
	<polygon class="st39" points="563,1008.8 597.5,988.9 627.7,1006.3 597.4,1023.8 588.9,1023.7 	"/>
	<polygon class="st37" points="593.2,1018.8 588.9,1023.7 597.4,1023.8 	"/>
</g>
<g>
	<polygon class="st54" points="681.6,996.3 647.1,976.4 617,993.8 647.3,1011.3 655.8,1011.2 	"/>
	<polygon class="st55" points="651.5,1006.3 655.8,1011.2 647.3,1011.3 	"/>
</g>
<g>
	<path class="st8" d="M768.4,787.1l-61.3-34.5c-0.8-0.5-1.5-0.5-2.2-0.3c-0.1,0-0.1,0-0.2,0.1c-0.1,0-0.1,0-0.2,0.1
		c-0.1,0-0.1,0-0.2,0.1c-0.1,0-0.1,0-0.2,0.1c-0.1,0-0.1,0-0.2,0.1c-0.1,0-0.1,0-0.2,0.1c-0.1,0-0.1,0-0.2,0.1c-0.1,0-0.1,0-0.2,0.1
		c-0.1,0-0.1,0-0.2,0.1c-0.1,0-0.1,0-0.2,0.1c-0.1,0-0.1,0-0.2,0.1c-0.1,0-0.1,0-0.2,0.1c-0.1,0-0.1,0-0.2,0.1c-0.1,0-0.1,0-0.2,0.1
		c-0.1,0-0.1,0-0.2,0.1c-0.1,0-0.1,0-0.2,0.1c-0.1,0-0.1,0-0.2,0.1c-0.1,0-0.1,0-0.2,0.1c-0.1,0-0.1,0-0.2,0.1c-0.1,0-0.1,0-0.2,0.1
		c-0.1,0-0.1,0-0.2,0.1c-0.1,0-0.1,0-0.2,0.1c-0.1,0-0.1,0-0.2,0.1c-0.1,0-0.1,0-0.2,0.1c-0.1,0-0.1,0-0.2,0.1c-0.1,0-0.1,0-0.2,0.1
		c-0.1,0-0.1,0-0.2,0.1c-0.1,0-0.1,0-0.2,0.1c-0.1,0-0.1,0-0.2,0.1c-0.1,0-0.1,0-0.2,0.1c-1.4,0.4-2.4,2.4-2.4,5.3v55.7
		c0,4.2,2,8.7,4.4,10.1l8.7,5.2v17l0.2-0.2v0.1l0.2-0.2v0.1l0.2-0.2v0.1l0.2-0.2v0.1l0.2-0.2v0.1l0.2-0.2v0.1l0.2-0.2v0.1l0.2-0.2
		v0.1l0.2-0.2v0.1l0.2-0.2v0.1l0.2-0.2v0.1l0.2-0.2v0.1l0.2-0.2v0.1l0.2-0.2v0.1l0.2-0.2v0.1l0.2-0.2v0.1l0.2-0.2v0.1l0.2-0.2v0.1
		l0.2-0.2v0.1l0.2-0.2v0.1l0.2-0.2v0.1l0.2-0.2v0.1l0.2-0.2v0.1l0.2-0.2v0.1l0.2-0.2v0.1l0.2-0.2v0.1l0.2-0.2v0.1l0.2-0.2v0.1
		l0.2-0.2v0.1l0.2-0.2v0.1l0.2-0.2v0.1l7.2-6.5l40.1,21c0.8,0.5,1.5,0.5,2.2,0.3c0.1,0,0.1,0,0.2-0.1c0.1,0,0.1,0,0.2-0.1
		c4.4-1.8,7.1-1.7,7.1-7.4v-55.7C772.8,793.1,770.9,788.6,768.4,787.1z"/>
	<g>
		<path class="st25" d="M763.1,789.4L700.3,755c-2.4-1.4-4.4,0.8-4.4,4.9v55.7c0,4.2,2,8.7,4.4,10.1l8.7,5.2v17l11.4-10.3l42.7,22.5
			c2.4,1.4,4.4-0.8,4.4-4.9v-55.7C767.5,795.4,765.6,790.9,763.1,789.4z"/>
		<g>
			<path class="st27" d="M719.2,802.9c0,2.2-1,3.3-2.3,2.6c-1.3-0.8-2.3-3.1-2.3-5.3c0-2.2,1-3.3,2.3-2.6
				C718.1,798.3,719.2,800.7,719.2,802.9z"/>
			<path class="st27" d="M732.8,811c0,2.2-1,3.3-2.3,2.6c-1.3-0.8-2.3-3.1-2.3-5.3s1-3.3,2.3-2.6C731.7,806.4,732.8,808.8,732.8,811
				z"/>
			<path class="st27" d="M746.4,819c0,2.2-1,3.3-2.3,2.6c-1.3-0.8-2.3-3.1-2.3-5.3s1-3.3,2.3-2.6C745.4,814.5,746.4,816.8,746.4,819
				z"/>
		</g>
	</g>
</g>
</svg>
