<?xml version="1.0" encoding="utf-8"?>
<!-- Generator: Adobe Illustrator 22.0.0, SVG Export Plug-In . SVG Version: 6.00 Build 0)  -->
<svg version="1.1" id="Layer_1" xmlns="http://www.w3.org/2000/svg" xmlns:xlink="http://www.w3.org/1999/xlink" x="0px" y="0px"
	 viewBox="0 0 1366 768" style="enable-background:new 0 0 1366 768;" xml:space="preserve">
<style type="text/css">
	.st0{fill:#90171A;}
	.st1{font-family:'Rockwell-Bold';}
	.st2{font-size:239.9168px;}
	.st3{font-size:104.9636px;}
</style>
<g>
	<g>
		<g>
			<path class="st0" d="M98.5,214.6c0,0,23-21,50.5-3l27,31v49c0,0-44-39-43.5-44C133,243,109,217.6,98.5,214.6z"/>
		</g>
		<path class="st0" d="M33.5,288c0,0,18.5-30.5,52.5,0c0,0,38,47,47.5,47h-57C76.5,335.5,48,291.5,33.5,288z"/>
		<path class="st0" d="M60,248c0,0,33-39,66.5,12.5c0,0,36,45,52,44.5v30.5H154c0,0-49.5-40-51-51C100.5,274,60,248,60,248z"/>
	</g>
	<g>
		<g>
			<path class="st0" d="M368.4,557.4c0,0-23,21-50.5,3l-27-31V480c0,0,44,39,43.5,44C333.9,528.9,357.4,554.4,368.4,557.4z"/>
		</g>
		<path class="st0" d="M433.4,483.5c0,0-18.5,30.5-52.5,0c0,0-38-47-47.5-47h57C390.4,436.5,418.9,480.5,433.4,483.5z"/>
		<path class="st0" d="M406.9,524c0,0-33,39-66.5-12.5c0,0-36-45-52-44.5v-30.5h24.5c0,0,49.5,40,51,51
			C366.4,498,406.9,524,406.9,524z"/>
	</g>
	<g>
		<g>
			<path class="st0" d="M410.4,257.5c0,0,21.5,23,3,50.5l-30.5,27h-49.5c0,0,39-44,43.5-43.5C381.9,292.5,407.4,268.5,410.4,257.5z"
				/>
		</g>
		<path class="st0" d="M335.9,190.6c0,0,30.5,18.5,0,52.5c0,0-47,38.5-47,48v-57C288.9,233.6,332.4,205.6,335.9,190.6z"/>
		<path class="st0" d="M376.4,217.1c0,0,39,33-12.5,66.5c0,0-45,36-44.5,52h-30.5V311c0,0,40-49.5,50.5-51.5
			C349.9,257.5,376.4,217.1,376.4,217.1z"/>
	</g>
	<g>
		<g>
			<path class="st0" d="M57,516.5c0,0-21.5-23-3-50.5l30.5-27H134c0,0-39,44-43.5,43.5C85.5,482,60,506,57,516.5z"/>
		</g>
		<path class="st0" d="M131,581.4c0,0-30.5-18.5,0-52.5c0,0,47-38.5,47-48v57C178,538.4,134.5,566.4,131,581.4z"/>
		<path class="st0" d="M90.5,554.9c0,0-39-33,12.5-66.5c0,0,45-36,44.5-52H178V461c0,0-40,49.5-50.5,51.5
			C116.5,514.5,90.5,554.9,90.5,554.9z"/>
	</g>
	<polygon class="st0" points="190,166.6 277.4,166.6 277.4,342.5 460.4,342.5 460.4,429 277.4,429 279.4,601.4 190,601.4 190,429 
		8.5,428 8.5,343.5 189.5,341.5 	"/>
</g>
<text transform="matrix(1 0 0 1 495.5977 413.1587)" class="st1 st2">Cáritas</text>
<text transform="matrix(1 0 0 1 528.9316 533.1157)" class="st1 st3">Cañete - Yauyos</text>
</svg>
