<?xml version="1.0" encoding="utf-8"?>
<!-- Generator: Adobe Illustrator 22.0.0, SVG Export Plug-In . SVG Version: 6.00 Build 0)  -->
<svg version="1.1" id="Layer_1" xmlns="http://www.w3.org/2000/svg" xmlns:xlink="http://www.w3.org/1999/xlink" x="0px" y="0px"
	 viewBox="0 0 1366 768" style="enable-background:new 0 0 1366 768;" xml:space="preserve">
<style type="text/css">
	.st0{fill:#ED1414;}
	.st1{fill:#020202;stroke:#000000;stroke-width:2;stroke-miterlimit:10;}
</style>
<g id="TEXT">
	<path class="st0" d="M1065,297.9c-23.7-23.7-52.2-35-84.8-35s-60.5,11.3-83.6,35c-23.7,23.7-35,52.2-35,85.4s11.3,61.6,35,84.8
		c23.1,23.7,51,35.6,83.6,35.6s61-11.9,84.8-35.6c23.1-23.1,34.4-51.6,34.4-84.8S1088.1,321.7,1065,297.9L1065,297.9z M1024.7,427.7
		c-11.9,12.4-26.7,19-44.5,19c-17.2,0-32-5.9-43.9-19c-11.9-12.4-19-27.3-19-44.5c0-18.4,6.5-33.2,19-45
		c11.9-12.4,26.7-19,43.9-18.4c17.8-0.6,32.6,5.3,45,18.4c11.3,11.9,17.8,26.7,18.4,45C1043.1,400.5,1037.1,415.3,1024.7,427.7
		L1024.7,427.7z"/>
	<path class="st0" d="M227.5,204.3c-41.5-0.6-75.3,13.6-103.7,43.3c-29,29-43.3,64-43.3,104.9s14.2,76.5,43.3,105.5
		c28.5,28.5,62.8,42.7,103.7,42.7c33.2,0,63.4-10.1,89.5-30.2c26.1-20.7,42.7-46.8,51.6-78.8h-59.3c-7.7,15.4-19,27.9-32.6,37.9
		c-15.4,9.5-31.4,14.2-49.2,14.2c-25.5,0-46.8-9.5-64.6-26.7c-18.4-18.4-26.7-39.7-26.7-64.6c-0.6-25.5,8.3-46.8,26.7-64.6
		c17.8-17.8,39.1-26.7,64.6-26.7c17.8,0,33.8,4.7,49.2,14.8c13.6,9.5,24.9,22.5,32.6,37.9h59.9c-8.9-32-26.1-58.1-51.6-78.8
		C290.9,213.8,260.7,203.7,227.5,204.3L227.5,204.3z"/>
	<path class="st0" d="M590.8,262.4c-38.5-0.6-65.2,10.1-80.6,30.2c-10.1,12.4-14.8,29-16.6,49.8h56.9c1.2-10.1,4.1-16.6,8.3-20.7
		c5.9-7.7,16-11.3,30.2-11.3c11.9-0.6,21.3,1.8,27.9,5.3c6.5,3.6,9.5,10.1,10.1,19c0,7.7-4.1,13.6-13,17.8l-43.9,7.1
		c-20.2,3-36.7,7.7-49.2,14.8c-21.3,12.4-32,33.2-31.4,62.2c-0.6,20.2,5.9,36.7,19,49.2c11.3,10.1,27.3,15.4,46.8,16
		c31.4-0.6,56.3-8.3,73.5-23.7v23.7h56.9V333.5c0-27.3-10.1-46.8-28.5-56.9C637.1,266.5,615.1,261.8,590.8,262.4L590.8,262.4z
		 M614.5,391.6l11.3-5.9v23.1c0,19.6-5.3,33.8-16,41.5c-11.3,7.7-22.5,11.3-35.6,11.3c-8.3,0-14.8-2.4-20.2-6.5
		c-5.3-4.7-8.3-11.9-8.3-22.5c0-11.3,4.1-19.6,13.6-26.1c5.3-3.6,14.8-5.9,26.7-7.7L614.5,391.6L614.5,391.6z"/>
	<polygon class="st0" points="455.1,204.3 398.2,204.3 398.2,501.8 455.1,501.8 	"/>
	<path class="st0" d="M819,270.7c-15.4,5.9-29,16.6-40.9,32.6v-29l-54.5-0.6v228.8h56.9V392.8c0-18.4,2.4-32,7.1-40.3
		c3.6-8.9,11.3-16,19.6-21.9c10.1-6.5,20.2-10.1,31.4-10.1l17.8,1.2l-0.6-58.1l-14.8,1.2L819,270.7L819,270.7z"/>
	<polygon class="st0" points="1109.5,271.9 1247.6,133.8 1211.4,97.6 1073.3,235.1 	"/>
	<polygon class="st0" points="1012.8,216.7 1012.8,68.6 961.9,68.6 961.9,216.7 	"/>
	<polygon class="st0" points="1134.9,328.8 1134.9,379.7 1286.1,379.7 1286.1,328.8 	"/>
</g>
<g>
	<path class="st1" d="M26,643.5v-88.9h25.5c6.5,0,11.3,0.6,14.2,1.8c4.1,1.2,7.7,4.1,11.3,7.7c3,3.6,5.3,8.3,7.1,14.2
		c1.8,5.9,2.4,12.4,2.4,20.2c0,10.1-1.2,18.4-4.1,25.5c-3,7.1-6.5,11.9-11.3,14.8c-4.7,3-10.7,4.1-18.4,4.1L26,643.5L26,643.5z
		 M35.5,632.8h16c6.5,0,11.3-1.2,14.2-3c3-1.8,5.9-5.3,7.7-10.1c2.4-5.9,3.6-13,3.6-21.9c0-8.9-1.2-16-3.6-21.3
		c-2.4-5.3-5.3-8.9-9.5-10.1c-2.4-1.2-6.5-1.8-12.4-1.8H36.1v68.2H35.5z"/>
	<path class="st1" d="M111.3,567v-12.4h8.9V567H111.3z M111.3,643.5v-64.6h8.9v64.6C120.2,643.5,111.3,643.5,111.3,643.5z"/>
	<path class="st1" d="M142.7,623.9l8.9-1.8c0.6,4.7,1.8,7.7,4.1,10.1s5.3,3.6,9.5,3.6c4.1,0,7.1-1.2,8.9-3c2.4-1.8,3-4.1,3-7.1
		c0-2.4-1.2-4.7-3-5.9c-1.2-1.2-4.1-2.4-8.9-3.6c-7.1-2.4-11.9-4.1-14.2-5.3c-2.4-1.2-4.1-3.6-5.3-5.9c-1.2-2.4-1.8-5.3-1.8-8.3
		c0-5.3,1.8-10.1,5.3-13.6c3.6-3.6,8.9-5.9,14.8-5.9c4.1,0,7.1,0.6,10.1,2.4c3,1.2,5.3,3.6,7.1,5.9c1.8,2.4,3,5.9,3.6,10.1l-8.9,1.2
		c-0.6-7.1-4.7-10.7-11.3-10.7c-4.1,0-6.5,0.6-8.9,2.4c-1.8,1.8-3,3.6-3,5.9c0,2.4,1.2,4.1,3,5.3c1.2,0.6,4.1,2.4,9.5,4.1
		c7.7,2.4,12.4,4.1,14.2,5.9c2.4,1.2,4.1,3.6,5.3,5.9c1.2,2.4,1.8,5.3,1.8,8.9c0,5.9-1.8,11.3-5.9,14.8c-4.1,3.6-9.5,5.9-16,5.9
		C152.2,644.7,144.5,637.6,142.7,623.9z"/>
	<path class="st1" d="M229.9,633.4l1.2,9.5c-2.4,0.6-4.7,1.2-6.5,1.2c-3,0-5.9-0.6-7.7-1.8c-1.8-1.2-3-3-4.1-5.3s-1.2-5.9-1.2-12.4
		v-37.3H205v-8.3h6.5v-16l8.9-6.5v22.5h8.9v8.3h-8.9v37.9c0,3.6,0,5.9,0.6,6.5c0.6,1.2,2.4,2.4,4.1,2.4
		C226.9,634,228.1,634,229.9,633.4z"/>
	<path class="st1" d="M250.6,643.5v-64.6h8.3V589c1.8-4.7,4.1-7.7,5.9-8.9c1.8-1.2,3.6-2.4,5.9-2.4c3,0,5.9,1.2,8.9,3.6l-3,10.1
		c-2.4-1.8-4.1-2.4-6.5-2.4c-1.8,0-3.6,0.6-5.3,1.8c-1.8,1.2-3,3-3.6,5.3c-1.2,4.1-1.8,8.9-1.8,13v33.8h-8.9V643.5z"/>
	<path class="st1" d="M296.8,567v-12.4h8.9V567H296.8z M296.8,643.5v-64.6h8.9v64.6C305.7,643.5,296.8,643.5,296.8,643.5z"/>
	<path class="st1" d="M340.1,643.5h-8.3v-88.9h8.9v32c1.8-3,4.1-5.3,6.5-6.5c2.4-1.2,5.3-2.4,8.3-2.4c4.1,0,7.7,1.2,11.3,3.6
		s5.9,5.9,8.3,11.3c2.4,5.3,3,11.3,3,18.4c0,10.7-2.4,19.6-7.1,25.5c-4.7,5.9-10.1,8.9-16,8.9c-3,0-5.9-0.6-8.3-2.4
		c-2.4-1.8-4.7-4.1-6.5-7.1C340.1,635.8,340.1,643.5,340.1,643.5z M340.1,610.3c0,6.5,0.6,11.9,1.8,14.8s3,5.9,5.3,7.7
		c2.4,1.8,4.7,2.4,7.7,2.4c3.6,0,7.1-2.4,10.1-6.5c3-4.1,4.1-10.1,4.1-18.4c0-8.3-1.2-14.8-4.1-18.4c-3-4.1-5.9-5.9-10.1-5.9
		c-3.6,0-7.1,2.4-10.1,6.5C341.3,596.7,340.1,602.6,340.1,610.3z"/>
	<path class="st1" d="M436.1,643.5V634c-1.8,3.6-4.7,6.5-7.1,8.3c-3,1.8-5.9,3-9.5,3c-4.1,0-7.7-1.2-10.7-3.6
		c-3-2.4-4.7-5.3-5.9-8.3c-1.2-3.6-1.8-8.3-1.8-14.2v-39.7h8.9V615c0,6.5,0.6,11.3,1.2,13.6c0.6,2.4,1.8,4.1,3.6,5.3
		c1.8,1.2,4.1,1.8,5.9,1.8c4.1,0,7.7-1.8,10.7-5.3c2.4-3,3.6-8.9,3.6-16.6v-34.4h8.9v64.6h-7.7C436.1,644.1,436.1,643.5,436.1,643.5
		z"/>
	<path class="st1" d="M470.5,567v-12.4h8.9V567H470.5z M470.5,643.5v-64.6h8.9v64.6C479.4,643.5,470.5,643.5,470.5,643.5z"/>
	<path class="st1" d="M539.9,643.5v-8.3c-1.8,3-3.6,5.3-6.5,7.1c-2.4,1.8-5.3,2.4-8.3,2.4c-6.5,0-11.9-3-16-8.9
		c-4.7-5.9-7.1-14.2-7.1-24.9c0-7.1,1.2-13.6,3-18.4c1.8-4.7,4.7-8.9,8.3-11.3c3.6-2.4,7.1-3.6,11.3-3.6c3,0,5.9,0.6,8.3,2.4
		c2.4,1.8,4.7,3.6,6.5,6.5v-32h8.9v88.9H539.9z M511.4,610.9c0,8.3,1.2,14.8,4.1,18.4c3,4.1,6.5,5.9,10.1,5.9s7.1-1.8,10.1-5.9
		s4.1-9.5,4.1-17.8c0-8.9-1.2-15.4-4.1-19.6c-3-4.1-6.5-6.5-10.7-6.5c-3.6,0-7.1,1.8-9.5,5.9C512.6,596.1,511.4,602.6,511.4,610.9z"
		/>
	<path class="st1" d="M571.3,610.9c0-11.3,2.4-19.6,7.1-25.5c4.7-5.9,10.7-8.3,17.8-8.3s13,3,17.8,8.3c4.7,5.9,7.1,13.6,7.1,24.3
		c0,11.9-2.4,20.2-7.1,26.1s-10.7,8.3-17.8,8.3s-13-3-17.8-8.3C573.6,630.5,571.3,622.2,571.3,610.9z M580.8,610.9
		c0,8.3,1.8,14.8,4.7,18.4c3,4.1,6.5,5.9,11.3,5.9c4.1,0,7.7-1.8,10.7-5.9c3-4.1,4.7-10.1,4.7-18.4s-1.8-14.2-4.7-18.4
		c-3-4.1-6.5-5.9-11.3-5.9c-4.1,0-7.7,1.8-10.7,5.9C582.5,596.7,580.8,602.6,580.8,610.9z"/>
	<path class="st1" d="M644.2,643.5v-64.6h8.3V589c1.8-4.7,4.1-7.7,5.9-8.9c1.8-1.2,3.6-2.4,5.9-2.4c3,0,5.9,1.2,8.9,3.6l-3,10.1
		c-2.4-1.8-4.1-2.4-6.5-2.4c-1.8,0-3.6,0.6-5.3,1.8c-1.8,1.2-3,3-3.6,5.3c-1.2,4.1-1.8,8.9-1.8,13v33.8h-8.9V643.5z"/>
	<path class="st1" d="M724.8,635.2c-3,3-5.9,5.3-9.5,7.1c-3,1.8-6.5,2.4-10.1,2.4c-5.3,0-10.1-1.8-13-4.7c-3.6-3.6-4.7-7.7-4.7-13.6
		c0-3.6,0.6-7.1,2.4-10.1c1.8-3,3.6-5.3,6.5-6.5s6.5-3,12.4-3.6c7.1-1.2,12.4-2.4,16-3.6v-3c0-4.1-0.6-7.7-2.4-9.5
		c-2.4-2.4-5.9-4.1-10.1-4.1s-7.1,0.6-9.5,2.4c-1.8,1.8-3.6,4.7-4.7,9.5l-8.9-1.2c1.2-7.1,3.6-11.9,7.7-15.4c3.6-3,9.5-4.7,16.6-4.7
		c5.3,0,10.1,1.2,13,3c3,2.4,5.3,4.7,5.9,7.7c0.6,3,1.2,7.7,1.2,13.6v14.8c0,10.1,0,16.6,0.6,19.6c0.6,2.4,1.2,5.3,2.4,7.7h-9.5
		C726,641.1,725.4,638.2,724.8,635.2z M724.2,610.9c-3.6,1.8-8.3,3-14.8,4.1c-3.6,0.6-6.5,1.2-7.7,2.4c-1.8,0.6-2.4,1.8-3.6,3.6
		c-0.6,1.8-1.2,3.6-1.2,5.3c0,3,1.2,5.3,3,7.1c1.8,1.8,4.7,3,7.7,3s5.9-0.6,8.9-2.4c2.4-1.8,4.7-4.1,5.9-6.5c1.2-3,1.8-6.5,1.8-11.9
		V610.9z"/>
	<path class="st1" d="M796.5,618l8.9-1.2c0,6.5,1.2,11.3,3,14.2s4.1,3.6,7.7,3.6c2.4,0,4.1-0.6,5.9-1.8c1.8-1.2,3-3,3.6-4.7
		c0.6-2.4,1.2-6.5,1.2-11.9V554h9.5v60.5c0,10.7-1.8,18.4-5.3,23.1c-3.6,4.7-8.9,6.5-15.4,6.5s-11.3-1.8-14.2-5.9
		S796.5,627.5,796.5,618z"/>
	<path class="st1" d="M900.2,622.8l9.5,1.2c-1.8,7.1-4.1,11.9-8.3,15.4s-8.9,5.3-14.8,5.3c-7.7,0-13.6-3-18.4-8.3
		c-4.7-5.9-7.1-13.6-7.1-24.9c0-11.3,2.4-19.6,7.1-25.5c4.7-5.9,10.7-8.9,17.8-8.9s12.4,3,17.2,8.9s7.1,14.2,7.1,24.9v3h-39.7
		c0.6,7.1,1.8,12.4,5.3,16.6c3,3.6,6.5,5.3,10.7,5.3C893.1,635.8,897.3,631.6,900.2,622.8z M870.6,605h29.6
		c-0.6-5.3-1.8-9.5-3.6-12.4c-3-4.1-6.5-5.9-11.3-5.9c-4.1,0-7.7,1.8-10.1,4.7C872.4,594.9,871.2,599,870.6,605z"/>
	<path class="st1" d="M967.8,635.2c-3,3-5.9,5.3-9.5,7.1c-3,1.8-6.5,2.4-10.1,2.4c-5.3,0-10.1-1.8-13-4.7c-3.6-3.6-4.7-7.7-4.7-13.6
		c0-3.6,0.6-7.1,2.4-10.1c1.8-3,3.6-5.3,6.5-6.5c3-1.2,6.5-3,12.4-3.6c7.1-1.2,12.4-2.4,16-3.6v-3c0-4.1-0.6-7.7-2.4-9.5
		c-2.4-2.4-5.9-4.1-10.1-4.1s-7.1,0.6-9.5,2.4c-1.8,1.8-3.6,4.7-4.7,9.5l-8.9-1.2c1.2-7.1,3.6-11.9,7.7-15.4c3.6-3,9.5-4.7,16.6-4.7
		c5.3,0,10.1,1.2,13,3c3,2.4,5.3,4.7,5.9,7.7c0.6,3,1.2,7.7,1.2,13.6v14.8c0,10.1,0,16.6,0.6,19.6c0.6,2.4,1.2,5.3,2.4,7.7h-9.5
		C968.4,641.1,967.8,638.2,967.8,635.2z M967.2,610.9c-3.6,1.8-8.3,3-14.8,4.1c-3.6,0.6-6.5,1.2-7.7,2.4c-1.8,0.6-2.4,1.8-3.6,3.6
		c-0.6,1.8-1.2,3.6-1.2,5.3c0,3,1.2,5.3,3,7.1c1.8,1.8,4.7,3,7.7,3c3,0,5.9-0.6,8.9-2.4c2.4-1.8,4.7-4.1,5.9-6.5
		c1.2-3,1.8-6.5,1.8-11.9V610.9z"/>
	<path class="st1" d="M1002.2,643.5v-64.6h8.3v8.9c1.8-3.6,4.1-5.9,7.1-7.7c3-1.8,5.9-2.4,9.5-2.4c3,0,5.3,0.6,7.7,1.8
		c2.4,1.2,4.1,2.4,5.9,4.1c1.2,1.8,2.4,4.1,3.6,7.1c0.6,3,1.2,7.1,1.2,13v39.7h-8.9v-39.1c0-4.7-0.6-8.3-1.2-10.7
		c-0.6-2.4-1.8-4.1-3.6-5.3c-1.8-1.2-3.6-1.8-5.9-1.8c-4.1,0-7.7,1.8-10.1,4.7c-2.4,3-3.6,8.9-3.6,16.6v35.6
		C1012.3,643.5,1002.2,643.5,1002.2,643.5z"/>
	<path class="st1" d="M1113.6,643.5v-88.9h27.3c6.5,0,11.3,0.6,14.2,1.8c4.1,1.8,7.7,4.1,10.1,8.3c2.4,4.1,3.6,9.5,3.6,15.4
		c0,8.3-1.8,14.8-5.9,19.6c-4.1,4.7-11.3,7.7-21.3,7.7h-19v36.2C1122.5,643.5,1113.6,643.5,1113.6,643.5z M1123.1,596.7h19
		c5.9,0,10.1-1.2,13-4.1c3-3,4.1-6.5,4.1-12.4c0-3.6-0.6-6.5-1.8-8.9c-1.2-2.4-3-4.1-4.7-5.3c-1.8-1.2-5.3-1.2-10.7-1.2h-19
		L1123.1,596.7L1123.1,596.7z"/>
	<path class="st1" d="M1227.4,635.2c-3,3-5.9,5.3-9.5,7.1c-3,1.8-6.5,2.4-10.1,2.4c-5.3,0-10.1-1.8-13-4.7
		c-3.6-3.6-4.7-7.7-4.7-13.6c0-3.6,0.6-7.1,2.4-10.1c1.8-3,3.6-5.3,6.5-6.5s6.5-3,12.4-3.6c7.1-1.2,12.4-2.4,16-3.6v-3
		c0-4.1-0.6-7.7-2.4-9.5c-2.4-2.4-5.9-4.1-10.1-4.1c-4.1,0-7.1,0.6-9.5,2.4c-1.8,1.8-3.6,4.7-4.7,9.5l-8.9-1.2
		c1.2-7.1,3.6-11.9,7.7-15.4c3.6-3,9.5-4.7,16.6-4.7c5.3,0,10.1,1.2,13,3c3,2.4,5.3,4.7,5.9,7.7s1.2,7.7,1.2,13.6v14.8
		c0,10.1,0,16.6,0.6,19.6c0.6,2.4,1.2,5.3,2.4,7.7h-9.5C1228.6,641.1,1228,638.2,1227.4,635.2z M1226.8,610.9
		c-3.6,1.8-8.3,3-14.8,4.1c-3.6,0.6-6.5,1.2-7.7,2.4c-1.8,0.6-2.4,1.8-3.6,3.6c-0.6,1.8-1.2,3.6-1.2,5.3c0,3,1.2,5.3,3,7.1
		c1.8,1.8,4.7,3,7.7,3c3,0,5.9-0.6,8.9-2.4c2.4-1.8,4.7-4.1,5.9-6.5c1.2-3,1.8-6.5,1.8-11.9V610.9z"/>
	<path class="st1" d="M1296.8,643.5V634c-1.8,3.6-4.7,6.5-7.1,8.3c-3,1.8-5.9,3-9.5,3c-4.1,0-7.7-1.2-10.7-3.6s-4.7-5.3-5.9-8.3
		c-1.2-3.6-1.8-8.3-1.8-14.2v-39.7h8.9V615c0,6.5,0.6,11.3,1.2,13.6c0.6,2.4,1.8,4.1,3.6,5.3s4.1,1.8,5.9,1.8
		c4.1,0,7.7-1.8,10.7-5.3c2.4-3,3.6-8.9,3.6-16.6v-34.4h8.9v64.6h-7.7L1296.8,643.5L1296.8,643.5z"/>
	<path class="st1" d="M1331.1,643.5v-88.9h8.9v88.9H1331.1z"/>
</g>
</svg>
