<?xml version="1.0" encoding="utf-8"?>
<!-- Generator: Adobe Illustrator 22.0.0, SVG Export Plug-In . SVG Version: 6.00 Build 0)  -->
<svg version="1.1" id="Layer_1" xmlns="http://www.w3.org/2000/svg" xmlns:xlink="http://www.w3.org/1999/xlink" x="0px" y="0px"
	 viewBox="0 0 1366 768" style="enable-background:new 0 0 1366 768;" xml:space="preserve">
<style type="text/css">
	.st0{fill:#FFCC29;}
	.st1{fill:#3E4095;}
	.st2{fill:#0098DA;}
	.st3{fill:#A43692;}
	.st4{fill:#00A859;}
	.st5{fill:#A35E4D;}
	.st6{fill:#F58634;}
	.st7{fill:#71577F;}
	.st8{fill:#FEFEFE;}
	.st9{fill:#A8CF45;}
	.st10{font-family:'Haettenschweiler';}
	.st11{font-size:118.0918px;}
</style>
<polygon class="st0" points="51.7,244.8 51.7,279.2 125.5,279.2 125.5,316.1 51.7,316.1 51.7,350 105.8,350 105.8,316.1 
	145.7,316.1 145.7,350 162.4,350 162.4,244.8 "/>
<polygon class="st1" points="273.1,244.8 162.4,244.8 162.4,350 179.6,350 179.6,316.1 219.5,316.1 219.5,350 273.1,350 
	273.1,316.1 199.3,316.1 199.3,279.2 273.1,279.2 "/>
<polygon class="st2" points="273.1,279.2 310,279.2 310,387 219.5,386.5 219.5,350 273.1,350 273.1,316.1 199.3,316.1 199.3,279.2 
	"/>
<polygon class="st3" points="125.5,279.2 14.8,279.2 14.8,384 105.8,384 105.8,350 51.7,350 51.7,316.1 125.5,316.1 "/>
<polygon class="st4" points="125.5,454.9 51.7,454.9 51.7,420.9 105.8,420.9 105.8,384 14.8,384 14.8,488.8 125.5,488.8 "/>
<polygon class="st5" points="162.4,423.9 162.4,523.2 50.7,523.2 50.7,488.8 125.5,488.8 125.5,454.9 51.7,454.9 51.7,420.9 
	162.4,420.9 "/>
<polygon class="st6" points="162.4,420.9 273.1,420.9 273.1,454.9 199.3,454.9 199.3,488.8 273.1,488.8 273.1,523.2 162.4,523.2 "/>
<polygon class="st7" points="310,387 310,488.8 199.3,488.8 199.3,454.9 273.1,454.9 273.1,420.9 219.5,420.9 219.5,386.5 "/>
<rect x="145.7" y="350" class="st8" width="34" height="31"/>
<polygon class="st9" points="105.8,316.1 105.8,420.9 219.5,420.9 219.5,316.1 179.6,316.1 179.6,381 145.7,381 145.7,316.1 "/>
<g>
	<text transform="matrix(1 0 0 1 353.7353 340.8524)" class="st10 st11">GOBIERNO REGIONAL DE LIMA</text>
	<rect x="352.8" y="358.9" width="998.4" height="19.7"/>
	<text transform="matrix(1 0 0 1 400.124 488.4681)" class="st10 st11">Agencia Agraria - Cañete</text>
</g>
</svg>
