<?xml version="1.0" encoding="utf-8"?>
<!-- Generator: Adobe Illustrator 22.0.0, SVG Export Plug-In . SVG Version: 6.00 Build 0)  -->
<svg version="1.1" id="Layer_1" xmlns="http://www.w3.org/2000/svg" xmlns:xlink="http://www.w3.org/1999/xlink" x="0px" y="0px"
	 viewBox="0 0 1366 768" style="enable-background:new 0 0 1366 768;" xml:space="preserve">
<style type="text/css">
	.st0{fill:#0056A2;}
</style>
<g>
	<path class="st0" d="M944.7,347.9c-0.5-3.1-0.5-6.1-0.5-9.2c-1.5,4.6-3.1,9.2-4.6,12.7c-1.5,3.6-2.5,6.1-3.1,8.1l-18.3,40.2h36.6
		l-8.1-40.7C945.7,355,944.7,350.9,944.7,347.9z"/>
	<path class="st0" d="M1278.4,236.5H754.5c-33.6,0-61,27.5-61,61v172.9c0,33.6,27.5,61,61,61h523.9c33.6,0,61-27.5,61-61V297.5
		C1339.4,264,1311.9,236.5,1278.4,236.5z M775.3,471.5h-46.8L756,297h100.7l-6.1,40.2h-54.4l-4.6,28.5h50.9l-6.1,37.6H786
		L775.3,471.5z M968.1,471.5l-7.1-33.1h-61l-16.8,33.1h-50.9L919.8,297h58.5l37.1,174.5H968.1z M1107.5,362.1c4.1,2,7.6,4.1,9.7,5.1
		c12.2,6.6,20.9,13.7,25.4,20.9c4.6,7.1,7.1,15.8,7.1,26.4c0,18.8-6.6,33.6-19.3,44.8s-30.5,16.8-52.9,16.8
		c-11.7,0-22.4-2.5-32.6-7.6c-10.2-5.1-19.3-12.2-27.5-21.9l24.4-35.1c7.1,7.6,14.2,13.7,20.9,17.3c6.6,3.6,13.7,5.6,20.3,5.6
		c6.1,0,10.7-1.5,14.2-4.1c3.6-2.5,5.1-6.6,5.1-11.2c0-6.6-7.1-13.2-21.4-20.9c-1.5-0.5-2.5-1.5-3.1-1.5
		c-13.7-7.1-23.4-14.2-28.5-20.9c-5.1-6.6-7.6-14.8-7.6-23.9c0-17.3,5.6-31.5,17.3-42.2c11.7-10.7,26.4-16.3,44.8-16.3
		c9.7,0,18.8,1.5,28,5.1c9.2,3.6,17.3,8.6,25.4,15.3l-19.8,34.6c-6.1-5.6-12.2-9.7-17.3-12.2c-5.1-2.5-10.2-4.1-14.2-4.1
		c-4.6,0-8.6,1.5-11.7,4.1c-3.1,2.5-4.6,6.1-4.6,10.2S1095.8,356,1107.5,362.1z M1297.2,337.2H1260L1238.7,471h-46.8l21.4-133.8
		h-39.2l6.6-40.7h123.1L1297.2,337.2z"/>
</g>
<g>
	<path class="st0" d="M46.4,427.7c4.1,7.1,9.2,12.2,14.2,15.8s11.7,5.1,19.3,5.1s13.7-2,18.3-6.1c4.6-4.1,6.6-10.2,6.6-17.3
		c0-4.6-1.5-9.2-4.1-12.7c-2.5-3.6-6.6-7.1-11.7-9.7c-1.5-0.5-3.1-1.5-5.6-3.1c-14.2-7.6-23.9-14.2-29-19.8
		c-3.6-4.1-6.1-8.6-8.1-13.7c-2-5.1-3.1-10.7-3.1-16.8c0-15.3,5.6-27.5,16.3-37.6c10.7-10.2,24.4-15.3,40.7-15.3
		c10.2,0,18.8,2,26.4,5.6s14.2,9.2,19.8,16.8l-18.8,24.4c-3.1-5.6-7.1-10.2-11.7-13.2c-4.6-3.1-9.7-4.1-15.8-4.1
		c-6.6,0-12.2,2-16.8,5.6s-6.6,8.6-6.6,14.8c0,7.6,7.1,15.8,21.9,23.9c2.5,1.5,5.1,3.1,6.1,3.6c13.2,7.6,21.9,15.3,27,22.9
		c4.6,7.6,7.1,16.8,7.1,28.5c0,16.3-5.6,29.5-16.3,39.7C112.1,475,97.3,480.1,79,480.1c-11.2,0-20.9-2-29.5-6.6
		c-8.6-4.6-16.3-11.2-22.9-19.8L46.4,427.7z"/>
	<path class="st0" d="M161.9,474.5l22.9-174.5h103.8l-4.1,30.5h-67.6l-5.1,39.2h67.6l-4.1,30h-67.6l-5.6,43.7h67.6l-4.1,30.5
		L161.9,474.5L161.9,474.5z"/>
	<path class="st0" d="M338.9,474.5h-36.6l22.9-174.5h36.1c15.3,0,25.9,1,33.1,2.5c7.1,1.5,12.7,4.1,17.8,8.1
		c5.6,4.1,10.2,9.2,12.7,15.3s4.6,12.7,4.6,19.8c0,13.2-3.6,24.4-11.2,33.1s-18.3,14.8-32.6,17.8l39.7,78.3h-40.2l-36.1-80.4
		L338.9,474.5z M352.1,375.4h5.6c13.7,0,23.4-2,28-5.6c4.6-3.6,7.6-10.2,7.6-19.3c0-7.6-2-13.2-6.1-16.8c-4.1-3.6-12.7-5.1-24.9-5.1
		h-4.1L352.1,375.4z"/>
	<path class="st0" d="M440.6,300.1h38.1l25.9,104.8c0,0,0,0.5,0,1c3.1,11.7,4.6,21.4,5.6,29.5c2-9.2,6.6-19.8,12.7-32.6
		c0.5-1,1-1.5,1-2l50.4-100.2h39.7L522,475h-35.6L440.6,300.1z"/>
	<path class="st0" d="M608,474.5l22.9-174.5h36.6l-22.9,174.5H608z"/>
</g>
</svg>
